<svg xmlns="http://www.w3.org/2000/svg" viewBox="0 0 1087.05 1072.49"><defs><style>.cls-1{fill:#eef3fa;opacity:0.49;}.cls-2{fill:#fff;}.cls-3{fill:#e7eaf5;}.cls-4{fill:#c6d1e7;}.cls-5{opacity:0.18;}.cls-6{fill:#323879;}.cls-18,.cls-7{fill:#8b9bc3;}.cls-8{fill:#5b8b77;}.cls-9{fill:#78b066;}.cls-10{fill:#94c384;}.cls-11{fill:#364d4d;}.cls-12{opacity:0.59;}.cls-13{fill:#1f253f;}.cls-14{fill:#e19b84;}.cls-15{fill:#a94151;}.cls-16{fill:#e7ac65;}.cls-17{fill:#d78058;}.cls-18{opacity:0.57;}.cls-19{fill:#fbf0cd;}</style></defs><g id="OBJECTS"><path class="cls-1" d="M266,942.89H96a28.46,28.46,0,0,1-28.46-28.46V834.89A28.46,28.46,0,0,1,96,806.43h35.59A28.47,28.47,0,0,0,160,778V596.58a28.47,28.47,0,0,0-28.47-28.46h0a28.46,28.46,0,0,1-28.46-28.46V477.58a28.46,28.46,0,0,1,28.46-28.46h41.93a28.46,28.46,0,0,0,28.46-28.46V350.1a28.46,28.46,0,0,0-28.46-28.46H149.84a28.46,28.46,0,0,1-28.46-28.46V230.35a28.47,28.47,0,0,1,28.46-28.47h62.47a28.46,28.46,0,0,0,28.46-28.46V132.58a28.46,28.46,0,0,1,28.46-28.46H841a28.46,28.46,0,0,1,28.46,28.46v96.11a28.47,28.47,0,0,0,28.46,28.47h58.66A28.46,28.46,0,0,1,985,285.62v84a28.46,28.46,0,0,1-28.46,28.46h-3.89a28.47,28.47,0,0,0-28.46,28.47V539.66a28.46,28.46,0,0,0,28.46,28.46H991.1a28.47,28.47,0,0,1,28.47,28.46V720.29a28.47,28.47,0,0,1-28.47,28.46H959.73a28.46,28.46,0,0,0-28.46,28.46v38.56a28.46,28.46,0,0,0,28.46,28.46H991.1a28.47,28.47,0,0,1,28.47,28.47v41.83A28.47,28.47,0,0,1,991.1,943Z"/><path class="cls-2" d="M804.94,289.67V904.11h-474V289.67c0-127.8,103.61-231.41,231.41-231.41h11.18C701.33,58.26,804.94,161.87,804.94,289.67Z"/><rect class="cls-3" x="594.27" y="285.22" width="173.4" height="231.37" rx="8"/><rect class="cls-2" x="602.95" y="296.8" width="156.04" height="208.2" rx="8"/><rect class="cls-3" x="646.84" y="352.68" width="68.27" height="96.45" rx="8"/><rect class="cls-3" x="453.09" y="77.95" width="11.05" height="144.24" transform="translate(75.6 443.58) rotate(-55.58)"/><rect class="cls-3" x="598.64" y="144.54" width="144.24" height="11.05" transform="translate(32.59 405.37) rotate(-34.42)"/><rect class="cls-3" x="558.84" y="45.05" width="11.05" height="118.15"/><path class="cls-3" d="M628.33,212.25H612.08a47.78,47.78,0,0,0-95.42,0H500.41a64,64,0,0,1,127.92,0Z"/><rect class="cls-3" x="335.56" y="212.25" width="464.29" height="19.35"/><path class="cls-4" d="M427.89,231.59s4.44,160.1-27.38,235.81-36.37,86.09-28.1,94.8,54.81,346,54.81,346H330.94V231.59Z"/><g class="cls-5"><path class="cls-6" d="M342.47,531.82S345,334.42,355.23,325s-11.74,210.35-8.56,210.8,20.61-160.77,32.85-156.62-30.68,148.12-29.68,157.07,2,15.64,13.05-9.89S404,374.76,404.56,346.59s-3.33-45.21,0-45.68,5.3-1.84,6.84,20.73-13.19,91.43-20.79,120-28.85,98.25-28.48,102.67,20.69,125.1,24.35,146.29S407.37,840.29,403,842.82s-9.76-1-10.61-13.36S380.88,666,377,650.29s-13.6-81.61-18.76-83.07-5.62,6.49-6.55,11.44,25.83,256.1,20.06,257.25-7.15,18.85-8.28-1.15-17.84-270.69-19.41-267.54.65,121.9,0,124.71S337.08,558.75,342.47,531.82Z"/></g><path class="cls-3" d="M330.94,540.43h40.58a8,8,0,0,1,8,8v4.51a8,8,0,0,1-8,8H330.94a0,0,0,0,1,0,0V540.43A0,0,0,0,1,330.94,540.43Z"/><path class="cls-4" d="M708,231.59s-4.44,160.1,27.38,235.81,36.37,86.09,28.1,94.8-54.81,346-54.81,346h96.28V231.59Z"/><g class="cls-5"><path class="cls-6" d="M793.38,531.82S790.89,334.42,780.62,325s11.74,210.35,8.56,210.8-20.61-160.77-32.85-156.62S787,527.34,786,536.29s-2,15.64-13-9.89-41.11-151.64-41.67-179.81,3.33-45.21,0-45.68-5.3-1.84-6.84,20.73,13.19,91.43,20.79,120,28.85,98.25,28.48,102.67S753,669.4,749.36,690.59s-20.88,149.7-16.53,152.23,9.76-1,10.61-13.36S755,666,758.86,650.29s13.6-81.61,18.76-83.07,5.62,6.49,6.54,11.44-25.82,256.1-20,257.25,7.15,18.85,8.28-1.15,17.84-270.69,19.41-267.54-.65,121.9,0,124.71S798.77,558.75,793.38,531.82Z"/></g><path class="cls-3" d="M756.33,540.43h40.58a8,8,0,0,1,8,8v4.51a8,8,0,0,1-8,8H756.33a0,0,0,0,1,0,0V540.43A0,0,0,0,1,756.33,540.43Z" transform="translate(1561.24 1101.37) rotate(180)"/><path class="cls-3" d="M805.35,193.61a263.35,263.35,0,0,0-55.21-83.83,256.55,256.55,0,0,0-81.9-56.52,253,253,0,0,0-200.6,0,256.55,256.55,0,0,0-81.9,56.52,263.35,263.35,0,0,0-55.21,83.83,267.5,267.5,0,0,0-20.26,102.67v629H825.61v-629A267.5,267.5,0,0,0,805.35,193.61Zm-.41,710.5h-474V289.67c0-127.8,103.61-231.41,231.41-231.41h11.18c127.8,0,231.41,103.61,231.41,231.41Z"/><polygon class="cls-4" points="338.06 231.59 338.06 914.37 253.5 914.37 253.5 221.92 338.06 231.59"/><rect class="cls-3" x="242.92" y="221.92" width="11.29" height="692.45"/><path class="cls-2" d="M270.5,238.18V505.89a2.33,2.33,0,0,0,2.35,2l52.5,5.27c1.63.17,3.07-.79,3.07-2V245a2.31,2.31,0,0,0-2.25-2l-52.5-6.81C272,235.94,270.5,236.9,270.5,238.18Z"/><path class="cls-2" d="M270.5,534.05V801.77a2.35,2.35,0,0,0,2.35,2l52.5,5.27c1.63.16,3.07-.8,3.07-2V540.86a2.31,2.31,0,0,0-2.25-2L273.67,532C272,531.82,270.5,532.78,270.5,534.05Z"/><polygon class="cls-4" points="797.98 231.59 797.98 914.37 882.53 914.37 882.53 221.92 797.98 231.59"/><rect class="cls-3" x="881.83" y="221.92" width="11.29" height="692.45" transform="translate(1774.94 1136.29) rotate(180)"/><path class="cls-2" d="M865.54,238.19V508.35a2.35,2.35,0,0,1-2.36,2l-52.49,5.32c-1.63.17-3.07-.8-3.07-2.05V245.07a2.32,2.32,0,0,1,2.25-2l52.5-6.87C864,235.94,865.54,236.91,865.54,238.19Z"/><path class="cls-2" d="M865.54,536.77V806.93a2.36,2.36,0,0,1-2.36,2.05l-52.49,5.32c-1.63.16-3.07-.8-3.07-2V543.64a2.32,2.32,0,0,1,2.25-2l52.5-6.88C864,534.51,865.54,535.49,865.54,536.77Z"/><polygon class="cls-7" points="940.88 921.13 937.01 929.95 921.78 964.65 194.99 964.65 179.76 929.95 175.89 921.13 940.88 921.13"/><polygon class="cls-6" points="940.88 921.13 937.01 929.95 179.76 929.95 175.89 921.13 940.88 921.13"/><path class="cls-8" d="M269.77,615.13c-10.13,6.07,6.68-14,11.52-35.79s-12.78-25.56-20-13.7-3.11-25.33-14.16-42.09-29.37-9.15-26.65,9.16,8.34,32.12-2,25.33-12.1,5.07-8.59,21.3,25.51,26.95,16.09,30.91-11.85-6.63-14.76,9.51S243.7,679.32,245.34,679c11.24-2.25,31.11-30.9,36.78-50.09S279.91,609.05,269.77,615.13ZM232.1,594.2s-19.9-10.83-17.83-21,15.89-6.51,21.76,3.69S241.29,598.69,232.1,594.2Zm14-37.83c-.51-1.16-9-17.44-4.18-21.24S250,565.06,246.09,556.37Zm6.35,35.06c.48-1.56,8.47-25,16.24-19.34s-6.74,33.34-11.06,31.26S249.51,601.11,252.44,591.43Zm4,61.5c-3.29-2.77-1.73-11.58,1-22.11.1-.38,12.09-15,15-6.74S259.7,655.69,256.42,652.93Z"/><path class="cls-9" d="M244.67,663.12c-13.13,5,8.29-15.72,8.64-24.31s-10.37-5.92-18.08,0,12.49-30.54,5.54-44.61-14.75,6.56-21.66,13.59-15.89-54.7-31.79-49.75-6.21,38.23,0,47.9-2.07,7.95-13.47-.34-15.2,4.83-10.71,21.76,24.53,23.49,29.37,30.87-5.88,4-16-4.61-11.63-3.46,0,20.67S238.41,700,238.41,700C262.88,689.74,257.8,658.11,244.67,663.12Zm-47-78.13s17,15.89,10.78,19.8S187.1,581.55,197.69,585ZM173,619.76c.73-.07,43,5.36,27.24,18.43S165.68,620.45,173,619.76ZM218.64,675c-8.29,4.83-28.08-10.83-14.84-12.9C203.8,662.14,226.93,670.2,218.64,675Zm5.59-55.28s3.4-25.56,7.08-14.73S224.5,634,224.23,619.76Z"/><path class="cls-10" d="M188.71,667.44c-14.17-7.26,0,13.77-6.91,10s-15.89-11.72-43.18-13.79-22.11,2.41-18.66,7.6S93.71,678.47,106.14,689s34.2,4.24,27.29,11-6.21,16.8,15.55,14.38,36.62-9.68,29.36-1.73,25.36,15.68,38.59-6.5C216.93,706.19,202.87,674.69,188.71,667.44Zm-51.82,3.68s21.64.92,19.12,6.68S123.07,674.12,136.89,671.12Zm38.46,25.29c-.92,7-31.78,17.09-28.33,2.58C147,699,176.27,689.44,175.35,696.41Z"/><path class="cls-10" d="M251.41,693.86s-2.42-32.3,4.23-27.12S264,653,270.93,646.25s13.81,1.15,12.43,8.75-14.16,13.24-6.91,21S263,703.71,251.41,693.86Z"/><path class="cls-11" d="M245.72,765.53c-.11-.52-11-51.82-39.68-64.86-28.86-13.11-51.62-12.17-51.85-12.16a.69.69,0,0,1-.06-1.38c.22,0,23.3-1,52.48,12.28,22.34,10.15,34,42.69,38.42,57.89-1.8-19.66-7.43-70.11-19.65-97.53-15.28-34.3-28.7-45.93-28.83-46a.69.69,0,0,1,.89-1.06c.56.47,13.77,11.9,29.21,46.54S247,764.63,247.09,765.34Z"/><path class="cls-11" d="M224.91,747.66a.66.66,0,0,1-.3-.07.7.7,0,0,1-.31-.93c.2-.42,20.66-42.47,24.29-93.32s-11.8-108.52-12-109.09a.69.69,0,1,1,1.34-.36c.15.58,15.65,58.43,12,109.55s-24.23,93.41-24.44,93.83A.68.68,0,0,1,224.91,747.66Z"/><path class="cls-11" d="M241.46,700.73a.68.68,0,0,1-.66-.5.67.67,0,0,1,.47-.85h0c.08,0,8.18-2.5,17.11-15.49s10-24.91,10-25a.69.69,0,0,1,.75-.63.68.68,0,0,1,.63.74c0,.49-1,12.31-10.25,25.71s-17.52,15.93-17.87,16A.63.63,0,0,1,241.46,700.73Z"/><polygon class="cls-7" points="269.24 729.86 269.24 838.91 206.13 838.91 190.89 753 186.79 729.86 269.24 729.86"/><g class="cls-12"><path class="cls-6" d="M269.24,729.86v109H255.39c.87-21.51,1.38-50.88-1.35-65.31-3.39-17.87-42.6-20.47-63.15-20.6l-4.1-23.14Z"/></g><path class="cls-3" d="M184.5,725.84h84.74a0,0,0,0,1,0,0v18.92a0,0,0,0,1,0,0H184.5a6,6,0,0,1-6-6v-6.92A6,6,0,0,1,184.5,725.84Z"/><path class="cls-6" d="M269.24,784.38H190.79a4,4,0,0,1-4-4V779a4,4,0,0,1,4-4h78.45Z"/><path class="cls-9" d="M960.61,570c-2.55-8.92-58.59,19.79-75.33,64.79s-2,70.37-2,70.37c22,3.24,55.46-40.87,67.83-68.39S963.15,579,960.61,570Zm-21,21.6c2.75,14.54-18.27,16.45-18.92,16.56H920C905.42,610.26,936.78,576.64,939.62,591.64Zm-48,57.3s5.7-33.21,14.61-34S890.39,665,891.59,648.94Zm41.48,0c-13.34,25.23-33.47,21.86-17-5.82C917.78,640.28,946.41,623.72,933.07,648.94Zm-1.73-25.74c.26-2,14.8-17.19,15.18-10S930.05,633.54,931.34,623.2Z"/><path class="cls-10" d="M906.2,669.38c-14,34.92,2.89,49.71,2.89,49.71,32.9,16.74,79.53-62.9,83.17-84.5S920.21,634.46,906.2,669.38Zm8.19,4.28c.23-1.39,9.48-36,23.54-23.55S912.21,686.86,914.39,673.66ZM937,700.81c-6.31,7-19.05,5.19-9-4.4C927.92,696.41,943.26,693.82,937,700.81Zm1.22-16c.31-1.25,17.26-21,21.83-9.17S935,697.19,938.17,684.77Zm11-41.13c.91-1.85,19.53-17.36,22.2-8.81S943,656.32,949.2,643.64Z"/><path class="cls-8" d="M890,598.11c-13.1-40.23-36.39-44.37-45.06-45.38s-14.62,25.85-2.25,68.92,33.9,52,33.9,52S903.11,638.34,890,598.11Zm-31.17,34.16s-21.11-41.66-15.77-49.94,11.11-.52,18.11,27.16S864.05,641.08,858.84,632.27Zm9.34-42.44c-1.59-2-10.43-18.77-5.22-21.41s13.38,12.87,14.33,17S876.79,600.44,868.18,589.83Zm9.11,48.89a55.26,55.26,0,0,1-1.71-8.28c0-1.55-7.73-33.88,1.71-33.88S878.53,642.86,877.29,638.72Z"/><path class="cls-11" d="M879.09,736.38H879a.76.76,0,0,1-.63-.87c.1-.82.21-1.93.35-3.29,1.43-14.26,5.24-52.13,24.52-81.9,20.93-32.32,29.28-39.46,29.62-39.75a.72.72,0,0,1,1,.13.82.82,0,0,1-.13,1.09c-.08.07-8.58,7.38-29.32,39.41-19.07,29.45-22.85,67-24.27,81.18-.14,1.38-.25,2.5-.35,3.33A.75.75,0,0,1,879.09,736.38Z"/><path class="cls-11" d="M900.93,756.69h0a.76.76,0,0,1-.7-.81c0-.4.48-10.21,10.59-45.6,10.21-35.74,41.42-51.71,44-52.15a.75.75,0,0,1,.83.65.78.78,0,0,1-.61.89c-2.51.42-32.83,16-42.84,51.07s-10.52,45.11-10.53,45.2A.74.74,0,0,1,900.93,756.69Z"/><path class="cls-11" d="M872.12,747.87l-.21,0a.78.78,0,0,1-.48-1c.1-.35,9.9-35.88,4-76.21s-8.09-51.85-8.11-52a.76.76,0,0,1,.57-.91.72.72,0,0,1,.86.6c0,.11,2.22,11.5,8.12,52,5.92,40.69-4,76.54-4.08,76.9A.72.72,0,0,1,872.12,747.87Z"/><polygon class="cls-7" points="866.42 729.86 866.42 838.91 929.52 838.91 944.77 753 948.87 729.86 866.42 729.86"/><g class="cls-12"><path class="cls-6" d="M866.42,729.86v109h13.85c-.87-21.51-1.38-50.88,1.35-65.31,3.39-17.87,42.6-20.47,63.15-20.6l4.1-23.14Z"/></g><path class="cls-3" d="M872.42,725.84h84.74a0,0,0,0,1,0,0v18.92a0,0,0,0,1,0,0H872.42a6,6,0,0,1-6-6v-6.92A6,6,0,0,1,872.42,725.84Z" transform="translate(1823.59 1470.59) rotate(180)"/><path class="cls-6" d="M866.42,784.38h78.45a4,4,0,0,0,4-4V779a4,4,0,0,0-4-4H866.42Z"/><path class="cls-8" d="M320.52,770s-29.87-19.48-20.88-36.06-12.44-22.8-11.75-36.28,13.7-15.89,7.37-30.05,1.27-46.64,14.39-34.2,16.59,27.64,15.2,42.14,5.42,15.67,7.37,24.76-12.73,18.53-6.33,29.6S336.57,771.47,320.52,770Z"/><path class="cls-9" d="M333.87,757.9s-20.36-11.84-22.61-32.06,15.32-23.21,8.58-36.26-9.5-28.93-1.9-41,8-18.43,4.53-29.25,3.07-28.1,15.17-21.19-.7,39.48,5.52,48.42-2.76,31.38-2.76,44.16S351.52,753.93,333.87,757.9Z"/><path class="cls-8" d="M357.86,768s-11.24-30.4,13.28-38.11,28.68-34,46.3-19.81,36.61,6.54,32.81,26.59-26.48,12-35.69,26.39-24.92,4.19-29.68,1.86S364.62,782,357.86,768Z"/><path class="cls-10" d="M311.06,781.7s-26.62,2.28-34.92-23.8-9.79-62.29,21.77-46.12S329.4,770.69,311.06,781.7Z"/><path class="cls-10" d="M423.4,627.85c-17.52-5.16-29.76,32.43-29.76,32.43s8.94-47.3-2.8-35.56c-6.75,6.75-10.08,24.69-11.69,38.72.38-12.1-.6-25-7-21.1-8.57,5.2-9.92,40.5-10.06,57.67-.31-14.51-2-39.17-10.32-22.79-11.4,22.44-3.2,70.24-3.2,70.24s34.29-8.05,36.28-25.32c1.13-9.74-6.39-11.25-13.16-10.72,11.85-2.87,30.49-8.94,34.66-19.41,4-10.14-9-10.52-18.71-9.53,11.44-2.18,29.47-7.09,31.95-16.65,3.69-14.16-27.14-1.86-27.14-1.86S440.93,633,423.4,627.85Z"/><path class="cls-11" d="M336.48,806.43h0a.7.7,0,0,1-.66-.72c0-.54,2.95-54.06,30.88-105s51-62.31,52-62.76a.68.68,0,0,1,.92.33.7.7,0,0,1-.33.92c-.24.11-23.65,11.62-51.35,62.18S337.2,805.24,337.17,805.78A.68.68,0,0,1,336.48,806.43Z"/><path class="cls-11" d="M343.85,800.29a.69.69,0,0,1-.63-1c.13-.29.37-1.08.67-2.09,8.2-27.5,22.85-44.23,43.54-49.74,33.79-9,38.32-7.9,38.73-7.75a.69.69,0,0,1-.49,1.3c-.14,0-4.8-1-37.88,7.79-20.2,5.37-34.52,21.79-42.57,48.8a22.69,22.69,0,0,1-.74,2.26A.67.67,0,0,1,343.85,800.29Z"/><path class="cls-11" d="M332.22,797.7a.68.68,0,0,1-.55-.28c-.38-.52-9.28-13-17.29-52.8s-7.61-89.47-7.61-90a.71.71,0,0,1,.7-.69h0a.7.7,0,0,1,.69.7c0,.5-.38,50.13,7.58,89.67,7.93,39.39,16.95,52.14,17,52.26a.69.69,0,0,1-.56,1.1Z"/><path class="cls-11" d="M315.06,797.7a.69.69,0,0,1-.67-.53c0-.08-2.1-8.5-4.84-23.45-2.69-14.67-13.95-25-14.06-25.06a.67.67,0,0,1-.05-1,.68.68,0,0,1,1-.06c.12.11,11.73,10.69,14.5,25.85,2.73,14.9,4.8,23.28,4.82,23.36a.69.69,0,0,1-.5.84Z"/><path class="cls-11" d="M347.31,804.43a.7.7,0,0,1-.59-.33c-.28-.45-7.07-11.68-15.18-59S332.9,605.37,333,604.45a.69.69,0,1,1,1.37.14c-.1.92-9.53,93.1-1.47,140.23,8,46.95,14.93,58.44,15,58.55a.67.67,0,0,1-.22,1A.69.69,0,0,1,347.31,804.43Z"/><polygon class="cls-7" points="391.87 813.92 390.72 825.53 384.56 887.7 383.01 903.27 296.18 903.27 288.93 809.09 391.87 813.92"/><g class="cls-12"><path class="cls-6" d="M310,842.13c-7.14,28.09,7.07,48.59,49.41,47.56a218,218,0,0,0,25.15-2L383,903.27H296.18l-7.25-94.18,102.94,4.83-1.15,11.61C362.44,824,315,822.45,310,842.13Z"/></g><rect class="cls-3" x="280.98" y="792.72" width="118.78" height="22.05" rx="3.12"/><path class="cls-2" d="M399.76,795.84v5.83H281v-5.83a3.12,3.12,0,0,1,3.12-3.12H396.64A3.12,3.12,0,0,1,399.76,795.84Z"/><path class="cls-8" d="M754.9,794.69S736,707.61,761.37,648.2s55.07-65.85,61.29-39.48-11.6,48.48-11.6,48.48,19.2-24.59,31.29-11.26-31.29,102.21-31.29,102.21,26.8-19.77,28.87.6-8.61,45.94-8.61,45.94Z"/><path class="cls-9" d="M717.64,787.09s-34.55-128.51-64.95-129.2-4.19,72.89,16.24,99.66S701.87,797,701.87,797Z"/><path class="cls-8" d="M724.93,735.29s-20.74,3.77-43.54-72.93-20.73-125.31,8.29-98.24S730.69,701.47,724.93,735.29Z"/><path class="cls-10" d="M722.72,748.15s-37.19-20.16-50-45.86,9-34.13,27.73-14.89S722.72,748.15,722.72,748.15Z"/><path class="cls-11" d="M789.29,793.36s-5.88-47.62,22.22-75.87,34.66-33,34.66-33S808,719.29,803.55,743.81a75,75,0,0,0,5.06,43.49s-5.2-4.75,0-26.89,21-40.51,21-40.51-22.43,27.86-14.74,47.63,16.44,27.16,16.44,27.16Z"/><path class="cls-9" d="M777.75,748.75s4-54,30.86-80.86,54.14-26.77,51,3.62S777.75,748.75,777.75,748.75Z"/><path class="cls-9" d="M735.74,734.34s-38.6-21.37-22.64-72,2.93-34.8-9.5-86.2S750,511.7,756.43,487.39s53.24-15.39,46.44,20.75-36.38,52.21-26.08,79.1,19.36,38.2,2.49,60.75-17.07,19.38-14,39.41S752.32,741.41,735.74,734.34Z"/><path class="cls-10" d="M771.33,741.7s-23.84-13.84-28.45-46.59,18.17-14.3,22.44-7.71l4.27,6.59s-10.93-23.57-8.22-45.79S775.7,629.67,776.1,636l.4,6.33s-5.91-47.45-2.3-63.27,14-16.6,15.09-4.08.92,14.79.92,14.79,2.51-33.43,5.87-45.5,10.82-2.64,10.82,0v2.64s10.6-27.83,19.12-27.62S825.79,538,821.64,549l-4.14,11.07s11.8-13,12.12,3-26.75,33.39-26.75,33.39,14.63-1.39,12.32,11.17-25.9,37.07-25.9,37.07,14.39-8.17,8.17,17.66-19.71,36.12-19.71,36.12,24.5-15,16.23,7.11A107.22,107.22,0,0,1,771.33,741.7Z"/><path class="cls-11" d="M732.29,793.36a.74.74,0,0,1-.7-.79c0-.19-.12-19.2-10.31-48.74s-39.32-54.76-39.62-55a.86.86,0,0,1-.13-1.1.63.63,0,0,1,1-.16c.3.25,29.76,25.78,40.07,55.69S733,792.38,733,792.57A.74.74,0,0,1,732.29,793.36Z"/><path class="cls-11" d="M720.54,793.36a.7.7,0,0,1-.65-.51A220.1,220.1,0,0,0,709,767.26c-7.24-14.74-27-24-27.22-24a.84.84,0,0,1-.38-1,.67.67,0,0,1,.9-.44c.83.39,20.43,9.51,27.91,24.73a226.83,226.83,0,0,1,10.94,25.81.83.83,0,0,1-.41,1A.52.52,0,0,1,720.54,793.36Z"/><path class="cls-11" d="M765.33,800.21h-.11a.8.8,0,0,1-.58-.9c.05-.38,5-38,20.74-67.27S824.76,687.65,825,687.5a.64.64,0,0,1,.93.31.83.83,0,0,1-.27,1.07c-.23.15-23.52,15-39.11,44S766.06,799.16,766,799.54A.73.73,0,0,1,765.33,800.21Z"/><path class="cls-11" d="M776.1,824.35a.74.74,0,0,1-.68-.68c-.1-.75-9.6-76,.7-144.84s40.46-138.28,40.76-139a.65.65,0,0,1,.93-.35.85.85,0,0,1,.31,1.06c-.31.69-30.38,69.95-40.64,138.53s-.79,143.59-.69,144.34a.8.8,0,0,1-.59.9Z"/><path class="cls-11" d="M755.59,788.7a.68.68,0,0,1-.5-.22c-20.54-21.19-37.73-66.19-48.54-100.22-11.77-37.09-19.13-71.33-18.32-74.33a.72.72,0,0,1,.92-.56.87.87,0,0,1,.49,1c-.5,2.47,6,34.7,18.41,73.58,10.72,33.73,27.77,78.32,48,99.22a.94.94,0,0,1,.06,1.2A.73.73,0,0,1,755.59,788.7Z"/><path class="cls-11" d="M740.79,793.36a.72.72,0,0,1-.68-.65c-.16-1.05-15.92-105.63,0-185.49s35.3-104.11,35.49-104.35a.63.63,0,0,1,1,0,.87.87,0,0,1,0,1.11c-.19.24-19.31,24.24-35.15,103.63s-.15,183.81,0,184.85a.8.8,0,0,1-.56.92Z"/><path class="cls-10" d="M710.25,766.48s1.88-24.65-25.41-37.3-21.76,27.69-6.56,37.3S710.25,766.48,710.25,766.48Z"/><polygon class="cls-7" points="844.99 809.67 842.2 824.89 831.45 883.44 828.04 902.01 685.86 902.01 670.19 809.67 844.99 809.67"/><g class="cls-12"><path class="cls-6" d="M695.54,830.11c-2.55,9.07-5.8,41.09,27.6,33.78,28.65-6.28,89.94,3.76,108.31,19.55L828,902H685.86l-15.67-92.34H845l-2.79,15.22C800.38,824.1,697.56,822.89,695.54,830.11Z"/></g><rect class="cls-3" x="659.26" y="784.32" width="196.56" height="30.55" rx="3.75"/><path class="cls-2" d="M855.82,788.07v6.62H659.26v-6.62a3.75,3.75,0,0,1,3.75-3.75H852.07A3.75,3.75,0,0,1,855.82,788.07Z"/><path class="cls-13" d="M563.72,310.71h0a41.33,41.33,0,0,0-2.2-14.45C554.91,278.88,544.1,278,544.1,278s-25.1-6.47-43.5,2.89-21.46,38.34-20.8,41.69c.54,2.72-2,.85-3.65,1.89.8-4.86-.16-12.57-10.67-19.68a.68.68,0,0,0-1,.18.69.69,0,0,0,.19,1c14.84,10.05,9.65,20.85,8.71,22.53-.23-.27-.54-.63-.92-1a.68.68,0,0,0,.05-.94c-.19-.21-18.59-21-41.6-10.52-4.48,2-7.08,4.6-8,7.85-1.73,6.45,3.84,14.29,9.75,22.59,1.68,2.37,3.38,4.77,4.95,7.17,1.28,11.1,7.79,18.51,9.31,28.22-1.76,6.1-4.73,11.66-9.75,13.25a.69.69,0,0,0,.21,1.35.52.52,0,0,0,.21,0c4.65-1.47,7.68-5.86,9.64-11a27.85,27.85,0,0,1-1,7.9c-4.6,16.94-10.73,18.95-7.67,18.95s10.73,3.57,25.4-7.58,19.71-29.87,20.37-39.45a38,38,0,0,0-.25-7.21c2.88,5.89,5.93,16.77-.68,30.47-10.41,21.59-34.62,30-52.11,27a.68.68,0,0,0-.8.56.69.69,0,0,0,.56.8,43.15,43.15,0,0,0,7.38.61c16.89,0,36.92-9.07,46.22-28.36,8.34-17.31,1.82-30.35-1.2-35-.88-4.45-1.95-7.43-1.31-7.09,1.09.58,4.6,1,4.6,0s8.51,21,18.16,22.26c.9.12,1.75.18,2.58.22-1.75,3.76-4.37,8.08-7.16,8.87a.69.69,0,0,0,.18,1.36.63.63,0,0,0,.19,0c3.61-1,6.57-6.3,8.3-10.18,7.15-.08,11.3-2.91,11.3-2.91s13,2.39,22.67-1.92a1.52,1.52,0,0,0,0,.21c2.59,7.64,5.55,11.67,8.56,11.67h.16c3-.14,5.41-4.06,7.11-11.33,3.28-14,5.46-53.33,5.48-53.72A.69.69,0,0,0,563.72,310.71ZM456.15,321.9c-9.17,3.91-19.17,13.53-18.67,28.86-1.18-1.73-2.4-3.46-3.62-5.17-5.71-8-11.1-15.61-9.53-21.43.76-2.82,3.11-5.1,7.2-7,14.71-6.68,27.49,0,34.44,5.22A11.49,11.49,0,0,0,456.15,321.9Zm101.4,43c-1.51,6.41-3.63,10.16-5.83,10.26h-.1c-2.3,0-4.93-3.9-7.25-10.73a.61.61,0,0,0-.22-.3,16.6,16.6,0,0,0,6.6-5.87c4.17-6.6,8.77-18.7,11.2-31.21C561,339.66,559.46,356.66,557.55,364.85Z"/><path class="cls-14" d="M554.22,341.28c-.52,3.45,1.56,12.6,0,21.59-.89,5.15-4.74,9.57-8,12.76l-.13.12c-.85.73-5.43,4.63-7,4.73l-1.62,12.1a5.29,5.29,0,0,0,3.16,2.29c.82,3,1.73,8-.62,10.49-3.46,3.63-14.51,1.9-25.91,0s-16.58-13.82-13.3-14.68,10.54-16.93,9.15-19,.7-6.74,0-9.16S503.27,361,499,356.13s-3.28-8.81,1.73-14.34,8.46,0,8.46,0c.17,2.42,1.56-6.39,2.25-6.39s2.76,0,11.91-4.66,27-25.39,27-25.39,8.46,12.61,8,19.86S554.74,337.82,554.22,341.28Z"/><path class="cls-2" d="M549.87,326.62c-3.71,0-6.68,4.3-7.28,10.11a7.64,7.64,0,0,0-2.29-.63,3.75,3.75,0,0,0-2.43.67c-.64-6.63-4.29-11.73-8.69-11.73-4.73,0-8.59,5.88-8.79,13.23l-12.1,1.94.22,1.36,11.88-1.91c.27,7.25,4.1,13,8.79,13,4.85,0,8.81-6.2,8.81-13.82,0-.14,0-.27,0-.41a3,3,0,0,1,2.19-1,7.06,7.06,0,0,1,2.34.74c0,.22,0,.43,0,.65,0,6.86,3.24,12.23,7.39,12.23s7.39-5.37,7.39-12.23S554,326.62,549.87,326.62Zm-20.69,24.67c-4.1,0-7.43-5.57-7.43-12.43s3.33-12.44,7.43-12.44,7.42,5.58,7.42,12.44S533.27,351.29,529.18,351.29Zm20.69-1.58c-3.26,0-6-5-6-10.85s2.75-10.86,6-10.86,6,5,6,10.86S553.12,349.71,549.87,349.71Z"/><path class="cls-15" d="M539.54,357.6l0,0a.67.67,0,0,1,.05-.92c1.07-1,2.1-2.19,2.13-2.72s-.78-1.36-1.38-2a9,9,0,0,1-1.77-2.53c-.55-1.48.5-3.36,1.15-4.31a.66.66,0,0,1,1-.15l0,0a.67.67,0,0,1,.13.91c-.63.94-1.27,2.29-1,3.06a8.58,8.58,0,0,0,1.52,2.09c.92,1,1.79,2,1.72,3-.08,1.2-1.67,2.82-2.57,3.65A.68.68,0,0,1,539.54,357.6Z"/><path class="cls-15" d="M539.19,367.76a12.34,12.34,0,0,1-2.74-.33c-4.47-1.06-6.45-3.05-7.22-4.11a.66.66,0,0,1,.27-1l0,0a.69.69,0,0,1,.82.22c.61.84,2.34,2.61,6.4,3.56s6.21-.66,7-1.47a.64.64,0,0,1,.83-.11l0,0a.67.67,0,0,1,.16,1A7.32,7.32,0,0,1,539.19,367.76Z"/><path class="cls-15" d="M513.68,373c.47.12,7.45,5.41,13,6.79a42.87,42.87,0,0,0,12.47.69l-1.62,12.1s-9.79-.69-16-7A31.23,31.23,0,0,1,513.68,373Z"/><path class="cls-16" d="M473.89,329s5.73,17.34,8.32,17.92,4.89,2.73,4.6,0-5.48-24.16-8.24-25.19S473.15,326.87,473.89,329Z"/><path class="cls-7" d="M543.08,395.27S591.19,497.94,596,501.74s33.17-16.13,33.17-16.13l17.63,21.58S598.32,537,591.13,535.8s-30-22.26-30-22.26Z"/><path class="cls-16" d="M753.43,428.28c0,.69-27.17,14-37.07,23.25s-17,21.86-17,21.86,5-41.87,9.65-43.68c0,0,3.47-1.36,8.39-3.2,8.1-3,20.14-7.31,27.25-8.94,3.24-.75,5.46-.94,5.81-.21A47.91,47.91,0,0,1,753.43,428.28Z"/><path class="cls-17" d="M753.43,428.28c0,.69-27.17,14-37.07,23.25s-17,21.86-17,21.86,5-41.87,9.65-43.68c0,0,3.47-1.36,8.39-3.2-4.52,11.45-10.76,28.34-4,22.52,9.91-8.55,34.55-17.3,33.86-23.06a31.3,31.3,0,0,0-2.59-8.4c3.24-.75,5.46-.94,5.81-.21A47.91,47.91,0,0,1,753.43,428.28Z"/><path class="cls-15" d="M606.6,441.24c.62-2.53,1.27-5.07,1.93-7.54.36-1.36.73-2.69,1.1-4,2.93-10.33,6-18.56,8-18.82,5.3-.7,27,6.12,27,6.12l3.52-8.27s-32.44-4-36.58-1.26c-1.59,1-5.14,10.67-8.62,22.47-.65,2.22-1.31,4.52-1.94,6.85-.28,1-.56,2.05-.83,3.09a218.9,218.9,0,0,0-5.39,25.58c-.78,5.9-.75,10.19.54,11.4,5.53,5.18,22.55,10.19,22.55,10.19l3.33-5s-19-5.47-20-10.71a22.23,22.23,0,0,1,.36-5.29C602.37,460.23,604.29,450.74,606.6,441.24Z"/><path class="cls-16" d="M690.7,513.15c-2,7.44-3.57,12.48-4.22,13.48-3.16,4.85-64.2-15.56-71.11-21.44S651,402.25,651,402.25c8.8-10.68,49,1.77,58.33,9.84a6.07,6.07,0,0,1,1.8,2.25C713.29,420.37,698.49,484.53,690.7,513.15Z"/><path class="cls-16" d="M607.54,902H411.67s4.14-40.08,10.13-65.7,15.62-71,26.48-127.3S472.6,577.28,472.6,577.28l98.33-6,7.16-.44s.22,2.23.64,6.15c.46,4.33,1.15,10.72,2,18.47,2.86,25.15,7.74,64.59,13.18,94.14C602.59,736.48,607.54,902,607.54,902Z"/><path class="cls-17" d="M444.2,884.52S482,636.81,483.74,646.83s-5.52,41.46-9.66,68.4S444.2,884.52,444.2,884.52Z"/><path class="cls-17" d="M584.27,858.39c-.34-3.59-11.42-182.71-5.88-168.81S584.27,858.39,584.27,858.39Z"/><path class="cls-17" d="M540.2,902s11-220.67,12.85-209.6S547.6,902,547.6,902Z"/><path class="cls-17" d="M464.1,902s36-211,36.81-195.76S467.14,883.58,477.86,892.8s33.41-110.55,31.74-82.22,0,91.43,0,91.43Z"/><path class="cls-17" d="M580.77,595.45c-21,2.24-67.89,7-82.94,6.47-19.61-.69-29.5,26.35-31.46,44.61s-48.95,208.49-31,234.29c6.29,9,17.07,15.92,28.49,21.19H411.67s4.14-40.08,10.13-65.7,15.62-71,26.48-127.3S472.6,577.28,472.6,577.28l98.33-6a64.76,64.76,0,0,1,7.8,5.71C579.19,581.31,579.88,587.7,580.77,595.45Z"/><path class="cls-3" d="M576.61,590.52c-13,0-101.84,2.42-106-9.55s6.07-39.16,5.57-58.5c-.22-8.67-4.82-30.31-9.82-51.56-6.16-26.15-12.93-51.69-12.93-51.69s.6-5.69,17.41-15.59,29.45-16.12,31.08-14.74S529.12,402,535.34,404s2.07-13,4.6-11.38,27.85,25.79,38.45,44.21-4.59,49.72-2.29,63.55c1.43,8.55,6.26,41,6.66,64.53C583,579.4,581.58,590.52,576.61,590.52Z"/><path class="cls-18" d="M576.61,590.52c-13,0-101.84,2.42-106-9.55s6.07-39.16,5.57-58.5c-.22-8.67-4.82-30.31-9.82-51.56,7.93-20.69,14.46-34.56,14.46-34.56s2.23,40.24,23.65,31c18.32-7.86,51.59-22.17,60.81-26.13a2.49,2.49,0,0,1,3.33,1.44l11.14,30.68s-16.22,16.32-52.84,37.31c-22.29,12.78-54.25,34.22-42.84,43.89s98.68,10.28,98.68,10.28C583,579.4,581.58,590.52,576.61,590.52Z"/><path class="cls-15" d="M608.53,433.7c.36-1.36.73-2.69,1.1-4,1.81.17,3.09.56,3.32,1.09C613.43,431.92,611.17,432.81,608.53,433.7Z"/><path class="cls-14" d="M617.56,458.44c-.69,2.31-.93,5.53-2.07,5.76a121.66,121.66,0,0,1-13.93,1.85,20.21,20.21,0,0,1-5.42-.24l-1.35-.34c-4.25-1.06-8.76-2.12-10.63-1.5-2.07.69-12.2,4.14-12.2,4.14L564.59,452c.22-.69,13.35-2.3,17-6.9s9.21-10.6,15-13.36A22.41,22.41,0,0,1,603,430c-.65,2.22-1.31,4.52-1.94,6.85-.69.49-1,.93-1,1.38a4.06,4.06,0,0,0,.13,1.71c.34.79,1.31,1.51,4,1.51a19.22,19.22,0,0,0,2.4-.16c3.95-.46,7.54-1.65,8.89.85a6.78,6.78,0,0,1,0,6s2.07,1.84,2.07,3.91-2.07,3.69-2.07,3.69S618.25,456.14,617.56,458.44Z"/><path class="cls-3" d="M580.13,471.69c-.34,6.21-56,27.29-66.33,34.89S468.2,531.1,458.53,528s-15.89-16.92-15.89-33.5c0-16.14,3.28-60.85,10.8-75.27,5.41-1,11-.85,16.49-.73,15.89.34,12.78,58.72,13.81,60.86s13.14-1.45,27.65-9.39,50.43-25.91,53.59-25.91S580.48,465.47,580.13,471.69Z"/><path class="cls-19" d="M747.3,415.78l4.25,18.1a3.89,3.89,0,0,0,4.79,2.62l3.61-.91a3.44,3.44,0,0,0,2.72-4l-4.12-17.88A3.86,3.86,0,0,0,754,411l-3.73.69A3.47,3.47,0,0,0,747.3,415.78Z"/><path class="cls-17" d="M687.34,518.32c.67-1.07,1.87-2.91,3.36-5.17-2,7.44-3.57,12.48-4.22,13.48-3.16,4.85-64.2-15.56-71.11-21.44S651,402.25,651,402.25c8.8-10.68,49,1.77,58.33,9.84,0,0-47.33-11.69-53.06-2.7s-26.69,76.69-18.86,86.82S683.89,523.83,687.34,518.32Z"/><path class="cls-15" d="M671.45,413.07h-.16a.7.7,0,0,1-.52-.83c.4-1.71,9.73-41.91,18.89-47.36a3.93,3.93,0,0,1,3.16-.53c10,2.8,1.49,35.89.48,39.65a.68.68,0,0,1-.84.49.69.69,0,0,1-.49-.85c2.64-9.86,7.87-35.9.48-38a2.62,2.62,0,0,0-2.08.39c-8.66,5.15-18.15,46.06-18.25,46.48A.68.68,0,0,1,671.45,413.07Z"/><path class="cls-13" d="M531.66,338.74c0,1.69-.79,3.07-1.77,3.07s-1.77-1.38-1.77-3.07.79-3.07,1.77-3.07S531.66,337,531.66,338.74Z"/><path class="cls-13" d="M550.61,339.47c0,1.29-.56,2.34-1.25,2.34s-1.25-1.05-1.25-2.34.56-2.35,1.25-2.35S550.61,338.17,550.61,339.47Z"/><rect class="cls-3" x="161.12" y="902.01" width="794.51" height="19.12" rx="3"/><rect class="cls-2" x="161.12" y="902.01" width="794.51" height="9.56" rx="3"/><path class="cls-9" d="M804.19,884.22H804c0-4.25-2.74-7.94-6.78-9.81a8,8,0,0,0,.1-1.3,10.54,10.54,0,0,0-6.11-9.27A13.09,13.09,0,0,0,785.07,847c-.43-4.29-4.52-7.65-9.51-7.65a10.74,10.74,0,0,0-2.75.35c-.45-2.83-2.41-5-4.76-5a3.92,3.92,0,0,0-1.63.36,5.54,5.54,0,0,0-4.74-2.66,5.73,5.73,0,0,0-1.72.27,8.87,8.87,0,0,0-4.92-1.42,8.49,8.49,0,0,0-6.1,2.39,11.81,11.81,0,0,0-6.25,2.37,10.58,10.58,0,0,0-7-2.46c-5.28,0-9.56,3.45-9.56,7.71,0,.21,0,.42,0,.63a10.3,10.3,0,0,0-7.87-3.51c-5.47,0-9.9,4-9.9,8.87,0,4.29,3.39,7.86,7.9,8.69a8.2,8.2,0,1,0,12.29,10.58,5.87,5.87,0,0,0,1.89,2.64,9.28,9.28,0,0,0,4.21,5,14.82,14.82,0,0,0,19.45,16.79,24.14,24.14,0,0,0,9,1.74,23.86,23.86,0,0,0,10.22-2.28,5.69,5.69,0,0,0,9.6,2.19,13.87,13.87,0,0,0,8.22,2.62,14.22,14.22,0,0,0,6.63-1.62,6.87,6.87,0,1,0,6.34-9.49Z"/><path class="cls-10" d="M752.93,882.39a8,8,0,0,0-2.09.29,8,8,0,0,0,.25-2,8.15,8.15,0,0,0-8.07-8.23,8,8,0,0,0-2.3.34,7.92,7.92,0,0,0,.25-2,7.83,7.83,0,0,0-7.75-7.91,7.62,7.62,0,0,0-5.33,2.18,6,6,0,0,0-6-2.76,7.31,7.31,0,0,0-5.59-2.73c-3.63,0-6.67,2.84-7.49,6.66a11.63,11.63,0,0,0-4.38-.85c-5.1,0-9.35,3.19-10.34,7.42a9.16,9.16,0,0,0-2.64-.39,8.16,8.16,0,0,0-8.24,6.3h-.13a8.67,8.67,0,0,0-7.91,5.26,2.59,2.59,0,0,0-2.12-1.63c-1.6,0-2.9,2.29-2.9,5.11s1.3,5.11,2.9,5.11a2.53,2.53,0,0,0,2.07-1.53,8.66,8.66,0,0,0,8,5.36c.28,0,.55,0,.81,0a8.35,8.35,0,0,0,14.6-2.9c3.81,5,12.05,8.51,21.6,8.51,12.27,0,22.36-5.74,23.69-13.12a7.56,7.56,0,0,0,1.34-.26,8.25,8.25,0,0,0-.24,1.94,8,8,0,1,0,8-8.18Z"/><path class="cls-3" d="M817.82,893.65V902H659.26v-8.36a5,5,0,0,1,5-5H812.82A5,5,0,0,1,817.82,893.65Z"/><rect class="cls-7" x="659.26" y="896.74" width="158.55" height="5.26"/><path class="cls-9" d="M671.58,977.32c-1.6-8-7.79-19.62-12.13-27.1,3.28,4.65,7.52,8.93,9.6,3.84,2.54-6.21-5.8-18.8-11.2-26,4.4,5.09,10.86,11.09,12.34,4.56,1.16-5.06-2-10.93-5.46-15.54,1.79,1.15,3.45,1.27,4.32-1,2.53-6.68-9.79-19.31-9.79-19.31s-18.36,2.73-22.6,17.23c-2.24,7.67,2.24,5.82,7,2.38-4.46,4.83-8.74,11.6-7.54,19,2.34,14.51,16.2-11.75,16.2-11.75s-9.37,18-4.71,30.41,7.22-4.52,7.22-4.52-1.84,19,4.48,31.92S674.11,990,671.58,977.32Z"/><path class="cls-9" d="M747,907s-19.67-3.28-23.47,9.67S747,907,747,907Z"/><path class="cls-9" d="M740.46,914.38s17.77,10.76,10.86,20S740.46,914.38,740.46,914.38Z"/><path class="cls-10" d="M737.26,920.64s-18.76,15.34-15.48,28S747.22,945.37,737.26,920.64Z"/><path class="cls-8" d="M813.35,902s-22.82,4.09-15.91,10.82S813.35,902,813.35,902Z"/><path class="cls-8" d="M815.13,909.38s12.19,1.21,12.88,13.82S815.13,909.38,815.13,909.38Z"/><path class="cls-8" d="M813.35,917s-13.84,4-10.56,17.38S821.67,938.05,813.35,917Z"/><path class="cls-11" d="M664.9,981.46a.67.67,0,0,1-.63-.41c-.16-.36-15.92-36.7-11.11-68.09,1.58-10.34,5.63-17.7,12-21.87,9.17-6,19.71-3.23,20.15-3.11a.69.69,0,0,1-.35,1.34c-.11,0-10.42-2.7-19,2.94-6.05,4-9.89,11-11.41,20.91-4.75,31,10.84,67,11,67.32a.69.69,0,0,1-.35.91A.71.71,0,0,1,664.9,981.46Z"/><path class="cls-11" d="M735.6,937.25a.69.69,0,0,1-.62-.39c-.18-.37-4.39-9.35,10.19-29.73,5-6.94,6.72-12.34,5.06-15.59-1.83-3.58-7.21-3.63-7.26-3.63a.71.71,0,0,1-.69-.7.69.69,0,0,1,.69-.69h0c.26,0,6.28.07,8.49,4.39,1.94,3.8.21,9.53-5.16,17-14.11,19.7-10.12,28.22-10.08,28.31a.7.7,0,0,1-.62,1Z"/><path class="cls-11" d="M813,925.5h-.13a.7.7,0,0,1-.55-.81c.05-.25,4.69-25.12-3.07-34.43-7.57-9.09-19.22-1.11-19.34-1a.69.69,0,0,1-.79-1.14c.12-.08,12.82-8.76,21.19,1.28,8.18,9.81,3.57,34.53,3.37,35.58A.69.69,0,0,1,813,925.5Z"/><path class="cls-8" d="M595.23,788.81S616,771,621.6,782.94s-27.87,10.42-27.87,10.42Z"/><path class="cls-8" d="M638.46,872.24a9.93,9.93,0,0,0-7.94-9.73,3.86,3.86,0,0,0,.17-1.13,3.8,3.8,0,0,0-.62-2.08,6.54,6.54,0,0,0-8.45-9.34l-.48-.18a7.07,7.07,0,0,0,.92-3.52,6.43,6.43,0,0,0-3.94-6.15,8.39,8.39,0,0,0-.87-1.81,6.61,6.61,0,0,0,1.36-4c0-3.94-3.54-7.14-7.91-7.14a8.1,8.1,0,0,0-6.89,3.63,4.91,4.91,0,0,0-1-.12,4.52,4.52,0,0,0-3.42,1.55,6.59,6.59,0,0,0-1.21-.78,4.89,4.89,0,1,0-9.51.67,8.37,8.37,0,0,0-4.19-1.15c-5.43,0-9.84,5.34-9.84,11.93,0,5.59,3.17,10.26,7.44,11.56a14.8,14.8,0,0,0-2.37,7.95c0,9.13,8.72,16.64,19.94,17.62a16.14,16.14,0,0,0,14.61,8.63,17,17,0,0,0,8.63-2.31,8.19,8.19,0,1,0,13.88-8.54A9.91,9.91,0,0,0,638.46,872.24Z"/><path class="cls-9" d="M636.34,883.81c-1.32-4.83-3.92-3.68-3.92-3.68a5.21,5.21,0,0,0,0-3c-.46-1.87-8.09,0-8.09,0s-.19-4.91-2.93-6.67-7.23,1.88-7.23,1.88.19-.82-3.17-4.91-5.26-1-5.26-1-1.46-5-5.1-7a16.5,16.5,0,0,0-6.42-2.1,5.47,5.47,0,0,0-2.54-6.14,3.83,3.83,0,0,1-1.4-5.62s.23-1-2.66-2.8-6.69-.36-6.69-.36L579.75,839c-1.17-3.33-7-5.09-7-5.09a11.58,11.58,0,0,0,0-6.14c-1-3-5.88-1.75-5.88-1.75s-3.91-4.91-11.93-3.51-7,7.72-7,7.72-1.76-2.28-4.1-1.58-4.89,3.86-4.89,3.86-6.06-.7-7.82,6.14S533.61,852,533.61,852a13.14,13.14,0,0,0-5.47,3.16c-2.15,2.28,2,6.32,2,6.32s-4.73.6-5.39,6.2h-.09l0,.52c0,.38,0,.77,0,1.18a12,12,0,0,0,.22,2L526,890.49,634.5,892.8S637.66,888.65,636.34,883.81Z"/><path class="cls-8" d="M594.64,793.36s-7.93-14-3.32-23.32,11.17-2.64,10.24,3.23S594.64,793.36,594.64,793.36Z"/><path class="cls-9" d="M596.5,789.62s.57-20,9.21-23.61,11.8,2,12.78,8.06S596.5,789.62,596.5,789.62Z"/><path class="cls-11" d="M560.11,889.69a1,1,0,0,1-1-.94c-.05-.48-4.29-48.52,16.45-75.07,20.57-26.34,25.54-30.36,25.74-30.52a1,1,0,0,1,1.45.18,1,1,0,0,1-.17,1.45c-.2.16-5.15,4.25-25.39,30.16s-16.06,73.13-16,73.6a1,1,0,0,1-.93,1.13Z"/><path class="cls-10" d="M497,902s-5.28-.53-5.48-7.72S497,886.4,497,886.4s-4.11-4-2-6.32a13.14,13.14,0,0,1,5.48-3.16s-4.3-6.49-2.54-13.33,7.82-6.14,7.82-6.14,2.54-3.16,4.88-3.86,4.11,1.58,4.11,1.58-1-6.32,7-7.72S533.72,851,533.72,851s4.91-1.23,5.88,1.75a11.59,11.59,0,0,1,0,6.14s5.85,1.76,7,5.09l1.17,3.33s3.81-1.4,6.7.35,2.66,2.81,2.66,2.81a3.81,3.81,0,0,0,1.4,5.61,5.49,5.49,0,0,1,2.54,6.14,16.69,16.69,0,0,1,6.42,2.11c3.63,2,5.1,7,5.1,7s1.9-3.08,5.26,1,3.16,4.91,3.16,4.91,4.5-3.63,7.24-1.88S591.2,902,591.2,902Z"/><path class="cls-3" d="M643.19,893.65V902H484.63v-8.36a5,5,0,0,1,5-5H638.19A5,5,0,0,1,643.19,893.65Z"/><rect class="cls-7" x="484.63" y="896.74" width="158.56" height="5.26"/><path class="cls-8" d="M381.11,871s-.23-13.2,4.15-18.27,9.32-4.14,9.15-3.45-3.86-5.07-1.55-9.67,7.83-4.15,7.83-4.15-2.54-4.14,0-7.37,7.14-2.07,7.14-2.07,2.76-9,7.37-11.29,13.12,5.89,13.12,5.89,4.84-1.05,8.52,1.94.93,7.6.93,7.6,8.06,3.23,8.52,6.68a12.25,12.25,0,0,1-1.62,6.91s5.76,2.54,5.76,5.76-2.53,7.09-2.53,7.09,4.6,3.17,5.53,6.21,0,4,0,4,8.73.58,9.78,3.74-1.49,6.17-1.49,6.17,4.6,2.07,4.6,6.44-12.66,9.45-12.66,9.45l-66.6,2.76Z"/><path class="cls-9" d="M321.51,892.57s-6.21-.69-6.44-10.14,6.44-10.36,6.44-10.36-4.83-5.3-2.3-8.29a15,15,0,0,1,6.45-4.15s-5.07-8.52-3-17.5,9.21-8.06,9.21-8.06,3-4.15,5.76-5.07,4.83,2.08,4.83,2.08-1.15-8.3,8.29-10.14,14.05,4.61,14.05,4.61,5.79-1.61,6.93,2.3a16.89,16.89,0,0,1,0,8.06s6.89,2.3,8.27,6.68l1.38,4.38s4.49-1.85,7.89.46,3.13,3.68,3.13,3.68-2.73,4.38,1.65,7.37,3,8.06,3,8.06a18.09,18.09,0,0,1,7.56,2.77c4.29,2.58,6,9.21,6,9.21s2.24-4,6.2,1.32,3.72,6.44,3.72,6.44,5.3-4.77,8.53-2.47,3.45,8.76,3.45,8.76Z"/><path class="cls-10" d="M415.84,897.63a5.83,5.83,0,0,0,5.33-5.78c.19-5.38-5.33-5.91-5.33-5.91s4-3,1.9-4.73a14.18,14.18,0,0,0-5.33-2.36s4.19-4.86,2.48-10-7.62-4.59-7.62-4.59-2.48-2.37-4.76-2.89a4.62,4.62,0,0,0-4,1.18s.95-4.73-6.86-5.78S380,859.4,380,859.4s-4.79-.91-5.73,1.32a6.74,6.74,0,0,0,0,4.6s-5.7,1.31-6.84,3.81l-1.14,2.49s-3.71-1-6.52.26-2.59,2.11-2.59,2.11,2.25,2.49-1.37,4.2-2.48,4.6-2.48,4.6a20,20,0,0,0-6.25,1.57,10.07,10.07,0,0,0-5,5.26s-1.86-2.31-5.13.75-3.08,3.68-3.08,3.68-4.38-2.72-7.05-1.41-2.86,5-2.86,5Z"/><path class="cls-3" d="M468.55,893.65V902H310v-8.36a5,5,0,0,1,5-5H463.56A5,5,0,0,1,468.55,893.65Z"/><rect class="cls-7" x="310" y="896.74" width="158.55" height="5.26"/><path class="cls-9" d="M377.25,896.25s-11.11,17.27-1.79,32.82,22.46,11,24.18-3.28S383.19,896.07,377.25,896.25Z"/><path class="cls-8" d="M359,885.16s4.21,36.83-14.1,39.59-18.14-18-9.5-30.4S359,885.16,359,885.16Z"/><path class="cls-10" d="M405.25,892.49s-10.15,15.68,7.93,32.26S434.36,914,428.49,902,407.75,890.11,405.25,892.49Z"/><path class="cls-8" d="M392.41,879.17s2-14.7,15.7-16.26,7.89,13.65,5.07,15S392.41,879.17,392.41,879.17Z"/><path class="cls-11" d="M343.16,912.66h-.06a.69.69,0,0,1-.63-.75c0-.24,2.34-24.54,21.22-30.31,7.18-2.19,12.61-2.34,16.13-.44a9,9,0,0,1,4.36,5.9,6,6,0,0,0,.19.59.7.7,0,0,1-.31.93.69.69,0,0,1-.92-.31,4.66,4.66,0,0,1-.29-.82,7.7,7.7,0,0,0-3.68-5.08c-3.19-1.72-8.26-1.53-15.08.55-18,5.5-20.22,28.87-20.24,29.11A.69.69,0,0,1,343.16,912.66Z"/><path class="cls-11" d="M388.07,927.69a.74.74,0,0,1-.51-.22c-.25-.28-6.21-6.88-9.49-21.92-3.37-15.4,4.74-19.07,5.09-19.22a.7.7,0,0,1,.91.37.68.68,0,0,1-.36.9c-.31.14-7.39,3.44-4.29,17.66,3.2,14.63,9.1,21.2,9.16,21.27a.69.69,0,0,1-.51,1.16Z"/><path class="cls-11" d="M421.58,924.75l-.2,0a.68.68,0,0,1-.46-.84c0-.14,1.16-6.13-12.7-27.26-5.3-8.08-10.44-12.2-15.26-12.24h-.07a9.39,9.39,0,0,0-6.79,3.27l-.59.73-1.12-.81a9.25,9.25,0,0,1,.68-.85c2.65-3.22,12.76-14.67,23.63-16.2a.69.69,0,0,1,.78.59.68.68,0,0,1-.58.78c-7.38,1-14.58,7.11-19,11.59A9.87,9.87,0,0,1,393,883c5.32,0,10.85,4.36,16.43,12.87C423.9,918,422.32,924,422.24,924.26A.68.68,0,0,1,421.58,924.75Z"/><path class="cls-6" d="M345.81,608.72a6.8,6.8,0,1,1-6.79-6.8A6.79,6.79,0,0,1,345.81,608.72Z"/><path class="cls-6" d="M421.35,608.72a6.8,6.8,0,1,1-6.79-6.8A6.79,6.79,0,0,1,421.35,608.72Z"/><path class="cls-6" d="M496.89,608.72a6.8,6.8,0,1,1-6.79-6.8A6.79,6.79,0,0,1,496.89,608.72Z"/><path class="cls-6" d="M572.43,608.72a6.8,6.8,0,1,1-6.79-6.8A6.79,6.79,0,0,1,572.43,608.72Z"/><path class="cls-6" d="M648,608.72a6.8,6.8,0,1,1-6.79-6.8A6.79,6.79,0,0,1,648,608.72Z"/><path class="cls-6" d="M723.51,608.72a6.8,6.8,0,1,1-6.79-6.8A6.79,6.79,0,0,1,723.51,608.72Z"/><path class="cls-6" d="M799.05,608.72a6.8,6.8,0,1,1-6.79-6.8A6.79,6.79,0,0,1,799.05,608.72Z"/><rect class="cls-6" x="283.05" y="615.51" width="569.77" height="7.6"/><path class="cls-6" d="M453.94,751.92c-12-3.81-25.3-1.15-39.61,7.9-2.09-10.85-12.69-59.84-35.19-70-10.2-4.62-19.94-4-27.44,1.67-9.71,7.38-14.16,22.18-11.61,38.61,1.64,10.56,7.33,14.51,11.82,16,7.16,2.32,16.28-.22,22.19-6.19,4.44-4.48,6-10,4.26-15.18-2.37-7.07-5.73-11.6-10-13.46a10.21,10.21,0,0,0-7.86-.22,1.38,1.38,0,0,0,1.14,2.52,7.56,7.56,0,0,1,5.62.24c3.47,1.51,6.4,5.59,8.48,11.8,1.9,5.66-1.44,10.17-3.61,12.36-5.11,5.17-13.26,7.48-19.37,5.5-5.38-1.74-8.81-6.5-9.94-13.76-2.4-15.42,1.65-29.21,10.55-36,6.65-5,15.4-5.53,24.63-1.35,21.9,9.92,32.44,61.81,33.83,69.16-11.29,7.66-23.21,19.23-35.45,34.42-21.54,26.75-36.88,55.9-37,56.19a1.38,1.38,0,1,0,2.45,1.28c.15-.28,15.36-29.2,36.73-55.73,19.54-24.25,48.33-51.41,74.57-43.08,11,3.51,30.09,12.36,33.43,32.21,1.6,9.51.31,23.47-6.31,31.66a17.47,17.47,0,0,1-13.33,6.73c-13.25.58-28.22-7.33-29.87-23.13-1.17-11.27,2.39-19.57,9.79-22.77,6.21-2.7,13.81-.8,18.48,4.6,9.69,11.2,6.73,17.63,6.71,17.68a1.38,1.38,0,0,0,2.45,1.28c.16-.32,4-8-7.07-20.77-5.45-6.3-14.36-8.5-21.67-5.33-8.45,3.66-12.73,13.23-11.44,25.6,1.83,17.48,18.23,26.23,32.74,25.61a20.19,20.19,0,0,0,15.36-7.76c7.2-8.9,8.64-23.42,6.89-33.86C485.67,765,465.59,755.61,453.94,751.92Z"/><path class="cls-6" d="M790.54,852.08c-.15-.29-15.49-29.44-37-56.19-12.24-15.19-24.16-26.76-35.44-34.42,1.38-7.35,11.91-59.24,33.82-69.16,9.23-4.18,18-3.7,24.63,1.35,8.9,6.77,13,20.56,10.55,36-1.12,7.26-4.56,12-9.94,13.76-6.11,2-14.25-.33-19.37-5.5-2.16-2.19-5.51-6.7-3.61-12.36,2.07-6.17,5-10.25,8.42-11.77a7.4,7.4,0,0,1,5.68-.27,1.38,1.38,0,0,0,1.14-2.52,10.21,10.21,0,0,0-7.86.22c-4.27,1.86-7.63,6.39-10,13.46-1.73,5.16-.18,10.7,4.27,15.18,5.9,6,15,8.51,22.18,6.19,4.49-1.45,10.18-5.4,11.82-16,2.56-16.43-1.89-31.23-11.61-38.61-7.5-5.69-17.24-6.29-27.44-1.67-22.5,10.19-33.1,59.18-35.19,70-14.3-9.05-27.62-11.71-39.61-7.9-11.65,3.69-31.73,13.08-35.31,34.38-1.76,10.44-.31,25,6.89,33.86a20.15,20.15,0,0,0,15.35,7.76c.49,0,1,0,1.48,0,14.12,0,29.5-8.75,31.26-25.64,1.29-12.37-3-21.94-11.44-25.6-7.31-3.17-16.22-1-21.67,5.33-11,12.77-7.23,20.45-7.06,20.77a1.37,1.37,0,0,0,1.84.58,1.4,1.4,0,0,0,.61-1.85c0-.06-3-6.49,6.7-17.69a16.25,16.25,0,0,1,18.49-4.6c7.39,3.2,10.95,11.5,9.78,22.77-1.65,15.8-16.62,23.72-29.87,23.13a17.47,17.47,0,0,1-13.33-6.73c-6.62-8.19-7.91-22.15-6.31-31.66,3.35-19.85,22.38-28.7,33.43-32.21,26.23-8.33,55,18.81,74.54,43.05,21.38,26.53,36.61,55.48,36.77,55.76a1.36,1.36,0,0,0,1.22.75A1.32,1.32,0,0,0,790,854,1.38,1.38,0,0,0,790.54,852.08Z"/><path class="cls-6" d="M641.05,783a1.38,1.38,0,0,0-1.37-1.39,121.18,121.18,0,0,1-36-6.75c-23.61-8.67-35.73-23.8-36-45C567.33,709,574,695.93,586.26,693c12-2.88,25,4.65,29.24,13.21,4.54,9.17-.31,19.49-7.45,24.94-5.16,3.94-12.79,6.29-18.7,1a1.38,1.38,0,0,0-1.84,2.07c5.91,5.24,14.63,4.87,22.22-.93,8-6.13,13.45-17.84,8.25-28.35-4.7-9.5-19.15-17.86-32.37-14.68-7.56,1.83-20,8.92-20.73,35.64-.76-26.72-13.16-33.81-20.72-35.64-13.22-3.18-27.67,5.18-32.37,14.68-5.2,10.51.21,22.22,8.25,28.35,7.59,5.8,16.31,6.17,22.22.93a1.38,1.38,0,0,0-1.84-2.07c-5.91,5.24-13.54,2.89-18.71-1-7.13-5.45-12-15.77-7.44-24.94,4.23-8.56,17.28-16.09,29.24-13.21,12.31,3,18.93,16.06,18.65,36.88-.29,21.17-12.41,36.3-36,45a121.18,121.18,0,0,1-36.05,6.75,1.38,1.38,0,0,0,0,2.76h0A124.06,124.06,0,0,0,527,777.43c24.05-8.81,37.11-24.84,37.85-46.38.75,21.54,13.81,37.57,37.86,46.38a124.06,124.06,0,0,0,36.92,6.89h0A1.37,1.37,0,0,0,641.05,783Z"/><rect class="cls-6" x="337.64" y="623.11" width="2.76" height="229.61"/><rect class="cls-6" x="413.18" y="623.11" width="2.76" height="229.61"/><rect class="cls-6" x="488.71" y="623.11" width="2.76" height="229.61"/><rect class="cls-6" x="564.25" y="623.11" width="2.76" height="229.61"/><rect class="cls-6" x="639.79" y="623.11" width="2.76" height="229.61"/><rect class="cls-6" x="715.33" y="623.11" width="2.76" height="229.61"/><rect class="cls-6" x="790.87" y="623.11" width="2.76" height="229.61"/><rect class="cls-6" x="283.05" y="565.76" width="569.77" height="15.2"/><rect class="cls-6" x="269.24" y="557.7" width="13.82" height="344.3"/><circle class="cls-6" cx="276.14" cy="543.67" r="17.27"/><rect class="cls-6" x="852.71" y="557.7" width="13.82" height="344.3"/><circle class="cls-6" cx="859.62" cy="543.67" r="17.27"/><rect class="cls-6" x="283.05" y="852.72" width="569.77" height="6.91"/><path class="cls-10" d="M441.73,570.83s9.68-25.33,3.46-34.08-10.83,6.37-11.86,17.81-2.65,16.27-2.65,16.27,4.83-44.7,0-54.25-19.58-10.46-23.49,9.57a163.8,163.8,0,0,0-2.31,39.61Z"/><path class="cls-9" d="M401.89,565.76s15.66-77.61,6.79-93.5-18.85,10.53-21.3,31.09-3.91,61-3.91,61Z"/><path class="cls-8" d="M433.63,544.72a7,7,0,0,0,.24-1.79,7.28,7.28,0,0,0-12.48-5.08,8.5,8.5,0,0,0-1.21-1,5.23,5.23,0,0,0-4.52-3,4.71,4.71,0,0,0-3.06,1.16,5.92,5.92,0,0,0,.62-2.71c0-2.42-1.3-4.38-2.9-4.38s-2.77,1.77-2.89,4a9.47,9.47,0,0,0-13.14,8.72,9.45,9.45,0,0,0,13.39,8.61c.95,4.8,4.38,8.36,8.49,8.36a7.22,7.22,0,0,0,3.74-1.07,9.23,9.23,0,0,0,8.55,6.6c5,0,9.13-4.54,9.13-10.15A10.49,10.49,0,0,0,433.63,544.72Z"/><path class="cls-9" d="M433.33,554.56a5.74,5.74,0,0,0-4.92,3,10.68,10.68,0,0,0-3.85-.93,10.89,10.89,0,0,0-9.95-6.48,10.69,10.69,0,0,0-4,.78,6,6,0,0,0,.06-.85c0-2.5-1.55-4.53-3.46-4.53a3.64,3.64,0,0,0-3.24,2.93,18.33,18.33,0,0,0-8.4-2c-9.61,0-17.39,7.22-17.39,16.12s7.78,16.12,17.39,16.12a17.71,17.71,0,0,0,14.8-7.66,10.77,10.77,0,0,0,8.88-.18,10.82,10.82,0,0,0,4.67,1,9.61,9.61,0,0,0,8.39-4.37,5,5,0,0,0,1,.11c3.24,0,5.87-2.92,5.87-6.53S436.57,554.56,433.33,554.56Z"/><rect class="cls-3" x="347.31" y="562.19" width="106.4" height="21.42" rx="3.12"/><path class="cls-3" d="M447.84,583.61l-1.79,6.91L436,629.72a11.76,11.76,0,0,1-11.38,8.82H376.44a11.75,11.75,0,0,1-11.37-8.82L355,590.52l-1.78-6.91Z"/><polygon class="cls-7" points="447.84 583.61 446.05 590.52 354.96 590.52 353.18 583.61 447.84 583.61"/><path class="cls-8" d="M361.13,562.2s-19.58-27.07-16.82-41.57,15-3.69,20.27,9.44,7.83,32.13,7.83,32.13Z"/><path class="cls-10" d="M383.7,562.2s8.75-60.69-12.44-61.84,1.15,61.84,1.15,61.84Z"/><polygon class="cls-6" points="369.81 583.61 380.35 638.54 378.33 638.54 367.27 583.61 369.81 583.61"/><polygon class="cls-6" points="431.89 583.61 421.35 638.54 423.37 638.54 434.43 583.61 431.89 583.61"/><path class="cls-2" d="M453.71,565.32v4.78H347.31v-4.78a3.13,3.13,0,0,1,3.12-3.13H450.59A3.13,3.13,0,0,1,453.71,565.32Z"/><path class="cls-3" d="M618.83,583.61,617,590.52l-10.11,39.2a11.75,11.75,0,0,1-11.37,8.82H547.43a11.75,11.75,0,0,1-11.37-8.82L526,590.52l-1.78-6.91Z"/><path class="cls-8" d="M548.12,549.86s-26,8.77-33.4-11,11-22.57,23.95-15.43S548.12,549.86,548.12,549.86Z"/><path class="cls-9" d="M556.16,543.67s-6.44-10.61-1.37-27,27.78-19.13,27.79,3.1S556.16,543.67,556.16,543.67Z"/><path class="cls-8" d="M582.81,535.8s-8.68-7.81-9.14-28.53,17.68-29.25,30.38-13.59S582.81,535.8,582.81,535.8Z"/><path class="cls-9" d="M576.34,543.67s18.29-40.79,39.25-23.86S630.36,556.12,576.34,543.67Z"/><path class="cls-11" d="M553.64,564.87l-1.38,0c0-.07-.09-8-6.14-18.89-5.26-9.46-14.54-7.8-17.6-7.26a6,6,0,0,1-.91.13.69.69,0,1,1,0-1.38l.67-.11c8.83-1.58,15.24,1.1,19.05,7.95a53.23,53.23,0,0,1,5.44,13.64c.8-6.46,2.79-16.86,7.66-24.17,7.46-11.18,13.57-12.23,13.83-12.27a.69.69,0,1,1,.21,1.36c-.05,0-5.82,1.08-12.89,11.68C554.41,546.28,553.64,564.68,553.64,564.87Z"/><path class="cls-11" d="M587,574.75a.69.69,0,0,1-.69-.69s-.11-1.93-3.22-24.32c-3.21-23.2,8.92-49.41,9-49.68a.7.7,0,0,1,.92-.33.68.68,0,0,1,.33.92c-.12.26-12.08,26.11-8.92,48.9s3.23,24.38,3.23,24.51A.69.69,0,0,1,587,574.75Z"/><path class="cls-11" d="M564.23,571.52h-.11a.68.68,0,0,1-.57-.79c.19-1.15,4.82-28.36,24.28-34.17,19.23-5.75,23.83-4.67,24-4.62a.69.69,0,0,1,.49.85.68.68,0,0,1-.84.49s-4.66-1-23.28,4.6-23.26,32.8-23.31,33.07A.68.68,0,0,1,564.23,571.52Z"/><path class="cls-8" d="M605.39,558.05a5.53,5.53,0,0,0-5.24,3.77,9.23,9.23,0,0,0-.94.14,7.25,7.25,0,0,0-3.91-3.73,4.69,4.69,0,0,0-4.45-2.6A5.75,5.75,0,0,0,589,556a6,6,0,0,0-10.87-3,9,9,0,0,0-14.07,2,10.64,10.64,0,0,0-3.18-.5,9.92,9.92,0,0,0-7.68,3.48,4.89,4.89,0,0,0-4.53.91,8,8,0,0,0-4.11-1.12,8,8,0,0,0-4.65,1.48,3.38,3.38,0,0,0-4.64-.93,2.56,2.56,0,0,0-4.06,1.36h-.1a7.11,7.11,0,0,0,0,14.17,6.57,6.57,0,0,0,6-4.13,4.64,4.64,0,0,0,3.45,1.53,4.52,4.52,0,0,0,1.73-.34,8,8,0,0,0,2.31.34,8.11,8.11,0,0,0,2.89-.53,5.44,5.44,0,0,0,4,1.57,5.85,5.85,0,0,0,3-.82,4.18,4.18,0,0,0,6.48-.23,10.4,10.4,0,0,0,3.74-.69,5.81,5.81,0,0,0,5.56,3.3c3.2,0,5.8-2.09,5.8-4.67a3.81,3.81,0,0,0-.37-1.63,6.45,6.45,0,0,0,.59-.29,5.43,5.43,0,0,0,7.75-.37,3.5,3.5,0,0,0,1.91.8,7.25,7.25,0,0,0,13.27.51,9,9,0,0,0,1.92.2,8.49,8.49,0,0,0,1.35-.1,5.52,5.52,0,1,0,3-10.17Z"/><polygon class="cls-7" points="618.83 583.61 617.04 590.52 525.95 590.52 524.17 583.61 618.83 583.61"/><polygon class="cls-6" points="540.79 583.61 551.34 638.54 549.32 638.54 538.26 583.61 540.79 583.61"/><polygon class="cls-6" points="602.88 583.61 592.34 638.54 594.36 638.54 605.41 583.61 602.88 583.61"/><rect class="cls-3" x="518.3" y="562.19" width="106.4" height="21.42" rx="3.12"/><path class="cls-2" d="M624.7,565.32v4.78H518.3v-4.78a3.13,3.13,0,0,1,3.12-3.13H621.57A3.13,3.13,0,0,1,624.7,565.32Z"/><path class="cls-3" d="M786.38,583.61l-1.78,6.91-10.11,39.2a11.75,11.75,0,0,1-11.37,8.82H715a11.75,11.75,0,0,1-11.37-8.82l-10.11-39.2-1.78-6.91Z"/><path class="cls-8" d="M734,569.22s-17.71-18.77-35.68-21.59-25.79,6.16-25.79,6.16,20-5.76,30.73,2.07,9.13,17,9.13,17-4.63-11.46-11.53-14.14-9.1-3.59-9.1-3.59,6.56,4.15,9.56,10.83,5.52,11.28,5.52,11.28l44.7-2.16s5.74-22.71,16.79-30.54a53.85,53.85,0,0,1,21.86-9.22s-12.52,6-17.88,13.36-5.84,9-5.84,9,3-4.37,10.39-6.91l7.37-2.53s-6,9-8.07,16.12S773,575.12,773,575.12Z"/><path class="cls-8" d="M757.2,479.55c-5.57,1.85-8.63,21.61-8.63,21.61s1.76-23.47-3.5-16.42c-2.41,3.23-2.61,10-2.11,16.31-1.13-4.76-2.66-7.55-4.5-1.84A25,25,0,0,0,738,511c-1.65-2.76-3.13-3.35-3.83,1.2-2,13.36,10.88,27.31,10.88,27.31s6.65-3.88,8.6-7.83-8.15-3.34-8.15-3.34,11.68-5.75,11.49-12.25c-.09-3.28-2.81-3.08-5.47-2.08,3.86-2.57,8.22-6.93,6.58-12.94a6.36,6.36,0,0,0-1.82-3.47,37.52,37.52,0,0,0,2.69-3.11C762.45,490,762.76,477.69,757.2,479.55Z"/><path class="cls-11" d="M758.25,571a.74.74,0,0,1-.6-.31c-.15-.21-15-21.06-13.5-46.49s11.86-37.77,12.3-38.28a.74.74,0,1,1,1.12,1c-.1.12-10.44,12.54-11.94,37.41s13.07,45.33,13.22,45.53a.75.75,0,0,1-.17,1A.76.76,0,0,1,758.25,571Z"/><path class="cls-10" d="M732.1,552.45c-1.63.47,6-8.34,1.16-19.47s-6.66,7.13-6.66,7.13,2.77-20.86-4.84-29.21-5.86,14.93-5.86,14.93-2.64-24.58-10.17-30.33-3.68,15-3.68,15-3.48-6.47-14.8-3.31,24.85,14.09,24.85,14.09-18.91-4.82-16.87,3.53,29.1,11.12,29.1,11.12-23-2.6-20.38,5.67,24.41,5.62,24.41,5.62-9.28,1.71-8.59,6,13,5.56,13,5.56S742.67,549.38,732.1,552.45Z"/><path class="cls-9" d="M802.83,508.08c-10-4.5-20,10.55-20,10.55s9.08-24.43,4.44-24.14c-2.56.16-8.8,9.53-13.88,17.89a12.78,12.78,0,0,0,.71-5.38c-.93-7.23-8.72-5.93-14.29,0-3.57,3.81-5.46,14.56-6.35,21.78a44.84,44.84,0,0,0-.7-10.46c-1.67-8.16-5.57-12.67-10.69,7.42s0,25.09,0,25.09,15.15,4.22,17.93,0-15.94-4-15.94-4,18.16-.72,19.83-5.27c1-2.63-2.14-4.66-4.94-5.9,7.72,2.62,24.25,7.57,26.09,2.47,2.19-6-13.38-11.15-16.35-12.06,3.46,1,25,7.17,27.86,2.23,3.15-5.38-15.48-9-15.48-9S812.85,512.57,802.83,508.08Z"/><path class="cls-11" d="M736.07,575.12l-.58-4.76c0-.17-2.11-16.67-14-36.32s-24.25-24.48-24.37-24.53a.74.74,0,0,1,.53-1.39c.52.2,13,5.13,25.11,25.15a110.11,110.11,0,0,1,13.56,33.37c2.43-9.2,10.58-33.91,29.56-41.36l23.25-9.14a.75.75,0,0,1,.55,1.39l-23.26,9.13c-22.61,8.88-29.4,43.4-29.47,43.75Z"/><rect class="cls-3" x="685.86" y="562.19" width="106.4" height="21.42" rx="3.12"/><path class="cls-2" d="M792.26,565.32v4.78H685.86v-4.78a3.13,3.13,0,0,1,3.12-3.13H789.13A3.13,3.13,0,0,1,792.26,565.32Z"/><polygon class="cls-7" points="786.38 583.61 784.6 590.52 693.51 590.52 691.73 583.61 786.38 583.61"/><polygon class="cls-6" points="770.44 583.61 759.9 638.54 761.92 638.54 772.97 583.61 770.44 583.61"/><polygon class="cls-6" points="708.35 583.61 718.89 638.54 716.87 638.54 705.82 583.61 708.35 583.61"/><path class="cls-11" d="M244.36,1033.74a.73.73,0,0,1-.35-.09.69.69,0,0,1-.24-1c.18-.32,18.66-32.48,5.84-59.46-12.7-26.74-9-58,9.12-76.1,4.47-4.47,9.57-6.66,15.15-6.48,12.21.36,22.39,11.67,22.82,12.15a.7.7,0,0,1-.06,1,.7.7,0,0,1-1-.06c-.1-.11-10.22-11.35-21.83-11.69-5.18-.15-9.93,1.89-14.12,6.08-17.67,17.66-21.3,48.31-8.85,74.53,13.13,27.64-5.71,60.42-5.9,60.75A.69.69,0,0,1,244.36,1033.74Z"/><path class="cls-9" d="M244.2,957.9s-18,.53-18.72,15.5S240.82,977.86,244.2,957.9Z"/><path class="cls-8" d="M253.36,979.16s18.18-5.53,22.55,13.36S256.37,996.42,253.36,979.16Z"/><path class="cls-8" d="M253.76,1001.29s-23.91-4.86-23.91,21.63S253.76,1001.29,253.76,1001.29Z"/><path class="cls-10" d="M254,1008.43s16.21,4.59,10.86,25.31S254.14,1017.48,254,1008.43Z"/><path class="cls-11" d="M894.09,1033.74a.73.73,0,0,0,.35-.09.7.7,0,0,0,.25-1c-.19-.32-18.66-32.48-5.85-59.46,12.7-26.74,8.95-58-9.11-76.1-4.47-4.47-9.58-6.66-15.16-6.48-12.2.36-22.38,11.67-22.81,12.15a.7.7,0,0,0,.06,1,.68.68,0,0,0,1-.06c.1-.11,10.23-11.35,21.83-11.69,5.18-.15,9.94,1.89,14.13,6.08,17.66,17.66,21.3,48.31,8.85,74.53-13.14,27.64,5.71,60.42,5.9,60.75A.69.69,0,0,0,894.09,1033.74Z"/><path class="cls-9" d="M894.25,957.9s18,.53,18.73,15.5S897.64,977.86,894.25,957.9Z"/><path class="cls-8" d="M885.09,979.16s-18.17-5.53-22.55,13.36S882.08,996.42,885.09,979.16Z"/><path class="cls-8" d="M884.7,1001.29s23.9-4.86,23.9,21.63S884.7,1001.29,884.7,1001.29Z"/><path class="cls-10" d="M884.42,1008.43s-16.21,4.59-10.87,25.31S884.32,1017.48,884.42,1008.43Z"/></g></svg>