<svg id="å¤´åƒ2" xmlns="http://www.w3.org/2000/svg" xmlns:xlink="http://www.w3.org/1999/xlink" width="280" height="280" viewBox="0 0 280 280">
  <defs>
    <clipPath id="clip-path">
      <path d="M0,138A138,138,0,1,1,138,276,138,138,0,0,1,0,138Z" fill="none"/>
    </clipPath>
  </defs>
  <g id="Man" transform="translate(2 2)">
    <g id="Background">
      <circle id="Background-2" data-name="Background" cx="138" cy="138" r="138" fill="#bec5d8"/>
      <circle id="Background-3" data-name="Background" cx="138" cy="138" r="138" fill="rgba(255,255,255,0.16)"/>
    </g>
    <g id="Man-2" data-name="Man" transform="translate(0)" clip-path="url(#clip-path)">
      <g id="Body" transform="translate(-2 48.67)">
        <path id="Skin_color:" data-name="Skin color:" d="M31.138,146.778v-34.7l-.05-.058a70.8,70.8,0,0,1-11.58-19.45c-.21-.51-.419-1-.62-1.55-.329-.86-.67-1.75-1-2.631-.46-1.309-.92-2.64-1.35-4l-.689-2.19a80.884,80.884,0,0,1-2.6-12.75c-.09-.73-.18-1.48-.26-2.24,0-.28-.06-.56-.08-.84,0,0-.12-.841-.26-2.29a2.3,2.3,0,0,1,0-.249c-.66-7.28-1.68-28.451,6.87-42.331C29.888,4.688,46.908-.222,61.308.008c14.39-.23,31.41,4.68,41.78,21.49,8.486,13.84,7.5,34.929,6.836,42.268a9.675,9.675,0,0,1,7.255.462c5.3,2.52,7.539,10.85,2.579,18.41-3.781,5.771-10.157,6.819-15.029,5.716l-.011.033c-.33.88-.66,1.77-1,2.631-.2.53-.41,1-.62,1.55a70.421,70.421,0,0,1-11.49,19.32l-.049.059v34.831c-.79,5.071-14,9.09-30.21,9.09S31.927,151.868,31.138,146.778Zm58.3-32.47a47.7,47.7,0,0,1-8.46,7.1,34.921,34.921,0,0,1-8.6,4.237,34.932,34.932,0,0,0,8.629-4.247,47.728,47.728,0,0,0,8.46-7.1l.193-.224ZM2.788,82.678c-5-7.6-2.731-15.93,2.509-18.41a10.391,10.391,0,0,1,1.281-.509,9.9,9.9,0,0,1,6,.07,2.49,2.49,0,0,0,0,.259,1.967,1.967,0,0,0,.05.551c.11,1.11.21,1.74.21,1.74a7.958,7.958,0,0,0,.08.84c.12,1.111.25,2.2.4,3.271a79.483,79.483,0,0,0,2.46,11.7q1.019,3.19,2.1,6.189a15.827,15.827,0,0,1-3.556.405A13.376,13.376,0,0,1,2.788,82.678Z" transform="translate(79.172 1.992)" fill="#ffc7bb"/>
        <path id="Path" d="M56.55,0V27.79C29.55,28.25,9.43,15.22,0,7.54V.1L.11.22A47.67,47.67,0,0,0,8.57,7.31a34.9,34.9,0,0,0,18.68,6H29.2a34.9,34.9,0,0,0,18.69-6A48.15,48.15,0,0,0,56.36.21Z" transform="translate(112.21 116.09)" fill="#7c3830" opacity="0.15" style="mix-blend-mode: multiply;isolation: isolate"/>
        <path id="Top_color:" data-name="Top color:" d="M0,80.65S17.705,45.4,27.33,36.82c19.14-17.08,49.85-27.4,69-32.94l.75-.22C102.75,2.02,107.35.82,110.24,0c.79,5.07,14,9.09,30.2,9.09s29.42-4,30.22-9.09h.16c2.86.82,7.42,2,13.05,3.63l.68.2c19.11,5.53,49.87,15.86,69.06,33C263.089,45.319,280,80.65,280,80.65Z" transform="translate(0 148.68)" fill="#8ab99e"/>
        <path id="Path-2" data-name="Path" d="M62.51,19.26a83,83,0,0,1-18.39,2C23.66,21.26,6.29,14.47,0,3.88l.75-.22C6.42,2.02,11.02.82,13.91,0h0c.79,5.07,14,9.09,30.2,9.09S73.53,5.09,74.33,0h.16c2.86.82,7.42,2,13.05,3.63l.68.2C85.13,9.07,79.34,13.38,71.8,16.4" transform="translate(96.32 148.79)" fill="#fff" opacity="0.4" style="mix-blend-mode: soft-light;isolation: isolate"/>
        <path id="Combined_Shape" data-name="Combined Shape" d="M0,229.329s.008-.021.021-.05c.7-1.585,4.433-9.959,9.161-19.164,3.034-5.907,5.878-11,8.455-15.123,3.22-5.16,6.027-8.824,8.344-10.893a99.035,99.035,0,0,1,12.574-9.436,147.063,147.063,0,0,1,15.738-8.659c11.6-5.541,25.163-10.538,41.468-15.276l.73-.21c3.5-1.017,6.56-1.856,9.35-2.61l2.4-.664V114.733A72.3,72.3,0,0,1,96.8,95.31c-.193-.463-.39-.957-.64-1.6q-.206-.536-.41-1.073a18.012,18.012,0,0,1-2.261.143c-.113,0-.229,0-.343,0a15.287,15.287,0,0,1-12.847-7,17.139,17.139,0,0,1-2.55-13.94,11.431,11.431,0,0,1,5.88-7.37,15.65,15.65,0,0,1,1.5-.6,11.873,11.873,0,0,1,3.541-.54q.471,0,.939.037c-.624-9.535-.577-28.038,7.36-40.917a45.168,45.168,0,0,1,21.5-18.463A55.594,55.594,0,0,1,139.421,0c.359,0,.723,0,1.079.01C140.841,0,141.188,0,141.529,0a55.515,55.515,0,0,1,20.911,3.975A45.183,45.183,0,0,1,183.95,22.45c7.921,12.867,7.984,31.314,7.363,40.86q.457-.035.919-.035a12,12,0,0,1,3.128.415,12.951,12.951,0,0,1,1.92.73,11.438,11.438,0,0,1,5.87,7.35,17.2,17.2,0,0,1-2.55,13.95,15.3,15.3,0,0,1-12.892,7.063c-.1,0-.2,0-.3,0a17.939,17.939,0,0,1-2.235-.145l-.414,1.105c-.193.521-.408,1.04-.617,1.544l-.023.057a72.24,72.24,0,0,1-11.39,19.344v32.51l3.02.837c2.47.67,5.44,1.49,8.789,2.45l.72.21a2,2,0,0,1,.207.077c32.1,9.32,54.85,20.224,69.534,33.333,2.95,2.638,9.59,14.8,14.642,24.529,5.451,10.507,10.309,20.6,10.357,20.7H0Zm28.67-42.26c-4.518,4.026-10.177,14.207-14.129,22.04C10.263,217.589,7,225.229,6.97,225.3l266.01.106c-.024-.06-3.035-7.762-7.039-16.24-3.71-7.854-9.082-18.065-13.6-22.1-13.862-12.375-36.329-23.18-66.8-32.125-3.394,4.928-9.075,9.08-16.554,12.085a2,2,0,1,1-1.49-3.711c6.17-2.479,10.93-5.749,13.95-9.56-2.54-.72-4.8-1.34-6.75-1.87l-2.76-.76c-2.346,3.636-9.468,7.083-21.682,8.283-3.046.3-6.317.458-9.768.458-9.331,0-17.34-1.129-23.161-3.263-4.006-1.469-6.83-3.356-8.178-5.429l-2.171.591c-2.07.56-4.57,1.24-7.36,2,6.92,8.71,22.54,14.22,40.9,14.22a80.381,80.381,0,0,0,17.951-1.93,2,2,0,0,1,.89,3.9,84.775,84.775,0,0,1-18.87,2.07c-20.391,0-37.8-6.648-45.011-17.062C65,163.923,42.528,174.72,28.67,187.07Zm111.8-31.21c15.355,0,25.858-3.611,27.9-6.592a1.982,1.982,0,0,0,.337-.8v-29.4a50.429,50.429,0,0,1-7.46,6.018,36.946,36.946,0,0,1-19.76,6.3h-2.11a36.865,36.865,0,0,1-19.7-6.321,50.223,50.223,0,0,1-7.42-5.97L112.24,148.2a2.087,2.087,0,0,1,.07.265c.465,2.989,10.808,7.136,26.743,7.38Q139.754,155.859,140.47,155.859Zm-1.01-28.469h1.95a33.026,33.026,0,0,0,7.9-1.186,35.8,35.8,0,0,0,8.779-3.886q.462-.291.916-.6a45.6,45.6,0,0,0,8.1-6.8c.61-.629,1.258-1.351,2.1-2.34a2.013,2.013,0,0,1,.189-.193A68.31,68.31,0,0,0,180.39,93.81c.205-.488.408-.993.6-1.5l.093-.243c.187-.49.444-1.162.647-1.757l.25-.67c.646-1.79,1.3-3.772,2-6.061a82.886,82.886,0,0,0,2.79-14.62,3.884,3.884,0,0,1,.04-.5c.012-.094.023-.181.03-.273V68.05c0-.014.008-.078.024-.2.042-.326.131-1,.226-2l1.671.05h.212l-1.883-.16v-.11c.569-6.212,1.776-27.533-6.58-41.1C169.475,6.654,151.2,3.984,141.294,3.984c-.261,0-.526,0-.784.005l-.94.01c-9.913,0-28.187,2.669-39.21,20.551-8.242,13.372-7.18,34.3-6.6,40.827a2.024,2.024,0,0,1,.053.462v.269c.1.94.182,1.579.213,1.834.012.09.017.133.017.138a.732.732,0,0,1,0,.14,2.853,2.853,0,0,0,.07.77c.084.78.178,1.555.26,2.21a79.95,79.95,0,0,0,2.55,12.43c.22.72.454,1.453.68,2.16q.121.384.247.768l.144.437c.279.836.567,1.664.85,2.474l.088.252c.321.878.657,1.746,1,2.579.191.485.383.959.571,1.418l0,0,.028.068a68.66,68.66,0,0,0,11.25,18.92c.786.915,1.481,1.668,2,2.22a46.37,46.37,0,0,0,8.1,6.8,32.957,32.957,0,0,0,17.581,5.661ZM187.585,88.83A11.511,11.511,0,0,0,197.25,83.6,13.179,13.179,0,0,0,199.3,72.93a7.443,7.443,0,0,0-3.749-4.83,7.917,7.917,0,0,0-1.291-.49,7.341,7.341,0,0,0-3.27-.157c-.065.6-.115.981-.139,1.128a5.907,5.907,0,0,0-.057.6v.006c0,.067-.009.133-.014.2a86.494,86.494,0,0,1-2.107,12.266,4.34,4.34,0,0,0,3.377-1.876,4.418,4.418,0,0,0,.41-4.53,1,1,0,0,1,1.68-1.09,6.489,6.489,0,0,1-5.65,9.48q-.167.011-.334.011-.154.565-.316,1.129c-.423,1.389-.853,2.731-1.284,4.014C186.9,88.814,187.242,88.83,187.585,88.83ZM88.61,67.309l-.019,0a7.3,7.3,0,0,0-2.221.348,8.424,8.424,0,0,0-1,.4A7.416,7.416,0,0,0,81.6,72.9a13.208,13.208,0,0,0,2,10.679A11.515,11.515,0,0,0,93.258,88.8c.356,0,.716-.017,1.072-.05-.419-1.249-.834-2.558-1.27-4q-.165-.567-.322-1.137-.264.022-.527.017a6.5,6.5,0,0,1-5.7-9.51,1,1,0,0,1,1.68,1.09,4.473,4.473,0,0,0,.41,4.531,4.359,4.359,0,0,0,3.616,1.879A80.234,80.234,0,0,1,90.54,72.75a.239.239,0,0,1,0-.08c-.136-.968-.267-2.038-.4-3.27a3.4,3.4,0,0,0-.043-.444c-.019-.136-.038-.275-.047-.417q0-.033,0-.065c-.031-.155-.06-.39-.092-.7-.014-.107-.029-.226-.044-.364a7.68,7.68,0,0,0-1.241-.1H88.59ZM240.46,191.7a94.646,94.646,0,0,0-11.44-8.64,1,1,0,1,1,1.09-1.68,96.016,96.016,0,0,1,11.68,8.83,1,1,0,1,1-1.33,1.49Z" fill="#372168"/>
      </g>
      <g id="Chin" transform="translate(104 153.5)">
        <rect id="Setup_03_Face_Man_Chin_background" data-name="Setup/#03 Face/Man Chin background" width="70" height="10" fill="none"/>
        <g id="Group_2" data-name="Group 2" transform="translate(27.837 3.702)">
          <path id="Path-3" data-name="Path" d="M12.5,3.989a1,1,0,0,1-.74-.32,7.19,7.19,0,0,0-5-1.67,7.37,7.37,0,0,0-5,1.6A1,1,0,1,1,.344,2.2a10.36,10.36,0,0,1,12.89.1,1,1,0,0,1-.73,1.69Z" transform="translate(0 0)" fill="#372168"/>
        </g>
      </g>
      <g id="Cheeks_color:" data-name="Cheeks color:" transform="translate(102 124.789)">
        <path id="Cheeks_color:-2" data-name="Cheeks color:" d="M54,10A10,10,0,1,1,64,20,10,10,0,0,1,54,10ZM0,10A10,10,0,1,1,10,20,10,10,0,0,1,0,10Z" fill="#ff1300" opacity="0.15" style="mix-blend-mode: multiply;isolation: isolate"/>
      </g>
      <g id="Accessories_03" data-name="Accessories#03" transform="translate(108.704 198.664)">
        <g id="necklace-2">
          <path id="Path-4" data-name="Path" d="M30.126,38.426c-13.48,0-25.29-14.14-30.08-36a2,2,0,0,1,3.91-.85c4.3,19.65,14.82,32.86,26.17,32.86S52,21.226,56.3,1.576a2,2,0,1,1,3.91.85C55.416,24.286,43.576,38.426,30.126,38.426Z" fill="#372168"/>
          <path id="Path-5" data-name="Path" d="M13.184,13.88H1.924a1.93,1.93,0,0,1-1.6-3L7.554,0l7.23,10.88a1.92,1.92,0,0,1-1.6,3Z" transform="translate(22.572 36.416)" fill="#ffcb6d"/>
          <path id="Shape" d="M15.183,17.879H3.923a3.93,3.93,0,0,1-3.27-6.1L7.883.9a2,2,0,0,1,3.34,0l7.231,10.88a3.93,3.93,0,0,1-3.271,6.1ZM9.573,5.62l-5.51,8.26h11Z" transform="translate(20.573 34.417)" fill="#372168"/>
          <path id="Path-6" data-name="Path" d="M0,6.93,6.05,0" transform="translate(27.906 42.176)" fill="#f9f9f9"/>
          <path id="Path-7" data-name="Path" d="M1,8.933a1.006,1.006,0,0,1-.76-1.66l6-6.93a1,1,0,0,1,1.51,1.32L1.7,8.593A1,1,0,0,1,1,8.933Z" transform="translate(26.902 41.173)" fill="#372168"/>
        </g>
      </g>
      <g id="Hairstyle" transform="translate(46 19.5)">
        <g id="_3_hairdo" transform="translate(30.811 9.606)">
          <g id="Hair_color:" data-name="Hair color:" transform="translate(2.022 1.989)">
            <path id="Hair_color:-2" data-name="Hair color:" d="M116.39,65.236c-8.61,27.5-10.52,31.69-10.52,31.69h-.05a31.93,31.93,0,0,0,.74-5.44c0-.81,0-3.73.07-7.62.06-4.32.26-13.48.44-22.81a10.68,10.68,0,0,0-10.1-10.8,20.56,20.56,0,0,1-11.24-4.8,1.2,1.2,0,0,0-1.52,0c-5.39,4.35-11,1.17-13.17-.34a1.2,1.2,0,0,0-1.6.2c-18,21-37.84,16.3-49.59,10.39a5.54,5.54,0,0,0-8.06,4.92v29.32a32.23,32.23,0,0,0,1.36,9.18c-.82-2.26-3.44-9.81-10.36-32.22-7.22-23.41,1.59-30.14,3.86-31.44a1.15,1.15,0,0,0,.58-.84c.74-5.22,7.62-43.1,50.41-28.57a4.44,4.44,0,0,0,3.68-.38c6.31-3.8,28.47-14.86,37.39,10.58a1.83,1.83,0,0,0,1.81,1.23c3-.13,10.1.82,9.93,12.6a1.64,1.64,0,0,0,.76,1.4C114.12,33.386,123.76,41.686,116.39,65.236Z" transform="translate(0 0)" fill="#e98a9b"/>
            <path id="Hair_color:-3" data-name="Hair color:" d="M116.39,65.236c-8.61,27.5-10.52,31.69-10.52,31.69h-.05a31.93,31.93,0,0,0,.74-5.44c0-.81,0-3.73.07-7.62.06-4.32.26-13.48.44-22.81a10.68,10.68,0,0,0-10.1-10.8,20.56,20.56,0,0,1-11.24-4.8,1.2,1.2,0,0,0-1.52,0c-5.39,4.35-11,1.17-13.17-.34a1.2,1.2,0,0,0-1.6.2c-18,21-37.84,16.3-49.59,10.39a5.54,5.54,0,0,0-8.06,4.92v29.32a32.23,32.23,0,0,0,1.36,9.18c-.82-2.26-3.44-9.81-10.36-32.22-7.22-23.41,1.59-30.14,3.86-31.44a1.15,1.15,0,0,0,.58-.84c.74-5.22,7.62-43.1,50.41-28.57a4.44,4.44,0,0,0,3.68-.38c6.31-3.8,28.47-14.86,37.39,10.58a1.83,1.83,0,0,0,1.81,1.23c3-.13,10.1.82,9.93,12.6a1.64,1.64,0,0,0,.76,1.4C114.12,33.386,123.76,41.686,116.39,65.236Z" transform="translate(0 0)" fill="rgba(255,255,255,0.16)"/>
          </g>
          <path id="Combined_Shape-2" data-name="Combined Shape" d="M13.291,101.814c-.818-2.236-3.47-9.862-10.4-32.32C-.239,59.349-.831,50.989,1.131,44.648a15.279,15.279,0,0,1,6.19-8.714,51.17,51.17,0,0,1,3.884-12.8c3.2-7.006,7.651-12.308,13.236-15.761a32.662,32.662,0,0,1,17.375-4.62,58.173,58.173,0,0,1,18.475,3.4,2.4,2.4,0,0,0,2-.2C66,3.73,73.382,0,81.237,0a21.17,21.17,0,0,1,7.195,1.2c6.378,2.3,11.133,7.778,14.13,16.27.194-.01.386-.014.571-.014a11.1,11.1,0,0,1,7.529,2.935c2.555,2.494,3.83,6.37,3.79,11.52a18.894,18.894,0,0,1,7.11,9.66c2.446,6.944,2.021,15.776-1.26,26.25-8.312,26.584-10.381,31.46-10.589,31.929a2,2,0,0,1-1.819,1.17h-.018a2.042,2.042,0,0,1-1.583-.75,1.99,1.99,0,0,1-.42-1.69,30.359,30.359,0,0,0,.69-5c0-1,0-3.66.07-7.63,0-1.868.065-4.684.14-7.944V77.9c.032-1.425.067-2.9.1-4.46.046-2.509.1-5.137.151-7.919l.049-2.491a8.674,8.674,0,0,0-8.23-8.809,22.325,22.325,0,0,1-11.88-4.84A11.078,11.078,0,0,1,80.3,51.631a14.926,14.926,0,0,1-7.808-2.5C63.442,59.423,52.981,64.641,41.4,64.642a42,42,0,0,1-11.4-1.634,50.417,50.417,0,0,1-7.389-2.74q-.073-.023-.145-.052c-.09-.035-.972-.4-2.2-1.012a3.556,3.556,0,0,0-2.809.411,3.449,3.449,0,0,0-1.67,3v29.32a30.129,30.129,0,0,0,1.28,8.609,1.994,1.994,0,0,1-3.78,1.27Zm73.7-56.589a3.184,3.184,0,0,1,2,.72,18.48,18.48,0,0,0,10.11,4.35,12.689,12.689,0,0,1,12,12.83c-.071,3.613-.139,7.13-.2,10.42-.11,5.093-.184,8.936-.22,11.42,1.65-5.028,3.614-11.182,5.839-18.29,6.912-22.075-1.6-29.668-4.369-31.47a3.641,3.641,0,0,1-1.67-3.119c.06-4.1-.807-7.058-2.579-8.78a6.988,6.988,0,0,0-4.479-1.8,17.126,17.126,0,0,0-6.511,1.771,2,2,0,0,1-1.641-3.65,28.58,28.58,0,0,1,3.369-1.273C96.052,11.332,92.172,6.829,87.1,4.964a17.429,17.429,0,0,0-5.909-.979c-7.24,0-14.168,3.776-16.811,5.4a6.422,6.422,0,0,1-5.359.561A54,54,0,0,0,41.859,6.756a28.729,28.729,0,0,0-15.3,4.028C14.421,18.251,11.67,33.853,11.242,36.9a3.114,3.114,0,0,1-1.571,2.3c-.956.566-3.326,2.342-4.668,6.609-1.746,5.545-1.165,13.116,1.729,22.5,2.021,6.539,3.686,11.863,5.09,16.28v-22a7.544,7.544,0,0,1,3.439-6.339,18.116,18.116,0,0,1-1.549-1.242,2.011,2.011,0,1,1,2.68-3,25.7,25.7,0,0,0,5.323,3.407,7.527,7.527,0,0,1,1.106.463A41.541,41.541,0,0,0,41.463,60.7c10.531,0,20.129-4.953,28.528-14.72a3.2,3.2,0,0,1,4.271-.52,10.767,10.767,0,0,0,6.008,2.182,7.457,7.457,0,0,0,4.762-1.762,3.232,3.232,0,0,1,1.939-.65Zm-49.76,8.84a1,1,0,0,1,1.16-1.63,6.51,6.51,0,0,0,7.72-.59,1,1,0,0,1,1.25,1.56,8.654,8.654,0,0,1-5.52,2.04h-.05A8.23,8.23,0,0,1,37.231,54.065Zm58.66-9.05a1,1,0,1,1,1.16-1.62,4.74,4.74,0,0,0,5.57-.45,1,1,0,1,1,1.26,1.561,6.771,6.771,0,0,1-4.34,1.6h-.023A6.579,6.579,0,0,1,95.891,45.014Zm-48.51-11.86a16.2,16.2,0,0,1-3.33-.38,1.021,1.021,0,1,1,.41-2c4.67,1,6.75-.23,9-2.8a1.61,1.61,0,0,1,2.14-.27c1.12.8,3.309,1.89,5.379.21a1,1,0,1,1,1.26,1.561c-3,2.45-6.22.889-7.5.069a9.057,9.057,0,0,1-7.236,3.611Zm-21.87-8.11a1,1,0,0,1-.94-1.34,8.449,8.449,0,0,1,8.339-5.8,1,1,0,1,1-.149,2,6.52,6.52,0,0,0-6.31,4.49,1,1,0,0,1-.936.65Zm63.4-9.37a6.541,6.541,0,0,0-6.771-3.749,1,1,0,0,1-.2-1.991,8.439,8.439,0,0,1,8.83,5,1,1,0,0,1-.57,1.29.924.924,0,0,1-.36.09A1,1,0,0,1,88.912,15.674Z" fill="#372168"/>
        </g>
      </g>
      <g id="Emotions" transform="translate(104 99)">
        <rect id="Setup_01_Emotions_happy_background" data-name="Setup/#01 Emotions/happy background" width="70" height="56" fill="none"/>
        <g id="Face">
          <g id="Mouth" transform="translate(0 35.38)">
            <rect id="Setup_03_Face_Mouth_happy_mouth_background" data-name="Setup/#03 Face/Mouth/happy_mouth background" width="70" height="20" transform="translate(0 0.62)" fill="none"/>
            <g id="happy_mouth" transform="translate(19.49 0)">
              <path id="Path-8" data-name="Path" d="M6.35,2H1A1,1,0,0,1,1,0H6.35a1,1,0,0,1,0,2Z" transform="translate(11.78 19.34)" fill="#372168"/>
              <g id="smile-2">
                <path id="Path-9" data-name="Path" d="M27.4,0A13.71,13.71,0,0,1,13.7,13.186,13.71,13.71,0,0,1,0,0Z" transform="translate(1.75 1.75)" fill="#f66"/>
                <path id="Shape-2" data-name="Shape" d="M15.7,16.682l-.248,0-.248,0A15.118,15.118,0,0,1,4.555,12.329,15.122,15.122,0,0,1,0,1.75,1.752,1.752,0,0,1,1.75,0h27.4A1.752,1.752,0,0,1,30.9,1.75a15.122,15.122,0,0,1-4.555,10.579A15.118,15.118,0,0,1,15.7,16.682ZM3.64,3.5a12,12,0,0,0,23.62,0Z" fill="#372168"/>
                <g id="Path-10" data-name="Path" transform="translate(6.62 7.283)">
                  <path id="Path-11" data-name="Path" d="M18.32,3.817a13.26,13.26,0,0,1-9.57,3.83A12.82,12.82,0,0,1,0,4.417l.08-.73s3.3-5.91,8.58-2.15l.25-.09a19.62,19.62,0,0,0,1.92-.89c4.16-2.12,6.94,2.5,6.94,2.5Z" fill="#f66"/>
                  <path id="Path-12" data-name="Path" d="M18.32,3.817a13.26,13.26,0,0,1-9.57,3.83A12.82,12.82,0,0,1,0,4.417l.08-.73s3.3-5.91,8.58-2.15l.25-.09a19.62,19.62,0,0,0,1.92-.89c4.16-2.12,6.94,2.5,6.94,2.5Z" fill="rgba(255,255,255,0.09)"/>
                </g>
                <path id="Shape-3" data-name="Shape" d="M10.736,11.159h0l-.235,0-.219,0a14.6,14.6,0,0,1-9.721-3.7,1.779,1.779,0,0,1-.55-1.47l.08-.73A1.751,1.751,0,0,1,.3,4.587,8.856,8.856,0,0,1,5.569.447a6.851,6.851,0,0,1,5,.89c.356-.156.735-.34,1.191-.58A6.552,6.552,0,0,1,14.743,0c2.836,0,5.121,2.073,6.217,3.847l.51.71a1.755,1.755,0,0,1-.14,2.22,14.931,14.931,0,0,1-4.864,3.243A14.923,14.923,0,0,1,10.736,11.159Zm-3.8-7.341a3.783,3.783,0,0,0-.6.049,4.854,4.854,0,0,0-2.489,1.76,11.4,11.4,0,0,0,6.468,2l.192,0h.145a11.916,11.916,0,0,0,7.1-2.331,4.077,4.077,0,0,0-3.013-1.8,2.988,2.988,0,0,0-1.356.343,17.13,17.13,0,0,1-2.1,1l-.249.1a1.783,1.783,0,0,1-1.641-.21A3.773,3.773,0,0,0,6.933,3.819Z" transform="translate(4.871 5.523)" fill="#372168"/>
                <path id="Path-13" data-name="Path" d="M0,1.38A7,7,0,0,1,1.84,0" transform="translate(14.34 8.46)" fill="#f9f9f9"/>
                <path id="Path-14" data-name="Path" d="M1.77,4.887a1.73,1.73,0,0,1-1.26-.54,1.75,1.75,0,0,1,0-2.47A8.22,8.22,0,0,1,2.92.127a1.752,1.752,0,1,1,1.31,3.25,5.51,5.51,0,0,0-1.29,1,1.76,1.76,0,0,1-1.17.51Z" transform="translate(12.57 6.703)" fill="#372168"/>
              </g>
            </g>
          </g>
          <g id="Nose" transform="translate(0 25)">
            <rect id="Setup_03_Face_Nose_background" data-name="Setup/#03 Face/Nose background" width="70" height="8" fill="none"/>
            <g id="_Nose" data-name="ðŸ‘ƒNose" transform="translate(29.222 2.152)">
              <path id="Path-15" data-name="Path" d="M5.75,5.635A6.52,6.52,0,0,1,.28,2.795,1.75,1.75,0,0,1,3.22.895,3.18,3.18,0,0,0,5.773,2.136,3.18,3.18,0,0,0,8.3.845a1.754,1.754,0,0,1,3,1.82,6.46,6.46,0,0,1-5.55,2.97Z" transform="translate(0 0)" fill="#372168"/>
            </g>
          </g>
          <g id="Eyes" transform="translate(0 12)">
            <rect id="Setup_03_Face_Eyes_happy_kiss_swetdrop_eyes_background" data-name="Setup/#03 Face/Eyes/happy_kiss_swetdrop_eyes background" width="70" height="10" fill="none"/>
            <g id="happy_kiss_swetdrop_eyes" transform="translate(9.066 2.318)">
              <path id="Path-16" data-name="Path" d="M9.79,5.622a1.73,1.73,0,0,1-1.49-.84,3.18,3.18,0,0,0-5.08-.05,1.75,1.75,0,1,1-2.94-1.9,6.67,6.67,0,0,1,11,.13,1.74,1.74,0,0,1-.59,2.4,1.68,1.68,0,0,1-.9.26Z" transform="translate(0 0)" fill="#372168"/>
              <path id="Path-17" data-name="Path" d="M9.85,5.63a1.75,1.75,0,0,1-1.5-.85,3.18,3.18,0,0,0-5.08-.05A1.75,1.75,0,1,1,.33,2.84a6.66,6.66,0,0,1,11,.13A1.76,1.76,0,0,1,9.84,5.63Z" transform="translate(40.947 0.042)" fill="#372168"/>
            </g>
          </g>
          <g id="Eyebrows">
            <rect id="Setup_03_Face_Eyebrow_happy_eyebrows_background" data-name="Setup/#03 Face/Eyebrow/happy_eyebrows background" width="70" height="12" fill="none"/>
            <g id="happy_eyebrows" transform="translate(3.445 2.163)">
              <path id="Path-18" data-name="Path" d="M2,7.827A1.995,1.995,0,0,1,.8,4.237c.37-.28,9-6.6,19.43-3.27a2,2,0,0,1-1.21,3.81c-8.44-2.69-15.75,2.61-15.83,2.66A2,2,0,0,1,2,7.827Z" transform="translate(0)" fill="#372168"/>
              <path id="Path-19" data-name="Path" d="M19.692,7.836a1.94,1.94,0,0,1-1.19-.4c-.12-.08-7.42-5.34-15.83-2.66A2,2,0,1,1,1.462.966c10.43-3.33,19.06,3,19.43,3.27a2,2,0,0,1-1.2,3.6Z" transform="translate(41.473 0.001)" fill="#372168"/>
            </g>
          </g>
        </g>
      </g>
      <g id="Accessories_02" data-name="Accessories#02" transform="translate(88.342 107.75)">
        <g id="_4_glasses" transform="translate(-0.843 -0.85)">
          <g id="Group_2-2" data-name="Group 2" transform="translate(14.369 2.85)" opacity="0.7">
            <g id="Path-20" data-name="Path">
              <path id="Path-21" data-name="Path" d="M33.081,2.43c-.44,5.14-2.82,16.6-16.58,16.6a23.66,23.66,0,0,1-5.78-.65q-.46-.11-.9-.24a14.68,14.68,0,0,1-1.66-.61,14.2,14.2,0,0,1-1.61-.8,12.49,12.49,0,0,1-1.83-1.3,11.94,11.94,0,0,1-2.43-2.79h0A16.2,16.2,0,0,1,.181,1.92,2.26,2.26,0,0,1,2.421,0h28.4a2.26,2.26,0,0,1,2.26,2.43Z" transform="translate(0 0.02)" fill="#ffcb6d"/>
              <path id="Path-22" data-name="Path" d="M33.081,2.43c-.44,5.14-2.82,16.6-16.58,16.6a23.66,23.66,0,0,1-5.78-.65q-.46-.11-.9-.24a14.68,14.68,0,0,1-1.66-.61,14.2,14.2,0,0,1-1.61-.8,12.49,12.49,0,0,1-1.83-1.3,11.94,11.94,0,0,1-2.43-2.79h0A16.2,16.2,0,0,1,.181,1.92,2.26,2.26,0,0,1,2.421,0h28.4a2.26,2.26,0,0,1,2.26,2.43Z" transform="translate(0 0.02)" fill="rgba(255,255,255,0.05)"/>
            </g>
            <g id="Path-23" data-name="Path">
              <path id="Path-24" data-name="Path" d="M16.577,19.04a19.72,19.72,0,0,1-5.37-.69c-.31-.08-.61-.18-.89-.28A13.08,13.08,0,0,1,8.7,17.4a10.72,10.72,0,0,1-1.56-.89,12.93,12.93,0,0,1-1.76-1.38,14.28,14.28,0,0,1-2.37-2.9,22.24,22.24,0,0,1-3-9.79A2.26,2.26,0,0,1,2.267,0h28.4a2.26,2.26,0,0,1,2.24,1.92C33.647,6.74,32.567,19.04,16.577,19.04Z" transform="translate(41.564 0)" fill="#ffcb6d"/>
              <path id="Path-25" data-name="Path" d="M16.577,19.04a19.72,19.72,0,0,1-5.37-.69c-.31-.08-.61-.18-.89-.28A13.08,13.08,0,0,1,8.7,17.4a10.72,10.72,0,0,1-1.56-.89,12.93,12.93,0,0,1-1.76-1.38,14.28,14.28,0,0,1-2.37-2.9,22.24,22.24,0,0,1-3-9.79A2.26,2.26,0,0,1,2.267,0h28.4a2.26,2.26,0,0,1,2.24,1.92C33.647,6.74,32.567,19.04,16.577,19.04Z" transform="translate(41.564 0)" fill="rgba(255,255,255,0.05)"/>
            </g>
          </g>
          <path id="Light_layer" data-name="Light layer" d="M12.7,0,2.43,15.45A11.94,11.94,0,0,1,0,12.66H0L8.4.02Z" transform="translate(16.66 2.85)" fill="#fff" opacity="0.4"/>
          <path id="Light_layer-2" data-name="Light layer" d="M13.27,0,1.61,17.54A14.2,14.2,0,0,1,0,16.74L11.12,0Z" transform="translate(20.92 2.85)" fill="#fff" opacity="0.4"/>
          <path id="Light_layer-3" data-name="Light layer" d="M13.14,0,.9,18.39q-.46-.11-.9-.24L12.07,0Z" transform="translate(24.19 2.85)" fill="#fff" opacity="0.4"/>
          <path id="Light_layer-4" data-name="Light layer" d="M12.37,0l-10,15.13A14.28,14.28,0,0,1,0,12.23L8.13,0Z" transform="translate(58.99 2.85)" fill="#fff" opacity="0.4"/>
          <path id="Light_layer-5" data-name="Light layer" d="M13.12,0,1.56,17.4A10.72,10.72,0,0,1,0,16.51L11,0Z" transform="translate(63.07 2.85)" fill="#fff" opacity="0.4"/>
          <path id="Light_layer-6" data-name="Light layer" d="M13.08,0,.89,18.35c-.31-.08-.61-.18-.89-.28L12,0Z" transform="translate(66.25 2.85)" fill="#fff" opacity="0.4"/>
          <path id="Shape-4" data-name="Shape" d="M18.5,23.04c-6.519,0-11.462-1.911-14.691-5.68C.221,13.176-.4,7.514.205,3.61A4.231,4.231,0,0,1,4.39,0H32.826a4.27,4.27,0,0,1,4.25,4.61A24.263,24.263,0,0,1,33.369,15.9C30.141,20.639,25.137,23.04,18.5,23.04ZM4.412,4.04a.262.262,0,0,0-.256.221c-.448,2.878-.013,7.365,2.69,10.54,2.43,2.84,6.35,4.279,11.65,4.279,6.082,0,13.55-2.562,14.59-14.77a.232.232,0,0,0-.06-.18.292.292,0,0,0-.2-.09H4.412Z" transform="translate(12.374 0.85)" fill="#372168"/>
          <path id="Shape-5" data-name="Shape" d="M18.595,23.04C3.236,23.04.485,10.151.015,4.61A4.249,4.249,0,0,1,4.249,0H32.685a4.251,4.251,0,0,1,4.2,3.6c.61,3.918-.017,9.59-3.61,13.76C30.066,21.129,25.127,23.04,18.595,23.04ZM4.256,4.04a.248.248,0,0,0-.191.09A.242.242,0,0,0,4,4.31c1,12.207,8.491,14.77,14.6,14.77,5.294,0,9.21-1.44,11.641-4.28,2.712-3.163,3.149-7.655,2.7-10.541a.258.258,0,0,0-.256-.22H4.256Z" transform="translate(53.925 0.85)" fill="#372168"/>
          <path id="Path-26" data-name="Path" d="M13.867,7.847a2.29,2.29,0,0,1-.62-.1L1.387,3.907A2,2,0,0,1,2.617.1l11.86,3.84a2,2,0,0,1-.61,3.91Z" transform="translate(0.843 4.343)" fill="#372168"/>
          <path id="Path-27" data-name="Path" d="M2.007,7.583a2,2,0,0,1-.6-3.91l11.4-3.58a2,2,0,0,1,1.2,3.82l-11.4,3.57a1.8,1.8,0,0,1-.6.1Z" transform="translate(86.733 4.607)" fill="#372168"/>
          <path id="Path-28" data-name="Path" d="M13.861,5.388a1.94,1.94,0,0,1-.93-.23,10.93,10.93,0,0,0-9.92,0,2.011,2.011,0,1,1-2-3.49,15,15,0,0,1,13.75,0,2,2,0,0,1-.94,3.76Z" transform="translate(43.739 9.092)" fill="#372168"/>
          <path id="Path-29" data-name="Path" d="M10.54,4H2A2,2,0,0,1,2,0h8.54a2,2,0,0,1,0,4Z" transform="translate(45.38 2.53)" fill="#372168"/>
        </g>
      </g>
      <g id="Accessories_01" data-name="Accessories#01" transform="translate(74.956 -7.927)">
        <g id="_2_winter_hat" transform="translate(-0.956 -0.573)">
          <g id="Path-30" data-name="Path">
            <path id="Path-31" data-name="Path" d="M121.8,39.1a1.29,1.29,0,0,1-1.94.92c-3.77-2.24-18.44-9.17-26.31-11.11-18.3-4.51-33.85-4.51-52.84-2.2-15.55,1.88-33.59,8.08-38.28,10.71a1.3,1.3,0,0,1-1.92-1,64.28,64.28,0,0,1,.22-17.76A14.53,14.53,0,0,1,8.831,7.6h0a14.78,14.78,0,0,1,2.56-1C21.6,3.91,39.391.02,57.471,0c25.63,0,43.57,3.92,52.86,6.63a16.84,16.84,0,0,1,6.25,3.37,16.64,16.64,0,0,1,5.8,10.73A74.92,74.92,0,0,1,121.8,39.1Z" transform="translate(2.969 54.64)" fill="#9284ff"/>
            <path id="Path-32" data-name="Path" d="M121.8,39.1a1.29,1.29,0,0,1-1.94.92c-3.77-2.24-18.44-9.17-26.31-11.11-18.3-4.51-33.85-4.51-52.84-2.2-15.55,1.88-33.59,8.08-38.28,10.71a1.3,1.3,0,0,1-1.92-1,64.28,64.28,0,0,1,.22-17.76A14.53,14.53,0,0,1,8.831,7.6h0a14.78,14.78,0,0,1,2.56-1C21.6,3.91,39.391.02,57.471,0c25.63,0,43.57,3.92,52.86,6.63a16.84,16.84,0,0,1,6.25,3.37,16.64,16.64,0,0,1,5.8,10.73A74.92,74.92,0,0,1,121.8,39.1Z" transform="translate(2.969 54.64)" fill="rgba(255,255,255,0.09)"/>
          </g>
          <path id="Light_layer-7" data-name="Light layer" d="M121.8,39.1a1.29,1.29,0,0,1-1.94.92c-3.77-2.24-18.44-9.17-26.31-11.11-18.3-4.51-33.85-4.51-52.84-2.2-15.55,1.88-33.59,8.08-38.28,10.71a1.3,1.3,0,0,1-1.92-1,64.28,64.28,0,0,1,.22-17.76A14.53,14.53,0,0,1,8.831,7.6h0a14.78,14.78,0,0,1,2.56-1C21.6,3.91,39.391.02,57.471,0c25.63,0,43.57,3.92,52.86,6.63a16.84,16.84,0,0,1,6.25,3.37,16.64,16.64,0,0,1,5.8,10.73A74.92,74.92,0,0,1,121.8,39.1Z" transform="translate(2.969 54.64)" fill="#fff" opacity="0.4" style="mix-blend-mode: soft-light;isolation: isolate"/>
          <path id="Shape-6" data-name="Shape" d="M122.638,44.041l-.105,0a3.276,3.276,0,0,1-1.679-.47c-3.783-2.238-18.161-9.007-25.771-10.89a122.1,122.1,0,0,0-30-3.686A181.622,181.622,0,0,0,42.963,30.52C27.994,32.342,10.144,38.341,5.414,41a3.3,3.3,0,0,1-4.87-2.42,64.987,64.987,0,0,1,.22-18.32A16.475,16.475,0,0,1,9.984,7.67h.09a17.062,17.062,0,0,1,2.83-1C22.3,4.187,40.858.02,59.494,0h.239c26.245,0,44.584,4.2,53.18,6.71a18.839,18.839,0,0,1,13.48,15.76,76.327,76.327,0,0,1-.589,18.8,3.141,3.141,0,0,1-3.165,2.771Zm-57.128-19A125.547,125.547,0,0,1,96.034,28.81c7.479,1.84,20.869,8.016,25.95,10.81a72.17,72.17,0,0,0,.43-16.72,14.846,14.846,0,0,0-10.62-12.409c-8.385-2.446-26.3-6.55-52.06-6.55h-.239c-18.1,0-36.314,4.1-45.56,6.539a12.094,12.094,0,0,0-2.22.81h-.08a12.526,12.526,0,0,0-6.91,9.52,62.217,62.217,0,0,0-.35,16.2,108.406,108.406,0,0,1,15.544-5.63,145.383,145.383,0,0,1,22.557-4.85,187.852,187.852,0,0,1,22.69-1.5v.01h.347Z" transform="translate(0.957 52.81)" fill="#372168"/>
          <g id="Path-33" data-name="Path">
            <path id="Path-34" data-name="Path" d="M107.75,62.129a16.84,16.84,0,0,0-6.25-3.37c-9.29-2.71-27.23-6.65-52.86-6.63-18,0-35.87,3.91-46.08,6.6a14.78,14.78,0,0,0-2.56,1H0s5.23-7.88,3.72-14.69-7-18.16,12.59-25.72S55.92-.681,65.38.029c7.92.63,13.46,3.65,18.16,12.86a55.87,55.87,0,0,0,6.9,10.33,25.25,25.25,0,0,1,4.58,7.7,35.8,35.8,0,0,0,6.12,11.19C103.98,45.509,107.01,51.589,107.75,62.129Z" transform="translate(11.81 2.611)" fill="#9284ff"/>
            <path id="Path-35" data-name="Path" d="M107.75,62.129a16.84,16.84,0,0,0-6.25-3.37c-9.29-2.71-27.23-6.65-52.86-6.63-18,0-35.87,3.91-46.08,6.6a14.78,14.78,0,0,0-2.56,1H0s5.23-7.88,3.72-14.69-7-18.16,12.59-25.72S55.92-.681,65.38.029c7.92.63,13.46,3.65,18.16,12.86a55.87,55.87,0,0,0,6.9,10.33,25.25,25.25,0,0,1,4.58,7.7,35.8,35.8,0,0,0,6.12,11.19C103.98,45.509,107.01,51.589,107.75,62.129Z" transform="translate(11.81 2.611)" fill="rgba(255,255,255,0.09)"/>
          </g>
          <path id="Shape-7" data-name="Shape" d="M109.953,66.178c-.069,0-.139,0-.208-.01a2,2,0,0,1-1.29-.481,14.631,14.631,0,0,0-5.52-3c-8.389-2.446-26.307-6.55-52.06-6.55h-.24c-18.1,0-36.312,4.1-45.56,6.54a11.96,11.96,0,0,0-2.219.81,2.05,2.05,0,0,1-2.631-.86,2.007,2.007,0,0,1,.09-2,27.1,27.1,0,0,0,2.225-4.4c.924-2.314,1.882-5.709,1.2-8.745-.15-.673-.339-1.39-.54-2.15L3.2,45.315C1.391,38.423-1.634,26.889,17.575,19.458c7.1-2.759,14.173-6.082,20.81-9.25C49.95,4.731,59.938,0,66.544,0c.337,0,.667.013.982.038,9.378.75,15.109,4.806,19.78,14a53.631,53.631,0,0,0,6.66,10,26.926,26.926,0,0,1,4.93,8.32,33.662,33.662,0,0,0,5.77,10.58c4.05,4.9,6.432,12.03,7.079,21.191a1.993,1.993,0,0,1-1.09,1.93A2.094,2.094,0,0,1,109.953,66.178ZM50.635,52.168h.24c26.243,0,44.583,4.2,53.18,6.71a18.31,18.31,0,0,1,3.25,1.28c-1.147-7.893-3.743-12.394-5.719-14.78a37.767,37.767,0,0,1-6.47-11.821,23.106,23.106,0,0,0-4.22-7.069,57.838,57.838,0,0,1-7.15-10.7c-4.64-9.081-9.768-11.24-16.539-11.78-.225-.018-.464-.027-.709-.027-2.58,0-6.179.959-11.326,3.019C50.547,8.85,45.238,11.37,40.1,13.808l-.194.092c-6.781,3.207-13.793,6.524-20.886,9.268C3.124,29.318,5.315,37.624,7.075,44.3q.064.247.128.489l0,.017c.165.63.322,1.225.448,1.793.939,4.245-.385,8.722-1.661,11.73,6.476-1.641,13.03-2.99,19.478-4.01A163.685,163.685,0,0,1,50.635,52.168Z" transform="translate(9.815 0.572)" fill="#372168"/>
          <path id="Path-36" data-name="Path" d="M3.222,27.842a1,1,0,0,1-.93-.64c-5.05-13.13-.21-26,0-26.56a1,1,0,0,1,1.87.72c0,.12-4.77,12.73,0,25.12a1,1,0,0,1-.58,1.29A1.15,1.15,0,0,1,3.222,27.842Z" transform="translate(14.488 59.458)" fill="#372168"/>
          <path id="Path-37" data-name="Path" d="M2.052,6.637a1,1,0,0,1-.95-.71,33.2,33.2,0,0,1-1.09-4.76,1.012,1.012,0,0,1,2-.31,31,31,0,0,0,1,4.48,1.016,1.016,0,0,1-.96,1.3Z" transform="translate(33.178 75.713)" fill="#372168"/>
          <path id="Path-38" data-name="Path" d="M1.017,16.476a1,1,0,0,1-1-1A57.3,57.3,0,0,1,1.587.686a1,1,0,0,1,1.93.51,56.28,56.28,0,0,0-1.5,14.22,1,1,0,0,1-1,1Z" transform="translate(32.683 55.944)" fill="#372168"/>
          <path id="Path-39" data-name="Path" d="M1,23.846a.84.84,0,0,1-.27,0,1,1,0,0,1-.69-1.24c1.66-5.83,0-21.34,0-21.49a1.006,1.006,0,0,1,2-.22c.07.65,1.73,16,0,22.26A1,1,0,0,1,1,23.846Z" transform="translate(54.391 53.884)" fill="#372168"/>
          <path id="Path-40" data-name="Path" d="M1.364,27.041a1.09,1.09,0,0,1-.39-.08,1,1,0,0,1-.53-1.31c4.61-10.76-.33-24.17-.38-24.3a1,1,0,1,1,1.87-.7c.22.57,5.28,14.27.35,25.78A1,1,0,0,1,1.364,27.041Z" transform="translate(77.216 54.389)" fill="#372168"/>
          <path id="Path-41" data-name="Path" d="M1,16.042a1,1,0,0,1-.51-.13,1,1,0,0,1-.35-1.37c1.75-3,2.42-7.52,2-13.47a1,1,0,0,1,2-.14c.45,6.36-.31,11.28-2.27,14.62A1,1,0,0,1,1,16.042Z" transform="translate(95.37 68.888)" fill="#372168"/>
          <path id="Path-42" data-name="Path" d="M2.766,10.885a1,1,0,0,1-1-.87,70.6,70.6,0,0,0-1.74-8.79,1,1,0,0,1,1.92-.55,68.75,68.75,0,0,1,1.8,9.07,1,1,0,0,1-.86,1.13Z" transform="translate(95.374 56.415)" fill="#372168"/>
          <path id="Path-43" data-name="Path" d="M2.648,23.184h-.2A1,1,0,0,1,1.668,22,39.15,39.15,0,0,0,.078,1.384a1,1,0,1,1,1.84-.77A40.4,40.4,0,0,1,3.628,22.4a1,1,0,0,1-.98.78Z" transform="translate(112.342 60.386)" fill="#372168"/>
          <path id="Path-44" data-name="Path" d="M32.32,15.2a1,1,0,0,1-.81-.41,30,30,0,0,0-7.41-6.46A41.87,41.87,0,0,0,1,2H1A1,1,0,1,1,1,0c21.83-.15,31.72,13.05,32.13,13.61a1,1,0,0,1-.8,1.59Z" transform="translate(82.19 32.639)" fill="#372168"/>
          <path id="Path-45" data-name="Path" d="M1,14.951H.877a1,1,0,0,1-.87-1.11c.05-.38,1.25-9.26,8.59-13.65a1,1,0,1,1,1,1.72c-6.49,3.88-7.62,12.1-7.64,12.18A1,1,0,0,1,1,14.951Z" transform="translate(14.503 39.199)" fill="#372168"/>
          <path id="Path-46" data-name="Path" d="M10.428,4.475a1,1,0,0,1-.69-.27,7.79,7.79,0,0,0-4.65-2.19,8.72,8.72,0,0,0-3.75.64A1,1,0,0,1,.668.765a10.46,10.46,0,0,1,4.65-.74,9.72,9.72,0,0,1,5.8,2.73,1,1,0,0,1-.69,1.72Z" transform="translate(72.502 8.935)" fill="#372168"/>
        </g>
      </g>
    </g>
  </g>
  <path id="Oval" d="M140,280a141.037,141.037,0,0,1-28.215-2.844A139.234,139.234,0,0,1,61.725,256.09,140.408,140.408,0,0,1,11,194.495a139.3,139.3,0,0,1-8.158-26.279,141.364,141.364,0,0,1,0-56.43A139.232,139.232,0,0,1,23.91,61.725,140.41,140.41,0,0,1,85.506,11a139.3,139.3,0,0,1,26.279-8.158,141.364,141.364,0,0,1,56.43,0,139.23,139.23,0,0,1,50.06,21.066A140.409,140.409,0,0,1,269,85.506a139.3,139.3,0,0,1,8.158,26.279,141.367,141.367,0,0,1,0,56.43,139.232,139.232,0,0,1-21.065,50.06A140.408,140.408,0,0,1,194.495,269a139.3,139.3,0,0,1-26.279,8.158A141.037,141.037,0,0,1,140,280ZM140,4C65.009,4,4,65.009,4,140s61.01,136,136,136,136-61.009,136-136S214.991,4,140,4Z" fill="#372168"/>
</svg>
