<svg id="å¤´åƒ4" xmlns="http://www.w3.org/2000/svg" xmlns:xlink="http://www.w3.org/1999/xlink" width="280" height="280" viewBox="0 0 280 280">
  <defs>
    <clipPath id="clip-path">
      <path d="M0,138A138,138,0,1,1,138,276,138,138,0,0,1,0,138Z" fill="none"/>
    </clipPath>
  </defs>
  <g id="Man" transform="translate(2.004 4)">
    <g id="Background">
      <circle id="Background-2" data-name="Background" cx="138" cy="138" r="138" fill="#bec5d8"/>
      <circle id="Background-3" data-name="Background" cx="138" cy="138" r="138" fill="rgba(255,255,255,0.16)"/>
    </g>
    <g id="Man-2" data-name="Man" transform="translate(0)" clip-path="url(#clip-path)">
      <g id="Body" transform="translate(-2 48.67)">
        <path id="Skin_color:" data-name="Skin color:" d="M31.138,146.778v-34.7l-.05-.058a70.8,70.8,0,0,1-11.58-19.45c-.21-.51-.419-1-.62-1.55-.329-.86-.67-1.75-1-2.631-.46-1.309-.92-2.64-1.35-4l-.689-2.19a80.884,80.884,0,0,1-2.6-12.75c-.09-.73-.18-1.48-.26-2.24,0-.28-.06-.56-.08-.84,0,0-.12-.841-.26-2.29a2.3,2.3,0,0,1,0-.249c-.66-7.28-1.68-28.451,6.87-42.331C29.888,4.688,46.908-.222,61.308.008c14.39-.23,31.41,4.68,41.78,21.49,8.486,13.84,7.5,34.929,6.836,42.268a9.675,9.675,0,0,1,7.255.462c5.3,2.52,7.539,10.85,2.579,18.41-3.781,5.771-10.157,6.819-15.029,5.716l-.011.033c-.33.88-.66,1.77-1,2.631-.2.53-.41,1-.62,1.55a70.421,70.421,0,0,1-11.49,19.32l-.049.059v34.831c-.79,5.071-14,9.09-30.21,9.09S31.927,151.868,31.138,146.778Zm58.3-32.47a47.7,47.7,0,0,1-8.46,7.1,34.921,34.921,0,0,1-8.6,4.237,34.932,34.932,0,0,0,8.629-4.247,47.728,47.728,0,0,0,8.46-7.1l.193-.224ZM2.788,82.678c-5-7.6-2.731-15.93,2.509-18.41a10.391,10.391,0,0,1,1.281-.509,9.9,9.9,0,0,1,6,.07,2.49,2.49,0,0,0,0,.259,1.967,1.967,0,0,0,.05.551c.11,1.11.21,1.74.21,1.74a7.958,7.958,0,0,0,.08.84c.12,1.111.25,2.2.4,3.271a79.483,79.483,0,0,0,2.46,11.7q1.019,3.19,2.1,6.189a15.827,15.827,0,0,1-3.556.405A13.376,13.376,0,0,1,2.788,82.678Z" transform="translate(79.172 1.992)" fill="#ffc7bb"/>
        <path id="Path" d="M56.55,0V27.79C29.55,28.25,9.43,15.22,0,7.54V.1L.11.22A47.67,47.67,0,0,0,8.57,7.31a34.9,34.9,0,0,0,18.68,6H29.2a34.9,34.9,0,0,0,18.69-6A48.15,48.15,0,0,0,56.36.21Z" transform="translate(112.21 116.09)" fill="#7c3830" opacity="0.15" style="mix-blend-mode: multiply;isolation: isolate"/>
        <g id="Top_color:" data-name="Top color:" transform="translate(0 148.68)">
          <path id="Top_color:-2" data-name="Top color:" d="M0,80.65S17.705,45.4,27.33,36.82c19.14-17.08,49.85-27.4,69-32.94l.75-.22C102.75,2.02,107.35.82,110.24,0c.79,5.07,14,9.09,30.2,9.09s29.42-4,30.22-9.09h.16c2.86.82,7.42,2,13.05,3.63l.68.2c19.11,5.53,49.87,15.86,69.06,33C263.089,45.319,280,80.65,280,80.65Z" fill="#92645c"/>
          <path id="Top_color:-3" data-name="Top color:" d="M0,80.65S17.705,45.4,27.33,36.82c19.14-17.08,49.85-27.4,69-32.94l.75-.22C102.75,2.02,107.35.82,110.24,0c.79,5.07,14,9.09,30.2,9.09s29.42-4,30.22-9.09h.16c2.86.82,7.42,2,13.05,3.63l.68.2c19.11,5.53,49.87,15.86,69.06,33C263.089,45.319,280,80.65,280,80.65Z" fill="rgba(255,255,255,0.16)"/>
        </g>
        <path id="Path-2" data-name="Path" d="M62.51,19.26a83,83,0,0,1-18.39,2C23.66,21.26,6.29,14.47,0,3.88l.75-.22C6.42,2.02,11.02.82,13.91,0h0c.79,5.07,14,9.09,30.2,9.09S73.53,5.09,74.33,0h.16c2.86.82,7.42,2,13.05,3.63l.68.2C85.13,9.07,79.34,13.38,71.8,16.4" transform="translate(96.32 148.79)" fill="#fff" opacity="0.4" style="mix-blend-mode: soft-light;isolation: isolate"/>
        <path id="Combined_Shape" data-name="Combined Shape" d="M0,229.329s.008-.021.021-.05c.7-1.585,4.433-9.959,9.161-19.164,3.034-5.907,5.878-11,8.455-15.123,3.22-5.16,6.027-8.824,8.344-10.893a99.035,99.035,0,0,1,12.574-9.436,147.063,147.063,0,0,1,15.738-8.659c11.6-5.541,25.163-10.538,41.468-15.276l.73-.21c3.5-1.017,6.56-1.856,9.35-2.61l2.4-.664V114.733A72.3,72.3,0,0,1,96.8,95.31c-.193-.463-.39-.957-.64-1.6q-.206-.536-.41-1.073a18.012,18.012,0,0,1-2.261.143c-.113,0-.229,0-.343,0a15.287,15.287,0,0,1-12.847-7,17.139,17.139,0,0,1-2.55-13.94,11.431,11.431,0,0,1,5.88-7.37,15.65,15.65,0,0,1,1.5-.6,11.873,11.873,0,0,1,3.541-.54q.471,0,.939.037c-.624-9.535-.577-28.038,7.36-40.917a45.168,45.168,0,0,1,21.5-18.463A55.594,55.594,0,0,1,139.421,0c.359,0,.723,0,1.079.01C140.841,0,141.188,0,141.529,0a55.515,55.515,0,0,1,20.911,3.975A45.183,45.183,0,0,1,183.95,22.45c7.921,12.867,7.984,31.314,7.363,40.86q.457-.035.919-.035a12,12,0,0,1,3.128.415,12.951,12.951,0,0,1,1.92.73,11.438,11.438,0,0,1,5.87,7.35,17.2,17.2,0,0,1-2.55,13.95,15.3,15.3,0,0,1-12.892,7.063c-.1,0-.2,0-.3,0a17.939,17.939,0,0,1-2.235-.145l-.414,1.105c-.193.521-.408,1.04-.617,1.544l-.023.057a72.24,72.24,0,0,1-11.39,19.344v32.51l3.02.837c2.47.67,5.44,1.49,8.789,2.45l.72.21a2,2,0,0,1,.207.077c32.1,9.32,54.85,20.224,69.534,33.333,2.95,2.638,9.59,14.8,14.642,24.529,5.451,10.507,10.309,20.6,10.357,20.7H0Zm28.67-42.26c-4.518,4.026-10.177,14.207-14.129,22.04C10.263,217.589,7,225.229,6.97,225.3l266.01.106c-.024-.06-3.035-7.762-7.039-16.24-3.71-7.854-9.082-18.065-13.6-22.1-13.862-12.375-36.329-23.18-66.8-32.125-3.394,4.928-9.075,9.08-16.554,12.085a2,2,0,1,1-1.49-3.711c6.17-2.479,10.93-5.749,13.95-9.56-2.54-.72-4.8-1.34-6.75-1.87l-2.76-.76c-2.346,3.636-9.468,7.083-21.682,8.283-3.046.3-6.317.458-9.768.458-9.331,0-17.34-1.129-23.161-3.263-4.006-1.469-6.83-3.356-8.178-5.429l-2.171.591c-2.07.56-4.57,1.24-7.36,2,6.92,8.71,22.54,14.22,40.9,14.22a80.381,80.381,0,0,0,17.951-1.93,2,2,0,0,1,.89,3.9,84.775,84.775,0,0,1-18.87,2.07c-20.391,0-37.8-6.648-45.011-17.062C65,163.923,42.528,174.72,28.67,187.07Zm111.8-31.21c15.355,0,25.858-3.611,27.9-6.592a1.982,1.982,0,0,0,.337-.8v-29.4a50.429,50.429,0,0,1-7.46,6.018,36.946,36.946,0,0,1-19.76,6.3h-2.11a36.865,36.865,0,0,1-19.7-6.321,50.223,50.223,0,0,1-7.42-5.97L112.24,148.2a2.087,2.087,0,0,1,.07.265c.465,2.989,10.808,7.136,26.743,7.38Q139.754,155.859,140.47,155.859Zm-1.01-28.469h1.95a33.026,33.026,0,0,0,7.9-1.186,35.8,35.8,0,0,0,8.779-3.886q.462-.291.916-.6a45.6,45.6,0,0,0,8.1-6.8c.61-.629,1.258-1.351,2.1-2.34a2.013,2.013,0,0,1,.189-.193A68.31,68.31,0,0,0,180.39,93.81c.205-.488.408-.993.6-1.5l.093-.243c.187-.49.444-1.162.647-1.757l.25-.67c.646-1.79,1.3-3.772,2-6.061a82.886,82.886,0,0,0,2.79-14.62,3.884,3.884,0,0,1,.04-.5c.012-.094.023-.181.03-.273V68.05c0-.014.008-.078.024-.2.042-.326.131-1,.226-2l1.671.05h.212l-1.883-.16v-.11c.569-6.212,1.776-27.533-6.58-41.1C169.475,6.654,151.2,3.984,141.294,3.984c-.261,0-.526,0-.784.005l-.94.01c-9.913,0-28.187,2.669-39.21,20.551-8.242,13.372-7.18,34.3-6.6,40.827a2.024,2.024,0,0,1,.053.462v.269c.1.94.182,1.579.213,1.834.012.09.017.133.017.138a.732.732,0,0,1,0,.14,2.853,2.853,0,0,0,.07.77c.084.78.178,1.555.26,2.21a79.95,79.95,0,0,0,2.55,12.43c.22.72.454,1.453.68,2.16q.121.384.247.768l.144.437c.279.836.567,1.664.85,2.474l.088.252c.321.878.657,1.746,1,2.579.191.485.383.959.571,1.418l0,0,.028.068a68.66,68.66,0,0,0,11.25,18.92c.786.915,1.481,1.668,2,2.22a46.37,46.37,0,0,0,8.1,6.8,32.957,32.957,0,0,0,17.581,5.661ZM187.585,88.83A11.511,11.511,0,0,0,197.25,83.6,13.179,13.179,0,0,0,199.3,72.93a7.443,7.443,0,0,0-3.749-4.83,7.917,7.917,0,0,0-1.291-.49,7.341,7.341,0,0,0-3.27-.157c-.065.6-.115.981-.139,1.128a5.907,5.907,0,0,0-.057.6v.006c0,.067-.009.133-.014.2a86.494,86.494,0,0,1-2.107,12.266,4.34,4.34,0,0,0,3.377-1.876,4.418,4.418,0,0,0,.41-4.53,1,1,0,0,1,1.68-1.09,6.489,6.489,0,0,1-5.65,9.48q-.167.011-.334.011-.154.565-.316,1.129c-.423,1.389-.853,2.731-1.284,4.014C186.9,88.814,187.242,88.83,187.585,88.83ZM88.61,67.309l-.019,0a7.3,7.3,0,0,0-2.221.348,8.424,8.424,0,0,0-1,.4A7.416,7.416,0,0,0,81.6,72.9a13.208,13.208,0,0,0,2,10.679A11.515,11.515,0,0,0,93.258,88.8c.356,0,.716-.017,1.072-.05-.419-1.249-.834-2.558-1.27-4q-.165-.567-.322-1.137-.264.022-.527.017a6.5,6.5,0,0,1-5.7-9.51,1,1,0,0,1,1.68,1.09,4.473,4.473,0,0,0,.41,4.531,4.359,4.359,0,0,0,3.616,1.879A80.234,80.234,0,0,1,90.54,72.75a.239.239,0,0,1,0-.08c-.136-.968-.267-2.038-.4-3.27a3.4,3.4,0,0,0-.043-.444c-.019-.136-.038-.275-.047-.417q0-.033,0-.065c-.031-.155-.06-.39-.092-.7-.014-.107-.029-.226-.044-.364a7.68,7.68,0,0,0-1.241-.1H88.59ZM240.46,191.7a94.646,94.646,0,0,0-11.44-8.64,1,1,0,1,1,1.09-1.68,96.016,96.016,0,0,1,11.68,8.83,1,1,0,1,1-1.33,1.49Z" fill="#372168"/>
      </g>
      <g id="Chin" transform="translate(104 153.5)">
        <rect id="Setup_03_Face_Man_Chin_background" data-name="Setup/#03 Face/Man Chin background" width="70" height="10" fill="none"/>
        <g id="Group_2" data-name="Group 2" transform="translate(27.837 3.702)">
          <path id="Path-3" data-name="Path" d="M12.5,3.989a1,1,0,0,1-.74-.32,7.19,7.19,0,0,0-5-1.67,7.37,7.37,0,0,0-5,1.6A1,1,0,1,1,.344,2.2a10.36,10.36,0,0,1,12.89.1,1,1,0,0,1-.73,1.69Z" transform="translate(0 0)" fill="#372168"/>
        </g>
      </g>
      <g id="Cheeks_color:" data-name="Cheeks color:" transform="translate(102 124.789)">
        <path id="Cheeks_color:-2" data-name="Cheeks color:" d="M54,10A10,10,0,1,1,64,20,10,10,0,0,1,54,10ZM0,10A10,10,0,1,1,10,20,10,10,0,0,1,0,10Z" fill="#ff1300" opacity="0.15" style="mix-blend-mode: multiply;isolation: isolate"/>
      </g>
      <g id="Hairstyle" transform="translate(46 19.5)">
        <g id="_10_hairdo" transform="translate(25.716 14.673)">
          <path id="Hair_color:" data-name="Hair color:" d="M105.826,84.858c-2.84-8.26.169-17.14.169-28.481,0-6.66-4.429-13.239-6.179-15.859a.609.609,0,0,0-.25.139c-13.53,8.28-21.3.77-46.23.77-12,0-20.579,5-24.2,10.66-2.749,4.29-3.129,7.751-2.61,14.94a17,17,0,0,1-3.209,11.42,20.425,20.425,0,0,0-4,15.37s-8.27-11.35-5.2-20.34-15.75-6.75-14-24.88c2-20.721,21.29-38.21,43.24-45.36,26.141-8.51,49.58,1.939,56.07,6.41,6.851,4.73,9.211,9.22,10.39,14.9s.01,8.041.01,8.041h0c.35.047,10.5,1.528,13.52,16.868,3.07,15.611-10.21,31.82-12.99,47.66C110.355,97.118,108.665,93.118,105.826,84.858Zm-4.6-45.281c5.115-3.465,7.22-5.4,8.061-6.313C108.434,34.176,106.323,36.1,101.222,39.577Z" transform="translate(1.949 2.009)" fill="#f96"/>
          <path id="Combined_Shape-2" data-name="Combined Shape" d="M112.3,101.128a2,2,0,0,1-1.84-1.22l-.013-.032c-.431-1.032-2.034-4.973-4.567-12.357-1.972-5.632-1.358-11.485-.707-17.681l.027-.259a108.181,108.181,0,0,0,.741-11.19c0-5.023-2.849-10.114-4.795-13.166l-.334.181c-1.651,2.428-7.142,6.384-25.392,8.2l-.1-.05a1,1,0,1,1-.1-2c8.3-.828,13.77-2.067,17.369-3.329a27.4,27.4,0,0,1-4.29.324,72.966,72.966,0,0,1-11.1-1.185,133.561,133.561,0,0,0-21.87-1.939c-12.044,0-19.53,5.031-22.521,9.74-2.337,3.656-2.81,6.476-2.3,13.72a18.739,18.739,0,0,1-3.58,12.74,19.812,19.812,0,0,0-3.764,9.478,14.233,14.233,0,0,0,.084,4.272,2.008,2.008,0,0,1-1.13,2.26,2.03,2.03,0,0,1-.855.19h-.035a2.009,2.009,0,0,1-1.61-.82,39.346,39.346,0,0,1-4.143-7.575,28.335,28.335,0,0,1-1.955-7.042,16.576,16.576,0,0,1,.617-7.554c.733-2.138-.1-2.963-4-5.559-4.722-3.092-11.19-7.328-10-18.86,1.651-16.736,16.084-37.781,44.61-47.07A68.356,68.356,0,0,1,65.97,0,73.969,73.969,0,0,1,88.955,3.7a54.8,54.8,0,0,1,13.63,6.311c6.51,4.493,9.757,9.169,11.21,16.14a25.252,25.252,0,0,1,.572,4.5,20.089,20.089,0,0,0,2.388-6.734,1,1,0,0,1,1.98.28,20.791,20.791,0,0,1-3.34,8.48,18.33,18.33,0,0,1,5.51-.08,1.011,1.011,0,0,1-.3,2,19.481,19.481,0,0,0-3.573-.042,17.532,17.532,0,0,1,1.542,1.034,19.9,19.9,0,0,1,4.975,5.546,30.109,30.109,0,0,1,3.715,9.982c2,10.105-2.393,20.277-6.642,30.114l-.007.016c-2.474,5.71-5.279,12.183-6.35,18.26a2.01,2.01,0,0,1-1.74,1.65Zm3.8-37.211a1.013,1.013,0,0,1,.63.791,24.191,24.191,0,0,1-2.07,13.72,29.741,29.741,0,0,0-2.406,13.032c1.362-4.011,2.923-7.986,4.645-11.831,4.192-9.714,8.151-18.887,6.39-27.77-.954-4.865-2.747-8.718-5.328-11.452a12.683,12.683,0,0,0-5.445-3.53,39.082,39.082,0,0,1-4.473,3.736q-1.142.87-2.329,1.677-.562.394-1.179.815a41.637,41.637,0,0,1,3.519,6.639,22.985,22.985,0,0,1,1.885,8.645,108.477,108.477,0,0,1-.77,11.61l0,.049c-.628,6.07-1.171,11.314.5,16.171q.3.886.609,1.761A30.3,30.3,0,0,1,112.814,77.6a22.25,22.25,0,0,0,1.921-12.59,1.011,1.011,0,0,1,1.37-1.091ZM12.334,65.938l.024.016c3.464,2.276,7.391,4.856,5.575,10.174-1.427,4.171.044,9.072,1.53,12.45a23.9,23.9,0,0,1,4.18-9.3,14.814,14.814,0,0,0,2.821-10.09c-.51-7.222-.21-11.272,2.92-16.17,3.579-5.6,12.26-11.58,25.89-11.58a137.051,137.051,0,0,1,22.48,2l.032,0A71.4,71.4,0,0,0,88.217,44.57,21.978,21.978,0,0,0,100.413,41a2.668,2.668,0,0,1,.266-.15c6.945-4.622,8.892-6.678,9.324-7.2l.012-.03c.182-.595.636-2.664-.192-6.64A18.938,18.938,0,0,0,102.407,14.9,22.057,22.057,0,0,1,80.793,25.857c-1.12-.1-2.34-.229-3.649-.37-12.71-1.35-34-3.62-48.06,17.3a49.071,49.071,0,0,0-3.5,6.141,1,1,0,0,1-.9.619,1.122,1.122,0,0,1-.44-.09,1,1,0,0,1-.47-1.339,52.023,52.023,0,0,1,3.65-6.4c14.74-21.92,36.77-19.57,49.93-18.169,1.3.14,2.5.27,3.62.36A20.1,20.1,0,0,0,100.818,13.7q-.276-.2-.564-.4c-4.683-3.227-17.866-9.33-34.241-9.33h-.085a64.562,64.562,0,0,0-19.994,3.17c-26.814,8.731-40.35,28.22-41.87,43.66-.455,4.615.51,7.676,2.159,9.957C5.62,54.6,7.991,44.089,22.364,28.647a1,1,0,0,1,1.46,1.36C7.026,48.058,7.381,58.879,8.894,63.518A41.557,41.557,0,0,0,12.334,65.938Zm7.31-2.21a1,1,0,0,1-.71-1.22c.52-1.93,1-3.73,1.45-5.26.33-1.16.69-2.3,1.07-3.4a1,1,0,1,1,1.89.661c-.37,1.059-.72,2.16-1,3.28-.44,1.53-.93,3.31-1.44,5.23a1,1,0,0,1-1,.71.788.788,0,0,1-.26,0Zm59.3-28.25a38.758,38.758,0,0,0-15.32.43,1.024,1.024,0,1,1-.44-2,41.035,41.035,0,0,1,16-.46,35.594,35.594,0,0,0,5.42.429c5.68-.139,8.82-1,13.59-6.1a1,1,0,0,1,1.42,1.409c-5.231,5.56-8.86,6.57-15,6.73l-.44.02A39.456,39.456,0,0,1,78.944,35.477Z" fill="#372168"/>
        </g>
      </g>
      <g id="Emotions" transform="translate(104 99)">
        <rect id="Setup_01_Emotions_happy_background" data-name="Setup/#01 Emotions/happy background" width="70" height="56" fill="none"/>
        <g id="Face">
          <g id="Mouth" transform="translate(0 35.38)">
            <rect id="Setup_03_Face_Mouth_happy_mouth_background" data-name="Setup/#03 Face/Mouth/happy_mouth background" width="70" height="20" transform="translate(0 0.62)" fill="none"/>
            <g id="happy_mouth" transform="translate(19.49 0)">
              <path id="Path-4" data-name="Path" d="M6.35,2H1A1,1,0,0,1,1,0H6.35a1,1,0,0,1,0,2Z" transform="translate(11.78 19.34)" fill="#372168"/>
              <g id="smile-2">
                <path id="Path-5" data-name="Path" d="M27.4,0A13.71,13.71,0,0,1,13.7,13.186,13.71,13.71,0,0,1,0,0Z" transform="translate(1.75 1.75)" fill="#f66"/>
                <path id="Shape" d="M15.7,16.682l-.248,0-.248,0A15.118,15.118,0,0,1,4.555,12.329,15.122,15.122,0,0,1,0,1.75,1.752,1.752,0,0,1,1.75,0h27.4A1.752,1.752,0,0,1,30.9,1.75a15.122,15.122,0,0,1-4.555,10.579A15.118,15.118,0,0,1,15.7,16.682ZM3.64,3.5a12,12,0,0,0,23.62,0Z" fill="#372168"/>
                <g id="Path-6" data-name="Path" transform="translate(6.62 7.283)">
                  <path id="Path-7" data-name="Path" d="M18.32,3.817a13.26,13.26,0,0,1-9.57,3.83A12.82,12.82,0,0,1,0,4.417l.08-.73s3.3-5.91,8.58-2.15l.25-.09a19.62,19.62,0,0,0,1.92-.89c4.16-2.12,6.94,2.5,6.94,2.5Z" fill="#f66"/>
                  <path id="Path-8" data-name="Path" d="M18.32,3.817a13.26,13.26,0,0,1-9.57,3.83A12.82,12.82,0,0,1,0,4.417l.08-.73s3.3-5.91,8.58-2.15l.25-.09a19.62,19.62,0,0,0,1.92-.89c4.16-2.12,6.94,2.5,6.94,2.5Z" fill="rgba(255,255,255,0.09)"/>
                </g>
                <path id="Shape-2" data-name="Shape" d="M10.736,11.159h0l-.235,0-.219,0a14.6,14.6,0,0,1-9.721-3.7,1.779,1.779,0,0,1-.55-1.47l.08-.73A1.751,1.751,0,0,1,.3,4.587,8.856,8.856,0,0,1,5.569.447a6.851,6.851,0,0,1,5,.89c.356-.156.735-.34,1.191-.58A6.552,6.552,0,0,1,14.743,0c2.836,0,5.121,2.073,6.217,3.847l.51.71a1.755,1.755,0,0,1-.14,2.22,14.931,14.931,0,0,1-4.864,3.243A14.923,14.923,0,0,1,10.736,11.159Zm-3.8-7.341a3.783,3.783,0,0,0-.6.049,4.854,4.854,0,0,0-2.489,1.76,11.4,11.4,0,0,0,6.468,2l.192,0h.145a11.916,11.916,0,0,0,7.1-2.331,4.077,4.077,0,0,0-3.013-1.8,2.988,2.988,0,0,0-1.356.343,17.13,17.13,0,0,1-2.1,1l-.249.1a1.783,1.783,0,0,1-1.641-.21A3.773,3.773,0,0,0,6.933,3.819Z" transform="translate(4.871 5.523)" fill="#372168"/>
                <path id="Path-9" data-name="Path" d="M0,1.38A7,7,0,0,1,1.84,0" transform="translate(14.34 8.46)" fill="#f9f9f9"/>
                <path id="Path-10" data-name="Path" d="M1.77,4.887a1.73,1.73,0,0,1-1.26-.54,1.75,1.75,0,0,1,0-2.47A8.22,8.22,0,0,1,2.92.127a1.752,1.752,0,1,1,1.31,3.25,5.51,5.51,0,0,0-1.29,1,1.76,1.76,0,0,1-1.17.51Z" transform="translate(12.57 6.703)" fill="#372168"/>
              </g>
            </g>
          </g>
          <g id="Nose" transform="translate(0 25)">
            <rect id="Setup_03_Face_Nose_background" data-name="Setup/#03 Face/Nose background" width="70" height="8" fill="none"/>
            <g id="_Nose" data-name="ðŸ‘ƒNose" transform="translate(29.222 2.152)">
              <path id="Path-11" data-name="Path" d="M5.75,5.635A6.52,6.52,0,0,1,.28,2.795,1.75,1.75,0,0,1,3.22.895,3.18,3.18,0,0,0,5.773,2.136,3.18,3.18,0,0,0,8.3.845a1.754,1.754,0,0,1,3,1.82,6.46,6.46,0,0,1-5.55,2.97Z" transform="translate(0 0)" fill="#372168"/>
            </g>
          </g>
          <g id="Eyes" transform="translate(0 12)">
            <rect id="Setup_03_Face_Eyes_happy_kiss_swetdrop_eyes_background" data-name="Setup/#03 Face/Eyes/happy_kiss_swetdrop_eyes background" width="70" height="10" fill="none"/>
            <g id="happy_kiss_swetdrop_eyes" transform="translate(9.066 2.318)">
              <path id="Path-12" data-name="Path" d="M9.79,5.622a1.73,1.73,0,0,1-1.49-.84,3.18,3.18,0,0,0-5.08-.05,1.75,1.75,0,1,1-2.94-1.9,6.67,6.67,0,0,1,11,.13,1.74,1.74,0,0,1-.59,2.4,1.68,1.68,0,0,1-.9.26Z" transform="translate(0 0)" fill="#372168"/>
              <path id="Path-13" data-name="Path" d="M9.85,5.63a1.75,1.75,0,0,1-1.5-.85,3.18,3.18,0,0,0-5.08-.05A1.75,1.75,0,1,1,.33,2.84a6.66,6.66,0,0,1,11,.13A1.76,1.76,0,0,1,9.84,5.63Z" transform="translate(40.947 0.042)" fill="#372168"/>
            </g>
          </g>
          <g id="Eyebrows">
            <rect id="Setup_03_Face_Eyebrow_happy_eyebrows_background" data-name="Setup/#03 Face/Eyebrow/happy_eyebrows background" width="70" height="12" fill="none"/>
            <g id="happy_eyebrows" transform="translate(3.445 2.163)">
              <path id="Path-14" data-name="Path" d="M2,7.827A1.995,1.995,0,0,1,.8,4.237c.37-.28,9-6.6,19.43-3.27a2,2,0,0,1-1.21,3.81c-8.44-2.69-15.75,2.61-15.83,2.66A2,2,0,0,1,2,7.827Z" transform="translate(0)" fill="#372168"/>
              <path id="Path-15" data-name="Path" d="M19.692,7.836a1.94,1.94,0,0,1-1.19-.4c-.12-.08-7.42-5.34-15.83-2.66A2,2,0,1,1,1.462.966c10.43-3.33,19.06,3,19.43,3.27a2,2,0,0,1-1.2,3.6Z" transform="translate(41.473 0.001)" fill="#372168"/>
            </g>
          </g>
        </g>
      </g>
      <g id="Accessories_01" data-name="Accessories#01" transform="translate(81.006 32.97)">
        <g id="hairband" transform="translate(-0.006 -0.47)">
          <g id="headband-5" transform="translate(0 5)">
            <g id="headband-6">
              <g id="Path-16" data-name="Path">
                <path id="Path-17" data-name="Path" d="M104.326,77.456a58.86,58.86,0,0,0-3-34.74c-.2-.53-.41-1-.63-1.57-.52-1.25-1.09-2.48-1.69-3.68a52.94,52.94,0,0,0-17.1-19.91c-1.08-.75-2.18-1.45-3.32-2.1-.93-.54-1.88-1-2.85-1.51a45.77,45.77,0,0,0-11.39-3.87H64.1l-.33-.06a49,49,0,0,0-19.15.29l-.71.14a57.75,57.75,0,0,0-8.67,2.63c-.6.23-1.18.47-1.75.72a51.31,51.31,0,0,0-5.51,2.7c-.33.18-.65.37-1,.56a43.43,43.43,0,0,0-15.63,15.5c-.67,1.11-1.27,2.25-1.82,3.39s-1.14,2.55-1.62,3.83c-.2.53-.39,1.07-.56,1.61-.06.17-.12.35-.17.52-.36,1.1-.67,2.19-.94,3.28-4.18,16.67.33,32.57.33,32.57s-10.43-12.44-5-37.72c.15-.68.31-1.38.48-2.08.27-1.12.58-2.27.92-3.44s.68-2.19,1.07-3.24c.09-.26.19-.52.29-.78.28-.7.57-1.4.87-2.07a43.94,43.94,0,0,1,3.71-6.69,47.36,47.36,0,0,1,22-17.2q2.57-1,5.22-1.8l.21-.07A65.83,65.83,0,0,1,46.576.536h.28a66.73,66.73,0,0,1,27.18,2.15l.49.15c.63.19,1.25.4,1.86.62,1.1.39,2.16.82,3.19,1.28a37.461,37.461,0,0,1,5.11,2.75,36.56,36.56,0,0,1,3.61,2.46c.77.57,1.62,1.25,2.54,2a48.138,48.138,0,0,1,3.94,3.72,53.66,53.66,0,0,1,9.68,13.78,49.371,49.371,0,0,1,2.87,7.22q.29.93.54,1.89a43.168,43.168,0,0,1,1,4.74C110.626,53.026,110.036,63.356,104.326,77.456Z" transform="translate(2.454 2.404)" fill="#f3b9aa"/>
                <path id="Path-18" data-name="Path" d="M104.326,77.456a58.86,58.86,0,0,0-3-34.74c-.2-.53-.41-1-.63-1.57-.52-1.25-1.09-2.48-1.69-3.68a52.94,52.94,0,0,0-17.1-19.91c-1.08-.75-2.18-1.45-3.32-2.1-.93-.54-1.88-1-2.85-1.51a45.77,45.77,0,0,0-11.39-3.87H64.1l-.33-.06a49,49,0,0,0-19.15.29l-.71.14a57.75,57.75,0,0,0-8.67,2.63c-.6.23-1.18.47-1.75.72a51.31,51.31,0,0,0-5.51,2.7c-.33.18-.65.37-1,.56a43.43,43.43,0,0,0-15.63,15.5c-.67,1.11-1.27,2.25-1.82,3.39s-1.14,2.55-1.62,3.83c-.2.53-.39,1.07-.56,1.61-.06.17-.12.35-.17.52-.36,1.1-.67,2.19-.94,3.28-4.18,16.67.33,32.57.33,32.57s-10.43-12.44-5-37.72c.15-.68.31-1.38.48-2.08.27-1.12.58-2.27.92-3.44s.68-2.19,1.07-3.24c.09-.26.19-.52.29-.78.28-.7.57-1.4.87-2.07a43.94,43.94,0,0,1,3.71-6.69,47.36,47.36,0,0,1,22-17.2q2.57-1,5.22-1.8l.21-.07A65.83,65.83,0,0,1,46.576.536h.28a66.73,66.73,0,0,1,27.18,2.15l.49.15c.63.19,1.25.4,1.86.62,1.1.39,2.16.82,3.19,1.28a37.461,37.461,0,0,1,5.11,2.75,36.56,36.56,0,0,1,3.61,2.46c.77.57,1.62,1.25,2.54,2a48.138,48.138,0,0,1,3.94,3.72,53.66,53.66,0,0,1,9.68,13.78,49.371,49.371,0,0,1,2.87,7.22q.29.93.54,1.89a43.168,43.168,0,0,1,1,4.74C110.626,53.026,110.036,63.356,104.326,77.456Z" transform="translate(2.454 2.404)" fill="rgba(255,255,255,0.09)"/>
              </g>
              <path id="Shape-3" data-name="Shape" d="M8.54,81.854H8.535l.02-.09a2,2,0,0,1-1.53-.72,30.478,30.478,0,0,1-4.966-10.19A49.155,49.155,0,0,1,.051,58.643,67.324,67.324,0,0,1,1.644,41.614c.133-.618.277-1.228.43-1.874l.061-.256c.3-1.234.61-2.386.94-3.52.34-1.172.675-2.183,1.121-3.38l.28-.76c.293-.725.609-1.5.93-2.21a45.117,45.117,0,0,1,3.88-7c5.349-7.954,13.064-13.99,22.93-17.941,1.751-.694,3.541-1.313,5.32-1.84l.28-.09A69.034,69.034,0,0,1,48.375.544h.3a69.1,69.1,0,0,1,28,2.22l.51.16c.612.184,1.279.406,1.93.64,1.1.393,2.221.844,3.33,1.34a39.741,39.741,0,0,1,5.34,2.87,37.632,37.632,0,0,1,3.77,2.569c.861.641,1.749,1.354,2.641,2.12,1.446,1.251,2.815,2.546,4.07,3.85a55.429,55.429,0,0,1,10,14.289,50.8,50.8,0,0,1,3,7.5c.212.687.4,1.341.571,2,.407,1.522.767,3.177,1.07,4.92,1.911,11.5.434,22.383-4.791,35.29a2,2,0,0,1-3.81-1.16,56.836,56.836,0,0,0-2.9-33.61c-.171-.444-.34-.854-.519-1.288l-.091-.221c-.4-.969-.948-2.25-1.63-3.57A51.345,51.345,0,0,0,82.714,21.3c-1.056-.733-2.1-1.387-3.18-2-.981-.556-1.727-.937-2.518-1.342l-.192-.1a44.552,44.552,0,0,0-6.411-2.57,45.287,45.287,0,0,0-4.52-1.139l-.25-.05h-.28a47,47,0,0,0-18.4.27l-.581.12h-.13a56.613,56.613,0,0,0-8.35,2.541c-.53.2-1.076.426-1.669.689a49.856,49.856,0,0,0-5.331,2.6l-.93.54a41.718,41.718,0,0,0-14.93,14.8A34.51,34.51,0,0,0,13.3,38.9c-.59,1.259-1.082,2.425-1.55,3.669-.221.583-.39,1.062-.53,1.51-.066.189-.119.345-.16.49-.342,1.044-.64,2.088-.91,3.19A65.257,65.257,0,0,0,8.791,69.451,61.775,61.775,0,0,0,10.464,79.3,2,2,0,0,1,8.54,81.854ZM48.935,4.494a63.839,63.839,0,0,0-10,2.06.864.864,0,0,1-.211.07c-1.717.5-3.4,1.09-5,1.74-9.087,3.657-16.186,9.2-21.1,16.47a41.552,41.552,0,0,0-3.54,6.38c-.274.615-.557,1.288-.84,2-.033.087-.065.172-.1.255-.057.148-.112.288-.163.436a32.322,32.322,0,0,0-1,3.14c-.339,1.142-.642,2.273-.9,3.36-.153.612-.311,1.285-.471,2A59.33,59.33,0,0,0,4.5,62.694a65.013,65.013,0,0,1,1.84-16.061c.325-1.277.652-2.4,1-3.42l.19-.56c.163-.518.365-1.1.57-1.65.494-1.307,1.063-2.653,1.69-4a37.079,37.079,0,0,1,1.91-3.569,45.723,45.723,0,0,1,16.32-16.18c.308-.19.614-.371.91-.547l.091-.054a52.956,52.956,0,0,1,5.69-2.79c.584-.256,1.193-.5,1.81-.74a59.72,59.72,0,0,1,9-2.72h.139l.671-.13a50.85,50.85,0,0,1,19.84-.28l.31.06h.38a49.429,49.429,0,0,1,4.84,1.24,48.129,48.129,0,0,1,7,2.78c.716.343,1.457.745,2.242,1.17l.008,0,.749.4a37.26,37.26,0,0,1,3.45,2.18,55,55,0,0,1,17.75,20.66c.656,1.311,1.245,2.593,1.75,3.81.213.491.434,1.039.66,1.63a64.823,64.823,0,0,1,4.181,16.931,52.392,52.392,0,0,0-.37-15.35,45.474,45.474,0,0,0-1-4.55c-.158-.624-.339-1.229-.514-1.813l0-.016a47.2,47.2,0,0,0-2.75-6.92,51.307,51.307,0,0,0-9.33-13.279c-1.208-1.249-2.487-2.457-3.8-3.59-.843-.724-1.663-1.385-2.43-2a38.578,38.578,0,0,0-3.4-2.33.344.344,0,0,1-.1-.06,37.623,37.623,0,0,0-4.839-2.6c-1.006-.452-2.06-.874-3.05-1.22-.615-.223-1.207-.422-1.76-.59l-.48-.15A62.623,62.623,0,0,0,58.328,3.947c-.305,0-.616,0-.923.007v.041a69.147,69.147,0,0,0-8.25.5h-.22Z" transform="translate(0.505 0.346)" fill="#372168"/>
            </g>
          </g>
          <g id="Path-19" data-name="Path">
            <path id="Path-20" data-name="Path" d="M36.707,7.567q-2.66.78-5.22,1.8a47.36,47.36,0,0,0-22,17.2,43.94,43.94,0,0,0-3.71,6.69L.147,7.7A6.34,6.34,0,0,1,7.907.2Z" transform="translate(1.973 2.523)" fill="#f96"/>
            <path id="Path-21" data-name="Path" d="M36.707,7.567q-2.66.78-5.22,1.8a47.36,47.36,0,0,0-22,17.2,43.94,43.94,0,0,0-3.71,6.69L.147,7.7A6.34,6.34,0,0,1,7.907.2Z" transform="translate(1.973 2.523)" fill="rgba(255,255,255,0.16)"/>
          </g>
          <path id="Shape-4" data-name="Shape" d="M7.835,37.24H7.574a2,2,0,0,1-1.75-1.55L.194,10.129A8.338,8.338,0,0,1,10.4.26L39.225,7.629a2,2,0,0,1,.069,3.85c-1.73.509-3.412,1.1-5,1.741-9.086,3.656-16.185,9.2-21.1,16.47a41.5,41.5,0,0,0-3.54,6.379A2,2,0,0,1,7.835,37.24ZM8.276,3.98A4.321,4.321,0,0,0,4.1,9.249L8.545,29.44c.419-.676.853-1.349,1.29-2a48.391,48.391,0,0,1,22-17.571L9.374,4.119A4.484,4.484,0,0,0,8.318,3.98H8.276Z" transform="translate(0.006 0.54)" fill="#372168"/>
          <g id="Path-22" data-name="Path">
            <path id="Path-23" data-name="Path" d="M36.27,7.655l-5.85,26.59a53.66,53.66,0,0,0-9.68-13.78c-1.38-1.43-2.72-2.67-3.94-3.72a31.142,31.142,0,0,0-2.54-2,36.56,36.56,0,0,0-3.61-2.46,37.46,37.46,0,0,0-5.11-2.75c-1-.46-2.09-.89-3.19-1.28-.61-.22-1.23-.43-1.86-.62L0,7.485,28.52.2a6.33,6.33,0,0,1,7.75,7.46Z" transform="translate(76.59 2.565)" fill="#f96"/>
            <path id="Path-24" data-name="Path" d="M36.27,7.655l-5.85,26.59a53.66,53.66,0,0,0-9.68-13.78c-1.38-1.43-2.72-2.67-3.94-3.72a31.142,31.142,0,0,0-2.54-2,36.56,36.56,0,0,0-3.61-2.46,37.46,37.46,0,0,0-5.11-2.75c-1-.46-2.09-.89-3.19-1.28-.61-.22-1.23-.43-1.86-.62L0,7.485,28.52.2a6.33,6.33,0,0,1,7.75,7.46Z" transform="translate(76.59 2.565)" fill="rgba(255,255,255,0.16)"/>
          </g>
          <path id="Shape-5" data-name="Shape" d="M32.4,38.341h0a2.013,2.013,0,0,1-1.8-1.13,51.16,51.16,0,0,0-9.319-13.27c-1.2-1.239-2.477-2.447-3.8-3.59-.834-.715-1.625-1.354-2.43-2a39.028,39.028,0,0,0-3.4-2.33.331.331,0,0,1-.1-.06,37.647,37.647,0,0,0-4.84-2.6c-.992-.447-2.047-.868-3.05-1.22-.608-.221-1.2-.42-1.76-.59l-.481-.15a2,2,0,0,1,.07-3.849L30.014.261a8.329,8.329,0,0,1,10.2,9.869l-5.85,26.591a2,2,0,0,1-1.72,1.55l-.24.07ZM32.076,4.056A4.339,4.339,0,0,0,31,4.19L8.654,9.911a39.63,39.63,0,0,1,5.029,2.72,37.642,37.642,0,0,1,3.77,2.57c.858.638,1.746,1.351,2.641,2.119,1.451,1.256,2.82,2.552,4.07,3.85a55.85,55.85,0,0,1,7.43,9.54L36.3,9.32a4.356,4.356,0,0,0-1.217-4.046A4.305,4.305,0,0,0,32.076,4.056Z" transform="translate(74.606 0.469)" fill="#372168"/>
          <path id="Path-25" data-name="Path" d="M3.708,18.325a1,1,0,0,1-1-.79L.108,5.715A4.71,4.71,0,0,1,5.868.145L7.7.615a1,1,0,0,1-.5,1.94l-1.82-.47a2.69,2.69,0,0,0-2.55.68,2.66,2.66,0,0,0-.77,2.52l2.6,11.82a1,1,0,0,1-.76,1.19Z" transform="translate(8.452 9.395)" fill="#372168"/>
          <path id="Path-26" data-name="Path" d="M4.856,18.295h-.21a1,1,0,0,1-.76-1.19l2.6-11.82a2.66,2.66,0,0,0-.77-2.52,2.69,2.69,0,0,0-2.55-.68l-1.92.49A1,1,0,0,1,.756.635l1.92-.49a4.71,4.71,0,0,1,5.76,5.57l-2.6,11.82a1,1,0,0,1-.98.76Z" transform="translate(97.644 9.425)" fill="#372168"/>
        </g>
      </g>
    </g>
  </g>
  <path id="Oval" d="M140,280a141.037,141.037,0,0,1-28.215-2.844A139.234,139.234,0,0,1,61.725,256.09,140.408,140.408,0,0,1,11,194.495a139.3,139.3,0,0,1-8.158-26.279,141.364,141.364,0,0,1,0-56.43A139.232,139.232,0,0,1,23.91,61.725,140.41,140.41,0,0,1,85.506,11a139.3,139.3,0,0,1,26.279-8.158,141.364,141.364,0,0,1,56.43,0,139.23,139.23,0,0,1,50.06,21.066A140.409,140.409,0,0,1,269,85.506a139.3,139.3,0,0,1,8.158,26.279,141.367,141.367,0,0,1,0,56.43,139.232,139.232,0,0,1-21.065,50.06A140.408,140.408,0,0,1,194.495,269a139.3,139.3,0,0,1-26.279,8.158A141.037,141.037,0,0,1,140,280ZM140,4C65.009,4,4,65.009,4,140s61.01,136,136,136,136-61.009,136-136S214.991,4,140,4Z" fill="#372168"/>
</svg>
