<svg id="å¤´åƒ19" xmlns="http://www.w3.org/2000/svg" xmlns:xlink="http://www.w3.org/1999/xlink" width="280" height="280" viewBox="0 0 280 280">
  <defs>
    <clipPath id="clip-path">
      <path d="M0,138A138,138,0,1,1,138,276,138,138,0,0,1,0,138Z" fill="none"/>
    </clipPath>
  </defs>
  <g id="Girl" transform="translate(0.015 2)">
    <g id="Background">
      <circle id="Background-2" data-name="Background" cx="138" cy="138" r="138" fill="#bec5d8"/>
      <circle id="Background-3" data-name="Background" cx="138" cy="138" r="138" fill="rgba(255,255,255,0.16)"/>
    </g>
    <g id="Girl-2" data-name="Girl" clip-path="url(#clip-path)">
      <g id="Body" transform="translate(12.383 49.8)">
        <g id="Top_color:" data-name="Top color:" transform="translate(2.517 149.03)">
          <path id="Top_color:-2" data-name="Top color:" d="M0,79.17V77.52c.33-1.31.68-2.59,1-3.83.56-2,1.13-4,1.71-5.83.22-.7.44-1.39.65-2.07.16-.5.32-1,.48-1.46.44-1.32.88-2.6,1.32-3.83q1.49-4.14,3-7.62c.25-.59.5-1.17.75-1.73l.15-.33c.54-1.24,1.09-2.4,1.64-3.5a60.67,60.67,0,0,1,5.54-9.35c.06-.09.13-.17.18-.25.55-.72,1.08-1.37,1.59-1.93l.06-.07c.48-.54,1-1.06,1.5-1.58a67,67,0,0,1,10.59-8.67l1.16-.77q.88-.58,1.8-1.14,2.22-1.38,4.57-2.68c2.59-1.44,5.27-2.8,8-4.09,3.3-1.56,6.66-3,10-4.36l2.27-.9c.65-.26,1.31-.51,2-.75,2.92-1.11,5.82-2.13,8.65-3.08,5.48-1.84,10.67-3.38,15.25-4.65C88.6,1.74,92.66.72,95.65,0a2,2,0,0,0,0,.42c.51,3.23,7,6,16.14,7.28a85.27,85.27,0,0,0,11.63.81h.7a85.27,85.27,0,0,0,11.63-.81c9.21-1.3,15.7-4.08,16.15-7.33a2.308,2.308,0,0,0,0-.37c3,.73,7.1,1.75,11.87,3.07,4.56,1.26,9.72,2.8,15.17,4.63q5.19,1.74,10.61,3.83,2.75,1.06,5.49,2.23l2.09.89,1.68.74c3.77,1.7,7.48,3.52,11,5.49,2.2,1.22,4.34,2.49,6.38,3.82l.57.38a34.826,34.826,0,0,1,2.88,2,64.129,64.129,0,0,1,8.29,7q.81.81,1.56,1.65a25.731,25.731,0,0,1,1.72,2.12v.06c.46.62.94,1.3,1.41,2a68.788,68.788,0,0,1,4.14,7.32c.59,1.2,1.18,2.47,1.79,3.83q.57,1.29,1.14,2.67c.29.69.57,1.4.86,2.13q.85,2.16,1.71,4.55c.44,1.23.88,2.51,1.32,3.83q.76,2.33,1.53,4.84c.21.71.43,1.43.64,2.16s.45,1.56.67,2.36c.35,1.24,1.306,4.26,1.616,5.57C243.472,79.162,4.259,79.2,0,79.17Z" transform="translate(0)" fill="#629cee"/>
          <path id="Top_color:-3" data-name="Top color:" d="M0,79.17V77.52c.33-1.31.68-2.59,1-3.83.56-2,1.13-4,1.71-5.83.22-.7.44-1.39.65-2.07.16-.5.32-1,.48-1.46.44-1.32.88-2.6,1.32-3.83q1.49-4.14,3-7.62c.25-.59.5-1.17.75-1.73l.15-.33c.54-1.24,1.09-2.4,1.64-3.5a60.67,60.67,0,0,1,5.54-9.35c.06-.09.13-.17.18-.25.55-.72,1.08-1.37,1.59-1.93l.06-.07c.48-.54,1-1.06,1.5-1.58a67,67,0,0,1,10.59-8.67l1.16-.77q.88-.58,1.8-1.14,2.22-1.38,4.57-2.68c2.59-1.44,5.27-2.8,8-4.09,3.3-1.56,6.66-3,10-4.36l2.27-.9c.65-.26,1.31-.51,2-.75,2.92-1.11,5.82-2.13,8.65-3.08,5.48-1.84,10.67-3.38,15.25-4.65C88.6,1.74,92.66.72,95.65,0a2,2,0,0,0,0,.42c.51,3.23,7,6,16.14,7.28a85.27,85.27,0,0,0,11.63.81h.7a85.27,85.27,0,0,0,11.63-.81c9.21-1.3,15.7-4.08,16.15-7.33a2.308,2.308,0,0,0,0-.37c3,.73,7.1,1.75,11.87,3.07,4.56,1.26,9.72,2.8,15.17,4.63q5.19,1.74,10.61,3.83,2.75,1.06,5.49,2.23l2.09.89,1.68.74c3.77,1.7,7.48,3.52,11,5.49,2.2,1.22,4.34,2.49,6.38,3.82l.57.38a34.826,34.826,0,0,1,2.88,2,64.129,64.129,0,0,1,8.29,7q.81.81,1.56,1.65a25.731,25.731,0,0,1,1.72,2.12v.06c.46.62.94,1.3,1.41,2a68.788,68.788,0,0,1,4.14,7.32c.59,1.2,1.18,2.47,1.79,3.83q.57,1.29,1.14,2.67c.29.69.57,1.4.86,2.13q.85,2.16,1.71,4.55c.44,1.23.88,2.51,1.32,3.83q.76,2.33,1.53,4.84c.21.71.43,1.43.64,2.16s.45,1.56.67,2.36c.35,1.24,1.306,4.26,1.616,5.57C243.472,79.162,4.259,79.2,0,79.17Z" transform="translate(0)" fill="rgba(0,0,0,0.1)"/>
        </g>
        <path id="Light_layer" data-name="Light layer" d="M79.98,3.08c-2.47,3.78-6.6,6.78-11.9,9a59.09,59.09,0,0,1-14.12,3.75,100,100,0,0,1-27.93,0,59.49,59.49,0,0,1-14.2-3.78C6.56,9.83,2.46,6.83,0,3.05,4.74,1.74,8.8.72,11.79,0a2,2,0,0,0,0,.42c.51,3.23,7,6,16.14,7.28a85.27,85.27,0,0,0,11.63.81h.7A85.27,85.27,0,0,0,51.89,7.7C61.1,6.4,67.59,3.62,68.04.37a2.31,2.31,0,0,0,0-.37C71.12.74,75.21,1.76,79.98,3.08Z" transform="translate(86.357 149.01)" fill="#fff" opacity="0.4" style="mix-blend-mode: soft-light;isolation: isolate"/>
        <path id="Skin_color:" data-name="Skin color:" d="M60.874,155.589a85.353,85.353,0,0,1-11.63-.81c-9.16-1.29-15.63-4.05-16.14-7.28v-33.13a48.006,48.006,0,0,0,8.45,7.09,34.926,34.926,0,0,0,18.689,6h2a34.878,34.878,0,0,0,18.689-6,48.144,48.144,0,0,0,6.685-5.35,48.092,48.092,0,0,1-6.675,5.309,34.879,34.879,0,0,1-18.689,6h-2a34.927,34.927,0,0,1-18.689-6,47.968,47.968,0,0,1-8.45-7.09,68.766,68.766,0,0,1-13.67-21.749l-.62-1.55c-.325-.847-.65-1.723-.984-2.59-4.875,1.113-11.267.082-15.056-5.7-5-7.609-2.72-15.93,2.52-18.419a9.817,9.817,0,0,1,7.31-.443v-.057c-.67-7.29-1.69-28.45,6.86-42.32C29.855,4.688,46.865-.231,61.275.008c14.39-.239,31.4,4.68,41.78,21.49,8.56,13.93,7.54,35.06,6.88,42.38,0,.008,0,.015,0,.023a9.8,9.8,0,0,1,7.289.447c5.26,2.46,7.5,10.78,2.541,18.39-3.8,5.8-10.213,6.819-15.092,5.693-.316.87-.642,1.748-.988,2.6l-.62,1.55a68.71,68.71,0,0,1-13.66,21.74l-.049.052v33.078c-.45,3.251-6.94,6-16.151,7.33a85.353,85.353,0,0,1-11.63.81Zm-48.16-90.46c.031.31,0,.27.05.39s0,.44.07.59a.509.509,0,0,1,0,.339,3.978,3.978,0,0,0,.09.841q.1,1,.239,2.07c.08.65.17,1.29.26,1.92a4.049,4.049,0,0,0,.12.761q.09.67.211,1.319c.1.62.21,1.23.319,1.831l.06.31c.09.47.18.92.29,1.37s.19.931.3,1.381.149.66.229,1,.24.94.36,1.39.311,1.11.47,1.64q.326,1.005.657,1.995-.317-1.018-.617-2.054c-.16-.53-.32-1.08-.47-1.641s-.24-.92-.36-1.39c-.08-.32-.16-.65-.23-1s-.21-.91-.3-1.38-.2-.9-.291-1.371l-.059-.31c-.11-.6-.22-1.211-.32-1.83q-.12-.651-.21-1.32c-.05-.25-.08-.51-.12-.76-.09-.63-.18-1.27-.26-1.92s-.17-1.37-.24-2.07c0-.28-.06-.56-.08-.84a1.73,1.73,0,0,0-.05-.34c-.05-.22,0-.35-.07-.59s0-.249-.05-.39a.345.345,0,0,1-.01-.034Q12.71,65.082,12.714,65.129Zm-.051-.439c-.012-.157-.023-.34-.038-.514A5,5,0,0,0,12.663,64.69Z" transform="translate(65.043 1.941)" fill="#fab2a7"/>
        <path id="Path" d="M52.19.02v29.3C27.27,29.71,8.81,16.88,0,9.21V0A44.6,44.6,0,0,0,6.43,5.1a35,35,0,0,0,18.69,6h2a35,35,0,0,0,18.69-6A45.7,45.7,0,0,0,52.19.02Z" transform="translate(100.207 118.3)" fill="#7c3830" opacity="0.15" style="mix-blend-mode: multiply;isolation: isolate"/>
        <path id="Combined_Shape" data-name="Combined Shape" d="M252.452,228.212C249.068,228.2,10.168,228.2,0,228.2c.168-.68,2.7-10.128,3.288-12l.64-2.07c.19-.58.344-1.042.5-1.5.4-1.209.835-2.475,1.33-3.87,1.062-2.962,2.043-5.491,3-7.73.221-.531.485-1.155.76-1.76l.149-.339.085-.193c.469-1.08.955-2.2,1.6-3.377a62.488,62.488,0,0,1,5.72-9.65l.1-.131a.687.687,0,0,1,.1-.139,26.675,26.675,0,0,1,1.7-2.06l.07-.09c.2-.223.417-.442.645-.672.292-.3.6-.6.9-.958a69.129,69.129,0,0,1,10.9-8.83c.336-.236.736-.5,1.19-.79.541-.363,1.142-.745,1.84-1.17,1.4-.865,2.911-1.751,4.63-2.71,2.383-1.335,5.116-2.731,8.12-4.15,3.238-1.541,6.646-3.024,10.13-4.41.923-.377,1.629-.658,2.29-.91.244-.093.468-.18.681-.263.46-.18.858-.334,1.319-.5,2.742-1.022,5.685-2.049,8.71-3.1,4.871-1.637,9.892-3.168,15.35-4.68,3.719-1.023,7.159-1.921,10.471-2.732v-30.3a71.054,71.054,0,0,1-13.55-21.8l-.62-1.56c-.144-.37-.29-.753-.445-1.17a18.144,18.144,0,0,1-2.265.2c-.112,0-.224,0-.336,0a15.3,15.3,0,0,1-12.855-7,17.2,17.2,0,0,1-2.54-14,11.419,11.419,0,0,1,5.88-7.37,11.821,11.821,0,0,1,5.055-1.143q.552,0,1.1.051c-.632-9.529-.59-27.984,7.354-40.879A44.616,44.616,0,0,1,104.36,3.983,55.542,55.542,0,0,1,125.313,0c.36,0,.725,0,1.085.01C126.739,0,127.085,0,127.429,0a55.5,55.5,0,0,1,20.9,3.973,45.228,45.228,0,0,1,21.52,18.476c7.93,12.866,7.983,31.359,7.361,40.9q.414-.029.83-.029a11.787,11.787,0,0,1,5.049,1.143,11.46,11.46,0,0,1,5.89,7.37,17.25,17.25,0,0,1-2.55,14,15.3,15.3,0,0,1-12.821,6.953h0c-.106,0-.212,0-.318,0a18.145,18.145,0,0,1-2.165-.137c-.134.358-.269.715-.4,1.067l-.63,1.58a70.969,70.969,0,0,1-13.69,21.957v30.212c2.921.72,6.362,1.594,10.38,2.71,5.357,1.48,10.494,3.048,15.27,4.66,3.86,1.3,7.36,2.56,10.7,3.86,2.087.814,3.85,1.528,5.549,2.25l1.561.67.53.23,1.71.75c4.091,1.839,7.748,3.658,11.18,5.56,2.445,1.361,4.575,2.636,6.51,3.9.115.071.241.157.374.247.075.05.15.1.226.152.907.586,1.889,1.259,2.92,2a66.439,66.439,0,0,1,8.55,7.22c.59.59,1.181,1.229,1.63,1.72a28.346,28.346,0,0,1,1.8,2.22l.08.1c.32.437.609.86.888,1.269l0,0c.2.3.4.58.6.867a74.138,74.138,0,0,1,4.25,7.51c.559,1.148,1.155,2.427,1.82,3.91.473,1.065.83,1.9,1.16,2.721.24.564.5,1.189.78,1.91l.09.25c.591,1.484,1.208,3.158,1.74,4.61.5,1.4.932,2.665,1.33,3.87.279.841.541,1.682.818,2.573.233.751.474,1.525.732,2.317l.23.77c.017.06,1.721,6.084,2.03,7.259l.616,2.662h0ZM71.737,158.679c-3.1,1.043-5.9,2.041-8.58,3.05-.558.207-1.151.436-1.921.741-.152.061-.319.126-.5.2l-.022.008c-.556.219-1.183.464-1.742.7-3.313,1.311-6.65,2.761-9.92,4.309-2.75,1.3-5.4,2.648-7.88,4-1.677.933-3.146,1.794-4.49,2.63-.6.362-1.165.73-1.713,1.085l-.038.024-1.139.751A65.768,65.768,0,0,0,23.517,184.5l-.032.033c-.48.481-.976.977-1.387,1.467l-.15.16c-.329.356-.734.867-1.2,1.458l-.175.221-.121.17-.08.111a57.762,57.762,0,0,0-5.35,9c-.594,1.177-1.118,2.293-1.6,3.409l-.16.36c-.2.457-.468,1.061-.73,1.68-1.08,2.463-2.066,4.993-2.93,7.52-.451,1.239-.895,2.552-1.31,3.79-.116.341-.224.675-.339,1.03l-.131.4-.65,2.06-.311,1,0,.013c-.543,1.735-1.286,4.113-1.759,5.819l25.663.018,37.416.026h.1c65.246.047,163.847.117,177.406.117h1.536c-.077-.288-.311-1.291-.561-2.351l0-.019c-.259-1.107-.527-2.251-.595-2.489l-.23-.77c-.5-1.643-1.007-3.25-1.519-4.78-.518-1.566-.919-2.731-1.3-3.78-.549-1.534-1.118-3.044-1.69-4.49l-.09-.24c-.272-.686-.517-1.292-.75-1.85-.416-1.006-.775-1.845-1.13-2.64-.675-1.511-1.231-2.7-1.75-3.75a67.8,67.8,0,0,0-4-7.1c-.33-.507-.779-1.181-1.32-1.9l-.09-.11a22.209,22.209,0,0,0-1.58-1.949c-.474-.543-.971-1.05-1.452-1.541l-.048-.049a62.291,62.291,0,0,0-8-6.79c-.893-.647-1.835-1.293-2.8-1.92l-.55-.36c-1.892-1.229-3.949-2.462-6.29-3.77-3.295-1.831-6.854-3.6-10.88-5.41l-1.64-.73-.54-.23-1.53-.65c-1.714-.73-3.5-1.453-5.45-2.21-3.282-1.282-6.724-2.525-10.52-3.8-4.48-1.5-9.1-2.925-13.765-4.236-2.681,3.477-6.691,6.345-11.944,8.537a61.487,61.487,0,0,1-14.591,3.88,98.363,98.363,0,0,1-13.617.951h-.005l-.587,0h-.278a98.585,98.585,0,0,1-13.982-1A61.193,61.193,0,0,1,97.4,162.89c-5.2-2.189-9.168-5.032-11.824-8.464C80.65,155.811,76.111,157.206,71.737,158.679Zm27.27.531a57.728,57.728,0,0,0,13.72,3.64,97.773,97.773,0,0,0,27.339,0,57.22,57.22,0,0,0,13.64-3.61,26.356,26.356,0,0,0,9.189-5.958c-2.694-.725-5.09-1.351-7.053-1.8q-.141.248-.309.486c-3.042,4.4-12.809,6.21-16.977,6.792a86.948,86.948,0,0,1-11.9.831h-.71a87.239,87.239,0,0,1-11.91-.831,53.957,53.957,0,0,1-9.345-2.111c-4.1-1.383-6.764-3.126-7.906-5.18-2.259.558-4.573,1.154-6.911,1.779A26.4,26.4,0,0,0,99.007,159.21Zm1.181-10c.24.842,1.688,1.9,3.872,2.836a41.834,41.834,0,0,0,10.548,2.664,82.777,82.777,0,0,0,11.36.79h.69a82.643,82.643,0,0,0,11.35-.79,51.373,51.373,0,0,0,7.617-1.609c4.408-1.344,6.59-2.946,6.733-3.981a2.11,2.11,0,0,1,.08-.567V121.086a49.979,49.979,0,0,1-5.23,3.963,36.759,36.759,0,0,1-16.677,6.117q-1.615.182-3.252.224h-1.95l-.065,0-.015,0a37.089,37.089,0,0,1-4.98-.471l-.049-.008-.08-.013-.107-.018-.023,0a36.945,36.945,0,0,1-14.461-5.8A47.362,47.362,0,0,1,100.188,121Zm27.09-21.82a32.585,32.585,0,0,0,17.6-5.67,45.568,45.568,0,0,0,8.1-6.8,2.027,2.027,0,0,1,.244-.21,67.111,67.111,0,0,0,13.056-20.9l.62-1.54c.065-.173.131-.348.2-.524.239-.638.488-1.3.723-1.957v-.1c.586-1.614,1.1-3.145,1.57-4.68l.039-.109c.139-.43.27-.86.4-1.281.153-.486.3-.954.43-1.491V82.02c.037-.142.075-.284.113-.427.1-.36.194-.732.287-1.132v-.09c.094-.386.182-.784.266-1.168q.061-.281.124-.562c.145-.648.269-1.26.37-1.821.24-1.266.459-2.548.65-3.81.217-1.433.374-2.769.51-4l.059-.76a1.073,1.073,0,0,1,0-.17c0-.008.122-.827.26-2.17h.029V65.9l1.793.045L172.9,65.79V65.66c.57-6.213,1.78-27.538-6.58-41.09C155.29,6.692,137.082,4.023,127.211,4.023c-.3,0-.6,0-.893.007s-.6-.007-.9-.007c-9.913,0-28.192,2.668-39.229,20.547-8.144,13.2-7.193,33.828-6.613,40.6a2.018,2.018,0,0,1,.092.606,5.315,5.315,0,0,0,.059.731c.013.1.025.187.032.269v.355l.111.925a1.116,1.116,0,0,1,0,.19,4.1,4.1,0,0,0,.039.479c.012.094.023.189.031.282.071.709.152,1.382.24,2,.041.284.079.576.117.859.047.345.094.7.143,1.031v.26a.811.811,0,0,0,.07.4c.025.047.034.075.03.088a.019.019,0,0,1-.014.012.02.02,0,0,0-.015.021c.049.421.121.835.19,1.219.06.364.121.706.18,1.039.048.274.094.538.14.8l.06.28c.076.427.164.846.27,1.28v.1c.084.46.188.9.28,1.28.047.193.083.355.117.511s.071.326.113.489c.031.129.063.255.093.377.089.366.174.712.257.983.057.187.136.47.22.77.078.282.158.568.23.811.656,2.168,1.329,4.213,2,6.079l.18.1.3.8c.208.562.423,1.14.634,1.692.146.373.291.73.443,1.107l.005.013q.08.2.162.4a67.109,67.109,0,0,0,13.092,20.938,1.98,1.98,0,0,1,.2.182,45.645,45.645,0,0,0,8.09,6.79,32.84,32.84,0,0,0,16.75,5.638q.409.021.82.032Zm46.177-38.561a11.555,11.555,0,0,0,9.671-5.209,13.268,13.268,0,0,0,2-10.68,7.461,7.461,0,0,0-3.75-4.839,7.607,7.607,0,0,0-4.49-.66c-.072.635-.128,1.029-.15,1.159l-.06.75c-.2,1.838-.364,3.149-.54,4.251l-.055.343c-.185,1.164-.4,2.483-.615,3.657-.111.607-.238,1.242-.39,1.94l-.039.177c-.121.55-.225,1.024-.352,1.533v.1q-.046.189-.095.383a4.369,4.369,0,0,0,3.364-1.874,4.438,4.438,0,0,0,.41-4.54,1,1,0,1,1,1.68-1.08,6.49,6.49,0,0,1-5.691,9.509l.04.021q-.169,0-.337-.013c-.087.312-.184.644-.293,1-.162.532-.305.986-.48,1.48-.246.8-.522,1.653-.824,2.547C172.79,88.814,173.122,88.829,173.455,88.829ZM71.2,68.07a7.452,7.452,0,0,0-3.74,4.84,13.212,13.212,0,0,0,2,10.68A11.546,11.546,0,0,0,79.125,88.8c.356,0,.716-.017,1.072-.049-.419-1.246-.834-2.555-1.27-4-.035-.121-.07-.241-.106-.363l0-.007q-.091-.309-.183-.626-.254.021-.509.016a6.491,6.491,0,0,1-5.69-9.51,1,1,0,0,1,1.68,1.08,4.439,4.439,0,0,0,.4,4.53,4.35,4.35,0,0,0,3.591,1.89l-.01-.04v-.11c-.046-.2-.095-.4-.141-.59-.035-.143-.069-.281-.1-.41-.077-.33-.2-.9-.3-1.37-.05-.247-.1-.484-.15-.715s-.1-.464-.149-.706l-.05-.29-.044-.238c-.107-.571-.209-1.111-.3-1.663-.07-.4-.149-.862-.21-1.319l-.09-.54v-.23c-.112-.75-.2-1.385-.27-2-.019-.159-.038-.319-.058-.481-.064-.531-.129-1.077-.183-1.628a8.222,8.222,0,0,1-.09-.821,1.273,1.273,0,0,0-.049-.38.836.836,0,0,1-.026-.239,1.058,1.058,0,0,0-.034-.292V67.47a7.354,7.354,0,0,0-1.37-.15A7.7,7.7,0,0,0,71.2,68.07Z" fill="#372168"/>
      </g>
      <g id="Cheeks_color:" data-name="Cheeks color:" transform="translate(101.5 128.789)">
        <path id="Cheeks_color:-2" data-name="Cheeks color:" d="M54,10A10,10,0,1,1,64,20,10,10,0,0,1,54,10ZM0,10A10,10,0,1,1,10,20,10,10,0,0,1,0,10Z" fill="#ff1300" opacity="0.15" style="mix-blend-mode: multiply;isolation: isolate"/>
      </g>
      <g id="Emotions" transform="translate(103.5 103.5)">
        <rect id="Setup_01_Emotions_kiss_background" data-name="Setup/#01 Emotions/kiss background" width="70" height="56" fill="none"/>
        <g id="Face">
          <g id="Mouth" transform="translate(0 36)">
            <rect id="Setup_03_Face_Mouth_nose_background" data-name="Setup/#03 Face/Mouth/nose background" width="70" height="20" fill="none"/>
            <g id="Path_2" data-name="Path 2" transform="translate(29.25 2.343)">
              <path id="Path-2" data-name="Path" d="M4.432,15.313a6.58,6.58,0,0,1-2.09-.34,6.34,6.34,0,0,1-1.28-.57,1.75,1.75,0,1,1,1.75-3,3.42,3.42,0,0,0,.62.27,2.91,2.91,0,0,0,1.91,0,1.4,1.4,0,0,0,.85-.79,1.82,1.82,0,0,0-1-1.9,1.75,1.75,0,0,1,1-3.21c1,.06,1.7-.35,1.77-.6.13-.44-.54-1.36-1.84-1.74a1.753,1.753,0,0,1,1-3.36c3.1.91,4.95,3.58,4.22,6.08a4.1,4.1,0,0,1-2.06,2.43,4.67,4.67,0,0,1,.2,3.39,4.87,4.87,0,0,1-2.93,3,6,6,0,0,1-2.12.34Z" transform="translate(0 0)" fill="#372168"/>
            </g>
          </g>
          <g id="Nose" transform="translate(0 25)">
            <rect id="Setup_03_Face_Nose_background" data-name="Setup/#03 Face/Nose background" width="70" height="8" fill="none"/>
            <g id="_Nose" data-name="ðŸ‘ƒNose" transform="translate(29.222 2.152)">
              <path id="Path-3" data-name="Path" d="M5.75,5.635A6.52,6.52,0,0,1,.28,2.795,1.75,1.75,0,0,1,3.22.895,3.18,3.18,0,0,0,5.773,2.136,3.18,3.18,0,0,0,8.3.845a1.754,1.754,0,0,1,3,1.82,6.46,6.46,0,0,1-5.55,2.97Z" transform="translate(0 0)" fill="#372168"/>
            </g>
          </g>
          <g id="Eyes" transform="translate(0 12)">
            <rect id="Setup_03_Face_Eyes_happy_kiss_swetdrop_eyes_background" data-name="Setup/#03 Face/Eyes/happy_kiss_swetdrop_eyes background" width="70" height="10" fill="none"/>
            <g id="happy_kiss_swetdrop_eyes" transform="translate(9.066 2.318)">
              <path id="Path-4" data-name="Path" d="M9.79,5.622a1.73,1.73,0,0,1-1.49-.84,3.18,3.18,0,0,0-5.08-.05,1.75,1.75,0,1,1-2.94-1.9,6.67,6.67,0,0,1,11,.13,1.74,1.74,0,0,1-.59,2.4,1.68,1.68,0,0,1-.9.26Z" transform="translate(0 0)" fill="#372168"/>
              <path id="Path-5" data-name="Path" d="M9.85,5.63a1.75,1.75,0,0,1-1.5-.85,3.18,3.18,0,0,0-5.08-.05A1.75,1.75,0,1,1,.33,2.84a6.66,6.66,0,0,1,11,.13A1.76,1.76,0,0,1,9.84,5.63Z" transform="translate(40.947 0.042)" fill="#372168"/>
            </g>
          </g>
          <g id="Eyebrows">
            <rect id="Setup_03_Face_Eyebrow_excited_eyebrows_background" data-name="Setup/#03 Face/Eyebrow/excited_eyebrows background" width="70" height="12" fill="none"/>
            <g id="excited_eyebrows" transform="translate(2.188 2.083)">
              <path id="Path-6" data-name="Path" d="M2.092,7.987a2,2,0,0,1-.18-4c.13,0,13.21-1.3,19-3.82a2,2,0,0,1,1.6,3.67c-6.35,2.77-19.64,4.08-20.2,4.13Z" fill="#372168"/>
              <path id="Path-7" data-name="Path" d="M21.6,7.967h-.2c-.56,0-13.85-1.36-20.2-4.13A2,2,0,0,1,2.8.167c5.77,2.52,18.85,3.81,19,3.82a2,2,0,0,1-.18,4Z" transform="translate(41.64 0.02)" fill="#372168"/>
            </g>
          </g>
        </g>
      </g>
      <g id="Hairstyle" transform="translate(45.083 21)">
        <g id="_3_hairdo" transform="translate(7.687 8.627)">
          <path id="Hair_color:" data-name="Hair color:" d="M95.334,57.431c4.25,8.74,12.66,14.3,25.33,15.09a12,12,0,0,1,11.17,12.38v.13a9.8,9.8,0,0,1,7.31.44c5.24,2.49,7.48,10.81,2.52,18.42-3.8,5.8-10.22,6.82-15.1,5.69h0c-.32.88-.65,1.77-1,2.63l-.62,1.55a68.71,68.71,0,0,1-13.66,21.74h0v20.41c21.86-8.39,24.81-26.35,27-30.66,2.83-5.68,26.41-7.61,26.41-37.45,0-24.26-14.58-31.64-22.16-38.74s-7.39-30.8-28.5-42.71c-22.7-12.82-44.06-3-51.49,1.45a11.1,11.1,0,0,1-5,1.59c-7.87.53-30.77,4.4-34.65,31.42a20.66,20.66,0,0,1-7,12.74c-6.54,5.57-17.72,16-15.64,35.22,2.31,21.34,15.42,31.3,23.65,35,3.48,1.58,7.53,3.57,8.58,7.25,3.1,10.79,5.67,21.09,22.75,24.86l-.16-20.41a1.21,1.21,0,0,0,.16.16l-.15-.16a68.78,68.78,0,0,1-13.67-21.75l-.62-1.55c-.33-.86-.66-1.75-1-2.63h0c-4.88,1.13-11.3.11-15.1-5.69-5-7.61-2.72-15.93,2.52-18.42a9.82,9.82,0,0,1,7.32-.44h0a10.45,10.45,0,0,1,6.55-10.11c13.84-5.48,17.64-13.7,18.29-21.27,1.42-16.39,12.22-16.3,12.22-16.3S85.014,36.241,95.334,57.431Z" transform="translate(1.999 2.012)" fill="#7dbcdd"/>
          <path id="Combined_Shape-2" data-name="Combined Shape" d="M112.263,159.6a2,2,0,0,1-.87-1.641V137.553a2.011,2.011,0,0,1,.62-1.451,67.1,67.1,0,0,0,13.2-21.049c.206-.51.393-.986.609-1.541.091-.232.181-.467.273-.7l0-.01c.229-.595.466-1.211.724-1.825a1.919,1.919,0,0,1,.651-.92,1.992,1.992,0,0,1,1.689-.39,13.293,13.293,0,0,0,3.135.373,11.5,11.5,0,0,0,9.866-5.213,13.245,13.245,0,0,0,2-10.67,7.456,7.456,0,0,0-3.75-4.85,7.814,7.814,0,0,0-5.85-.329,2,2,0,0,1-2.6-2v-.131a10.1,10.1,0,0,0-9.3-10.33c-12.894-.8-22.231-6.4-27-16.2-8.806-18.086-19.568-19-21.636-19l-.126,0h-.308a8.428,8.428,0,0,0-4.784,1.91c-3.056,2.387-4.936,6.73-5.437,12.56-.908,10.582-7.3,18.106-19.54,23a8.464,8.464,0,0,0-5.289,8.169,2,2,0,0,1-2.6,2,7.84,7.84,0,0,0-5.86.329,7.487,7.487,0,0,0-3.75,4.85,13.2,13.2,0,0,0,2,10.67,11.519,11.519,0,0,0,9.9,5.188,13.9,13.9,0,0,0,3.1-.349,1.995,1.995,0,0,1,1.7.381,2.08,2.08,0,0,1,.671,1c.255.714.526,1.433.788,2.127l.141.373c.153.391.3.762.464,1.156l.147.364a66.716,66.716,0,0,0,13.26,21.11l.1.12a2,2,0,0,1,.45,2.16l.15,19.5a2,2,0,0,1-2,2v.01a2,2,0,0,1-.215.012,2.138,2.138,0,0,1-.215-.012,34.865,34.865,0,0,1-10.858-4.157,23.523,23.523,0,0,1-6.71-6.1c-3.413-4.587-4.947-10.013-6.431-15.261l-.21-.74c-.788-2.73-4.132-4.461-7.49-6a41.447,41.447,0,0,1-13.9-10.408C5.063,110.292,1.391,101.467.263,91.043a40.807,40.807,0,0,1,.794-13.955A37.051,37.051,0,0,1,5.436,66.506a51.51,51.51,0,0,1,11.083-12.4l.075-.064a18.5,18.5,0,0,0,6.34-11.5C27.047,13.913,51.756,9.948,59.361,9.418,54.461,6.81,48.173,7.3,48.073,7.313a1,1,0,1,1-.169-2c.349,0,7.729-.63,13.279,2.85l-1.3-6a1,1,0,1,1,1.949-.43l1.424,6.526q.134-.076.266-.156A57.989,57.989,0,0,1,74.262,3.126,54.8,54.8,0,0,1,92.24,0a49.97,49.97,0,0,1,24.793,6.633c14.3,8.077,19.327,21.5,22.994,31.307l.005.013,0,.005c1.91,5.09,3.559,9.485,5.879,11.665,1.022.952,2.293,2.029,4,3.389l.01.008c7.938,6.529,18.81,15.471,18.81,36.8,0,22.939-13.433,30.352-21.459,34.781l-.07.038c-2.368,1.312-4.605,2.551-5.091,3.522a24.237,24.237,0,0,0-1,2.66c-2.476,6.991-7.628,21.538-27,29a2,2,0,0,1-1.849-.22ZM92.194,4.014a53.471,53.471,0,0,0-26.631,7.529,13.051,13.051,0,0,1-5.881,1.87c-8.666.59-29.212,4.667-32.81,29.71a22.563,22.563,0,0,1-7.7,14c-8.405,7.156-16.761,16.73-15,33.48,2.395,22.046,16.526,30.722,22.49,33.43,3.108,1.409,8.31,3.768,9.67,8.52l.22.74.007.023c2.809,9.809,5.234,18.28,18.583,22.077l-.046-6.085a15.509,15.509,0,0,1-9.684-7.635,1,1,0,0,1,1.74-1,13.393,13.393,0,0,0,7.928,6.544l-.067-8.824A71.56,71.56,0,0,1,41.493,116.6c-.079-.2-.16-.4-.238-.586-.129-.31-.261-.63-.391-.985l-.419-1.11a15.593,15.593,0,0,1-15.47-6.86,17.214,17.214,0,0,1-2.551-14,11.114,11.114,0,0,1,5.027-6.9c-.252-4.618,0-16.841,9.883-18.62,3-.54,5.14-1.81,6.31-3.78,2.06-3.461.6-8,.581-8.09a1,1,0,1,1,1.9-.63c.08.22,1.769,5.48-.76,9.74-1.48,2.49-4.06,4.08-7.67,4.73-7.831,1.408-8.457,11.1-8.3,15.711a11.065,11.065,0,0,1,5.25-.6,12.439,12.439,0,0,1,7.66-9.529c10.839-4.294,16.241-10.516,17-19.58a26.914,26.914,0,0,1,2.6-9.94,15.731,15.731,0,0,1,4.414-5.41,13.686,13.686,0,0,1,7.044-2.779c.062,0,.236-.016.507-.016a20.133,20.133,0,0,1,9.967,3.082A31.96,31.96,0,0,1,91.4,46.8a51.816,51.816,0,0,1,7.667,11.789c4.1,8.419,12.277,13.261,23.66,14A13.928,13.928,0,0,1,135.392,83.3a13.238,13.238,0,0,0-1.609-7.537c-2.65-4.76-7.93-7.65-11.641-8.67-.74-.211-1.48-.391-2.219-.561-5.78-1.39-11.76-2.82-15.76-16.47-3.19-10.879-13.32-16.539-17.53-18.47a1,1,0,1,1,.84-1.82c4.451,2,15.19,8.06,18.61,19.73,3.67,12.53,8.84,13.77,14.31,15.08.76.18,1.52.37,2.28.58,4.09,1.13,9.91,4.33,12.86,9.63a15.228,15.228,0,0,1,1.7,9.789A11.12,11.12,0,0,1,147.813,93.1a17.2,17.2,0,0,1-2.541,14,15.608,15.608,0,0,1-15.48,6.86c-.122.349-.256.695-.385,1.028l-.024.063-.63,1.589a71.761,71.761,0,0,1-13.53,21.79v16.61c15.313-6.952,19.8-19.354,21.954-25.313l.046-.127a30.264,30.264,0,0,1,1.21-3.11c.992-2.072,3.521-3.462,6.724-5.223l.086-.048.026-.014c7.711-4.264,19.364-10.709,19.364-31.265,0-19.455-9.626-27.365-17.359-33.72-1.415-1.16-2.878-2.36-4.171-3.56-3-2.821-4.8-7.626-6.88-13.189-3.649-9.749-8.192-21.881-21.23-29.24A45.994,45.994,0,0,0,92.2,4.013h-.005ZM148.459,109.99a1,1,0,0,1,.494-1.127c5-2.75,6.5-7.58,6.84-11.14a1,1,0,0,1,1.99.19c-.31,3.31-1.75,9.37-7.88,12.71a1,1,0,0,1-.47.121h0A1,1,0,0,1,148.459,109.99ZM125.093,48.533c-.25,0-6.16-.709-8.22-9.229-1.77-7.331-5.92-8.89-6-8.91a1,1,0,1,1,.671-1.88c.21.08,5.21,2,7.24,10.31,1.71,7.089,6.29,7.7,6.48,7.719a1,1,0,0,1-.07,1.99Z" fill="#372168"/>
        </g>
      </g>
      <g id="Accessories_02" data-name="Accessories#02" transform="translate(77.937 139.47)">
        <g id="earings" transform="translate(-0.168 -0.97)">
          <g id="Path-8" data-name="Path">
            <path id="Path-9" data-name="Path" d="M2.377,16.74C-4.393,12.6,5.447,0,5.447,0s9.83,12.59,3.08,16.74A6,6,0,0,1,2.377,16.74Z" transform="translate(2.163 7.41)" fill="#f96"/>
            <path id="Path-10" data-name="Path" d="M2.377,16.74C-4.393,12.6,5.447,0,5.447,0s9.83,12.59,3.08,16.74A6,6,0,0,1,2.377,16.74Z" transform="translate(2.163 7.41)" fill="rgba(255,255,255,0.16)"/>
          </g>
          <path id="Shape" d="M7.471,21.56H7.418a7.829,7.829,0,0,1-4.085-1.15,6.707,6.707,0,0,1-3.2-4.65,11.091,11.091,0,0,1,.329-4.778A23.553,23.553,0,0,1,2.313,6.314,34.238,34.238,0,0,1,5.873.761,1.987,1.987,0,0,1,7.442,0h.012A1.988,1.988,0,0,1,9.023.76c1.144,1.486,6.795,9.194,5.729,15a6.722,6.722,0,0,1-3.19,4.65A7.843,7.843,0,0,1,7.471,21.56ZM7.442,5.46C6.506,6.923,3.5,11.936,4.063,15.05A2.748,2.748,0,0,0,5.413,17a3.932,3.932,0,0,0,4.05,0,2.734,2.734,0,0,0,1.35-2C11.365,12.068,8.64,7.352,7.442,5.46Z" transform="translate(0.168 5.44)" fill="#372168"/>
          <path id="Path-11" data-name="Path" d="M1.729,7.3a1,1,0,0,1-.8-.4C-1.071,4.25.769.74.849.59a1,1,0,1,1,1.76.94c0,.06-1.3,2.55-.08,4.16a1.013,1.013,0,0,1-.8,1.61Z" transform="translate(5.881 17.79)" fill="#372168"/>
          <path id="Path-12" data-name="Path" d="M1,7.11a1,1,0,0,1-1-1V1A1,1,0,0,1,2,1V6.15a1,1,0,0,1-1,.96Z" transform="translate(6.61 1.3)" fill="#372168"/>
          <g id="Path-13" data-name="Path">
            <path id="Path-14" data-name="Path" d="M2.377,16.74C-4.393,12.6,5.447,0,5.447,0s9.83,12.6,3.07,16.74A5.94,5.94,0,0,1,2.377,16.74Z" transform="translate(106.493 7.12)" fill="#f96"/>
            <path id="Path-15" data-name="Path" d="M2.377,16.74C-4.393,12.6,5.447,0,5.447,0s9.83,12.6,3.07,16.74A5.94,5.94,0,0,1,2.377,16.74Z" transform="translate(106.493 7.12)" fill="rgba(255,255,255,0.16)"/>
          </g>
          <path id="Shape-2" data-name="Shape" d="M7.475,21.57H7.45a8.008,8.008,0,0,1-4.12-1.14,6.732,6.732,0,0,1-3.2-4.66,11.014,11.014,0,0,1,.333-4.751A23.786,23.786,0,0,1,2.314,6.35,34.982,34.982,0,0,1,5.87.77,1.988,1.988,0,0,1,7.447,0h.006A1.988,1.988,0,0,1,9.031.77c.7.9,6.829,9,5.729,15a6.718,6.718,0,0,1-3.19,4.65A7.872,7.872,0,0,1,7.475,21.57ZM7.44,5.47h0a.037.037,0,0,1,0,.008c-.933,1.459-3.933,6.459-3.364,9.581a2.7,2.7,0,0,0,1.35,1.95,3.944,3.944,0,0,0,4.06,0,2.686,2.686,0,0,0,1.34-1.95c.517-3.031-2.2-7.71-3.386-9.581L7.45,5.47Z" transform="translate(104.49 5.14)" fill="#372168"/>
          <path id="Path-16" data-name="Path" d="M1.012,7.272a1,1,0,0,1-.8-1.6c1.23-1.62-.07-4.14-.08-4.16a1.012,1.012,0,0,1,1.76-1c.08.15,1.92,3.66-.08,6.31A1,1,0,0,1,1.012,7.272Z" transform="translate(110.558 17.528)" fill="#372168"/>
          <path id="Path-17" data-name="Path" d="M1,7.15a1,1,0,0,1-1-1V1A1,1,0,0,1,2,1V6.15A1,1,0,0,1,1,7.15Z" transform="translate(110.94 0.97)" fill="#372168"/>
        </g>
      </g>
    </g>
  </g>
  <path id="Oval" d="M140,280a141.037,141.037,0,0,1-28.215-2.844A139.234,139.234,0,0,1,61.725,256.09,140.408,140.408,0,0,1,11,194.495a139.3,139.3,0,0,1-8.158-26.279,141.364,141.364,0,0,1,0-56.43A139.232,139.232,0,0,1,23.91,61.725,140.41,140.41,0,0,1,85.506,11a139.3,139.3,0,0,1,26.279-8.158,141.364,141.364,0,0,1,56.43,0,139.23,139.23,0,0,1,50.06,21.066A140.409,140.409,0,0,1,269,85.506a139.3,139.3,0,0,1,8.158,26.279,141.367,141.367,0,0,1,0,56.43,139.232,139.232,0,0,1-21.065,50.06A140.408,140.408,0,0,1,194.495,269a139.3,139.3,0,0,1-26.279,8.158A141.037,141.037,0,0,1,140,280ZM140,4C65.009,4,4,65.009,4,140s61.01,136,136,136,136-61.009,136-136S214.991,4,140,4Z" fill="#372168"/>
</svg>
