<svg id="å¤´åƒ1" xmlns="http://www.w3.org/2000/svg" xmlns:xlink="http://www.w3.org/1999/xlink" width="280" height="280" viewBox="0 0 280 280">
  <defs>
    <clipPath id="clip-path">
      <path d="M0,138A138,138,0,1,1,138,276,138,138,0,0,1,0,138Z" fill="none"/>
    </clipPath>
  </defs>
  <g id="Girl" transform="translate(2 2)">
    <g id="Background">
      <circle id="Background-2" data-name="Background" cx="138" cy="138" r="138" fill="#bec5d8"/>
      <circle id="Background-3" data-name="Background" cx="138" cy="138" r="138" fill="rgba(255,255,255,0.16)"/>
    </g>
    <g id="Girl-2" data-name="Girl" clip-path="url(#clip-path)">
      <g id="Body" transform="translate(12.383 49.8)">
        <g id="Top_color:" data-name="Top color:" transform="translate(2.517 149.03)">
          <path id="Top_color:-2" data-name="Top color:" d="M0,79.17V77.52c.33-1.31.68-2.59,1-3.83.56-2,1.13-4,1.71-5.83.22-.7.44-1.39.65-2.07.16-.5.32-1,.48-1.46.44-1.32.88-2.6,1.32-3.83q1.49-4.14,3-7.62c.25-.59.5-1.17.75-1.73l.15-.33c.54-1.24,1.09-2.4,1.64-3.5a60.67,60.67,0,0,1,5.54-9.35c.06-.09.13-.17.18-.25.55-.72,1.08-1.37,1.59-1.93l.06-.07c.48-.54,1-1.06,1.5-1.58a67,67,0,0,1,10.59-8.67l1.16-.77q.88-.58,1.8-1.14,2.22-1.38,4.57-2.68c2.59-1.44,5.27-2.8,8-4.09,3.3-1.56,6.66-3,10-4.36l2.27-.9c.65-.26,1.31-.51,2-.75,2.92-1.11,5.82-2.13,8.65-3.08,5.48-1.84,10.67-3.38,15.25-4.65C88.6,1.74,92.66.72,95.65,0a2,2,0,0,0,0,.42c.51,3.23,7,6,16.14,7.28a85.27,85.27,0,0,0,11.63.81h.7a85.27,85.27,0,0,0,11.63-.81c9.21-1.3,15.7-4.08,16.15-7.33a2.308,2.308,0,0,0,0-.37c3,.73,7.1,1.75,11.87,3.07,4.56,1.26,9.72,2.8,15.17,4.63q5.19,1.74,10.61,3.83,2.75,1.06,5.49,2.23l2.09.89,1.68.74c3.77,1.7,7.48,3.52,11,5.49,2.2,1.22,4.34,2.49,6.38,3.82l.57.38a34.826,34.826,0,0,1,2.88,2,64.129,64.129,0,0,1,8.29,7q.81.81,1.56,1.65a25.731,25.731,0,0,1,1.72,2.12v.06c.46.62.94,1.3,1.41,2a68.788,68.788,0,0,1,4.14,7.32c.59,1.2,1.18,2.47,1.79,3.83q.57,1.29,1.14,2.67c.29.69.57,1.4.86,2.13q.85,2.16,1.71,4.55c.44,1.23.88,2.51,1.32,3.83q.76,2.33,1.53,4.84c.21.71.43,1.43.64,2.16s.45,1.56.67,2.36c.35,1.24,1.306,4.26,1.616,5.57C243.472,79.162,4.259,79.2,0,79.17Z" transform="translate(0)" fill="#f66"/>
          <path id="Top_color:-3" data-name="Top color:" d="M0,79.17V77.52c.33-1.31.68-2.59,1-3.83.56-2,1.13-4,1.71-5.83.22-.7.44-1.39.65-2.07.16-.5.32-1,.48-1.46.44-1.32.88-2.6,1.32-3.83q1.49-4.14,3-7.62c.25-.59.5-1.17.75-1.73l.15-.33c.54-1.24,1.09-2.4,1.64-3.5a60.67,60.67,0,0,1,5.54-9.35c.06-.09.13-.17.18-.25.55-.72,1.08-1.37,1.59-1.93l.06-.07c.48-.54,1-1.06,1.5-1.58a67,67,0,0,1,10.59-8.67l1.16-.77q.88-.58,1.8-1.14,2.22-1.38,4.57-2.68c2.59-1.44,5.27-2.8,8-4.09,3.3-1.56,6.66-3,10-4.36l2.27-.9c.65-.26,1.31-.51,2-.75,2.92-1.11,5.82-2.13,8.65-3.08,5.48-1.84,10.67-3.38,15.25-4.65C88.6,1.74,92.66.72,95.65,0a2,2,0,0,0,0,.42c.51,3.23,7,6,16.14,7.28a85.27,85.27,0,0,0,11.63.81h.7a85.27,85.27,0,0,0,11.63-.81c9.21-1.3,15.7-4.08,16.15-7.33a2.308,2.308,0,0,0,0-.37c3,.73,7.1,1.75,11.87,3.07,4.56,1.26,9.72,2.8,15.17,4.63q5.19,1.74,10.61,3.83,2.75,1.06,5.49,2.23l2.09.89,1.68.74c3.77,1.7,7.48,3.52,11,5.49,2.2,1.22,4.34,2.49,6.38,3.82l.57.38a34.826,34.826,0,0,1,2.88,2,64.129,64.129,0,0,1,8.29,7q.81.81,1.56,1.65a25.731,25.731,0,0,1,1.72,2.12v.06c.46.62.94,1.3,1.41,2a68.788,68.788,0,0,1,4.14,7.32c.59,1.2,1.18,2.47,1.79,3.83q.57,1.29,1.14,2.67c.29.69.57,1.4.86,2.13q.85,2.16,1.71,4.55c.44,1.23.88,2.51,1.32,3.83q.76,2.33,1.53,4.84c.21.71.43,1.43.64,2.16s.45,1.56.67,2.36c.35,1.24,1.306,4.26,1.616,5.57C243.472,79.162,4.259,79.2,0,79.17Z" transform="translate(0)" fill="rgba(255,255,255,0.09)"/>
        </g>
        <path id="Light_layer" data-name="Light layer" d="M79.98,3.08c-2.47,3.78-6.6,6.78-11.9,9a59.09,59.09,0,0,1-14.12,3.75,100,100,0,0,1-27.93,0,59.49,59.49,0,0,1-14.2-3.78C6.56,9.83,2.46,6.83,0,3.05,4.74,1.74,8.8.72,11.79,0a2,2,0,0,0,0,.42c.51,3.23,7,6,16.14,7.28a85.27,85.27,0,0,0,11.63.81h.7A85.27,85.27,0,0,0,51.89,7.7C61.1,6.4,67.59,3.62,68.04.37a2.31,2.31,0,0,0,0-.37C71.12.74,75.21,1.76,79.98,3.08Z" transform="translate(86.357 149.01)" fill="#fff" opacity="0.4" style="mix-blend-mode: soft-light;isolation: isolate"/>
        <path id="Skin_color:" data-name="Skin color:" d="M60.874,155.589a85.353,85.353,0,0,1-11.63-.81c-9.16-1.29-15.63-4.05-16.14-7.28v-33.13a48.006,48.006,0,0,0,8.45,7.09,34.926,34.926,0,0,0,18.689,6h2a34.878,34.878,0,0,0,18.689-6,48.144,48.144,0,0,0,6.685-5.35,48.092,48.092,0,0,1-6.675,5.309,34.879,34.879,0,0,1-18.689,6h-2a34.927,34.927,0,0,1-18.689-6,47.968,47.968,0,0,1-8.45-7.09,68.766,68.766,0,0,1-13.67-21.749l-.62-1.55c-.325-.847-.65-1.723-.984-2.59-4.875,1.113-11.267.082-15.056-5.7-5-7.609-2.72-15.93,2.52-18.419a9.817,9.817,0,0,1,7.31-.443v-.057c-.67-7.29-1.69-28.45,6.86-42.32C29.855,4.688,46.865-.231,61.275.008c14.39-.239,31.4,4.68,41.78,21.49,8.56,13.93,7.54,35.06,6.88,42.38,0,.008,0,.015,0,.023a9.8,9.8,0,0,1,7.289.447c5.26,2.46,7.5,10.78,2.541,18.39-3.8,5.8-10.213,6.819-15.092,5.693-.316.87-.642,1.748-.988,2.6l-.62,1.55a68.71,68.71,0,0,1-13.66,21.74l-.049.052v33.078c-.45,3.251-6.94,6-16.151,7.33a85.353,85.353,0,0,1-11.63.81Zm-48.16-90.46c.031.31,0,.27.05.39s0,.44.07.59a.509.509,0,0,1,0,.339,3.978,3.978,0,0,0,.09.841q.1,1,.239,2.07c.08.65.17,1.29.26,1.92a4.049,4.049,0,0,0,.12.761q.09.67.211,1.319c.1.62.21,1.23.319,1.831l.06.31c.09.47.18.92.29,1.37s.19.931.3,1.381.149.66.229,1,.24.94.36,1.39.311,1.11.47,1.64q.326,1.005.657,1.995-.317-1.018-.617-2.054c-.16-.53-.32-1.08-.47-1.641s-.24-.92-.36-1.39c-.08-.32-.16-.65-.23-1s-.21-.91-.3-1.38-.2-.9-.291-1.371l-.059-.31c-.11-.6-.22-1.211-.32-1.83q-.12-.651-.21-1.32c-.05-.25-.08-.51-.12-.76-.09-.63-.18-1.27-.26-1.92s-.17-1.37-.24-2.07c0-.28-.06-.56-.08-.84a1.73,1.73,0,0,0-.05-.34c-.05-.22,0-.35-.07-.59s0-.249-.05-.39a.345.345,0,0,1-.01-.034Q12.71,65.082,12.714,65.129Zm-.051-.439c-.012-.157-.023-.34-.038-.514A5,5,0,0,0,12.663,64.69Z" transform="translate(65.043 1.941)" fill="#ffd6cb"/>
        <path id="Path" d="M52.19.02v29.3C27.27,29.71,8.81,16.88,0,9.21V0A44.6,44.6,0,0,0,6.43,5.1a35,35,0,0,0,18.69,6h2a35,35,0,0,0,18.69-6A45.7,45.7,0,0,0,52.19.02Z" transform="translate(100.207 118.3)" fill="#7c3830" opacity="0.15" style="mix-blend-mode: multiply;isolation: isolate"/>
        <path id="Combined_Shape" data-name="Combined Shape" d="M252.452,228.212C249.068,228.2,10.168,228.2,0,228.2c.168-.68,2.7-10.128,3.288-12l.64-2.07c.19-.58.344-1.042.5-1.5.4-1.209.835-2.475,1.33-3.87,1.062-2.962,2.043-5.491,3-7.73.221-.531.485-1.155.76-1.76l.149-.339.085-.193c.469-1.08.955-2.2,1.6-3.377a62.488,62.488,0,0,1,5.72-9.65l.1-.131a.687.687,0,0,1,.1-.139,26.675,26.675,0,0,1,1.7-2.06l.07-.09c.2-.223.417-.442.645-.672.292-.3.6-.6.9-.958a69.129,69.129,0,0,1,10.9-8.83c.336-.236.736-.5,1.19-.79.541-.363,1.142-.745,1.84-1.17,1.4-.865,2.911-1.751,4.63-2.71,2.383-1.335,5.116-2.731,8.12-4.15,3.238-1.541,6.646-3.024,10.13-4.41.923-.377,1.629-.658,2.29-.91.244-.093.468-.18.681-.263.46-.18.858-.334,1.319-.5,2.742-1.022,5.685-2.049,8.71-3.1,4.871-1.637,9.892-3.168,15.35-4.68,3.719-1.023,7.159-1.921,10.471-2.732v-30.3a71.054,71.054,0,0,1-13.55-21.8l-.62-1.56c-.144-.37-.29-.753-.445-1.17a18.144,18.144,0,0,1-2.265.2c-.112,0-.224,0-.336,0a15.3,15.3,0,0,1-12.855-7,17.2,17.2,0,0,1-2.54-14,11.419,11.419,0,0,1,5.88-7.37,11.821,11.821,0,0,1,5.055-1.143q.552,0,1.1.051c-.632-9.529-.59-27.984,7.354-40.879A44.616,44.616,0,0,1,104.36,3.983,55.542,55.542,0,0,1,125.313,0c.36,0,.725,0,1.085.01C126.739,0,127.085,0,127.429,0a55.5,55.5,0,0,1,20.9,3.973,45.228,45.228,0,0,1,21.52,18.476c7.93,12.866,7.983,31.359,7.361,40.9q.414-.029.83-.029a11.787,11.787,0,0,1,5.049,1.143,11.46,11.46,0,0,1,5.89,7.37,17.25,17.25,0,0,1-2.55,14,15.3,15.3,0,0,1-12.821,6.953h0c-.106,0-.212,0-.318,0a18.145,18.145,0,0,1-2.165-.137c-.134.358-.269.715-.4,1.067l-.63,1.58a70.969,70.969,0,0,1-13.69,21.957v30.212c2.921.72,6.362,1.594,10.38,2.71,5.357,1.48,10.494,3.048,15.27,4.66,3.86,1.3,7.36,2.56,10.7,3.86,2.087.814,3.85,1.528,5.549,2.25l1.561.67.53.23,1.71.75c4.091,1.839,7.748,3.658,11.18,5.56,2.445,1.361,4.575,2.636,6.51,3.9.115.071.241.157.374.247.075.05.15.1.226.152.907.586,1.889,1.259,2.92,2a66.439,66.439,0,0,1,8.55,7.22c.59.59,1.181,1.229,1.63,1.72a28.346,28.346,0,0,1,1.8,2.22l.08.1c.32.437.609.86.888,1.269l0,0c.2.3.4.58.6.867a74.138,74.138,0,0,1,4.25,7.51c.559,1.148,1.155,2.427,1.82,3.91.473,1.065.83,1.9,1.16,2.721.24.564.5,1.189.78,1.91l.09.25c.591,1.484,1.208,3.158,1.74,4.61.5,1.4.932,2.665,1.33,3.87.279.841.541,1.682.818,2.573.233.751.474,1.525.732,2.317l.23.77c.017.06,1.721,6.084,2.03,7.259l.616,2.662h0ZM71.737,158.679c-3.1,1.043-5.9,2.041-8.58,3.05-.558.207-1.151.436-1.921.741-.152.061-.319.126-.5.2l-.022.008c-.556.219-1.183.464-1.742.7-3.313,1.311-6.65,2.761-9.92,4.309-2.75,1.3-5.4,2.648-7.88,4-1.677.933-3.146,1.794-4.49,2.63-.6.362-1.165.73-1.713,1.085l-.038.024-1.139.751A65.768,65.768,0,0,0,23.517,184.5l-.032.033c-.48.481-.976.977-1.387,1.467l-.15.16c-.329.356-.734.867-1.2,1.458l-.175.221-.121.17-.08.111a57.762,57.762,0,0,0-5.35,9c-.594,1.177-1.118,2.293-1.6,3.409l-.16.36c-.2.457-.468,1.061-.73,1.68-1.08,2.463-2.066,4.993-2.93,7.52-.451,1.239-.895,2.552-1.31,3.79-.116.341-.224.675-.339,1.03l-.131.4-.65,2.06-.311,1,0,.013c-.543,1.735-1.286,4.113-1.759,5.819l25.663.018,37.416.026h.1c65.246.047,163.847.117,177.406.117h1.536c-.077-.288-.311-1.291-.561-2.351l0-.019c-.259-1.107-.527-2.251-.595-2.489l-.23-.77c-.5-1.643-1.007-3.25-1.519-4.78-.518-1.566-.919-2.731-1.3-3.78-.549-1.534-1.118-3.044-1.69-4.49l-.09-.24c-.272-.686-.517-1.292-.75-1.85-.416-1.006-.775-1.845-1.13-2.64-.675-1.511-1.231-2.7-1.75-3.75a67.8,67.8,0,0,0-4-7.1c-.33-.507-.779-1.181-1.32-1.9l-.09-.11a22.209,22.209,0,0,0-1.58-1.949c-.474-.543-.971-1.05-1.452-1.541l-.048-.049a62.291,62.291,0,0,0-8-6.79c-.893-.647-1.835-1.293-2.8-1.92l-.55-.36c-1.892-1.229-3.949-2.462-6.29-3.77-3.295-1.831-6.854-3.6-10.88-5.41l-1.64-.73-.54-.23-1.53-.65c-1.714-.73-3.5-1.453-5.45-2.21-3.282-1.282-6.724-2.525-10.52-3.8-4.48-1.5-9.1-2.925-13.765-4.236-2.681,3.477-6.691,6.345-11.944,8.537a61.487,61.487,0,0,1-14.591,3.88,98.363,98.363,0,0,1-13.617.951h-.005l-.587,0h-.278a98.585,98.585,0,0,1-13.982-1A61.193,61.193,0,0,1,97.4,162.89c-5.2-2.189-9.168-5.032-11.824-8.464C80.65,155.811,76.111,157.206,71.737,158.679Zm27.27.531a57.728,57.728,0,0,0,13.72,3.64,97.773,97.773,0,0,0,27.339,0,57.22,57.22,0,0,0,13.64-3.61,26.356,26.356,0,0,0,9.189-5.958c-2.694-.725-5.09-1.351-7.053-1.8q-.141.248-.309.486c-3.042,4.4-12.809,6.21-16.977,6.792a86.948,86.948,0,0,1-11.9.831h-.71a87.239,87.239,0,0,1-11.91-.831,53.957,53.957,0,0,1-9.345-2.111c-4.1-1.383-6.764-3.126-7.906-5.18-2.259.558-4.573,1.154-6.911,1.779A26.4,26.4,0,0,0,99.007,159.21Zm1.181-10c.24.842,1.688,1.9,3.872,2.836a41.834,41.834,0,0,0,10.548,2.664,82.777,82.777,0,0,0,11.36.79h.69a82.643,82.643,0,0,0,11.35-.79,51.373,51.373,0,0,0,7.617-1.609c4.408-1.344,6.59-2.946,6.733-3.981a2.11,2.11,0,0,1,.08-.567V121.086a49.979,49.979,0,0,1-5.23,3.963,36.759,36.759,0,0,1-16.677,6.117q-1.615.182-3.252.224h-1.95l-.065,0-.015,0a37.089,37.089,0,0,1-4.98-.471l-.049-.008-.08-.013-.107-.018-.023,0a36.945,36.945,0,0,1-14.461-5.8A47.362,47.362,0,0,1,100.188,121Zm27.09-21.82a32.585,32.585,0,0,0,17.6-5.67,45.568,45.568,0,0,0,8.1-6.8,2.027,2.027,0,0,1,.244-.21,67.111,67.111,0,0,0,13.056-20.9l.62-1.54c.065-.173.131-.348.2-.524.239-.638.488-1.3.723-1.957v-.1c.586-1.614,1.1-3.145,1.57-4.68l.039-.109c.139-.43.27-.86.4-1.281.153-.486.3-.954.43-1.491V82.02c.037-.142.075-.284.113-.427.1-.36.194-.732.287-1.132v-.09c.094-.386.182-.784.266-1.168q.061-.281.124-.562c.145-.648.269-1.26.37-1.821.24-1.266.459-2.548.65-3.81.217-1.433.374-2.769.51-4l.059-.76a1.073,1.073,0,0,1,0-.17c0-.008.122-.827.26-2.17h.029V65.9l1.793.045L172.9,65.79V65.66c.57-6.213,1.78-27.538-6.58-41.09C155.29,6.692,137.082,4.023,127.211,4.023c-.3,0-.6,0-.893.007s-.6-.007-.9-.007c-9.913,0-28.192,2.668-39.229,20.547-8.144,13.2-7.193,33.828-6.613,40.6a2.018,2.018,0,0,1,.092.606,5.315,5.315,0,0,0,.059.731c.013.1.025.187.032.269v.355l.111.925a1.116,1.116,0,0,1,0,.19,4.1,4.1,0,0,0,.039.479c.012.094.023.189.031.282.071.709.152,1.382.24,2,.041.284.079.576.117.859.047.345.094.7.143,1.031v.26a.811.811,0,0,0,.07.4c.025.047.034.075.03.088a.019.019,0,0,1-.014.012.02.02,0,0,0-.015.021c.049.421.121.835.19,1.219.06.364.121.706.18,1.039.048.274.094.538.14.8l.06.28c.076.427.164.846.27,1.28v.1c.084.46.188.9.28,1.28.047.193.083.355.117.511s.071.326.113.489c.031.129.063.255.093.377.089.366.174.712.257.983.057.187.136.47.22.77.078.282.158.568.23.811.656,2.168,1.329,4.213,2,6.079l.18.1.3.8c.208.562.423,1.14.634,1.692.146.373.291.73.443,1.107l.005.013q.08.2.162.4a67.109,67.109,0,0,0,13.092,20.938,1.98,1.98,0,0,1,.2.182,45.645,45.645,0,0,0,8.09,6.79,32.84,32.84,0,0,0,16.75,5.638q.409.021.82.032Zm46.177-38.561a11.555,11.555,0,0,0,9.671-5.209,13.268,13.268,0,0,0,2-10.68,7.461,7.461,0,0,0-3.75-4.839,7.607,7.607,0,0,0-4.49-.66c-.072.635-.128,1.029-.15,1.159l-.06.75c-.2,1.838-.364,3.149-.54,4.251l-.055.343c-.185,1.164-.4,2.483-.615,3.657-.111.607-.238,1.242-.39,1.94l-.039.177c-.121.55-.225,1.024-.352,1.533v.1q-.046.189-.095.383a4.369,4.369,0,0,0,3.364-1.874,4.438,4.438,0,0,0,.41-4.54,1,1,0,1,1,1.68-1.08,6.49,6.49,0,0,1-5.691,9.509l.04.021q-.169,0-.337-.013c-.087.312-.184.644-.293,1-.162.532-.305.986-.48,1.48-.246.8-.522,1.653-.824,2.547C172.79,88.814,173.122,88.829,173.455,88.829ZM71.2,68.07a7.452,7.452,0,0,0-3.74,4.84,13.212,13.212,0,0,0,2,10.68A11.546,11.546,0,0,0,79.125,88.8c.356,0,.716-.017,1.072-.049-.419-1.246-.834-2.555-1.27-4-.035-.121-.07-.241-.106-.363l0-.007q-.091-.309-.183-.626-.254.021-.509.016a6.491,6.491,0,0,1-5.69-9.51,1,1,0,0,1,1.68,1.08,4.439,4.439,0,0,0,.4,4.53,4.35,4.35,0,0,0,3.591,1.89l-.01-.04v-.11c-.046-.2-.095-.4-.141-.59-.035-.143-.069-.281-.1-.41-.077-.33-.2-.9-.3-1.37-.05-.247-.1-.484-.15-.715s-.1-.464-.149-.706l-.05-.29-.044-.238c-.107-.571-.209-1.111-.3-1.663-.07-.4-.149-.862-.21-1.319l-.09-.54v-.23c-.112-.75-.2-1.385-.27-2-.019-.159-.038-.319-.058-.481-.064-.531-.129-1.077-.183-1.628a8.222,8.222,0,0,1-.09-.821,1.273,1.273,0,0,0-.049-.38.836.836,0,0,1-.026-.239,1.058,1.058,0,0,0-.034-.292V67.47a7.354,7.354,0,0,0-1.37-.15A7.7,7.7,0,0,0,71.2,68.07Z" fill="#372168"/>
      </g>
      <g id="Cheeks_color:" data-name="Cheeks color:" transform="translate(101.5 128.789)">
        <path id="Cheeks_color:-2" data-name="Cheeks color:" d="M54,10A10,10,0,1,1,64,20,10,10,0,0,1,54,10ZM0,10A10,10,0,1,1,10,20,10,10,0,0,1,0,10Z" fill="#ff1300" opacity="0.15" style="mix-blend-mode: multiply;isolation: isolate"/>
      </g>
      <g id="Emotions" transform="translate(103.5 103.5)">
        <rect id="Setup_01_Emotions_bored_background" data-name="Setup/#01 Emotions/bored background" width="70" height="56" fill="none"/>
        <g id="Face">
          <g id="Mouth" transform="translate(0 36)">
            <rect id="Setup_03_Face_Mouth_Man_Mouth_background" data-name="Setup/#03 Face/Mouth/Man Mouth background" width="70" height="20" fill="none"/>
            <path id="Path-2" data-name="Path" d="M1.75,11.97a1.75,1.75,0,0,1,0-3.5,2.47,2.47,0,0,0,0-4.94,1.75,1.75,0,1,1,0-3.5,6,6,0,1,1,0,11.94Z" transform="translate(40 3)" fill="#372168"/>
          </g>
          <g id="Nose" transform="translate(0 25)">
            <rect id="Setup_03_Face_Nose_background" data-name="Setup/#03 Face/Nose background" width="70" height="8" fill="none"/>
            <g id="_Nose" data-name="ðŸ‘ƒNose" transform="translate(29.222 2.152)">
              <path id="Path-3" data-name="Path" d="M5.75,5.635A6.52,6.52,0,0,1,.28,2.795,1.75,1.75,0,0,1,3.22.895,3.18,3.18,0,0,0,5.773,2.136,3.18,3.18,0,0,0,8.3.845a1.754,1.754,0,0,1,3,1.82,6.46,6.46,0,0,1-5.55,2.97Z" transform="translate(0 0)" fill="#372168"/>
            </g>
          </g>
          <g id="Eyes" transform="translate(0 12)">
            <rect id="Setup_03_Face_Eyes_eyes-8_background" data-name="Setup/#03 Face/Eyes/eyes-8 background" width="70" height="10" fill="none"/>
            <g id="silly_eyes" transform="translate(11.498 1.85)">
              <path id="Path-4" data-name="Path" d="M3.338,6.9c4.44,0,4.45-6.9,0-6.9S-1.112,6.9,3.338,6.9Z" transform="translate(0)" fill="#372168"/>
              <path id="Path-5" data-name="Path" d="M3.334,6.9c4.43,0,4.44-6.9,0-6.9S-1.116,6.9,3.334,6.9Z" transform="translate(40.974)" fill="#372168"/>
            </g>
          </g>
          <g id="Eyebrows">
            <rect id="Setup_03_Face_Eyebrow_bored_eyebrows_background" data-name="Setup/#03 Face/Eyebrow/bored_eyebrows background" width="70" height="12" fill="none"/>
            <g id="bored_eyebrows" transform="translate(3.548 3.262)">
              <path id="Path-6" data-name="Path" d="M2.092,5.538a2,2,0,0,1-.18-4l17-1.53a2.008,2.008,0,1,1,.36,4l-17,1.53Z" fill="#372168"/>
              <path id="Path-7" data-name="Path" d="M2.092,5.538a2,2,0,0,1-.18-4l17-1.53a2.008,2.008,0,0,1,.36,4l-17,1.53Z" transform="translate(41.54 0)" fill="#372168"/>
            </g>
          </g>
        </g>
      </g>
      <g id="Hairstyle" transform="translate(45.083 21)">
        <g id="_1_hairdo-6" transform="translate(0.231 0.659)">
          <path id="Hair_color:" data-name="Hair color:" d="M2.37,104.371c-5.31,32.95-1.58,62.2,10,84.51,4-1.91,8.18-3.67,12.29-5.26,1-.38,1.93-.75,2.9-1.11,2.6-1,5.18-1.87,7.71-2.72,3.75-1.26,7.36-2.38,10.73-3.37,6.68-1.95,12.4-3.39,16.31-4.33v-32.71a68.78,68.78,0,0,1-13.67-21.75l-.62-1.55c-.33-.86-.66-1.75-1-2.63h0c-4.88,1.13-11.3.11-15.1-5.69a19.761,19.761,0,0,1-1.22-2.17c-3.29-7-1-14,3.74-16.25h0a9.79,9.79,0,0,1,7.29-.43h0c0-.26-.06-.55-.08-.87v-.49a32.41,32.41,0,0,1,.75-8.23,16.85,16.85,0,0,1,6.33-8.67h0l.22-.15h0a18.82,18.82,0,0,1,1.87-1.16c9.27-5.06,14.92-13.69,18.24-21a59.58,59.58,0,0,0,4.29-13.1h0c.16,1-1.43,32.33,39.14,32.51,0,0-5.15-9-5.15-18,0,0,8,13,16.77,18.15h0l.39.27c1.37.94,2.65,1.78,3.83,2.57,3.44,2.29,6.07,4.06,7.86,6.1h0c1.94,2.22,2.88,4.76,2.79,8.66v3.37a9.8,9.8,0,0,1,7.31.44c.23.11.44.22.66.35,3.33,2,5.23,6.48,4.46,11.48a16.89,16.89,0,0,1-2.6,6.59c-3.8,5.8-10.22,6.82-15.1,5.69h0c-.32.88-.65,1.77-1,2.63l-.62,1.55a68.71,68.71,0,0,1-13.66,21.74v32.74c4.23,1,10.59,2.62,18,4.83,1.27.38,2.57.77,3.89,1.19q2.53.79,5.17,1.68l1.44.49c3,1,6.08,2.13,9.17,3.34q3.8,1.47,7.58,3.12c7.11-14,11.51-30.3,13-47.56l-2.87,48.72a104.607,104.607,0,0,0,4.64-11.65.09.09,0,0,0,0-.05c17.06-51.43-6.49-108.86-15.2-128.37a85.81,85.81,0,0,0-21.72-29.84C113.63-6.389,82.94-.169,71.14,3.591,71.37,3.6,18.84,2.151,2.37,104.371Z" transform="translate(2.019 6.091)" fill="#f96"/>
          <path id="Combined_Shape-2" data-name="Combined Shape" d="M14.4,196.972a2,2,0,0,1-1.78-1.08c-12-23.1-15.53-52.753-10.21-85.75,4.756-29.471,15.8-69,41.389-89.951C54.131,11.75,63.542,9,68.883,8.11L65.009,4.072a1,1,0,1,1,1.44-1.38l4.928,5.095.1-.009c.876-2.273,2.852-6.145,6.477-7.7a1,1,0,1,1,.79,1.84c-2.476,1.06-4.066,3.6-4.964,5.552A79.741,79.741,0,0,1,96.661,4.091a72.256,72.256,0,0,1,23.305,3.793,74.656,74.656,0,0,1,25.113,14.688,87.157,87.157,0,0,1,22.24,30.53c27.643,61.917,23.572,104.723,15.29,129.73v.14a108.754,108.754,0,0,1-4.73,11.87,2,2,0,0,1-3.81-1l1.11-18.78a119.858,119.858,0,0,1-7.49,18.64,2,2,0,0,1-2.58.931c-2.322-1.011-4.846-2.05-7.5-3.091-2.845-1.112-5.907-2.226-9.1-3.31-.349-.126-.686-.238-1.012-.345l-.006,0-.342-.113c-2.031-.684-3.684-1.221-5.2-1.689-1.323-.421-2.618-.813-3.87-1.191-5.684-1.7-11.529-3.272-17.87-4.8a2,2,0,0,1-1.53-2.08v-32.55a1.993,1.993,0,0,1,.551-1.38,67.13,67.13,0,0,0,13.25-21.11l.62-1.54c.267-.7.566-1.5.94-2.53a2,2,0,0,1,2.35-1.32,13.851,13.851,0,0,0,3.1.352,11.541,11.541,0,0,0,9.9-5.191,14.757,14.757,0,0,0,2.29-5.8c.623-4.018-.788-7.819-3.51-9.46l-.49-.26a7.8,7.8,0,0,0-5.85-.329,2.007,2.007,0,0,1-2.6-2.05v-3.37c.071-3.15-.583-5.224-2.26-7.16l-.06-.06c-1.643-1.883-4.323-3.668-7.424-5.737l-.036-.023-1.07-.71q-.355-.239-.721-.481c-.666-.444-1.351-.9-2.059-1.389l-.35-.239c-4.873-2.924-9.444-8.037-12.42-11.81a46.442,46.442,0,0,0,3.65,9,2,2,0,0,1-1.732,3h-.007c-16.817-.08-28.781-5.313-35.56-15.55a32.764,32.764,0,0,1-4.241-9.44c-.535,1.45-1.145,2.927-1.81,4.39A55.018,55.018,0,0,1,66.178,66.8a39.877,39.877,0,0,1-12.149,10.4,18.021,18.021,0,0,0-1.579,1,1.452,1.452,0,0,1-.23.16h-.06a14.925,14.925,0,0,0-5.6,7.639,30.582,30.582,0,0,0-.66,7.571v.429a5.873,5.873,0,0,0,.07.71,2,2,0,0,1-.461,1.61,2.058,2.058,0,0,1-2.129.61,7.759,7.759,0,0,0-5.83.319c-3.639,1.73-5.629,7.6-2.79,13.59a16.726,16.726,0,0,0,1.08,1.93,11.54,11.54,0,0,0,9.905,5.188,13.88,13.88,0,0,0,3.094-.348,1.989,1.989,0,0,1,1.69.38,1.924,1.924,0,0,1,.67,1q.1.274.2.55c.24.646.487,1.31.735,1.94l.6,1.52A67.29,67.29,0,0,0,66,144.112a1.991,1.991,0,0,1,.56,1.381v29.83a1.784,1.784,0,0,1,0,.24v2.64a2.131,2.131,0,0,1-1.53,1.94c-5.6,1.345-11.056,2.8-16.22,4.309-3.725,1.1-7.308,2.219-10.65,3.341-2.871.966-5.373,1.85-7.65,2.7-1,.359-1.9.716-2.859,1.1l-.011,0c-4.223,1.634-8.317,3.388-12.17,5.21a2,2,0,0,1-.839.183A2.212,2.212,0,0,1,14.4,196.972ZM64.758,13.266A53.882,53.882,0,0,0,46.049,23.572C21.626,43.765,10.99,82.14,6.368,110.776h0l.031.005c-5.043,31.282-1.948,59.485,8.95,81.56,3.407-1.564,6.994-3.078,10.66-4.5l2.92-1.12c1.077-.4,2.163-.795,3.271-1.188-9.385-16.579-11.969-35.776-12.46-49.182a1,1,0,1,1,2,0c.484,13.246,3.038,32.223,12.343,48.522q1.283-.444,2.618-.892c3.386-1.139,7.019-2.28,10.8-3.389q3.052-.891,6.235-1.757c-4.039-8.251-5.389-19.664-5.446-20.173a1.007,1.007,0,0,1,2-.23c0,.124,1.4,11.9,5.468,19.86q3.27-.869,6.632-1.7v-.014a7.321,7.321,0,0,1,.071-1.286v-29a71.422,71.422,0,0,1-13.52-21.79l-.63-1.56-.42-1.12a15.592,15.592,0,0,1-15.47-6.861,20.249,20.249,0,0,1-1.35-2.389,16.872,16.872,0,0,1-1.3-11.19,11.256,11.256,0,0,1,5.969-7.73,11.581,11.581,0,0,1,2.375-.826c-7.306-6.1-9.032-16.851-9.115-17.4a1.011,1.011,0,1,1,2-.3c0,.135,1.963,12.2,10.144,17.414q.231.008.461.026c-8.582-19.949-.4-34.309-.025-34.939a1,1,0,1,1,1.72,1c-.08.134-6.971,12.3-1.28,29.381q.208-1.578.57-3.13a18.7,18.7,0,0,1,7-9.66l.12-.09.17-.121h.06a21.629,21.629,0,0,1,2.07-1.28c9.1-5.014,14.467-13.687,17.37-20.08a57.814,57.814,0,0,0,4.17-12.72,2,2,0,0,1,3.77-.54,2.178,2.178,0,0,1,.18.57,4.784,4.784,0,0,1,0,.7c.191,7.9,3.379,25.616,27.529,29.413C90.1,61.887,91.549,42.6,91.549,42.371a1,1,0,0,1,2,.17,36.372,36.372,0,0,0,1.91,13.28A24.74,24.74,0,0,0,110.934,71.68l.415.022c-1.77-3.918-3.88-9.852-3.88-15.871a2.006,2.006,0,0,1,1.453-1.92,2,2,0,0,1,2.246.87l.023.037c.826,1.3,8.294,12.829,16.067,17.443l.17.11.2.14.12.08c1.06.72,1.938,1.311,2.76,1.859l1.07.72c3.323,2.206,6.193,4.11,8.21,6.39l.06.07a12.985,12.985,0,0,1,3.261,8.223c6.039-12.853.9-29.186.849-29.373a1,1,0,1,1,1.9-.61,54.674,54.674,0,0,1,2.13,12.51c.424,7.8-.946,14.653-3.955,20.075q.133,0,.265,0a11.62,11.62,0,0,1,3.753.628c5.787-4.265,7.258-13.5,7.277-13.6a1.012,1.012,0,0,1,2,.31c-.071.423-1.5,9.283-7.213,14.233l.013.007c4.167,2.5,6.29,7.8,5.41,13.5a18.638,18.638,0,0,1-2.9,7.38,15.582,15.582,0,0,1-15.47,6.86l-.1.266c-.1.269-.209.547-.309.824-.123.315-.245.613-.362.9l0,.006c-.093.227-.184.452-.275.683a71.458,71.458,0,0,1-13.51,21.78v23.95a9.47,9.47,0,0,1,0,1.06v5.35c5.817,1.424,11.231,2.89,16.55,4.48l1.037.314c.939.284,1.91.579,2.884.886,1.813.565,3.646,1.172,5.2,1.69l1.136.384c12-16.613,13.065-45.3,13.084-45.594a1,1,0,0,1,2,.06,123.458,123.458,0,0,1-2.2,17.66c-1.652,8.4-4.862,19.886-10.908,28.553,2.59.9,5.138,1.845,7.6,2.807,1.811.687,3.686,1.446,5.9,2.39a130.31,130.31,0,0,0,12-45.15,2.014,2.014,0,0,1,2-1.857c.05,0,.1,0,.152.006a2,2,0,0,1,1.85,2.15l-2.134,36.25,0,.01,0,.01v.09l.006-.11c11.414-34.421,6.038-79.493-15.136-126.91a83.624,83.624,0,0,0-21.16-29.07c-13.287-11.611-28.71-17.5-45.842-17.5A75.408,75.408,0,0,0,74,11.641a2.19,2.19,0,0,1-.652.1h-.041A31.961,31.961,0,0,0,64.758,13.266Zm-58.4,97.565,0-.013.007-.041h0L4.4,110.461Zm14.3,19.1a1,1,0,0,1-1-1c0-1.85.1-3.64.211-5.3a1,1,0,1,1,2,.121c-.1,1.64-.17,3.389-.2,5.21a1,1,0,0,1-1,.969Z" transform="translate(0 0)" fill="#372168"/>
        </g>
      </g>
      <g id="Accessories_01" data-name="Accessories#01" transform="translate(80.679 29.076)">
        <g id="headband-3" transform="translate(-0.41 -0.076)">
          <g id="headband-4">
            <g id="Path-8" data-name="Path">
              <path id="Path-9" data-name="Path" d="M103.986,79a64.13,64.13,0,0,0-2.69-36.28c-.2-.53-.41-1-.63-1.57-.52-1.25-1.09-2.48-1.69-3.68a52.94,52.94,0,0,0-17.1-19.91c-1.08-.75-2.18-1.45-3.32-2.1-.93-.54-1.88-1-2.85-1.51a45.77,45.77,0,0,0-11.39-3.87h-.25l-.33-.06a49,49,0,0,0-19.15.29l-.71.14a57.75,57.75,0,0,0-8.67,2.63c-.6.23-1.18.47-1.75.72a52.24,52.24,0,0,0-6.48,3.26,43.4,43.4,0,0,0-17.45,18.89c-.6,1.27-1.14,2.55-1.62,3.83-.2.53-.39,1.07-.56,1.61-.06.17-.12.35-.17.52-.36,1.1-.67,2.19-.94,3.28-4.18,16.67.33,32.57.33,32.57s-10.43-12.44-5-37.72c.15-.68.31-1.38.48-2.08.27-1.12.58-2.27.92-3.44s.68-2.19,1.07-3.24c.09-.26.19-.52.29-.78a44.82,44.82,0,0,1,4.58-8.76,47.36,47.36,0,0,1,22-17.2q2.67-1.07,5.43-1.87A65.83,65.83,0,0,1,46.576.538h.28a66.54,66.54,0,0,1,27.67,2.3c.63.19,1.25.4,1.86.62,1.1.39,2.16.82,3.19,1.28a37.461,37.461,0,0,1,5.11,2.75,36.56,36.56,0,0,1,3.61,2.46c.77.57,1.62,1.25,2.54,2a48.138,48.138,0,0,1,3.94,3.72,52.82,52.82,0,0,1,12.55,21q.29.93.54,1.89a43.169,43.169,0,0,1,1,4.74C110.586,53.068,109.686,64.938,103.986,79Z" transform="translate(2.404 12.302)" fill="#f96"/>
              <path id="Path-10" data-name="Path" d="M103.986,79a64.13,64.13,0,0,0-2.69-36.28c-.2-.53-.41-1-.63-1.57-.52-1.25-1.09-2.48-1.69-3.68a52.94,52.94,0,0,0-17.1-19.91c-1.08-.75-2.18-1.45-3.32-2.1-.93-.54-1.88-1-2.85-1.51a45.77,45.77,0,0,0-11.39-3.87h-.25l-.33-.06a49,49,0,0,0-19.15.29l-.71.14a57.75,57.75,0,0,0-8.67,2.63c-.6.23-1.18.47-1.75.72a52.24,52.24,0,0,0-6.48,3.26,43.4,43.4,0,0,0-17.45,18.89c-.6,1.27-1.14,2.55-1.62,3.83-.2.53-.39,1.07-.56,1.61-.06.17-.12.35-.17.52-.36,1.1-.67,2.19-.94,3.28-4.18,16.67.33,32.57.33,32.57s-10.43-12.44-5-37.72c.15-.68.31-1.38.48-2.08.27-1.12.58-2.27.92-3.44s.68-2.19,1.07-3.24c.09-.26.19-.52.29-.78a44.82,44.82,0,0,1,4.58-8.76,47.36,47.36,0,0,1,22-17.2q2.67-1.07,5.43-1.87A65.83,65.83,0,0,1,46.576.538h.28a66.54,66.54,0,0,1,27.67,2.3c.63.19,1.25.4,1.86.62,1.1.39,2.16.82,3.19,1.28a37.461,37.461,0,0,1,5.11,2.75,36.56,36.56,0,0,1,3.61,2.46c.77.57,1.62,1.25,2.54,2a48.138,48.138,0,0,1,3.94,3.72,52.82,52.82,0,0,1,12.55,21q.29.93.54,1.89a43.169,43.169,0,0,1,1,4.74C110.586,53.068,109.686,64.938,103.986,79Z" transform="translate(2.404 12.302)" fill="rgba(255,255,255,0.16)"/>
            </g>
            <path id="Shape" d="M106.046,83.031h-.065a1.888,1.888,0,0,1-.58-.09,1.991,1.991,0,0,1-1.381-2.32,61.919,61.919,0,0,0-2.6-35.149c-.117-.318-.243-.627-.365-.926-.077-.19-.157-.385-.235-.584-.469-1.124-.992-2.335-1.64-3.57A51.249,51.249,0,0,0,82.731,21.23c-1.1-.759-2.133-1.413-3.17-2-.932-.527-1.649-.9-2.408-1.289l-.312-.161a44.836,44.836,0,0,0-6.41-2.56,41.959,41.959,0,0,0-4.51-1.15h-.26l-.3-.06a46.991,46.991,0,0,0-18.37.291l-.65.12a56.235,56.235,0,0,0-8.42,2.55c-.552.21-1.1.436-1.67.69a50.378,50.378,0,0,0-6.26,3.15,41.4,41.4,0,0,0-16.67,18c-.587,1.245-1.108,2.48-1.551,3.67-.156.411-.356.954-.519,1.509-.08.209-.13.349-.17.49-.342,1.045-.639,2.088-.91,3.19A65.134,65.134,0,0,0,8.792,69.163,64.815,64.815,0,0,0,10.478,79.2l0,.01a2,2,0,0,1-3.45,1.83c-.119-.14-2.935-3.5-4.971-10.189A49.162,49.162,0,0,1,.052,58.642,67.338,67.338,0,0,1,1.641,41.62l.037-.163c.145-.644.3-1.31.453-1.967.312-1.283.639-2.437,1-3.53.149-.45.28-.868.408-1.272.224-.711.435-1.382.7-2.108l.28-.741a46.346,46.346,0,0,1,4.81-9.22c5.346-7.949,13.06-13.984,22.93-17.94,1.8-.722,3.691-1.371,5.61-1.93A69.243,69.243,0,0,1,48.421.55h.32a68.56,68.56,0,0,1,28.49,2.38c.618.183,1.267.4,1.93.65,1.057.366,2.146.8,3.33,1.33a40.01,40.01,0,0,1,5.341,2.87A42.057,42.057,0,0,1,91.6,10.35c.835.62,1.748,1.353,2.641,2.119,1.379,1.185,2.752,2.48,4.08,3.85a54.409,54.409,0,0,1,13,21.8c.189.614.367,1.249.56,2,.407,1.52.767,3.175,1.07,4.92,1.9,11.394.188,23.785-5.09,36.83A2.005,2.005,0,0,1,106.046,83.031ZM48.84,4.53a63.035,63.035,0,0,0-9.89,2.06c-1.9.559-3.664,1.168-5.25,1.81-9.075,3.637-16.177,9.175-21.109,16.46a42.9,42.9,0,0,0-4.37,8.37c-.035.1-.07.184-.1.268-.059.151-.113.291-.158.432a29.489,29.489,0,0,0-1,3.14c-.391,1.357-.677,2.424-.9,3.36-.106.431-.2.856-.3,1.266q-.087.377-.171.734A59.364,59.364,0,0,0,4.48,62.73a64.658,64.658,0,0,1,1.85-16.07c.3-1.207.633-2.354,1-3.41a1.2,1.2,0,0,1,.114-.4c.023-.056.046-.114.066-.171.163-.519.364-1.089.581-1.65.509-1.366,1.074-2.711,1.679-4a45.472,45.472,0,0,1,18.24-19.75,55.015,55.015,0,0,1,6.72-3.39c.583-.256,1.192-.505,1.81-.74a60.877,60.877,0,0,1,9-2.72l.81-.16A51.056,51.056,0,0,1,66.2,9.99l.32.059h.31a48.171,48.171,0,0,1,11.86,4c.607.287,1.235.626,1.9.984.356.192.721.388,1.1.586a36.966,36.966,0,0,1,3.461,2.18,55.112,55.112,0,0,1,17.74,20.66c.673,1.338,1.262,2.619,1.75,3.81.206.474.422,1.007.661,1.63a63.446,63.446,0,0,1,4,17.561,54.254,54.254,0,0,0-.21-16,43.265,43.265,0,0,0-1-4.55c-.161-.586-.334-1.21-.53-1.83a50.543,50.543,0,0,0-12.07-20.19c-1.16-1.207-2.442-2.419-3.811-3.6-.7-.6-1.365-1.142-2.009-1.666l-.411-.334a38.205,38.205,0,0,0-3.409-2.319l-.1-.06a34.717,34.717,0,0,0-4.839-2.6c-.919-.432-1.9-.834-3-1.23-.658-.234-1.237-.427-1.769-.589A62.082,62.082,0,0,0,58.782,4.015c-.449,0-.9,0-1.352.015a70.026,70.026,0,0,0-8.28.5h-.31Z" transform="translate(0.409 10.27)" fill="#372168"/>
            <g id="Path-11" data-name="Path">
              <path id="Path-12" data-name="Path" d="M26.83,8.53c-3.27,1-7.91,2.46-12.34,3.55A46.56,46.56,0,0,0,0,6.65,52.24,52.24,0,0,1,12.38,0a40,40,0,0,1,8.3,4A43.24,43.24,0,0,1,26.83,8.53Z" transform="translate(66.47 15.77)" fill="#f69"/>
              <path id="Path-13" data-name="Path" d="M26.83,8.53c-3.27,1-7.91,2.46-12.34,3.55A46.56,46.56,0,0,0,0,6.65,52.24,52.24,0,0,1,12.38,0a40,40,0,0,1,8.3,4A43.24,43.24,0,0,1,26.83,8.53Z" transform="translate(66.47 15.77)" fill="rgba(255,255,255,0.09)"/>
            </g>
            <path id="Shape-2" data-name="Shape" d="M16.526,16.076h-.035a2,2,0,0,1-1-.27,44.673,44.673,0,0,0-13.87-5.2,2,2,0,0,1-.8-3.579A54.293,54.293,0,0,1,13.682.116a2.078,2.078,0,0,1,1.37,0,42.148,42.148,0,0,1,8.671,4.21,45.613,45.613,0,0,1,6.41,4.69,2,2,0,0,1-.69,3.42c-3.159,1-7.888,2.459-12.47,3.59A2,2,0,0,1,16.526,16.076ZM14.392,4.1h0a50.229,50.229,0,0,0-7.47,3.69,48.984,48.984,0,0,1,9.859,4.15c2.356-.588,5-1.329,7.851-2.2a31.075,31.075,0,0,0-2.94-2l-.1-.07a37.581,37.581,0,0,0-7.2-3.57Z" transform="translate(64.468 13.724)" fill="#372168"/>
            <path id="Path-14" data-name="Path" d="M19.17,5.75a105,105,0,0,1-13,1.93c-1.08-.75-2.18-1.45-3.32-2.1C1.92,5.04.97,4.58,0,4.07H0A41.32,41.32,0,0,1,12.65,0c.77.57,1.62,1.25,2.54,2C16.45,3.08,17.79,4.32,19.17,5.75Z" transform="translate(78.07 22.22)" fill="#f96"/>
            <path id="Shape-3" data-name="Shape" d="M8.356,11.712h0l-.18-.021a1.985,1.985,0,0,1-1.14-.36c-1.1-.759-2.135-1.414-3.17-2-.932-.527-1.65-.9-2.409-1.289l-.312-.161a2,2,0,0,1-.11-3.56,42.891,42.891,0,0,1,13.33-4.3,2,2,0,0,1,1.481.37c.866.647,1.758,1.364,2.65,2.13,1.37,1.176,2.743,2.471,4.081,3.849a2,2,0,0,1-1,3.34,106.947,106.947,0,0,1-13.219,2Zm5.77-7.62a40.511,40.511,0,0,0-7.62,2.14c.879.53,1.582.975,2.21,1.4,2.467-.217,5.408-.607,8.28-1.1l-1.111-1C15.317,5.048,14.726,4.563,14.126,4.091Z" transform="translate(76.105 20.209)" fill="#372168"/>
            <g id="Path-15" data-name="Path">
              <path id="Path-16" data-name="Path" d="M5.45,14.21c-.6,1.27-1.14,2.55-1.62,3.83-.2.53-.39,1.07-.56,1.61-.06.17-.12.35-.17.52A21.68,21.68,0,0,1,0,9.54c.09-.26.19-.52.29-.78A44.82,44.82,0,0,1,4.87,0C4.62,3.41,5.2,9.39,5.45,14.21Z" transform="translate(6.48 34.03)" fill="#f69"/>
              <path id="Path-17" data-name="Path" d="M5.45,14.21c-.6,1.27-1.14,2.55-1.62,3.83-.2.53-.39,1.07-.56,1.61-.06.17-.12.35-.17.52A21.68,21.68,0,0,1,0,9.54c.09-.26.19-.52.29-.78A44.82,44.82,0,0,1,4.87,0C4.62,3.41,5.2,9.39,5.45,14.21Z" transform="translate(6.48 34.03)" fill="rgba(255,255,255,0.09)"/>
            </g>
            <path id="Shape-4" data-name="Shape" d="M5.393,24.187h0l-.291-.02a1.994,1.994,0,0,1-1.67-.9A23.156,23.156,0,0,1,0,11.647a2,2,0,0,1,.11-.76c.083-.24.181-.506.29-.789A46.332,46.332,0,0,1,5.213.877a2,2,0,0,1,3.649,1.26,85.918,85.918,0,0,0,.32,9.74c.106,1.524.193,2.944.26,4.22a1.875,1.875,0,0,1-.191,1c-.6,1.284-1.12,2.522-1.55,3.68-.167.439-.359.961-.52,1.51-.079.209-.129.349-.169.49a2.007,2.007,0,0,1-1.62,1.409ZM5.021,9.426h0c-.3.654-.594,1.347-.869,2.06-.043.1-.079.2-.113.294l-.017.047a23.693,23.693,0,0,0,.89,5.14c.12-.284.252-.577.38-.861l.13-.29c-.055-1.089-.131-2.293-.23-3.68l0-.07c-.057-.866-.116-1.762-.165-2.64Z" transform="translate(4.478 32.033)" fill="#372168"/>
            <path id="Path-18" data-name="Path" d="M9.98,6.8a49.34,49.34,0,0,1-7.66-.54c-.2-.53-.41-1-.63-1.57C1.17,3.439.6,2.209,0,1.009A18.05,18.05,0,0,1,8.41.169q.29.93.54,1.89A40.962,40.962,0,0,1,9.98,6.8Z" transform="translate(101.38 48.801)" fill="#8bcbc9"/>
            <path id="Shape-5" data-name="Shape" d="M12.01,10.84h0l-.6-.04a53.345,53.345,0,0,1-7.39-.56A2,2,0,0,1,2.44,8.959c-.146-.407-.315-.818-.478-1.215L1.85,7.469C1.381,6.345.857,5.134.21,3.9A2,2,0,0,1,1.349,1.12,20.12,20.12,0,0,1,10.72.189a2.011,2.011,0,0,1,1.6,1.391c.19.614.368,1.249.561,2,.408,1.525.768,3.181,1.069,4.92a2.006,2.006,0,0,1-1.939,2.34ZM5.75,6.43h0c1.26.157,2.539.268,3.8.328-.15-.661-.323-1.374-.53-2.18a1.085,1.085,0,0,0-.092-.367,2.086,2.086,0,0,1-.068-.2c-.267-.014-.544-.021-.821-.021a15.954,15.954,0,0,0-3.18.321c.221.476.436.973.7,1.61.055.156.12.315.182.468l.017.043Z" transform="translate(99.37 46.801)" fill="#372168"/>
            <g id="Path-19" data-name="Path">
              <path id="Path-20" data-name="Path" d="M8.39,10.284a8,8,0,0,1-5.72-1.16h0A60,60,0,0,0,0,.244a57.3,57.3,0,0,1,7.53-.2A52.82,52.82,0,0,1,8.39,10.284Z" transform="translate(103.69 54.746)" fill="#f69"/>
              <path id="Path-21" data-name="Path" d="M8.39,10.284a8,8,0,0,1-5.72-1.16h0A60,60,0,0,0,0,.244a57.3,57.3,0,0,1,7.53-.2A52.82,52.82,0,0,1,8.39,10.284Z" transform="translate(103.69 54.746)" fill="rgba(255,255,255,0.09)"/>
            </g>
            <path id="Shape-6" data-name="Shape" d="M9.292,14.408l-.239,0H9.034a9.838,9.838,0,0,1-5.322-1.56,2.006,2.006,0,0,1-1-1.3A57.43,57.43,0,0,0,.133,2.966a2,2,0,0,1,1.7-2.71C3.648.086,5.491,0,7.313,0c.77,0,1.55.015,2.32.046a1.993,1.993,0,0,1,1.86,1.63,55.092,55.092,0,0,1,.91,10.63,1.989,1.989,0,0,1-1.67,2A10.25,10.25,0,0,1,9.292,14.408ZM6.454,9.825h0a6.092,6.092,0,0,0,2,.549A51.89,51.89,0,0,0,7.9,4H7.59c-.859,0-1.774,0-2.686.06.591,1.892,1.119,3.834,1.57,5.77Z" transform="translate(101.627 52.745)" fill="#372168"/>
            <g id="Path-22" data-name="Path">
              <path id="Path-23" data-name="Path" d="M1.44,14.63c1.33.21,15.86,3.15,17-14.4,0-.2-.15-.23-.34-.23A54.51,54.51,0,0,0,7.85,1.33C-3.72,4.01.77,13.33,1.28,14.51a.2.2,0,0,0,.16.12Z" transform="translate(38.02 8.27)" fill="#f69"/>
              <path id="Path-24" data-name="Path" d="M1.44,14.63c1.33.21,15.86,3.15,17-14.4,0-.2-.15-.23-.34-.23A54.51,54.51,0,0,0,7.85,1.33C-3.72,4.01.77,13.33,1.28,14.51a.2.2,0,0,0,.16.12Z" transform="translate(38.02 8.27)" fill="rgba(255,255,255,0.09)"/>
            </g>
            <path id="Shape-7" data-name="Shape" d="M7.314,18.92c-.174,0-.35,0-.524-.009a22.127,22.127,0,0,1-3.56-.3H3.1A2.2,2.2,0,0,1,1.39,17.3v-.12C-.738,12.336-.03,9.009.94,7.07c1.409-2.8,4.255-4.711,8.46-5.69A57.183,57.183,0,0,1,20.12,0h.06a2.327,2.327,0,0,1,1.679.721,2.185,2.185,0,0,1,.571,1.64c-.4,6.146-2.4,10.685-5.93,13.49A15.378,15.378,0,0,1,7.314,18.92ZM4.691,14.781h0a17.562,17.562,0,0,0,2.125.133A11.309,11.309,0,0,0,13.96,12.7c2.259-1.8,3.682-4.712,4.23-8.65a61.323,61.323,0,0,0-7.941,1.21c-2.992.689-4.937,1.893-5.78,3.58-.53,1.059-.918,2.95.24,5.94Z" transform="translate(36.07 6.289)" fill="#372168"/>
            <g id="Path-25" data-name="Path">
              <path id="Path-26" data-name="Path" d="M25.529,20.981c-2,.35-20,8.91-25.52-20.61-.06-.29.2-.41.49-.36a87.93,87.93,0,0,0,11.23,1.47c19.68,2.11,14.75,17.53,14,19.31a.31.31,0,0,1-.2.19Z" transform="translate(11.181 2.029)" fill="#f69"/>
              <path id="Path-27" data-name="Path" d="M25.529,20.981c-2,.35-20,8.91-25.52-20.61-.06-.29.2-.41.49-.36a87.93,87.93,0,0,0,11.23,1.47c19.68,2.11,14.75,17.53,14,19.31a.31.31,0,0,1-.2.19Z" transform="translate(11.181 2.029)" fill="rgba(255,255,255,0.09)"/>
            </g>
            <path id="Shape-8" data-name="Shape" d="M19.879,26.355a16,16,0,0,1-8.214-2.271C5.958,20.656,2.045,13.456.035,2.684a2.269,2.269,0,0,1,.63-2A2.467,2.467,0,0,1,2.885.054a59.109,59.109,0,0,0,7.82,1.13c1,.089,2.055.193,3.23.319,7.275.77,12.3,3.377,14.93,7.75a13.671,13.671,0,0,1,1.757,4.888,17.558,17.558,0,0,1,.112,4.544,18.665,18.665,0,0,1-1.109,4.849,2.313,2.313,0,0,1-1.74,1.42l-.59.18a23.663,23.663,0,0,1-7.25,1.219ZM4.465,4.374c1.868,8.223,4.984,13.7,9.26,16.28a11.893,11.893,0,0,0,6.3,1.72,19.656,19.656,0,0,0,6.008-1.09l.062-.02h.07c.524-1.764,1.5-6.27-.73-10-1.951-3.231-5.962-5.2-11.92-5.84l-3.17-.3-.063-.006C8.341,4.939,6.938,4.809,4.465,4.374Z" transform="translate(9.185 0.076)" fill="#372168"/>
          </g>
          <path id="Path-28" data-name="Path" d="M13.993,10.417c-7.72,0-13.53-7.53-13.79-7.87a1,1,0,1,1,1.6-1.21c0,.07,5.24,6.78,11.78,7.07a54.63,54.63,0,0,0-4.33-6.77A1,1,0,0,1,10.8.367a65.55,65.55,0,0,1,5.32,8.51,1,1,0,0,1-.77,1.46,10.54,10.54,0,0,1-1.36.08Z" transform="translate(21.717 13.473)" fill="#372168"/>
          <path id="Path-29" data-name="Path" d="M.992,9.911H.922A1,1,0,0,1,0,8.851c0-.26.5-6.43,8.48-8.81a1,1,0,0,1,.57,1.92c-6.6,2-7,6.82-7.06,7A1,1,0,0,1,.992,9.911Z" transform="translate(38.468 13.989)" fill="#372168"/>
        </g>
      </g>
    </g>
  </g>
  <path id="Oval" d="M140,280a141.037,141.037,0,0,1-28.215-2.844A139.234,139.234,0,0,1,61.725,256.09,140.408,140.408,0,0,1,11,194.495a139.3,139.3,0,0,1-8.158-26.279,141.364,141.364,0,0,1,0-56.43A139.232,139.232,0,0,1,23.91,61.725,140.41,140.41,0,0,1,85.506,11a139.3,139.3,0,0,1,26.279-8.158,141.364,141.364,0,0,1,56.43,0,139.23,139.23,0,0,1,50.06,21.066A140.409,140.409,0,0,1,269,85.506a139.3,139.3,0,0,1,8.158,26.279,141.367,141.367,0,0,1,0,56.43,139.232,139.232,0,0,1-21.065,50.06A140.408,140.408,0,0,1,194.495,269a139.3,139.3,0,0,1-26.279,8.158A141.037,141.037,0,0,1,140,280ZM140,4C65.009,4,4,65.009,4,140s61.01,136,136,136,136-61.009,136-136S214.991,4,140,4Z" fill="#372168"/>
</svg>
