<svg id="å¤´åƒ7" xmlns="http://www.w3.org/2000/svg" xmlns:xlink="http://www.w3.org/1999/xlink" width="280" height="280" viewBox="0 0 280 280">
  <defs>
    <clipPath id="clip-path">
      <path d="M0,138A138,138,0,1,1,138,276,138,138,0,0,1,0,138Z" fill="none"/>
    </clipPath>
  </defs>
  <g id="Man" transform="translate(2 2)">
    <g id="Background">
      <circle id="Background-2" data-name="Background" cx="138" cy="138" r="138" fill="#bec5d8"/>
      <circle id="Background-3" data-name="Background" cx="138" cy="138" r="138" fill="rgba(255,255,255,0.16)"/>
    </g>
    <g id="Man-2" data-name="Man" transform="translate(0)" clip-path="url(#clip-path)">
      <g id="Body" transform="translate(-2 48.67)">
        <path id="Skin_color:" data-name="Skin color:" d="M31.138,146.778v-34.7l-.05-.058a70.8,70.8,0,0,1-11.58-19.45c-.21-.51-.419-1-.62-1.55-.329-.86-.67-1.75-1-2.631-.46-1.309-.92-2.64-1.35-4l-.689-2.19a80.884,80.884,0,0,1-2.6-12.75c-.09-.73-.18-1.48-.26-2.24,0-.28-.06-.56-.08-.84,0,0-.12-.841-.26-2.29a2.3,2.3,0,0,1,0-.249c-.66-7.28-1.68-28.451,6.87-42.331C29.888,4.688,46.908-.222,61.308.008c14.39-.23,31.41,4.68,41.78,21.49,8.486,13.84,7.5,34.929,6.836,42.268a9.675,9.675,0,0,1,7.255.462c5.3,2.52,7.539,10.85,2.579,18.41-3.781,5.771-10.157,6.819-15.029,5.716l-.011.033c-.33.88-.66,1.77-1,2.631-.2.53-.41,1-.62,1.55a70.421,70.421,0,0,1-11.49,19.32l-.049.059v34.831c-.79,5.071-14,9.09-30.21,9.09S31.927,151.868,31.138,146.778Zm58.3-32.47a47.7,47.7,0,0,1-8.46,7.1,34.921,34.921,0,0,1-8.6,4.237,34.932,34.932,0,0,0,8.629-4.247,47.728,47.728,0,0,0,8.46-7.1l.193-.224ZM2.788,82.678c-5-7.6-2.731-15.93,2.509-18.41a10.391,10.391,0,0,1,1.281-.509,9.9,9.9,0,0,1,6,.07,2.49,2.49,0,0,0,0,.259,1.967,1.967,0,0,0,.05.551c.11,1.11.21,1.74.21,1.74a7.958,7.958,0,0,0,.08.84c.12,1.111.25,2.2.4,3.271a79.483,79.483,0,0,0,2.46,11.7q1.019,3.19,2.1,6.189a15.827,15.827,0,0,1-3.556.405A13.376,13.376,0,0,1,2.788,82.678Z" transform="translate(79.172 1.992)" fill="#dd9488"/>
        <path id="Path" d="M56.55,0V27.79C29.55,28.25,9.43,15.22,0,7.54V.1L.11.22A47.67,47.67,0,0,0,8.57,7.31a34.9,34.9,0,0,0,18.68,6H29.2a34.9,34.9,0,0,0,18.69-6A48.15,48.15,0,0,0,56.36.21Z" transform="translate(112.21 116.09)" fill="#7c3830" opacity="0.15" style="mix-blend-mode: multiply;isolation: isolate"/>
        <g id="Top_color:" data-name="Top color:" transform="translate(0 148.68)">
          <path id="Top_color:-2" data-name="Top color:" d="M0,80.65S17.705,45.4,27.33,36.82c19.14-17.08,49.85-27.4,69-32.94l.75-.22C102.75,2.02,107.35.82,110.24,0c.79,5.07,14,9.09,30.2,9.09s29.42-4,30.22-9.09h.16c2.86.82,7.42,2,13.05,3.63l.68.2c19.11,5.53,49.87,15.86,69.06,33C263.089,45.319,280,80.65,280,80.65Z" fill="#f69"/>
          <path id="Top_color:-3" data-name="Top color:" d="M0,80.65S17.705,45.4,27.33,36.82c19.14-17.08,49.85-27.4,69-32.94l.75-.22C102.75,2.02,107.35.82,110.24,0c.79,5.07,14,9.09,30.2,9.09s29.42-4,30.22-9.09h.16c2.86.82,7.42,2,13.05,3.63l.68.2c19.11,5.53,49.87,15.86,69.06,33C263.089,45.319,280,80.65,280,80.65Z" fill="rgba(0,0,0,0.1)"/>
        </g>
        <path id="Path-2" data-name="Path" d="M62.51,19.26a83,83,0,0,1-18.39,2C23.66,21.26,6.29,14.47,0,3.88l.75-.22C6.42,2.02,11.02.82,13.91,0h0c.79,5.07,14,9.09,30.2,9.09S73.53,5.09,74.33,0h.16c2.86.82,7.42,2,13.05,3.63l.68.2C85.13,9.07,79.34,13.38,71.8,16.4" transform="translate(96.32 148.79)" fill="#fff" opacity="0.4" style="mix-blend-mode: soft-light;isolation: isolate"/>
        <path id="Combined_Shape" data-name="Combined Shape" d="M0,229.329s.008-.021.021-.05c.7-1.585,4.433-9.959,9.161-19.164,3.034-5.907,5.878-11,8.455-15.123,3.22-5.16,6.027-8.824,8.344-10.893a99.035,99.035,0,0,1,12.574-9.436,147.063,147.063,0,0,1,15.738-8.659c11.6-5.541,25.163-10.538,41.468-15.276l.73-.21c3.5-1.017,6.56-1.856,9.35-2.61l2.4-.664V114.733A72.3,72.3,0,0,1,96.8,95.31c-.193-.463-.39-.957-.64-1.6q-.206-.536-.41-1.073a18.012,18.012,0,0,1-2.261.143c-.113,0-.229,0-.343,0a15.287,15.287,0,0,1-12.847-7,17.139,17.139,0,0,1-2.55-13.94,11.431,11.431,0,0,1,5.88-7.37,15.65,15.65,0,0,1,1.5-.6,11.873,11.873,0,0,1,3.541-.54q.471,0,.939.037c-.624-9.535-.577-28.038,7.36-40.917a45.168,45.168,0,0,1,21.5-18.463A55.594,55.594,0,0,1,139.421,0c.359,0,.723,0,1.079.01C140.841,0,141.188,0,141.529,0a55.515,55.515,0,0,1,20.911,3.975A45.183,45.183,0,0,1,183.95,22.45c7.921,12.867,7.984,31.314,7.363,40.86q.457-.035.919-.035a12,12,0,0,1,3.128.415,12.951,12.951,0,0,1,1.92.73,11.438,11.438,0,0,1,5.87,7.35,17.2,17.2,0,0,1-2.55,13.95,15.3,15.3,0,0,1-12.892,7.063c-.1,0-.2,0-.3,0a17.939,17.939,0,0,1-2.235-.145l-.414,1.105c-.193.521-.408,1.04-.617,1.544l-.023.057a72.24,72.24,0,0,1-11.39,19.344v32.51l3.02.837c2.47.67,5.44,1.49,8.789,2.45l.72.21a2,2,0,0,1,.207.077c32.1,9.32,54.85,20.224,69.534,33.333,2.95,2.638,9.59,14.8,14.642,24.529,5.451,10.507,10.309,20.6,10.357,20.7H0Zm28.67-42.26c-4.518,4.026-10.177,14.207-14.129,22.04C10.263,217.589,7,225.229,6.97,225.3l266.01.106c-.024-.06-3.035-7.762-7.039-16.24-3.71-7.854-9.082-18.065-13.6-22.1-13.862-12.375-36.329-23.18-66.8-32.125-3.394,4.928-9.075,9.08-16.554,12.085a2,2,0,1,1-1.49-3.711c6.17-2.479,10.93-5.749,13.95-9.56-2.54-.72-4.8-1.34-6.75-1.87l-2.76-.76c-2.346,3.636-9.468,7.083-21.682,8.283-3.046.3-6.317.458-9.768.458-9.331,0-17.34-1.129-23.161-3.263-4.006-1.469-6.83-3.356-8.178-5.429l-2.171.591c-2.07.56-4.57,1.24-7.36,2,6.92,8.71,22.54,14.22,40.9,14.22a80.381,80.381,0,0,0,17.951-1.93,2,2,0,0,1,.89,3.9,84.775,84.775,0,0,1-18.87,2.07c-20.391,0-37.8-6.648-45.011-17.062C65,163.923,42.528,174.72,28.67,187.07Zm111.8-31.21c15.355,0,25.858-3.611,27.9-6.592a1.982,1.982,0,0,0,.337-.8v-29.4a50.429,50.429,0,0,1-7.46,6.018,36.946,36.946,0,0,1-19.76,6.3h-2.11a36.865,36.865,0,0,1-19.7-6.321,50.223,50.223,0,0,1-7.42-5.97L112.24,148.2a2.087,2.087,0,0,1,.07.265c.465,2.989,10.808,7.136,26.743,7.38Q139.754,155.859,140.47,155.859Zm-1.01-28.469h1.95a33.026,33.026,0,0,0,7.9-1.186,35.8,35.8,0,0,0,8.779-3.886q.462-.291.916-.6a45.6,45.6,0,0,0,8.1-6.8c.61-.629,1.258-1.351,2.1-2.34a2.013,2.013,0,0,1,.189-.193A68.31,68.31,0,0,0,180.39,93.81c.205-.488.408-.993.6-1.5l.093-.243c.187-.49.444-1.162.647-1.757l.25-.67c.646-1.79,1.3-3.772,2-6.061a82.886,82.886,0,0,0,2.79-14.62,3.884,3.884,0,0,1,.04-.5c.012-.094.023-.181.03-.273V68.05c0-.014.008-.078.024-.2.042-.326.131-1,.226-2l1.671.05h.212l-1.883-.16v-.11c.569-6.212,1.776-27.533-6.58-41.1C169.475,6.654,151.2,3.984,141.294,3.984c-.261,0-.526,0-.784.005l-.94.01c-9.913,0-28.187,2.669-39.21,20.551-8.242,13.372-7.18,34.3-6.6,40.827a2.024,2.024,0,0,1,.053.462v.269c.1.94.182,1.579.213,1.834.012.09.017.133.017.138a.732.732,0,0,1,0,.14,2.853,2.853,0,0,0,.07.77c.084.78.178,1.555.26,2.21a79.95,79.95,0,0,0,2.55,12.43c.22.72.454,1.453.68,2.16q.121.384.247.768l.144.437c.279.836.567,1.664.85,2.474l.088.252c.321.878.657,1.746,1,2.579.191.485.383.959.571,1.418l0,0,.028.068a68.66,68.66,0,0,0,11.25,18.92c.786.915,1.481,1.668,2,2.22a46.37,46.37,0,0,0,8.1,6.8,32.957,32.957,0,0,0,17.581,5.661ZM187.585,88.83A11.511,11.511,0,0,0,197.25,83.6,13.179,13.179,0,0,0,199.3,72.93a7.443,7.443,0,0,0-3.749-4.83,7.917,7.917,0,0,0-1.291-.49,7.341,7.341,0,0,0-3.27-.157c-.065.6-.115.981-.139,1.128a5.907,5.907,0,0,0-.057.6v.006c0,.067-.009.133-.014.2a86.494,86.494,0,0,1-2.107,12.266,4.34,4.34,0,0,0,3.377-1.876,4.418,4.418,0,0,0,.41-4.53,1,1,0,0,1,1.68-1.09,6.489,6.489,0,0,1-5.65,9.48q-.167.011-.334.011-.154.565-.316,1.129c-.423,1.389-.853,2.731-1.284,4.014C186.9,88.814,187.242,88.83,187.585,88.83ZM88.61,67.309l-.019,0a7.3,7.3,0,0,0-2.221.348,8.424,8.424,0,0,0-1,.4A7.416,7.416,0,0,0,81.6,72.9a13.208,13.208,0,0,0,2,10.679A11.515,11.515,0,0,0,93.258,88.8c.356,0,.716-.017,1.072-.05-.419-1.249-.834-2.558-1.27-4q-.165-.567-.322-1.137-.264.022-.527.017a6.5,6.5,0,0,1-5.7-9.51,1,1,0,0,1,1.68,1.09,4.473,4.473,0,0,0,.41,4.531,4.359,4.359,0,0,0,3.616,1.879A80.234,80.234,0,0,1,90.54,72.75a.239.239,0,0,1,0-.08c-.136-.968-.267-2.038-.4-3.27a3.4,3.4,0,0,0-.043-.444c-.019-.136-.038-.275-.047-.417q0-.033,0-.065c-.031-.155-.06-.39-.092-.7-.014-.107-.029-.226-.044-.364a7.68,7.68,0,0,0-1.241-.1H88.59ZM240.46,191.7a94.646,94.646,0,0,0-11.44-8.64,1,1,0,1,1,1.09-1.68,96.016,96.016,0,0,1,11.68,8.83,1,1,0,1,1-1.33,1.49Z" fill="#372168"/>
      </g>
      <g id="Chin" transform="translate(104 153.5)">
        <rect id="Setup_03_Face_Man_Chin_background" data-name="Setup/#03 Face/Man Chin background" width="70" height="10" fill="none"/>
        <g id="Group_2" data-name="Group 2" transform="translate(27.837 3.702)">
          <path id="Path-3" data-name="Path" d="M12.5,3.989a1,1,0,0,1-.74-.32,7.19,7.19,0,0,0-5-1.67,7.37,7.37,0,0,0-5,1.6A1,1,0,1,1,.344,2.2a10.36,10.36,0,0,1,12.89.1,1,1,0,0,1-.73,1.69Z" transform="translate(0 0)" fill="#372168"/>
        </g>
      </g>
      <g id="Cheeks_color:" data-name="Cheeks color:" transform="translate(102 124.789)">
        <path id="Cheeks_color:-2" data-name="Cheeks color:" d="M54,10A10,10,0,1,1,64,20,10,10,0,0,1,54,10ZM0,10A10,10,0,1,1,10,20,10,10,0,0,1,0,10Z" fill="#ff1300" opacity="0.15" style="mix-blend-mode: multiply;isolation: isolate"/>
      </g>
      <g id="Hairstyle" transform="translate(46 19.5)">
        <g id="_8_hairdo" transform="translate(35.839 -8.826)">
          <g id="Hair_color:" data-name="Hair color:" transform="translate(2.008 1.95)">
            <path id="Hair_color:-2" data-name="Hair color:" d="M49.554,179.975a10.43,10.43,0,0,1-5.78,7.71s1.239-2.24-8.481-7c-11.869-5.79-10.489-12.64-11.74-14.49.89,6.27-5.66,8.491-5.66,8.491-1.219-2.451,1-5.11-6.65-17.54-16.018-25.889-4.537-47.456-4.121-48.219C6.5,107.755-3.156,89.1,1.064,67.8c3.54-18,14.891-32.65,37.28-37.42a86.15,86.15,0,0,1,34.2.13c22,4.9,33.08,18.3,36.68,37.291,3.518,18.493-5.845,40.4-6.172,41.159.706,1.2,14.108,24.084-4.558,55.921-3.48,5.919-4,10-4,10-4.09-2.191-4.17-8.07-4.17-8.07a31,31,0,0,1-14.88,18.61,9.531,9.531,0,0,0-4.73-8.59c-2,11-15.73,11.15-15.73,11.15C53.074,182.045,49.554,179.975,49.554,179.975Zm-19.34-45.419s2.26-14.341,14.69-13.66a21.248,21.248,0,0,1,9.45,2.72,1.9,1.9,0,0,0,2.07-.13l.08-.06a16.1,16.1,0,0,1,23.11,4.89,24.016,24.016,0,0,1,2.67,6.16s12.63-3,20.74-25.57l.021.037c.045-1.006.995-25.3-10.471-37.148a17.45,17.45,0,0,0-13.48-5.25c-2.94.16-6.2,1.09-8.19,4a17.792,17.792,0,0,1-11.08,7.491,20.468,20.468,0,0,1-9.37,0,17.74,17.74,0,0,1-11.07-7.48c-2-2.86-5.25-3.791-8.19-4a17.453,17.453,0,0,0-13.48,5.25C6.263,83.638,7.109,107.883,7.152,108.948,7.607,110,16.5,130.328,30.214,134.555Zm8.13-104.19a21,21,0,0,1-3.759-12.16c0-18.12,19.65-18.16,19.83-18.16,0,0,20.28-1.85,21.26,18.16a20.75,20.75,0,0,1-3.13,12.29A86.15,86.15,0,0,0,38.344,30.365Z" transform="translate(0 0)" fill="#92645c"/>
            <path id="Hair_color:-3" data-name="Hair color:" d="M49.554,179.975a10.43,10.43,0,0,1-5.78,7.71s1.239-2.24-8.481-7c-11.869-5.79-10.489-12.64-11.74-14.49.89,6.27-5.66,8.491-5.66,8.491-1.219-2.451,1-5.11-6.65-17.54-16.018-25.889-4.537-47.456-4.121-48.219C6.5,107.755-3.156,89.1,1.064,67.8c3.54-18,14.891-32.65,37.28-37.42a86.15,86.15,0,0,1,34.2.13c22,4.9,33.08,18.3,36.68,37.291,3.518,18.493-5.845,40.4-6.172,41.159.706,1.2,14.108,24.084-4.558,55.921-3.48,5.919-4,10-4,10-4.09-2.191-4.17-8.07-4.17-8.07a31,31,0,0,1-14.88,18.61,9.531,9.531,0,0,0-4.73-8.59c-2,11-15.73,11.15-15.73,11.15C53.074,182.045,49.554,179.975,49.554,179.975Zm-19.34-45.419s2.26-14.341,14.69-13.66a21.248,21.248,0,0,1,9.45,2.72,1.9,1.9,0,0,0,2.07-.13l.08-.06a16.1,16.1,0,0,1,23.11,4.89,24.016,24.016,0,0,1,2.67,6.16s12.63-3,20.74-25.57l.021.037c.045-1.006.995-25.3-10.471-37.148a17.45,17.45,0,0,0-13.48-5.25c-2.94.16-6.2,1.09-8.19,4a17.792,17.792,0,0,1-11.08,7.491,20.468,20.468,0,0,1-9.37,0,17.74,17.74,0,0,1-11.07-7.48c-2-2.86-5.25-3.791-8.19-4a17.453,17.453,0,0,0-13.48,5.25C6.263,83.638,7.109,107.883,7.152,108.948,7.607,110,16.5,130.328,30.214,134.555Zm8.13-104.19a21,21,0,0,1-3.759-12.16c0-18.12,19.65-18.16,19.83-18.16,0,0,20.28-1.85,21.26,18.16a20.75,20.75,0,0,1-3.13,12.29A86.15,86.15,0,0,0,38.344,30.365Z" transform="translate(0 0)" fill="rgba(0,0,0,0.1)"/>
          </g>
          <path id="Combined_Shape-2" data-name="Combined Shape" d="M56.923,192.064l.088-.088a2,2,0,0,1-1.9-1.391,15.662,15.662,0,0,0-2.56-5,12.683,12.683,0,0,1-6,5.909,2,2,0,0,1-2.77-2.06c-.265-.448-1.578-2.133-7.36-5-5.354-2.611-8.87-5.738-10.75-9.56a11.532,11.532,0,0,1-5.14,3.65,2,2,0,0,1-2.43-1,7.958,7.958,0,0,1-.7-3c-.211-2.169-.562-5.8-5.86-14.35a59.082,59.082,0,0,1-7.781-19.139,50.92,50.92,0,0,1-.767-15.791A45.484,45.484,0,0,1,6.886,110.9,68.611,68.611,0,0,1,2.427,98.774,70.735,70.735,0,0,1,.157,85.394a60.663,60.663,0,0,1,.955-16.008A50.388,50.388,0,0,1,11.543,46.552c6.231-7.489,14.805-12.691,25.519-15.487-4-1.967-9.035-.9-9.092-.88a1.024,1.024,0,0,1-.44-2,18.671,18.671,0,0,1,8.47.268,22.906,22.906,0,0,1-1.459-8.248,20.2,20.2,0,0,1,2.334-9.85,17.843,17.843,0,0,1,5.7-6.179A23.658,23.658,0,0,1,49.7.974,25.8,25.8,0,0,1,56.291.046C56.525.029,57.021,0,57.715,0a27.958,27.958,0,0,1,6.836.856A20.723,20.723,0,0,1,73.1,5.186c4.013,3.5,6.21,8.52,6.53,14.919a22.583,22.583,0,0,1-1.311,9.1,19.413,19.413,0,0,1,13.47.257,1,1,0,1,1-.67,1.89,17.331,17.331,0,0,0-12.751,0C97.714,36.719,109.426,49.5,113.2,69.385a54.958,54.958,0,0,1,.606,14.6A85.778,85.778,0,0,1,111.56,97.43a101.049,101.049,0,0,1-4.314,13.453,36.016,36.016,0,0,1,1.73,3.787,49.154,49.154,0,0,1,2.991,12.074,57.256,57.256,0,0,1-.787,18.14,74.857,74.857,0,0,1-9.03,22.992l-1.72-1,1.72,1a27.725,27.725,0,0,0-3.72,9.28,2.013,2.013,0,0,1-2.93,1.52,8.855,8.855,0,0,1-3.541-3.57,32.32,32.32,0,0,1-13.71,14.16,2,2,0,0,1-1.957-.142,2.014,2.014,0,0,1-.894-1.748,7.272,7.272,0,0,0-1.69-5,13.6,13.6,0,0,1-3.439,4.8,17.581,17.581,0,0,1-5.561,3.3,25.253,25.253,0,0,1-7.787,1.589h0Zm-5.34-12.038a1.919,1.919,0,0,1,1,.28c.035.02,3.553,2.057,5.79,7.62l.276-.033c10.247-6.929,4.8-21.578,4.745-21.738a1,1,0,0,1,1.87-.71c.059.152,4.888,13.231-2.5,21.514,3.355-1.147,7.084-3.524,8.014-8.443a2.018,2.018,0,0,1,2.89-1.44,11.6,11.6,0,0,1,5.349,6.691,19.747,19.747,0,0,0,2.25-12.482c-1.1-9.049,2.77-13.15,2.94-13.32a1,1,0,0,1,1.44,1.391c-.06.059-3.36,3.69-2.39,11.69a23.1,23.1,0,0,1-1.013,10.473,29.7,29.7,0,0,0,8.182-13.263,2.01,2.01,0,0,1,1.919-1.441,1.921,1.921,0,0,1,.269.018,1.988,1.988,0,0,1,1.732,1.953,10.54,10.54,0,0,0,1.1,4.23,38.368,38.368,0,0,1,3.32-7.19,77.283,77.283,0,0,0,4.388-8.642,30.358,30.358,0,0,0,.572-12.028,20.011,20.011,0,0,0-2.54-7.31,1,1,0,1,1,1.65-1.121c.2.286,3.089,4.644,3.267,12.15,4.414-15.723,1.168-27.653-.887-32.91a56.5,56.5,0,0,1-6.645,11.667,37.517,37.517,0,0,1-6.516,6.791,20.5,20.5,0,0,1-7.289,4.022,2.028,2.028,0,0,1-.471.056,2,2,0,0,1-1.929-1.476,21.68,21.68,0,0,0-2.441-5.64,14.437,14.437,0,0,0-9.41-6.619,13.62,13.62,0,0,0-10.82,2.309l-.1.08a3.871,3.871,0,0,1-4.23.211,19.319,19.319,0,0,0-8.55-2.44c-.248-.014-.5-.022-.736-.022-4.039,0-7.357,2.011-9.595,5.813a19.444,19.444,0,0,0-2.28,6.208,2,2,0,0,1-2.56,1.6c-4.81-1.487-9.529-4.908-14.027-10.168a69.032,69.032,0,0,1-8.373-12.582,45.868,45.868,0,0,0-.8,27.729c.342-5.646,2.4-7.565,2.525-7.68a1,1,0,0,1,1.34,1.49c-.08.08-2.943,3.053-1.53,12.829a60.119,60.119,0,0,0,4.181,8.011,55.768,55.768,0,0,1,5.119,10.094l.041.116c.1-4.161-.4-9.13-2.681-12.92a1,1,0,0,1,1.72-1.02c3.572,5.98,3.2,14.3,2.6,18.977a5.357,5.357,0,0,0,1.83-4.867,2,2,0,0,1,3.64-1.4,7.442,7.442,0,0,1,.9,2.53c.608,2.678,1.625,7.161,10.06,11.28a31.131,31.131,0,0,1,7.668,4.839c.733-4.435-1.011-7.816-6-12.619a16.908,16.908,0,0,1-3.53-4.86,1,1,0,1,1,1.8-.87,15.113,15.113,0,0,0,3.12,4.29c4.712,4.512,7.345,8.352,6.689,13.8a8.037,8.037,0,0,0,1.651-3.781,1.99,1.99,0,0,1,1.977-1.7h.023l-.009-.019h0Zm19.7-59.18a18.4,18.4,0,0,1,12,8.46,26.78,26.78,0,0,1,2.21,4.55c3.329-1.651,11.7-7.241,17.574-23.488.082-3.988.019-24.934-9.913-35.2A15.5,15.5,0,0,0,82.105,70.5c-.3,0-.6.008-.894.025-3.109.17-5.351,1.211-6.66,3.091a19.729,19.729,0,0,1-12.27,8.3,22.74,22.74,0,0,1-10.281,0,19.719,19.719,0,0,1-12.25-8.29c-1.31-1.88-3.547-2.92-6.65-3.091-.3-.018-.613-.027-.918-.027a15.428,15.428,0,0,0-11.021,4.667C11.07,85.587,11.074,106.861,11.152,110.509c1.4,3.066,8.869,18.517,19.619,23.337a21.033,21.033,0,0,1,4.818-8.588,14.163,14.163,0,0,1,10.532-4.436c.293,0,.593.008.891.023a23.333,23.333,0,0,1,10.27,3h.049a17.594,17.594,0,0,1,13.95-3ZM14.773,63.186a1,1,0,0,1,.349,1.739c-.136.128-9.17,8.966-7.162,32.255a65.5,65.5,0,0,1,2.37-10.589,35.811,35.811,0,0,1,7.952-14.235A19.424,19.424,0,0,1,32.21,66.467c.355,0,.715.01,1.071.029a16.631,16.631,0,0,1,3.169.469A18.9,18.9,0,0,0,28.9,62.776a1.022,1.022,0,0,1,.419-2c.371.081,8.161,1.888,14.522,11.681a15.541,15.541,0,0,0,5.917,4.53c-3.362-6.063-1.779-15.67-1.688-16.2a1,1,0,1,1,1.97.34c0,.133-2.007,12.213,3.009,16.888a18.76,18.76,0,0,0,8.2-.016c1.158-1.6,2.529-4.894,1.93-11.2a1,1,0,1,1,1.99-.19c.474,5.012-.214,8.366-1.182,10.576a15.618,15.618,0,0,0,6.787-5.235l.2-.269q.137-.193.269-.392a10.055,10.055,0,0,1,.775-.99c3.167-4.041,7.95-8.81,12.885-8.81a1,1,0,1,1,0,2c-2.421,0-4.884,1.48-7.093,3.454a16.786,16.786,0,0,1,3.153-.464c.355-.019.715-.029,1.071-.029a19.414,19.414,0,0,1,13.929,5.889c5.645,5.834,8.435,14.343,9.8,21.881.734-25.654-9.072-33.989-9.189-34.09a1,1,0,0,1,1.249-1.56c.525.421,11.187,9.338,9.9,37.281,1.811-7.542,3.137-17.073,1.488-25.711C105.5,50.584,94.031,38.91,74.163,34.45l-.052,0a77.861,77.861,0,0,0-16.326-1.733l-.674,0-.544,0a79.468,79.468,0,0,0-15.855,1.6,2.018,2.018,0,0,1-.381.043c-24.4,5.376-32.664,22.389-35.3,35.757A60.537,60.537,0,0,0,5.8,95.558c-1.547-23,7.5-31.677,7.971-32.1a1,1,0,0,1,1-.269ZM38.592,20.105a19.124,19.124,0,0,0,2.7,9.931,84.681,84.681,0,0,1,15.174-1.412C49.794,19.895,42.284,17.314,38.9,16.568A19.56,19.56,0,0,0,38.592,20.105ZM72.758,30C66.693,11.7,50.827,7.835,45.382,7.043A13.552,13.552,0,0,0,39.39,14.6c3.914.839,12.3,3.8,19.568,14.036A83.917,83.917,0,0,1,72.758,30Zm1.57-1.522a18.891,18.891,0,0,0,1.354-8.259c-.26-5.276-2-9.347-5.161-12.1-4.36-3.8-10.367-4.208-12.748-4.208-.74,0-1.169.039-1.172.039h-.18A24.3,24.3,0,0,0,48.259,5.6C55.314,7.26,68.58,12.467,74.328,28.474ZM35.711,164.4a1,1,0,0,1-1-.81,18.208,18.208,0,0,1-.31-5,1.006,1.006,0,1,1,2,.221,17.011,17.011,0,0,0,.3,4.44,1,1,0,0,1-.8,1.17h-.029A.638.638,0,0,1,35.711,164.4Z" transform="translate(0)" fill="#372168"/>
        </g>
      </g>
      <g id="Emotions" transform="translate(104 99)">
        <rect id="Setup_01_Emotions_happy_background" data-name="Setup/#01 Emotions/happy background" width="70" height="56" fill="none"/>
        <g id="Face">
          <g id="Mouth" transform="translate(0 35.38)">
            <rect id="Setup_03_Face_Mouth_happy_mouth_background" data-name="Setup/#03 Face/Mouth/happy_mouth background" width="70" height="20" transform="translate(0 0.62)" fill="none"/>
            <g id="happy_mouth" transform="translate(19.49 0)">
              <path id="Path-4" data-name="Path" d="M6.35,2H1A1,1,0,0,1,1,0H6.35a1,1,0,0,1,0,2Z" transform="translate(11.78 19.34)" fill="#372168"/>
              <g id="smile-2">
                <path id="Path-5" data-name="Path" d="M27.4,0A13.71,13.71,0,0,1,13.7,13.186,13.71,13.71,0,0,1,0,0Z" transform="translate(1.75 1.75)" fill="#f66"/>
                <path id="Shape" d="M15.7,16.682l-.248,0-.248,0A15.118,15.118,0,0,1,4.555,12.329,15.122,15.122,0,0,1,0,1.75,1.752,1.752,0,0,1,1.75,0h27.4A1.752,1.752,0,0,1,30.9,1.75a15.122,15.122,0,0,1-4.555,10.579A15.118,15.118,0,0,1,15.7,16.682ZM3.64,3.5a12,12,0,0,0,23.62,0Z" fill="#372168"/>
                <g id="Path-6" data-name="Path" transform="translate(6.62 7.283)">
                  <path id="Path-7" data-name="Path" d="M18.32,3.817a13.26,13.26,0,0,1-9.57,3.83A12.82,12.82,0,0,1,0,4.417l.08-.73s3.3-5.91,8.58-2.15l.25-.09a19.62,19.62,0,0,0,1.92-.89c4.16-2.12,6.94,2.5,6.94,2.5Z" fill="#f66"/>
                  <path id="Path-8" data-name="Path" d="M18.32,3.817a13.26,13.26,0,0,1-9.57,3.83A12.82,12.82,0,0,1,0,4.417l.08-.73s3.3-5.91,8.58-2.15l.25-.09a19.62,19.62,0,0,0,1.92-.89c4.16-2.12,6.94,2.5,6.94,2.5Z" fill="rgba(255,255,255,0.09)"/>
                </g>
                <path id="Shape-2" data-name="Shape" d="M10.736,11.159h0l-.235,0-.219,0a14.6,14.6,0,0,1-9.721-3.7,1.779,1.779,0,0,1-.55-1.47l.08-.73A1.751,1.751,0,0,1,.3,4.587,8.856,8.856,0,0,1,5.569.447a6.851,6.851,0,0,1,5,.89c.356-.156.735-.34,1.191-.58A6.552,6.552,0,0,1,14.743,0c2.836,0,5.121,2.073,6.217,3.847l.51.71a1.755,1.755,0,0,1-.14,2.22,14.931,14.931,0,0,1-4.864,3.243A14.923,14.923,0,0,1,10.736,11.159Zm-3.8-7.341a3.783,3.783,0,0,0-.6.049,4.854,4.854,0,0,0-2.489,1.76,11.4,11.4,0,0,0,6.468,2l.192,0h.145a11.916,11.916,0,0,0,7.1-2.331,4.077,4.077,0,0,0-3.013-1.8,2.988,2.988,0,0,0-1.356.343,17.13,17.13,0,0,1-2.1,1l-.249.1a1.783,1.783,0,0,1-1.641-.21A3.773,3.773,0,0,0,6.933,3.819Z" transform="translate(4.871 5.523)" fill="#372168"/>
                <path id="Path-9" data-name="Path" d="M0,1.38A7,7,0,0,1,1.84,0" transform="translate(14.34 8.46)" fill="#f9f9f9"/>
                <path id="Path-10" data-name="Path" d="M1.77,4.887a1.73,1.73,0,0,1-1.26-.54,1.75,1.75,0,0,1,0-2.47A8.22,8.22,0,0,1,2.92.127a1.752,1.752,0,1,1,1.31,3.25,5.51,5.51,0,0,0-1.29,1,1.76,1.76,0,0,1-1.17.51Z" transform="translate(12.57 6.703)" fill="#372168"/>
              </g>
            </g>
          </g>
          <g id="Nose" transform="translate(0 25)">
            <rect id="Setup_03_Face_Nose_background" data-name="Setup/#03 Face/Nose background" width="70" height="8" fill="none"/>
            <g id="_Nose" data-name="ðŸ‘ƒNose" transform="translate(29.222 2.152)">
              <path id="Path-11" data-name="Path" d="M5.75,5.635A6.52,6.52,0,0,1,.28,2.795,1.75,1.75,0,0,1,3.22.895,3.18,3.18,0,0,0,5.773,2.136,3.18,3.18,0,0,0,8.3.845a1.754,1.754,0,0,1,3,1.82,6.46,6.46,0,0,1-5.55,2.97Z" transform="translate(0 0)" fill="#372168"/>
            </g>
          </g>
          <g id="Eyes" transform="translate(0 12)">
            <rect id="Setup_03_Face_Eyes_happy_kiss_swetdrop_eyes_background" data-name="Setup/#03 Face/Eyes/happy_kiss_swetdrop_eyes background" width="70" height="10" fill="none"/>
            <g id="happy_kiss_swetdrop_eyes" transform="translate(9.066 2.318)">
              <path id="Path-12" data-name="Path" d="M9.79,5.622a1.73,1.73,0,0,1-1.49-.84,3.18,3.18,0,0,0-5.08-.05,1.75,1.75,0,1,1-2.94-1.9,6.67,6.67,0,0,1,11,.13,1.74,1.74,0,0,1-.59,2.4,1.68,1.68,0,0,1-.9.26Z" transform="translate(0 0)" fill="#372168"/>
              <path id="Path-13" data-name="Path" d="M9.85,5.63a1.75,1.75,0,0,1-1.5-.85,3.18,3.18,0,0,0-5.08-.05A1.75,1.75,0,1,1,.33,2.84a6.66,6.66,0,0,1,11,.13A1.76,1.76,0,0,1,9.84,5.63Z" transform="translate(40.947 0.042)" fill="#372168"/>
            </g>
          </g>
          <g id="Eyebrows">
            <rect id="Setup_03_Face_Eyebrow_happy_eyebrows_background" data-name="Setup/#03 Face/Eyebrow/happy_eyebrows background" width="70" height="12" fill="none"/>
            <g id="happy_eyebrows" transform="translate(3.445 2.163)">
              <path id="Path-14" data-name="Path" d="M2,7.827A1.995,1.995,0,0,1,.8,4.237c.37-.28,9-6.6,19.43-3.27a2,2,0,0,1-1.21,3.81c-8.44-2.69-15.75,2.61-15.83,2.66A2,2,0,0,1,2,7.827Z" transform="translate(0)" fill="#372168"/>
              <path id="Path-15" data-name="Path" d="M19.692,7.836a1.94,1.94,0,0,1-1.19-.4c-.12-.08-7.42-5.34-15.83-2.66A2,2,0,1,1,1.462.966c10.43-3.33,19.06,3,19.43,3.27a2,2,0,0,1-1.2,3.6Z" transform="translate(41.473 0.001)" fill="#372168"/>
            </g>
          </g>
        </g>
      </g>
      <g id="Accessories_02" data-name="Accessories#02" transform="translate(88.067 104.91)">
        <g id="_1_glasses" transform="translate(-0.068 -0.91)">
          <g id="Group" transform="translate(12 2)" opacity="0.45">
            <g id="Path-16" data-name="Path">
              <path id="Path-17" data-name="Path" d="M33.07,10.85v2.16A10.81,10.81,0,0,1,22.25,23.83H10.82a10.64,10.64,0,0,1-3.26-.5,10.4,10.4,0,0,1-1.38-.54,9.87,9.87,0,0,1-1.63-1A10.76,10.76,0,0,1,0,12.98V10.82A10.82,10.82,0,0,1,10.82,0H22.27a10.82,10.82,0,0,1,10.8,10.85Z" transform="translate(0.17 0.88)" fill="#7795f0"/>
              <path id="Path-18" data-name="Path" d="M33.07,10.85v2.16A10.81,10.81,0,0,1,22.25,23.83H10.82a10.64,10.64,0,0,1-3.26-.5,10.4,10.4,0,0,1-1.38-.54,9.87,9.87,0,0,1-1.63-1A10.76,10.76,0,0,1,0,12.98V10.82A10.82,10.82,0,0,1,10.82,0H22.27a10.82,10.82,0,0,1,10.8,10.85Z" transform="translate(0.17 0.88)" fill="rgba(255,255,255,0.09)"/>
            </g>
            <g id="Path-19" data-name="Path">
              <path id="Path-20" data-name="Path" d="M33.1,10.82v2.16A10.82,10.82,0,0,1,22.27,23.8H10.83a10.58,10.58,0,0,1-3.15-.47,10,10,0,0,1-1.38-.52A10.83,10.83,0,0,1,0,12.98V10.82A10.83,10.83,0,0,1,10.83,0H22.27A10.83,10.83,0,0,1,33.1,10.82Z" transform="translate(44.21 0.91)" fill="#7795f0"/>
              <path id="Path-21" data-name="Path" d="M33.1,10.82v2.16A10.82,10.82,0,0,1,22.27,23.8H10.83a10.58,10.58,0,0,1-3.15-.47,10,10,0,0,1-1.38-.52A10.83,10.83,0,0,1,0,12.98V10.82A10.83,10.83,0,0,1,10.83,0H22.27A10.83,10.83,0,0,1,33.1,10.82Z" transform="translate(44.21 0.91)" fill="rgba(255,255,255,0.09)"/>
            </g>
          </g>
          <g id="Group-2" data-name="Group" transform="translate(14 2)" opacity="0.68">
            <path id="Light_layer" data-name="Light layer" d="M14.97,0,2.39,21.79A10.74,10.74,0,0,1,0,19.47L11.24,0Z" transform="translate(0.31 0.91)" fill="#fff"/>
            <path id="Light_layer-2" data-name="Light layer" d="M14.8,0,1.38,23.3A10.4,10.4,0,0,1,0,22.76L13.14,0Z" transform="translate(4.33 0.91)" fill="#fff"/>
          </g>
          <g id="Group-3" data-name="Group" transform="translate(58 2)" opacity="0.68">
            <path id="Light_layer-3" data-name="Light layer" d="M15.04,0,2.41,21.87A10.7,10.7,0,0,1,0,19.58L11.3,0Z" transform="translate(0.46 0.91)" fill="#fff"/>
            <path id="Light_layer-4" data-name="Light layer" d="M14.83,0,1.38,23.33A10,10,0,0,1,0,22.81L13.17,0Z" transform="translate(4.51 0.91)" fill="#fff"/>
          </g>
          <path id="Shape-3" data-name="Shape" d="M24.26,27.81H12.83A12.84,12.84,0,0,1,0,14.98V12.83A12.84,12.84,0,0,1,12.83,0H24.27A12.84,12.84,0,0,1,37.1,12.83V14.98A12.849,12.849,0,0,1,24.26,27.81ZM12.83,4A8.857,8.857,0,0,0,4,12.83V14.98A8.857,8.857,0,0,0,12.83,23.81H24.27A8.855,8.855,0,0,0,33.1,14.98V12.83A8.855,8.855,0,0,0,24.27,4Z" transform="translate(10.16 0.91)" fill="#372168"/>
          <path id="Shape-4" data-name="Shape" d="M24.27,27.81H12.82A12.839,12.839,0,0,1,0,14.98V12.83A12.839,12.839,0,0,1,12.82,0H24.27A12.839,12.839,0,0,1,37.09,12.83V14.98A12.839,12.839,0,0,1,24.27,27.81ZM12.82,4A8.859,8.859,0,0,0,4,12.83V14.98a8.859,8.859,0,0,0,8.82,8.831H24.27a8.857,8.857,0,0,0,8.82-8.831V12.83A8.857,8.857,0,0,0,24.27,4Z" transform="translate(54.22 0.91)" fill="#372168"/>
          <path id="Path-22" data-name="Path" d="M13.08,5.589a2.05,2.05,0,0,1-1-.26c-5.14-2.87-8.74-.19-8.78-.16A2,2,0,1,1,.87,2c.23-.18,5.75-4.3,13.16-.16a2,2,0,0,1-1,3.75Z" transform="translate(43.14 10.151)" fill="#372168"/>
          <path id="Path-23" data-name="Path" d="M12.082,6.072a3,3,0,0,1-.41,0L1.592,3.962a2,2,0,1,1,.82-3.92l10.08,2.11a2.01,2.01,0,0,1-.41,4Z" transform="translate(0.068 8.878)" fill="#372168"/>
          <path id="Path-24" data-name="Path" d="M2.188,5.872a2.008,2.008,0,0,1-.36-4L11.878.022a2,2,0,0,1,.73,3.93l-10,1.85a1.61,1.61,0,0,1-.42.07Z" transform="translate(87.122 9.078)" fill="#372168"/>
        </g>
      </g>
    </g>
  </g>
  <path id="Oval" d="M140,280a141.037,141.037,0,0,1-28.215-2.844A139.234,139.234,0,0,1,61.725,256.09,140.408,140.408,0,0,1,11,194.495a139.3,139.3,0,0,1-8.158-26.279,141.364,141.364,0,0,1,0-56.43A139.232,139.232,0,0,1,23.91,61.725,140.41,140.41,0,0,1,85.506,11a139.3,139.3,0,0,1,26.279-8.158,141.364,141.364,0,0,1,56.43,0,139.23,139.23,0,0,1,50.06,21.066A140.409,140.409,0,0,1,269,85.506a139.3,139.3,0,0,1,8.158,26.279,141.367,141.367,0,0,1,0,56.43,139.232,139.232,0,0,1-21.065,50.06A140.408,140.408,0,0,1,194.495,269a139.3,139.3,0,0,1-26.279,8.158A141.037,141.037,0,0,1,140,280ZM140,4C65.009,4,4,65.009,4,140s61.01,136,136,136,136-61.009,136-136S214.991,4,140,4Z" fill="#372168"/>
</svg>
