<svg id="å¤´åƒ11" xmlns="http://www.w3.org/2000/svg" xmlns:xlink="http://www.w3.org/1999/xlink" width="280" height="280" viewBox="0 0 280 280">
  <defs>
    <clipPath id="clip-path">
      <path d="M0,138A138,138,0,1,1,138,276,138,138,0,0,1,0,138Z" fill="none"/>
    </clipPath>
  </defs>
  <g id="Man" transform="translate(2.004)">
    <g id="Background">
      <circle id="Background-2" data-name="Background" cx="138" cy="138" r="138" fill="#bec5d8"/>
      <circle id="Background-3" data-name="Background" cx="138" cy="138" r="138" fill="rgba(255,255,255,0.16)"/>
    </g>
    <g id="Man-2" data-name="Man" transform="translate(0)" clip-path="url(#clip-path)">
      <g id="Body" transform="translate(-2 48.67)">
        <path id="Skin_color:" data-name="Skin color:" d="M31.138,146.778v-34.7l-.05-.058a70.8,70.8,0,0,1-11.58-19.45c-.21-.51-.419-1-.62-1.55-.329-.86-.67-1.75-1-2.631-.46-1.309-.92-2.64-1.35-4l-.689-2.19a80.884,80.884,0,0,1-2.6-12.75c-.09-.73-.18-1.48-.26-2.24,0-.28-.06-.56-.08-.84,0,0-.12-.841-.26-2.29a2.3,2.3,0,0,1,0-.249c-.66-7.28-1.68-28.451,6.87-42.331C29.888,4.688,46.908-.222,61.308.008c14.39-.23,31.41,4.68,41.78,21.49,8.486,13.84,7.5,34.929,6.836,42.268a9.675,9.675,0,0,1,7.255.462c5.3,2.52,7.539,10.85,2.579,18.41-3.781,5.771-10.157,6.819-15.029,5.716l-.011.033c-.33.88-.66,1.77-1,2.631-.2.53-.41,1-.62,1.55a70.421,70.421,0,0,1-11.49,19.32l-.049.059v34.831c-.79,5.071-14,9.09-30.21,9.09S31.927,151.868,31.138,146.778Zm58.3-32.47a47.7,47.7,0,0,1-8.46,7.1,34.921,34.921,0,0,1-8.6,4.237,34.932,34.932,0,0,0,8.629-4.247,47.728,47.728,0,0,0,8.46-7.1l.193-.224ZM2.788,82.678c-5-7.6-2.731-15.93,2.509-18.41a10.391,10.391,0,0,1,1.281-.509,9.9,9.9,0,0,1,6,.07,2.49,2.49,0,0,0,0,.259,1.967,1.967,0,0,0,.05.551c.11,1.11.21,1.74.21,1.74a7.958,7.958,0,0,0,.08.84c.12,1.111.25,2.2.4,3.271a79.483,79.483,0,0,0,2.46,11.7q1.019,3.19,2.1,6.189a15.827,15.827,0,0,1-3.556.405A13.376,13.376,0,0,1,2.788,82.678Z" transform="translate(79.172 1.992)" fill="#dd9488"/>
        <path id="Path" d="M56.55,0V27.79C29.55,28.25,9.43,15.22,0,7.54V.1L.11.22A47.67,47.67,0,0,0,8.57,7.31a34.9,34.9,0,0,0,18.68,6H29.2a34.9,34.9,0,0,0,18.69-6A48.15,48.15,0,0,0,56.36.21Z" transform="translate(112.21 116.09)" fill="#7c3830" opacity="0.15" style="mix-blend-mode: multiply;isolation: isolate"/>
        <g id="Top_color:" data-name="Top color:" transform="translate(0 148.68)">
          <path id="Top_color:-2" data-name="Top color:" d="M0,80.65S17.705,45.4,27.33,36.82c19.14-17.08,49.85-27.4,69-32.94l.75-.22C102.75,2.02,107.35.82,110.24,0c.79,5.07,14,9.09,30.2,9.09s29.42-4,30.22-9.09h.16c2.86.82,7.42,2,13.05,3.63l.68.2c19.11,5.53,49.87,15.86,69.06,33C263.089,45.319,280,80.65,280,80.65Z" fill="#f96"/>
          <path id="Top_color:-3" data-name="Top color:" d="M0,80.65S17.705,45.4,27.33,36.82c19.14-17.08,49.85-27.4,69-32.94l.75-.22C102.75,2.02,107.35.82,110.24,0c.79,5.07,14,9.09,30.2,9.09s29.42-4,30.22-9.09h.16c2.86.82,7.42,2,13.05,3.63l.68.2c19.11,5.53,49.87,15.86,69.06,33C263.089,45.319,280,80.65,280,80.65Z" fill="rgba(255,255,255,0.16)"/>
        </g>
        <path id="Path-2" data-name="Path" d="M62.51,19.26a83,83,0,0,1-18.39,2C23.66,21.26,6.29,14.47,0,3.88l.75-.22C6.42,2.02,11.02.82,13.91,0h0c.79,5.07,14,9.09,30.2,9.09S73.53,5.09,74.33,0h.16c2.86.82,7.42,2,13.05,3.63l.68.2C85.13,9.07,79.34,13.38,71.8,16.4" transform="translate(96.32 148.79)" fill="#fff" opacity="0.4" style="mix-blend-mode: soft-light;isolation: isolate"/>
        <path id="Combined_Shape" data-name="Combined Shape" d="M0,229.329s.008-.021.021-.05c.7-1.585,4.433-9.959,9.161-19.164,3.034-5.907,5.878-11,8.455-15.123,3.22-5.16,6.027-8.824,8.344-10.893a99.035,99.035,0,0,1,12.574-9.436,147.063,147.063,0,0,1,15.738-8.659c11.6-5.541,25.163-10.538,41.468-15.276l.73-.21c3.5-1.017,6.56-1.856,9.35-2.61l2.4-.664V114.733A72.3,72.3,0,0,1,96.8,95.31c-.193-.463-.39-.957-.64-1.6q-.206-.536-.41-1.073a18.012,18.012,0,0,1-2.261.143c-.113,0-.229,0-.343,0a15.287,15.287,0,0,1-12.847-7,17.139,17.139,0,0,1-2.55-13.94,11.431,11.431,0,0,1,5.88-7.37,15.65,15.65,0,0,1,1.5-.6,11.873,11.873,0,0,1,3.541-.54q.471,0,.939.037c-.624-9.535-.577-28.038,7.36-40.917a45.168,45.168,0,0,1,21.5-18.463A55.594,55.594,0,0,1,139.421,0c.359,0,.723,0,1.079.01C140.841,0,141.188,0,141.529,0a55.515,55.515,0,0,1,20.911,3.975A45.183,45.183,0,0,1,183.95,22.45c7.921,12.867,7.984,31.314,7.363,40.86q.457-.035.919-.035a12,12,0,0,1,3.128.415,12.951,12.951,0,0,1,1.92.73,11.438,11.438,0,0,1,5.87,7.35,17.2,17.2,0,0,1-2.55,13.95,15.3,15.3,0,0,1-12.892,7.063c-.1,0-.2,0-.3,0a17.939,17.939,0,0,1-2.235-.145l-.414,1.105c-.193.521-.408,1.04-.617,1.544l-.023.057a72.24,72.24,0,0,1-11.39,19.344v32.51l3.02.837c2.47.67,5.44,1.49,8.789,2.45l.72.21a2,2,0,0,1,.207.077c32.1,9.32,54.85,20.224,69.534,33.333,2.95,2.638,9.59,14.8,14.642,24.529,5.451,10.507,10.309,20.6,10.357,20.7H0Zm28.67-42.26c-4.518,4.026-10.177,14.207-14.129,22.04C10.263,217.589,7,225.229,6.97,225.3l266.01.106c-.024-.06-3.035-7.762-7.039-16.24-3.71-7.854-9.082-18.065-13.6-22.1-13.862-12.375-36.329-23.18-66.8-32.125-3.394,4.928-9.075,9.08-16.554,12.085a2,2,0,1,1-1.49-3.711c6.17-2.479,10.93-5.749,13.95-9.56-2.54-.72-4.8-1.34-6.75-1.87l-2.76-.76c-2.346,3.636-9.468,7.083-21.682,8.283-3.046.3-6.317.458-9.768.458-9.331,0-17.34-1.129-23.161-3.263-4.006-1.469-6.83-3.356-8.178-5.429l-2.171.591c-2.07.56-4.57,1.24-7.36,2,6.92,8.71,22.54,14.22,40.9,14.22a80.381,80.381,0,0,0,17.951-1.93,2,2,0,0,1,.89,3.9,84.775,84.775,0,0,1-18.87,2.07c-20.391,0-37.8-6.648-45.011-17.062C65,163.923,42.528,174.72,28.67,187.07Zm111.8-31.21c15.355,0,25.858-3.611,27.9-6.592a1.982,1.982,0,0,0,.337-.8v-29.4a50.429,50.429,0,0,1-7.46,6.018,36.946,36.946,0,0,1-19.76,6.3h-2.11a36.865,36.865,0,0,1-19.7-6.321,50.223,50.223,0,0,1-7.42-5.97L112.24,148.2a2.087,2.087,0,0,1,.07.265c.465,2.989,10.808,7.136,26.743,7.38Q139.754,155.859,140.47,155.859Zm-1.01-28.469h1.95a33.026,33.026,0,0,0,7.9-1.186,35.8,35.8,0,0,0,8.779-3.886q.462-.291.916-.6a45.6,45.6,0,0,0,8.1-6.8c.61-.629,1.258-1.351,2.1-2.34a2.013,2.013,0,0,1,.189-.193A68.31,68.31,0,0,0,180.39,93.81c.205-.488.408-.993.6-1.5l.093-.243c.187-.49.444-1.162.647-1.757l.25-.67c.646-1.79,1.3-3.772,2-6.061a82.886,82.886,0,0,0,2.79-14.62,3.884,3.884,0,0,1,.04-.5c.012-.094.023-.181.03-.273V68.05c0-.014.008-.078.024-.2.042-.326.131-1,.226-2l1.671.05h.212l-1.883-.16v-.11c.569-6.212,1.776-27.533-6.58-41.1C169.475,6.654,151.2,3.984,141.294,3.984c-.261,0-.526,0-.784.005l-.94.01c-9.913,0-28.187,2.669-39.21,20.551-8.242,13.372-7.18,34.3-6.6,40.827a2.024,2.024,0,0,1,.053.462v.269c.1.94.182,1.579.213,1.834.012.09.017.133.017.138a.732.732,0,0,1,0,.14,2.853,2.853,0,0,0,.07.77c.084.78.178,1.555.26,2.21a79.95,79.95,0,0,0,2.55,12.43c.22.72.454,1.453.68,2.16q.121.384.247.768l.144.437c.279.836.567,1.664.85,2.474l.088.252c.321.878.657,1.746,1,2.579.191.485.383.959.571,1.418l0,0,.028.068a68.66,68.66,0,0,0,11.25,18.92c.786.915,1.481,1.668,2,2.22a46.37,46.37,0,0,0,8.1,6.8,32.957,32.957,0,0,0,17.581,5.661ZM187.585,88.83A11.511,11.511,0,0,0,197.25,83.6,13.179,13.179,0,0,0,199.3,72.93a7.443,7.443,0,0,0-3.749-4.83,7.917,7.917,0,0,0-1.291-.49,7.341,7.341,0,0,0-3.27-.157c-.065.6-.115.981-.139,1.128a5.907,5.907,0,0,0-.057.6v.006c0,.067-.009.133-.014.2a86.494,86.494,0,0,1-2.107,12.266,4.34,4.34,0,0,0,3.377-1.876,4.418,4.418,0,0,0,.41-4.53,1,1,0,0,1,1.68-1.09,6.489,6.489,0,0,1-5.65,9.48q-.167.011-.334.011-.154.565-.316,1.129c-.423,1.389-.853,2.731-1.284,4.014C186.9,88.814,187.242,88.83,187.585,88.83ZM88.61,67.309l-.019,0a7.3,7.3,0,0,0-2.221.348,8.424,8.424,0,0,0-1,.4A7.416,7.416,0,0,0,81.6,72.9a13.208,13.208,0,0,0,2,10.679A11.515,11.515,0,0,0,93.258,88.8c.356,0,.716-.017,1.072-.05-.419-1.249-.834-2.558-1.27-4q-.165-.567-.322-1.137-.264.022-.527.017a6.5,6.5,0,0,1-5.7-9.51,1,1,0,0,1,1.68,1.09,4.473,4.473,0,0,0,.41,4.531,4.359,4.359,0,0,0,3.616,1.879A80.234,80.234,0,0,1,90.54,72.75a.239.239,0,0,1,0-.08c-.136-.968-.267-2.038-.4-3.27a3.4,3.4,0,0,0-.043-.444c-.019-.136-.038-.275-.047-.417q0-.033,0-.065c-.031-.155-.06-.39-.092-.7-.014-.107-.029-.226-.044-.364a7.68,7.68,0,0,0-1.241-.1H88.59ZM240.46,191.7a94.646,94.646,0,0,0-11.44-8.64,1,1,0,1,1,1.09-1.68,96.016,96.016,0,0,1,11.68,8.83,1,1,0,1,1-1.33,1.49Z" fill="#372168"/>
      </g>
      <g id="Chin" transform="translate(104 153.5)">
        <rect id="Setup_03_Face_Man_Chin_background" data-name="Setup/#03 Face/Man Chin background" width="70" height="10" fill="none"/>
        <g id="Group_2" data-name="Group 2" transform="translate(27.837 3.702)">
          <path id="Path-3" data-name="Path" d="M12.5,3.989a1,1,0,0,1-.74-.32,7.19,7.19,0,0,0-5-1.67,7.37,7.37,0,0,0-5,1.6A1,1,0,1,1,.344,2.2a10.36,10.36,0,0,1,12.89.1,1,1,0,0,1-.73,1.69Z" transform="translate(0 0)" fill="#372168"/>
        </g>
      </g>
      <g id="Cheeks_color:" data-name="Cheeks color:" transform="translate(102 124.789)">
        <path id="Cheeks_color:-2" data-name="Cheeks color:" d="M54,10A10,10,0,1,1,64,20,10,10,0,0,1,54,10ZM0,10A10,10,0,1,1,10,20,10,10,0,0,1,0,10Z" fill="#ff1300" opacity="0.15" style="mix-blend-mode: multiply;isolation: isolate"/>
      </g>
      <g id="Hairstyle" transform="translate(46 19.5)">
        <g id="_6_hairdo" transform="translate(10.983 11.866)">
          <g id="Hair_color:" data-name="Hair color:" transform="translate(2.041 7.943)">
            <path id="Hair_color:-2" data-name="Hair color:" d="M156.685,124.291l-16.13-.18c-.14-6.74-6.34-10.27-6.34-10.27s.33,7.26-1.38,10.26l-22.74-.13a71.22,71.22,0,0,0,11-18.72c.21-.51.42-1,.62-1.55.33-.86.66-1.75,1-2.63h0c4.88,1.13,11.3.11,15.09-5.69,5-7.61,2.73-15.93-2.51-18.42a9.8,9.8,0,0,0-7.33-.47h0c-2.5-1.6-4.1-4.24-5.4-7.24-3.93-9.07.14-20.73-27.61-20.6-25.95.11-36.42-14.85-36.42-14.85s1.49,15.92-15.37,21.34c-13,4.19-12.51,21.34-12.51,21.34a9.8,9.8,0,0,0-7.31.44c-5.24,2.49-7.48,10.81-2.52,18.42,3.8,5.8,10.21,6.82,15.09,5.69h0c.32.88.66,1.77,1,2.63.2.53.41,1,.62,1.55a71.72,71.72,0,0,0,10.67,18.36l-37.53-.22c-1.36-3.05.68-8.19.68-8.19-5.11.34-8.17,8.19-8.17,8.19-9-14.07,4.32-18.6.6-35.5s5.2-23.66,9.67-30,4.83-10.15,4.83-10.15c1.46-18.24,9.83-29.64,18.79-36.7A52.18,52.18,0,0,1,69.455,0h20.37a52.24,52.24,0,0,1,32.4,11c8.94,7.06,17.31,18.46,18.77,36.7,0,0,.37,3.76,4.84,10.15s13.38,13.13,9.67,30S163.835,110.091,156.685,124.291Z" transform="translate(0 0)" fill="#9284ff"/>
            <path id="Hair_color:-3" data-name="Hair color:" d="M156.685,124.291l-16.13-.18c-.14-6.74-6.34-10.27-6.34-10.27s.33,7.26-1.38,10.26l-22.74-.13a71.22,71.22,0,0,0,11-18.72c.21-.51.42-1,.62-1.55.33-.86.66-1.75,1-2.63h0c4.88,1.13,11.3.11,15.09-5.69,5-7.61,2.73-15.93-2.51-18.42a9.8,9.8,0,0,0-7.33-.47h0c-2.5-1.6-4.1-4.24-5.4-7.24-3.93-9.07.14-20.73-27.61-20.6-25.95.11-36.42-14.85-36.42-14.85s1.49,15.92-15.37,21.34c-13,4.19-12.51,21.34-12.51,21.34a9.8,9.8,0,0,0-7.31.44c-5.24,2.49-7.48,10.81-2.52,18.42,3.8,5.8,10.21,6.82,15.09,5.69h0c.32.88.66,1.77,1,2.63.2.53.41,1,.62,1.55a71.72,71.72,0,0,0,10.67,18.36l-37.53-.22c-1.36-3.05.68-8.19.68-8.19-5.11.34-8.17,8.19-8.17,8.19-9-14.07,4.32-18.6.6-35.5s5.2-23.66,9.67-30,4.83-10.15,4.83-10.15c1.46-18.24,9.83-29.64,18.79-36.7A52.18,52.18,0,0,1,69.455,0h20.37a52.24,52.24,0,0,1,32.4,11c8.94,7.06,17.31,18.46,18.77,36.7,0,0,.37,3.76,4.84,10.15s13.38,13.13,9.67,30S163.835,110.091,156.685,124.291Z" transform="translate(0 0)" fill="rgba(0,0,0,0.1)"/>
          </g>
          <path id="Combined_Shape-2" data-name="Combined Shape" d="M158.727,134.234l-16.131-.18a2,2,0,0,1-2-2,9.6,9.6,0,0,0-2.4-6,17.691,17.691,0,0,1-1.579,7,2.006,2.006,0,0,1-1.732,1h-.007l-22.74-.131a2,2,0,0,1-1.53-3.28,68.765,68.765,0,0,0,10.66-18.21c.2-.473.4-.98.6-1.51l.14-.376.015-.041c.176-.472.4-1.055.584-1.583l.23-.63a2.013,2.013,0,0,1,2.34-1.3,13.294,13.294,0,0,0,3.135.373,11.5,11.5,0,0,0,9.865-5.213,13.235,13.235,0,0,0,2.05-10.67,7.477,7.477,0,0,0-3.75-4.85,7.828,7.828,0,0,0-5.78-.35,1.995,1.995,0,0,1-1.759-.2c-3.307-2.109-5.094-5.65-6.151-8.131a35.7,35.7,0,0,1-1.82-5.929c-.87-3.578-1.692-6.96-4.82-9.433-3.477-2.749-9.374-4.029-18.559-4.029l-.621,0h-.336a56.228,56.228,0,0,1-22.253-4.271,42.756,42.756,0,0,1-12.131-7.73,23.479,23.479,0,0,1-1.2,4.51c-1.728,4.667-5.781,10.868-15.269,13.91-5.837,1.881-8.544,6.948-9.787,10.868a29.79,29.79,0,0,0-1.334,8.5v.01a2,2,0,0,1-2.6,1.97,7.773,7.773,0,0,0-5.85.339,7.474,7.474,0,0,0-3.75,4.84,13.225,13.225,0,0,0,2,10.68,11.5,11.5,0,0,0,9.888,5.18,13.946,13.946,0,0,0,3.111-.351,2.051,2.051,0,0,1,.456-.052,2.012,2.012,0,0,1,1.244.433,2.074,2.074,0,0,1,.67,1c.213.6.444,1.2.667,1.783l.274.717c.119.309.239.608.356.9.082.2.163.4.245.612a69.771,69.771,0,0,0,10.37,17.861,2,2,0,0,1-1.55,3.26l-37.53-.22a2.007,2.007,0,0,1-1.811-1.191,10,10,0,0,1-.509-5.279,17.381,17.381,0,0,0-3.3,5.189,1.99,1.99,0,0,1-1.66,1.261,1.9,1.9,0,0,1-.2.011,1.992,1.992,0,0,1-1.678-.912c-5.451-8.5-3.392-14.255-1.4-19.82l.008-.021c1.617-4.523,3.29-9.2,1.722-16.309C.523,81.273,6.786,73.484,11.36,67.8l.026-.033c.838-1.035,1.7-2.106,2.42-3.13,4-5.766,4.48-9.192,4.48-9.22A56.977,56.977,0,0,1,24.16,33.845,49.532,49.532,0,0,1,37.826,17.414,54.309,54.309,0,0,1,71.145,5.994H74.57a14.214,14.214,0,0,0-6.543-3.92,1.017,1.017,0,0,1,.37-2,15.562,15.562,0,0,1,8.5,5.55L78.187.8a1,1,0,1,1,1.93.509l-1.245,4.68H92.1a54.4,54.4,0,0,1,33.375,11.44c11.672,9.212,18.243,22.034,19.53,38.11,0,.034.506,3.486,4.48,9.16.486.694,1.041,1.39,1.629,2.128.259.327.527.662.8,1.013l.011.013c4.577,5.667,10.847,13.428,7.549,28.456-1.614,7.282-.058,12.21,1.446,16.978l.074.233c1.81,5.6,3.681,11.389-.481,19.66a2,2,0,0,1-1.76,1.051Zm-1.26-4.02c2.739-6.167,1.412-10.292-.268-15.514l0-.005-.015-.049a48,48,0,0,1-2.131-8.4,30.3,30.3,0,0,1,.516-10.842c2.888-13.147-2.231-19.489-6.747-25.084l-.013-.016c-.924-1.13-1.818-2.237-2.6-3.35a36.6,36.6,0,0,1-4.316-7.875,13.416,13.416,0,0,1-.874-3.235c-1.2-14.939-7.252-26.823-18-35.321A50.665,50.665,0,0,0,92.143,9.964H71.173A50.583,50.583,0,0,0,40.327,20.523c-10.785,8.5-16.841,20.376-18,35.29-.078.732-.7,4.707-5.19,11.13-.7,1.013-1.491,1.993-2.324,3.029l-.266.33c-4.53,5.59-9.664,11.926-6.771,25.1,1.821,8.24-.139,13.711-1.868,18.537-1.622,4.527-2.9,8.1-.732,13.113,1.621-2.558,4.342-5.66,8.09-5.91.044,0,.088,0,.131,0a2.009,2.009,0,0,1,1.619.824,1.989,1.989,0,0,1,.239,1.921,13.949,13.949,0,0,0-1,5.459l16.381.092a16.927,16.927,0,0,1,.649-6.692,6.41,6.41,0,0,0-2.76-7.529,1,1,0,0,1,.949-1.76,8.41,8.41,0,0,1,3.74,9.81,14.369,14.369,0,0,0-.544,6.183l13.5.076a75.63,75.63,0,0,1-8.47-15.58l-.067-.156c-.2-.465-.385-.9-.573-1.444-.094-.234-.182-.468-.274-.716l-.137-.364a15.569,15.569,0,0,1-15.48-6.83,17.211,17.211,0,0,1-2.55-14,11.141,11.141,0,0,1,3.948-6.152q.4-.311.819-.583c-3.6-6.75,1.092-14.065,1.193-14.184a1,1,0,1,1,1.67,1.09c-.184.285-4.1,6.445-1,12.127a11.1,11.1,0,0,1,4.168-.819,11.247,11.247,0,0,1,1.345.081,34.621,34.621,0,0,1,1.38-7.259c2.169-6.936,6.467-11.619,12.43-13.54,13.482-4.339,14.127-15.752,14-19.147,0-.054,0-.092,0-.113a2,2,0,0,1,3.63-1.33c.1.14,10.243,14,34.48,14h.72c23.41,0,25.54,8.771,27.42,16.51a32.648,32.648,0,0,0,1.61,5.29,14.614,14.614,0,0,0,3.94,5.85,11.634,11.634,0,0,1,6.288.214c.1-3.892-1.947-8.046-3.138-10.463-.291-.571-.53-1.06-.69-1.44-.581-1.34-1.07-2.68-1.54-4-2.77-7.709-5.171-14.38-25.241-16l-.92-.069c-5.55-.42-17.09-1.281-23.53-12.351a1,1,0,0,1,1.73-1.01c5.91,10.17,16.34,10.95,22,11.36l.931.07c21.35,1.741,24.079,9.32,27,17.34.46,1.27.94,2.59,1.49,3.87.16.35.38.81.65,1.35,1.359,2.742,3.743,7.578,3.293,12.228a11.452,11.452,0,0,1,5.308,7.082,17.184,17.184,0,0,1-2.55,13.94,15.5,15.5,0,0,1-13.229,7,17.786,17.786,0,0,1-2.251-.143c-.129.365-.267.725-.41,1.09-.193.522-.409,1.043-.617,1.546l-.023.054a74.81,74.81,0,0,1-8.77,16l17.359.1a29.325,29.325,0,0,0,.7-8.16,2,2,0,0,1,3-1.8,14.623,14.623,0,0,1,3.289,2.609,14.282,14.282,0,0,1,3.911,7.4l7.01.075c.567-8.723-5.065-15.721-5.13-15.805a1,1,0,0,1,1.551-1.26c.268.324,6.168,7.632,5.585,17.087ZM27.277,66.294a1,1,0,0,1-.35-1.37c3.41-5.81,7.28-8.3,9.92-9.36,7.09-2.84,11.541-6.44,13.23-10.69a9.088,9.088,0,0,0,.15-6.85,1,1,0,1,1,1.81-.85,11.131,11.131,0,0,1-.07,8.38c-1.89,4.8-6.719,8.8-14.379,11.87-2.351.94-5.81,3.19-8.941,8.509a1,1,0,0,1-.86.5A1.06,1.06,0,0,1,27.277,66.294Zm82.44-22.63v-.02h-.13a23.891,23.891,0,0,1-15.84-7.761,1,1,0,1,1,1.48-1.34c4.68,5.21,9.79,6.5,14.62,7.121a1,1,0,0,1-.063,2Z" transform="translate(0 0)" fill="#372168"/>
        </g>
      </g>
      <g id="Emotions" transform="translate(104 99)">
        <rect id="Setup_01_Emotions_curious_background" data-name="Setup/#01 Emotions/curious background" width="70" height="56" fill="none"/>
        <g id="Face">
          <g id="Mouth" transform="translate(0 36)">
            <rect id="Setup_03_Face_Mouth_nose_background" data-name="Setup/#03 Face/Mouth/nose background" width="70" height="20" fill="none"/>
            <path id="Path-4" data-name="Path" d="M2,8.68a2,2,0,0,1-2-2V2A2,2,0,0,1,4,2V6.68A2,2,0,0,1,2,8.68Z" transform="translate(33 1.66)" fill="#372168"/>
          </g>
          <g id="Nose" transform="translate(0 25)">
            <rect id="Setup_03_Face_Nose_background" data-name="Setup/#03 Face/Nose background" width="70" height="8" fill="none"/>
            <g id="_Nose" data-name="ðŸ‘ƒNose" transform="translate(29.222 2.152)">
              <path id="Path-5" data-name="Path" d="M5.75,5.635A6.52,6.52,0,0,1,.28,2.795,1.75,1.75,0,0,1,3.22.895,3.18,3.18,0,0,0,5.773,2.136,3.18,3.18,0,0,0,8.3.845a1.754,1.754,0,0,1,3,1.82,6.46,6.46,0,0,1-5.55,2.97Z" transform="translate(0 0)" fill="#372168"/>
            </g>
          </g>
          <g id="Eyes" transform="translate(0 12)">
            <rect id="Setup_03_Face_Eyes_eyes-8_background" data-name="Setup/#03 Face/Eyes/eyes-8 background" width="70" height="10" fill="none"/>
            <g id="silly_eyes" transform="translate(11.498 1.85)">
              <path id="Path-6" data-name="Path" d="M3.338,6.9c4.44,0,4.45-6.9,0-6.9S-1.112,6.9,3.338,6.9Z" transform="translate(0)" fill="#372168"/>
              <path id="Path-7" data-name="Path" d="M3.334,6.9c4.43,0,4.44-6.9,0-6.9S-1.116,6.9,3.334,6.9Z" transform="translate(40.974)" fill="#372168"/>
            </g>
          </g>
          <g id="Eyebrows">
            <rect id="Setup_03_Face_Eyebrow_suspicious_eyebrows_background" data-name="Setup/#03 Face/Eyebrow/suspicious_eyebrows background" width="70" height="12" fill="none"/>
            <g id="suspicious_eyebrows" transform="translate(3.373 -0.41)">
              <path id="Path-8" data-name="Path" d="M19.817,7.817a2,2,0,0,1-1.39-.55c-7.29-7-14.33-.74-15.11,0a2,2,0,0,1-2.76-2.89c3.57-3.43,12.48-7.84,20.64,0a2,2,0,0,1-1.38,3.44Z" transform="translate(0 4.613)" fill="#372168"/>
              <path id="Path-9" data-name="Path" d="M19.877,7.82a2,2,0,0,1-1.39-.56c-7.28-7-14.33-.73-15.1,0A2,2,0,1,1,.617,4.37c3.57-3.42,12.48-7.83,20.64,0a2,2,0,0,1-1.38,3.45Z" transform="translate(41.51)" fill="#372168"/>
            </g>
          </g>
        </g>
      </g>
      <g id="Accessories_02" data-name="Accessories#02" transform="translate(88.301 102.78)">
        <g id="glasses" transform="translate(-0.301 -0.18)">
          <g id="Group" transform="translate(17.263 2.192)" opacity="0.3">
            <g id="Path-10" data-name="Path">
              <path id="Path-11" data-name="Path" d="M26.387,13.208a13.21,13.21,0,0,1-22,9.83,11.25,11.25,0,0,1-.85-.84,12.79,12.79,0,0,1-1.37-1.74,13.58,13.58,0,0,1-1.14-2.13A13.22,13.22,0,0,1,17.877.848a13.07,13.07,0,0,1,2.34,1.16,12.53,12.53,0,0,1,1.6,1.19,11.52,11.52,0,0,1,.89.83A13.18,13.18,0,0,1,26.387,13.208Z" transform="translate(41.54 0)" fill="#629cee"/>
              <path id="Path-12" data-name="Path" d="M26.387,13.208a13.21,13.21,0,0,1-22,9.83,11.25,11.25,0,0,1-.85-.84,12.79,12.79,0,0,1-1.37-1.74,13.58,13.58,0,0,1-1.14-2.13A13.22,13.22,0,0,1,17.877.848a13.07,13.07,0,0,1,2.34,1.16,12.53,12.53,0,0,1,1.6,1.19,11.52,11.52,0,0,1,.89.83A13.18,13.18,0,0,1,26.387,13.208Z" transform="translate(41.54 0)" fill="rgba(255,255,255,0.16)"/>
            </g>
            <g id="Path-13" data-name="Path">
              <path id="Path-14" data-name="Path" d="M26.387,13.208a13.21,13.21,0,0,1-22,9.83,11.25,11.25,0,0,1-.85-.84,12.79,12.79,0,0,1-1.37-1.74,13.58,13.58,0,0,1-1.14-2.13A13.22,13.22,0,0,1,17.877.848a13.07,13.07,0,0,1,2.34,1.16,12.53,12.53,0,0,1,1.6,1.19,11.52,11.52,0,0,1,.89.83A13.18,13.18,0,0,1,26.387,13.208Z" transform="translate(0 0)" fill="#629cee"/>
              <path id="Path-15" data-name="Path" d="M26.387,13.208a13.21,13.21,0,0,1-22,9.83,11.25,11.25,0,0,1-.85-.84,12.79,12.79,0,0,1-1.37-1.74,13.58,13.58,0,0,1-1.14-2.13A13.22,13.22,0,0,1,17.877.848a13.07,13.07,0,0,1,2.34,1.16,12.53,12.53,0,0,1,1.6,1.19,11.52,11.52,0,0,1,.89.83A13.18,13.18,0,0,1,26.387,13.208Z" transform="translate(0 0)" fill="rgba(255,255,255,0.16)"/>
            </g>
          </g>
          <path id="Light_layer" data-name="Light layer" d="M19.14,1.16l-18,18.45A13.58,13.58,0,0,1,0,17.48L16.85,0a13.07,13.07,0,0,1,2.29,1.16Z" transform="translate(59.85 3.04)" fill="#fff" opacity="0.5"/>
          <path id="Light_layer-2" data-name="Light layer" d="M19.17.83,17.56,2.5.85,19.84A11.25,11.25,0,0,1,0,19L18.28,0a11.52,11.52,0,0,1,.89.83Z" transform="translate(62.31 5.39)" fill="#fff" opacity="0.5"/>
          <path id="Shape" d="M15.21,30.42a15.229,15.229,0,1,1,10.746-4.457A15.16,15.16,0,0,1,15.21,30.42Zm0-26.41a11.21,11.21,0,1,0,11.21,11.21A11.223,11.223,0,0,0,15.21,4.01Z" transform="translate(56.77 0.18)" fill="#372168"/>
          <path id="Light_layer-3" data-name="Light layer" d="M19.19,1.16,1.14,19.61A13.58,13.58,0,0,1,0,17.48L16.85,0a13.07,13.07,0,0,1,2.34,1.16Z" transform="translate(18.26 3.04)" fill="#fff" opacity="0.5"/>
          <path id="Light_layer-4" data-name="Light layer" d="M19.17.83,17.56,2.5.85,19.84A11.25,11.25,0,0,1,0,19L18.28,0a11.52,11.52,0,0,1,.89.83Z" transform="translate(20.77 5.39)" fill="#fff" opacity="0.5"/>
          <path id="Shape-2" data-name="Shape" d="M15.21,30.42a15.229,15.229,0,1,1,10.746-4.457A15.16,15.16,0,0,1,15.21,30.42Zm0-26.41a11.21,11.21,0,1,0,11.21,11.21A11.223,11.223,0,0,0,15.21,4.01Z" transform="translate(15.23 0.18)" fill="#372168"/>
          <path id="Path-16" data-name="Path" d="M16.961,6.758a2,2,0,0,1-1.28-.47c-6.26-5.21-12.29-.23-12.54,0a2,2,0,0,1-2.61-3,13.58,13.58,0,0,1,17.72,0,2,2,0,0,1-1.29,3.54Z" transform="translate(41.819 10.642)" fill="#372168"/>
          <path id="Path-17" data-name="Path" d="M16.929,8.144a2.28,2.28,0,0,1-.44,0c-6.25-1.43-14.73-4.12-15.09-4.23A2,2,0,0,1,2.609.094c.09,0,8.69,2.76,14.77,4.15a2,2,0,0,1-.45,3.95Z" transform="translate(0.301 9.256)" fill="#372168"/>
          <path id="Path-18" data-name="Path" d="M2.026,8.7a2,2,0,0,1-.55-3.93L17.806.077a2,2,0,1,1,1.1,3.85L2.616,8.6a2.09,2.09,0,0,1-.59.1Z" transform="translate(83.164 8.703)" fill="#372168"/>
        </g>
      </g>
      <g id="Accessories_01" data-name="Accessories#01" transform="translate(54.564 7.718)">
        <g id="hat" transform="translate(-0.564 -0.218)">
          <path id="Path-19" data-name="Path" d="M137.15,0a211.29,211.29,0,0,1-18.12,12.71l-.86.54A213.44,213.44,0,0,1,99.44,23.67c-18,8.8-47.83,16.32-64.14,19.63a80,80,0,0,1-12.62,1.51c-.95,0-1.89.07-2.82.08A86.14,86.14,0,0,1,1,42.97a3.55,3.55,0,0,0-1-.09c1.2-.21,4.55-.42,7.28-.7,6.91-.72,8.94-2.09,13.73-2.83,1.47-.22,2.86-.43,4.09-.6,6.62-.92,61.69-18.19,92.68-30.11,4.28-1.65,8.1-3.19,11.28-4.58A58.619,58.619,0,0,0,137.15,0Z" transform="translate(6.16 31.75)" fill="#f9f9f9"/>
          <path id="Shape-3" data-name="Shape" d="M19.42,48.58a87.811,87.811,0,0,1-18.54-2,1.567,1.567,0,0,0-.44,0l-.44-4c.725-.126,2.02-.238,3.52-.368L4,42.17c1.066-.086,2.3-.187,3.431-.311a45.553,45.553,0,0,0,8.37-1.62,45.89,45.89,0,0,1,5.26-1.2l1.07-.16,3.06-.44c6.242-.865,61.336-18.068,92.23-30,4.449-1.71,8.109-3.195,11.19-4.541A55.29,55.29,0,0,0,136.37,0l2.34,3.24a212.561,212.561,0,0,1-18.3,12.83c-.3.2-.6.387-.88.55a213.034,213.034,0,0,1-18.89,10.52c-17.266,8.432-45.6,15.93-64.62,19.789A83.116,83.116,0,0,1,23.08,48.48c-.4,0-.83.017-1.283.035-.472.019-1.005.04-1.6.045ZM119.43,11.95l-.63.239C88.633,23.8,32.863,41.421,25.69,42.42l-3,.44-1.07.16a40.923,40.923,0,0,0-4.8,1.09l-1.4.38c1.293.06,2.671.092,4.093.092l.607,0c1.078,0,1.93,0,2.71-.08a77.217,77.217,0,0,0,12.34-1.47c15.136-3.069,45.577-10.624,63.66-19.47a210.425,210.425,0,0,0,18.55-10.32l.231-.143.007,0c.2-.125.4-.243.591-.373Z" transform="translate(5.85 30.06)" fill="#372168"/>
          <path id="Path-20" data-name="Path" d="M112.305,38.874c-1.66,1.11-3.44,2.26-5.3,3.43l-.86.54a211.13,211.13,0,0,1-18.74,10.42c-18,8.8-47.83,16.33-64.13,19.63a80.1,80.1,0,0,1-12.63,1.51c-.95.06-1.88.07-2.81.08-1.4,0-2.76,0-4.07-.06l-1.25-3.86a50.7,50.7,0,0,1-1.73-6.89c-.19-1.06-.35-2.11-.46-3.17a49.68,49.68,0,0,1-.28-7.79A51,51,0,0,1,35.205,6.3l11.65-3.79a50.92,50.92,0,0,1,50.27,10.93,50,50,0,0,1,5.47,5.87,50.531,50.531,0,0,1,4.14,6.09c.16.27.31.54.46.81q.66,1.17,1.26,2.4a53,53,0,0,1,2.66,6.59Z" transform="translate(18.185 2.146)" fill="#9284ff"/>
          <path id="Shape-4" data-name="Shape" d="M9.883,78.461l-.73-.04c-1.208,0-2.35,0-3.46-.07h-1.4l-1.68-5.189A53.478,53.478,0,0,1,.813,66c-.2-1.132-.361-2.214-.48-3.31a53.311,53.311,0,0,1-.29-8.08,54.074,54.074,0,0,1,.87-7.6,52.977,52.977,0,0,1,35.67-40.63l11.65-3.791a53.065,53.065,0,0,1,52.241,11.361,52.272,52.272,0,0,1,5.69,6.1,51.661,51.661,0,0,1,4.3,6.331c.09.151.178.307.263.458.06.106.118.209.177.311.482.857.924,1.7,1.35,2.57a56.039,56.039,0,0,1,2.759,6.84l1.66,5.12-1.26.84c-1.462.975-3.159,2.074-5.341,3.461l-.5.31-.35.22a213.535,213.535,0,0,1-18.94,10.53A155.482,155.482,0,0,1,74.543,63.5c-5.338,1.9-11.313,3.8-17.758,5.657C46.634,72.076,35,74.947,25.673,76.831a81.093,81.093,0,0,1-12.95,1.551C11.719,78.442,10.786,78.451,9.883,78.461Zm54.688-74.5A48.99,48.99,0,0,0,49.443,6.351l-11.65,3.8a48.982,48.982,0,0,0-33,37.551,47.661,47.661,0,0,0-.8,7,46.927,46.927,0,0,0,.27,7.481c.108,1.007.252,1.989.44,3A49.149,49.149,0,0,0,6.363,71.8l.87,2.621h2.59c.89,0,1.81,0,2.7-.07a78.858,78.858,0,0,0,12.36-1.48C40,69.81,70.415,62.266,88.523,53.411a209.551,209.551,0,0,0,18.56-10.32l.391-.249.439-.27c1.424-.894,2.77-1.762,4-2.58l-.72-2.23a53.2,53.2,0,0,0-2.561-6.34c-.421-.853-.813-1.6-1.2-2.281l-.44-.779a48.59,48.59,0,0,0-4-5.87,47.3,47.3,0,0,0-5.251-5.63A48.97,48.97,0,0,0,64.571,3.959Z" transform="translate(16.187 0.219)" fill="#372168"/>
          <path id="Path-21" data-name="Path" d="M132.8,25.427c-.76.44-1.57.86-2.41,1.3-14.06,7.25-31.46,16.66-50.26,22.27-27.8,8.3-62.09,16-72.65,9.52-.11-.08-.22-.13-.32-.21-.62-.42-1.19-.84-1.7-1.26a14.16,14.16,0,0,1-5.4-8.47,3.85,3.85,0,0,1,.59-2.79,3.77,3.77,0,0,1,3-1.68,4,4,0,0,1,1,.09,86.06,86.06,0,0,0,14.8,1.86c1.31,0,2.67.07,4.07.06.93,0,1.86,0,2.81-.08a80.11,80.11,0,0,0,12.62-1.51c16.31-3.31,46.14-10.84,64.14-19.63a213.39,213.39,0,0,0,18.73-10.43c.29-.17.58-.34.86-.53q2.8-1.77,5.31-3.44c5.56-3.72,9.94-7,12.81-9.27l.46-.36c.14-.11.29-.21.44-.31a4,4,0,0,1,.88-.39,3.87,3.87,0,0,1,.8-.15,4,4,0,0,1,4.14,2.66c.16.48.32,1,.51,1.44C148.936,6.617,150.626,15.437,132.8,25.427Z" transform="translate(2.564 30.523)" fill="#9284ff"/>
          <path id="Light_layer-5" data-name="Light layer" d="M132.8,25.427c-.76.44-1.57.86-2.41,1.3-14.06,7.25-31.46,16.66-50.26,22.27-27.8,8.3-62.09,16-72.65,9.52-.11-.08-.22-.13-.32-.21-.62-.42-1.19-.84-1.7-1.26a14.16,14.16,0,0,1-5.4-8.47,3.85,3.85,0,0,1,.59-2.79,3.77,3.77,0,0,1,3-1.68,4,4,0,0,1,1,.09,86.06,86.06,0,0,0,14.8,1.86c1.31,0,2.67.07,4.07.06.93,0,1.86,0,2.81-.08a80.11,80.11,0,0,0,12.62-1.51c16.31-3.31,46.14-10.84,64.14-19.63a213.39,213.39,0,0,0,18.73-10.43c.29-.17.58-.34.86-.53q2.8-1.77,5.31-3.44c5.56-3.72,9.94-7,12.81-9.27l.46-.36c.14-.11.29-.21.44-.31a4,4,0,0,1,.88-.39,3.87,3.87,0,0,1,.8-.15,4,4,0,0,1,4.14,2.66c.16.48.32,1,.51,1.44C148.936,6.617,150.626,15.437,132.8,25.427Z" transform="translate(2.564 30.523)" fill="#fff" opacity="0.4" style="mix-blend-mode: soft-light;isolation: isolate"/>
          <path id="Shape-5" data-name="Shape" d="M22.335,64.922c-6.3,0-10.983-.908-13.91-2.7l-.09-.06-.329-.229a22.038,22.038,0,0,1-1.831-1.36A16.043,16.043,0,0,1,.086,50.912,5.838,5.838,0,0,1,4,44.383a5.244,5.244,0,0,1,1.58-.28l.154,0a6.361,6.361,0,0,1,1.286.131,83.039,83.039,0,0,0,14.449,1.82c.641,0,1.283.016,1.9.031.6.015,1.23.03,1.838.03h.259c.875,0,1.779,0,2.71-.08a78.5,78.5,0,0,0,12.34-1.47c15.143-3.075,45.591-10.635,63.66-19.471a210.369,210.369,0,0,0,18.56-10.319l.09-.06.72-.45c1.694-1.064,3.477-2.218,5.3-3.43,5.621-3.77,9.929-7.045,12.68-9.18l.35-.27.13-.1c.163-.127.359-.266.581-.41a5.848,5.848,0,0,1,1.38-.63,5.715,5.715,0,0,1,1.23-.22c.172-.015.346-.022.519-.022a6.005,6.005,0,0,1,5.662,4.022q.067.192.132.385c.112.327.226.662.348.985a11.246,11.246,0,0,1,0,8.079,20.825,20.825,0,0,1-4.582,6.994,51.588,51.588,0,0,1-11.481,8.7c-.807.466-1.663.917-2.47,1.339l-3.64,1.88-.022.012C116.49,39.22,100.1,47.716,82.685,52.9,55.975,60.878,35.67,64.922,22.335,64.922ZM5.8,48.091c-.078,0-.157,0-.235.011a1.509,1.509,0,0,0-.45.08,1.859,1.859,0,0,0-.93.7,1.748,1.748,0,0,0-.28,1.35A12.125,12.125,0,0,0,8.6,57.492c.4.33.891.682,1.364,1.023l.176.127.391.131c2.264,1.389,6.1,2.093,11.4,2.093,12.89,0,34.055-4.2,59.6-11.834,17.043-5.093,33.243-13.491,46.26-20.24l3.651-1.89c.72-.368,1.559-.806,2.33-1.26,16.422-9.2,15.09-16.761,14.29-18.859-.193-.508-.364-1.013-.53-1.5a2,2,0,0,0-1.881-1.327c-.059,0-.12,0-.179.008a2.051,2.051,0,0,0-.41.069,2.383,2.383,0,0,0-.429.19l-.23.17-.44.35c-4.019,3.159-8.392,6.312-13,9.37-1.591,1.067-3.342,2.2-5.35,3.47-.231.155-.515.331-.82.51a215.443,215.443,0,0,1-19,10.56c-18.6,9.055-49.371,16.7-64.62,19.79a83.225,83.225,0,0,1-12.94,1.55c-.559,0-1.116.022-1.655.043-.429.017-.832.033-1.215.037-1.347,0-2.74,0-4.17-.06A88.733,88.733,0,0,1,6.035,48.1C5.958,48.095,5.878,48.091,5.8,48.091Z" transform="translate(0.565 28.528)" fill="#372168"/>
          <g id="Path-22" data-name="Path">
            <path id="Path-23" data-name="Path" d="M111.98,12.66c-1.66,1.11-3.44,2.26-5.3,3.43l-.86.54A211.13,211.13,0,0,1,87.08,27.05c-18,8.8-47.83,16.33-64.13,19.63a80.1,80.1,0,0,1-12.63,1.51c-.95.06-1.88.07-2.81.08-1.4,0-2.76,0-4.07-.06L2.19,44.35A50.7,50.7,0,0,1,.46,37.46C.27,36.4.11,35.35,0,34.29c0,0,44.61,3.07,106.87-34.29q.66,1.17,1.26,2.4a53,53,0,0,1,2.66,6.59Z" transform="translate(18.51 28.36)" fill="#7dbcdd"/>
            <path id="Path-24" data-name="Path" d="M111.98,12.66c-1.66,1.11-3.44,2.26-5.3,3.43l-.86.54A211.13,211.13,0,0,1,87.08,27.05c-18,8.8-47.83,16.33-64.13,19.63a80.1,80.1,0,0,1-12.63,1.51c-.95.06-1.88.07-2.81.08-1.4,0-2.76,0-4.07-.06L2.19,44.35A50.7,50.7,0,0,1,.46,37.46C.27,36.4.11,35.35,0,34.29c0,0,44.61,3.07,106.87-34.29q.66,1.17,1.26,2.4a53,53,0,0,1,2.66,6.59Z" transform="translate(18.51 28.36)" fill="rgba(255,255,255,0.16)"/>
          </g>
          <path id="Shape-6" data-name="Shape" d="M9.78,53.04l-.72-.049c-1.208,0-2.35,0-3.461-.07H4.2L2.52,47.73a53.428,53.428,0,0,1-1.8-7.16c-.2-1.132-.361-2.214-.48-3.31L0,34.9l2.37.16.069,0H2.45c.222.009.9.035,1.99.035,11,0,50.982-2.455,103.63-34.038L109.83,0l1,1.79c.442.777.886,1.622,1.32,2.51a56.051,56.051,0,0,1,2.76,6.84l1.66,5.12-1.26.84c-1.467.978-3.163,2.077-5.34,3.46l-.5.311-.35.22A213.535,213.535,0,0,1,90.18,31.62a155.452,155.452,0,0,1-15.74,6.455c-5.338,1.9-11.313,3.8-17.758,5.657C46.531,46.655,34.9,49.526,25.57,51.41a80.988,80.988,0,0,1-12.95,1.55c-1,.061-1.936.07-2.837.08ZM4.51,39.09a2.41,2.41,0,0,0,.084.533c.016.068.032.138.046.207A49.037,49.037,0,0,0,6.3,46.45l.84,2.54H9.73c.89,0,1.81,0,2.7-.069A78.962,78.962,0,0,0,24.79,47.44C39.9,44.379,70.318,36.836,88.43,27.98a210.025,210.025,0,0,0,18.56-10.32l.39-.25.44-.27c1.43-.9,2.775-1.765,4-2.579l-.72-2.23a53.338,53.338,0,0,0-2.56-6.34l-.24-.481A283.309,283.309,0,0,1,71.521,23.893,229.169,229.169,0,0,1,41.129,33.978c-17.607,4.45-30.1,5.115-35.981,5.115Z" transform="translate(16.28 25.65)" fill="#372168"/>
          <g id="Path-25" data-name="Path">
            <path id="Path-26" data-name="Path" d="M0,9.06A147.72,147.72,0,0,0,15.16,0" transform="translate(112.28 35.24)" fill="#7dbcdd"/>
            <path id="Path-27" data-name="Path" d="M0,9.06A147.72,147.72,0,0,0,15.16,0" transform="translate(112.28 35.24)" fill="rgba(255,255,255,0.16)"/>
          </g>
          <path id="Path-28" data-name="Path" d="M1,11.091A1,1,0,0,1,.544,9.2a147,147,0,0,0,15.05-9,1,1,0,1,1,1.11,1.66,147,147,0,0,1-15.25,9.12,1,1,0,0,1-.45.11Z" transform="translate(111.286 34.209)" fill="#372168"/>
          <g id="Path-29" data-name="Path">
            <path id="Path-30" data-name="Path" d="M0,2.58C2.14,1.77,4.2.9,6.2,0" transform="translate(101.15 46.72)" fill="#7dbcdd"/>
            <path id="Path-31" data-name="Path" d="M0,2.58C2.14,1.77,4.2.9,6.2,0" transform="translate(101.15 46.72)" fill="rgba(255,255,255,0.16)"/>
          </g>
          <path id="Path-32" data-name="Path" d="M.993,4.583a1,1,0,0,1-.36-1.93c2.06-.78,4.12-1.65,6.15-2.56a1,1,0,1,1,.83,1.82c-2.07.93-4.17,1.81-6.26,2.61a1.13,1.13,0,0,1-.36.06Z" transform="translate(100.157 45.717)" fill="#372168"/>
          <path id="Path-33" data-name="Path" d="M1.179,11.135a1.014,1.014,0,0,1-.33-2,14,14,0,0,0,5.27-3.18c1-1.07,1.49-2.12,1.22-2.86-.17-.47-.48-1.35-3-1a1.009,1.009,0,0,1-.27-2c2.76-.38,4.44.38,5.14,2.32.54,1.5-.06,3.26-1.68,4.93a16,16,0,0,1-6,3.67A1,1,0,0,1,1.179,11.135Z" transform="translate(62.051 4.165)" fill="#372168"/>
          <ellipse id="Oval" cx="4.28" cy="2.63" rx="4.28" ry="2.63" transform="translate(54.786 6.272) rotate(-18.45)" fill="#9284ff"/>
          <path id="Shape-7" data-name="Shape" d="M4.946,9.675c-2.363,0-4.194-1.092-4.78-2.85a4.221,4.221,0,0,1,1-4.08,7.739,7.739,0,0,1,3.52-2.3,7.838,7.838,0,0,1,4.2-.28,4.234,4.234,0,0,1,3.219,2.69,3.864,3.864,0,0,1-.266,3A7.156,7.156,0,0,1,7.627,9.235,8.365,8.365,0,0,1,4.946,9.675ZM7.211,4.024A4.075,4.075,0,0,0,4.037,5.535,4.134,4.134,0,0,0,8.2,4.145,4.1,4.1,0,0,0,7.211,4.024Z" transform="translate(53.504 2.765)" fill="#372168"/>
        </g>
      </g>
    </g>
  </g>
  <path id="Oval-2" data-name="Oval" d="M140,280a141.037,141.037,0,0,1-28.215-2.844A139.234,139.234,0,0,1,61.725,256.09,140.408,140.408,0,0,1,11,194.495a139.3,139.3,0,0,1-8.158-26.279,141.364,141.364,0,0,1,0-56.43A139.232,139.232,0,0,1,23.91,61.725,140.41,140.41,0,0,1,85.506,11a139.3,139.3,0,0,1,26.279-8.158,141.364,141.364,0,0,1,56.43,0,139.23,139.23,0,0,1,50.06,21.066A140.409,140.409,0,0,1,269,85.506a139.3,139.3,0,0,1,8.158,26.279,141.367,141.367,0,0,1,0,56.43,139.232,139.232,0,0,1-21.065,50.06A140.408,140.408,0,0,1,194.495,269a139.3,139.3,0,0,1-26.279,8.158A141.037,141.037,0,0,1,140,280ZM140,4C65.009,4,4,65.009,4,140s61.01,136,136,136,136-61.009,136-136S214.991,4,140,4Z" transform="translate(0 0)" fill="#372168"/>
</svg>
