<svg id="å¤´åƒ22" xmlns="http://www.w3.org/2000/svg" xmlns:xlink="http://www.w3.org/1999/xlink" width="280" height="280" viewBox="0 0 280 280">
  <defs>
    <clipPath id="clip-path">
      <path d="M0,138A138,138,0,1,1,138,276,138,138,0,0,1,0,138Z" fill="none"/>
    </clipPath>
  </defs>
  <g id="Man" transform="translate(0.004 4)">
    <g id="Background">
      <circle id="Background-2" data-name="Background" cx="138" cy="138" r="138" fill="#bec5d8"/>
      <circle id="Background-3" data-name="Background" cx="138" cy="138" r="138" fill="rgba(255,255,255,0.16)"/>
    </g>
    <g id="Man-2" data-name="Man" transform="translate(0)" clip-path="url(#clip-path)">
      <g id="Body" transform="translate(-2 48.67)">
        <path id="Skin_color:" data-name="Skin color:" d="M31.138,146.778v-34.7l-.05-.058a70.8,70.8,0,0,1-11.58-19.45c-.21-.51-.419-1-.62-1.55-.329-.86-.67-1.75-1-2.631-.46-1.309-.92-2.64-1.35-4l-.689-2.19a80.884,80.884,0,0,1-2.6-12.75c-.09-.73-.18-1.48-.26-2.24,0-.28-.06-.56-.08-.84,0,0-.12-.841-.26-2.29a2.3,2.3,0,0,1,0-.249c-.66-7.28-1.68-28.451,6.87-42.331C29.888,4.688,46.908-.222,61.308.008c14.39-.23,31.41,4.68,41.78,21.49,8.486,13.84,7.5,34.929,6.836,42.268a9.675,9.675,0,0,1,7.255.462c5.3,2.52,7.539,10.85,2.579,18.41-3.781,5.771-10.157,6.819-15.029,5.716l-.011.033c-.33.88-.66,1.77-1,2.631-.2.53-.41,1-.62,1.55a70.421,70.421,0,0,1-11.49,19.32l-.049.059v34.831c-.79,5.071-14,9.09-30.21,9.09S31.927,151.868,31.138,146.778Zm58.3-32.47a47.7,47.7,0,0,1-8.46,7.1,34.921,34.921,0,0,1-8.6,4.237,34.932,34.932,0,0,0,8.629-4.247,47.728,47.728,0,0,0,8.46-7.1l.193-.224ZM2.788,82.678c-5-7.6-2.731-15.93,2.509-18.41a10.391,10.391,0,0,1,1.281-.509,9.9,9.9,0,0,1,6,.07,2.49,2.49,0,0,0,0,.259,1.967,1.967,0,0,0,.05.551c.11,1.11.21,1.74.21,1.74a7.958,7.958,0,0,0,.08.84c.12,1.111.25,2.2.4,3.271a79.483,79.483,0,0,0,2.46,11.7q1.019,3.19,2.1,6.189a15.827,15.827,0,0,1-3.556.405A13.376,13.376,0,0,1,2.788,82.678Z" transform="translate(79.172 1.992)" fill="#ffc7bb"/>
        <path id="Path" d="M56.55,0V27.79C29.55,28.25,9.43,15.22,0,7.54V.1L.11.22A47.67,47.67,0,0,0,8.57,7.31a34.9,34.9,0,0,0,18.68,6H29.2a34.9,34.9,0,0,0,18.69-6A48.15,48.15,0,0,0,56.36.21Z" transform="translate(112.21 116.09)" fill="#7c3830" opacity="0.15" style="mix-blend-mode: multiply;isolation: isolate"/>
        <g id="Top_color:" data-name="Top color:" transform="translate(0 148.68)">
          <path id="Top_color:-2" data-name="Top color:" d="M0,80.65S17.705,45.4,27.33,36.82c19.14-17.08,49.85-27.4,69-32.94l.75-.22C102.75,2.02,107.35.82,110.24,0c.79,5.07,14,9.09,30.2,9.09s29.42-4,30.22-9.09h.16c2.86.82,7.42,2,13.05,3.63l.68.2c19.11,5.53,49.87,15.86,69.06,33C263.089,45.319,280,80.65,280,80.65Z" fill="#bec5d8"/>
          <path id="Top_color:-3" data-name="Top color:" d="M0,80.65S17.705,45.4,27.33,36.82c19.14-17.08,49.85-27.4,69-32.94l.75-.22C102.75,2.02,107.35.82,110.24,0c.79,5.07,14,9.09,30.2,9.09s29.42-4,30.22-9.09h.16c2.86.82,7.42,2,13.05,3.63l.68.2c19.11,5.53,49.87,15.86,69.06,33C263.089,45.319,280,80.65,280,80.65Z" fill="rgba(255,255,255,0.16)"/>
        </g>
        <path id="Path-2" data-name="Path" d="M62.51,19.26a83,83,0,0,1-18.39,2C23.66,21.26,6.29,14.47,0,3.88l.75-.22C6.42,2.02,11.02.82,13.91,0h0c.79,5.07,14,9.09,30.2,9.09S73.53,5.09,74.33,0h.16c2.86.82,7.42,2,13.05,3.63l.68.2C85.13,9.07,79.34,13.38,71.8,16.4" transform="translate(96.32 148.79)" fill="#fff" opacity="0.4" style="mix-blend-mode: soft-light;isolation: isolate"/>
        <path id="Combined_Shape" data-name="Combined Shape" d="M0,229.329s.008-.021.021-.05c.7-1.585,4.433-9.959,9.161-19.164,3.034-5.907,5.878-11,8.455-15.123,3.22-5.16,6.027-8.824,8.344-10.893a99.035,99.035,0,0,1,12.574-9.436,147.063,147.063,0,0,1,15.738-8.659c11.6-5.541,25.163-10.538,41.468-15.276l.73-.21c3.5-1.017,6.56-1.856,9.35-2.61l2.4-.664V114.733A72.3,72.3,0,0,1,96.8,95.31c-.193-.463-.39-.957-.64-1.6q-.206-.536-.41-1.073a18.012,18.012,0,0,1-2.261.143c-.113,0-.229,0-.343,0a15.287,15.287,0,0,1-12.847-7,17.139,17.139,0,0,1-2.55-13.94,11.431,11.431,0,0,1,5.88-7.37,15.65,15.65,0,0,1,1.5-.6,11.873,11.873,0,0,1,3.541-.54q.471,0,.939.037c-.624-9.535-.577-28.038,7.36-40.917a45.168,45.168,0,0,1,21.5-18.463A55.594,55.594,0,0,1,139.421,0c.359,0,.723,0,1.079.01C140.841,0,141.188,0,141.529,0a55.515,55.515,0,0,1,20.911,3.975A45.183,45.183,0,0,1,183.95,22.45c7.921,12.867,7.984,31.314,7.363,40.86q.457-.035.919-.035a12,12,0,0,1,3.128.415,12.951,12.951,0,0,1,1.92.73,11.438,11.438,0,0,1,5.87,7.35,17.2,17.2,0,0,1-2.55,13.95,15.3,15.3,0,0,1-12.892,7.063c-.1,0-.2,0-.3,0a17.939,17.939,0,0,1-2.235-.145l-.414,1.105c-.193.521-.408,1.04-.617,1.544l-.023.057a72.24,72.24,0,0,1-11.39,19.344v32.51l3.02.837c2.47.67,5.44,1.49,8.789,2.45l.72.21a2,2,0,0,1,.207.077c32.1,9.32,54.85,20.224,69.534,33.333,2.95,2.638,9.59,14.8,14.642,24.529,5.451,10.507,10.309,20.6,10.357,20.7H0Zm28.67-42.26c-4.518,4.026-10.177,14.207-14.129,22.04C10.263,217.589,7,225.229,6.97,225.3l266.01.106c-.024-.06-3.035-7.762-7.039-16.24-3.71-7.854-9.082-18.065-13.6-22.1-13.862-12.375-36.329-23.18-66.8-32.125-3.394,4.928-9.075,9.08-16.554,12.085a2,2,0,1,1-1.49-3.711c6.17-2.479,10.93-5.749,13.95-9.56-2.54-.72-4.8-1.34-6.75-1.87l-2.76-.76c-2.346,3.636-9.468,7.083-21.682,8.283-3.046.3-6.317.458-9.768.458-9.331,0-17.34-1.129-23.161-3.263-4.006-1.469-6.83-3.356-8.178-5.429l-2.171.591c-2.07.56-4.57,1.24-7.36,2,6.92,8.71,22.54,14.22,40.9,14.22a80.381,80.381,0,0,0,17.951-1.93,2,2,0,0,1,.89,3.9,84.775,84.775,0,0,1-18.87,2.07c-20.391,0-37.8-6.648-45.011-17.062C65,163.923,42.528,174.72,28.67,187.07Zm111.8-31.21c15.355,0,25.858-3.611,27.9-6.592a1.982,1.982,0,0,0,.337-.8v-29.4a50.429,50.429,0,0,1-7.46,6.018,36.946,36.946,0,0,1-19.76,6.3h-2.11a36.865,36.865,0,0,1-19.7-6.321,50.223,50.223,0,0,1-7.42-5.97L112.24,148.2a2.087,2.087,0,0,1,.07.265c.465,2.989,10.808,7.136,26.743,7.38Q139.754,155.859,140.47,155.859Zm-1.01-28.469h1.95a33.026,33.026,0,0,0,7.9-1.186,35.8,35.8,0,0,0,8.779-3.886q.462-.291.916-.6a45.6,45.6,0,0,0,8.1-6.8c.61-.629,1.258-1.351,2.1-2.34a2.013,2.013,0,0,1,.189-.193A68.31,68.31,0,0,0,180.39,93.81c.205-.488.408-.993.6-1.5l.093-.243c.187-.49.444-1.162.647-1.757l.25-.67c.646-1.79,1.3-3.772,2-6.061a82.886,82.886,0,0,0,2.79-14.62,3.884,3.884,0,0,1,.04-.5c.012-.094.023-.181.03-.273V68.05c0-.014.008-.078.024-.2.042-.326.131-1,.226-2l1.671.05h.212l-1.883-.16v-.11c.569-6.212,1.776-27.533-6.58-41.1C169.475,6.654,151.2,3.984,141.294,3.984c-.261,0-.526,0-.784.005l-.94.01c-9.913,0-28.187,2.669-39.21,20.551-8.242,13.372-7.18,34.3-6.6,40.827a2.024,2.024,0,0,1,.053.462v.269c.1.94.182,1.579.213,1.834.012.09.017.133.017.138a.732.732,0,0,1,0,.14,2.853,2.853,0,0,0,.07.77c.084.78.178,1.555.26,2.21a79.95,79.95,0,0,0,2.55,12.43c.22.72.454,1.453.68,2.16q.121.384.247.768l.144.437c.279.836.567,1.664.85,2.474l.088.252c.321.878.657,1.746,1,2.579.191.485.383.959.571,1.418l0,0,.028.068a68.66,68.66,0,0,0,11.25,18.92c.786.915,1.481,1.668,2,2.22a46.37,46.37,0,0,0,8.1,6.8,32.957,32.957,0,0,0,17.581,5.661ZM187.585,88.83A11.511,11.511,0,0,0,197.25,83.6,13.179,13.179,0,0,0,199.3,72.93a7.443,7.443,0,0,0-3.749-4.83,7.917,7.917,0,0,0-1.291-.49,7.341,7.341,0,0,0-3.27-.157c-.065.6-.115.981-.139,1.128a5.907,5.907,0,0,0-.057.6v.006c0,.067-.009.133-.014.2a86.494,86.494,0,0,1-2.107,12.266,4.34,4.34,0,0,0,3.377-1.876,4.418,4.418,0,0,0,.41-4.53,1,1,0,0,1,1.68-1.09,6.489,6.489,0,0,1-5.65,9.48q-.167.011-.334.011-.154.565-.316,1.129c-.423,1.389-.853,2.731-1.284,4.014C186.9,88.814,187.242,88.83,187.585,88.83ZM88.61,67.309l-.019,0a7.3,7.3,0,0,0-2.221.348,8.424,8.424,0,0,0-1,.4A7.416,7.416,0,0,0,81.6,72.9a13.208,13.208,0,0,0,2,10.679A11.515,11.515,0,0,0,93.258,88.8c.356,0,.716-.017,1.072-.05-.419-1.249-.834-2.558-1.27-4q-.165-.567-.322-1.137-.264.022-.527.017a6.5,6.5,0,0,1-5.7-9.51,1,1,0,0,1,1.68,1.09,4.473,4.473,0,0,0,.41,4.531,4.359,4.359,0,0,0,3.616,1.879A80.234,80.234,0,0,1,90.54,72.75a.239.239,0,0,1,0-.08c-.136-.968-.267-2.038-.4-3.27a3.4,3.4,0,0,0-.043-.444c-.019-.136-.038-.275-.047-.417q0-.033,0-.065c-.031-.155-.06-.39-.092-.7-.014-.107-.029-.226-.044-.364a7.68,7.68,0,0,0-1.241-.1H88.59ZM240.46,191.7a94.646,94.646,0,0,0-11.44-8.64,1,1,0,1,1,1.09-1.68,96.016,96.016,0,0,1,11.68,8.83,1,1,0,1,1-1.33,1.49Z" fill="#372168"/>
      </g>
      <g id="Chin" transform="translate(104 153.5)">
        <rect id="Setup_03_Face_Man_Chin_background" data-name="Setup/#03 Face/Man Chin background" width="70" height="10" fill="none"/>
        <g id="Group_2" data-name="Group 2" transform="translate(27.837 3.702)">
          <path id="Path-3" data-name="Path" d="M12.5,3.989a1,1,0,0,1-.74-.32,7.19,7.19,0,0,0-5-1.67,7.37,7.37,0,0,0-5,1.6A1,1,0,1,1,.344,2.2a10.36,10.36,0,0,1,12.89.1,1,1,0,0,1-.73,1.69Z" transform="translate(0 0)" fill="#372168"/>
        </g>
      </g>
      <g id="Cheeks_color:" data-name="Cheeks color:" transform="translate(102 124.789)">
        <path id="Cheeks_color:-2" data-name="Cheeks color:" d="M54,10A10,10,0,1,1,64,20,10,10,0,0,1,54,10ZM0,10A10,10,0,1,1,10,20,10,10,0,0,1,0,10Z" fill="#ff1300" opacity="0.15" style="mix-blend-mode: multiply;isolation: isolate"/>
      </g>
      <g id="Accessories_03" data-name="Accessories#03" transform="translate(113.38 201.12)">
        <g id="tie" transform="translate(-0.38 -0.62)">
          <g id="Path-4" data-name="Path">
            <path id="Path-5" data-name="Path" d="M28.76,17.81A125.07,125.07,0,0,1,0,38.68l.56-3.33L6.46,0h.35a12.64,12.64,0,0,0,8.24,3h2.33a12.63,12.63,0,0,0,8.18-3Z" transform="translate(9.42 25.21)" fill="#9284ff"/>
            <path id="Path-6" data-name="Path" d="M28.76,17.81A125.07,125.07,0,0,1,0,38.68l.56-3.33L6.46,0h.35a12.64,12.64,0,0,0,8.24,3h2.33a12.63,12.63,0,0,0,8.18-3Z" transform="translate(9.42 25.21)" fill="rgba(255,255,255,0.16)"/>
          </g>
          <path id="Shape" d="M2,42.691H2a2,2,0,0,1-1.973-2.34L6.489,1.68A1.992,1.992,0,0,1,8.463,0h.376a2,2,0,0,1,1.3.49,10.721,10.721,0,0,0,6.925,2.54h2.361A10.714,10.714,0,0,0,26.3.53,2,2,0,0,1,29.56,1.7l3.2,17.761a2,2,0,0,1-.57,1.789A127.7,127.7,0,0,1,2.949,42.46a2.005,2.005,0,0,1-.92.23ZM9.98,5.21h0L10,5.222l.024.013L4.73,36.96a124.821,124.821,0,0,0,24-17.84L26.259,5.4a14.863,14.863,0,0,1-6.75,1.63H17.078a14.8,14.8,0,0,1-7.053-1.795l0-.025Z" transform="translate(7.391 23.2)" fill="#372168"/>
          <g id="Path-7" data-name="Path">
            <path id="Path-8" data-name="Path" d="M44.52,49.34,25.02,69.85a3.77,3.77,0,0,1-5.47,0L0,49.31S20.35,32.56,37.62,0l8.14,45.19A4.8,4.8,0,0,1,44.52,49.34Z" transform="translate(3.69 60.45)" fill="#f66"/>
            <path id="Path-9" data-name="Path" d="M44.52,49.34,25.02,69.85a3.77,3.77,0,0,1-5.47,0L0,49.31S20.35,32.56,37.62,0l8.14,45.19A4.8,4.8,0,0,1,44.52,49.34Z" transform="translate(3.69 60.45)" fill="rgba(255,255,255,0.16)"/>
          </g>
          <path id="Shape-2" data-name="Shape" d="M24.268,75.03a5.742,5.742,0,0,1-4.164-1.8L.554,52.691a1.99,1.99,0,0,1,.18-2.92A119.818,119.818,0,0,0,13.046,37.278,193.678,193.678,0,0,0,37.853,1.07a2,2,0,0,1,3.74.58l8.14,45.19a6.854,6.854,0,0,1-1.759,5.88l-19.5,20.51a5.738,5.738,0,0,1-4.163,1.8h-.042ZM38.653,7.9A196.165,196.165,0,0,1,18.374,37.258,142.993,142.993,0,0,1,4.883,51.45h.01L23,70.45a1.81,1.81,0,0,0,2.57,0l19.5-20.51a2.813,2.813,0,0,0,.72-2.42Z" transform="translate(1.696 58.44)" fill="#372168"/>
          <g id="Path-10" data-name="Path">
            <path id="Path-11" data-name="Path" d="M31.047,9.11l-1.9,7.06a12.81,12.81,0,0,1-12.33,9.42h-2.33a12.64,12.64,0,0,1-8.24-3,11.93,11.93,0,0,1-2.24-2.47,12.45,12.45,0,0,1-1.85-3.93L.257,9.13a7.22,7.22,0,0,1,7-9.13h16.85a7.21,7.21,0,0,1,7,5.33,7,7,0,0,1-.06,3.78Z" transform="translate(9.943 2.64)" fill="#9284ff"/>
            <path id="Path-12" data-name="Path" d="M31.047,9.11l-1.9,7.06a12.81,12.81,0,0,1-12.33,9.42h-2.33a12.64,12.64,0,0,1-8.24-3,11.93,11.93,0,0,1-2.24-2.47,12.45,12.45,0,0,1-1.85-3.93L.257,9.13a7.22,7.22,0,0,1,7-9.13h16.85a7.21,7.21,0,0,1,7,5.33,7,7,0,0,1-.06,3.78Z" transform="translate(9.943 2.64)" fill="rgba(255,255,255,0.16)"/>
          </g>
          <path id="Shape-3" data-name="Shape" d="M16.467,29.61A14.669,14.669,0,0,1,6.95,26.1a13.856,13.856,0,0,1-2.6-2.87,14.181,14.181,0,0,1-2.12-4.52l-1.9-7.07A9.2,9.2,0,0,1,9.2,0H26.079a9.23,9.23,0,0,1,8.9,6.81,9,9,0,0,1,0,4.84l-1.9,7.06a14.432,14.432,0,0,1-4.81,7.47,14.737,14.737,0,0,1-9.442,3.43h-2.36ZM9.209,4A5.238,5.238,0,0,0,5.06,6.06a5.162,5.162,0,0,0-.87,4.531l1.9,7.079a10.57,10.57,0,0,0,1.55,3.29,9.911,9.911,0,0,0,1.89,2.09,10.725,10.725,0,0,0,6.952,2.561H18.86a10.843,10.843,0,0,0,10.4-7.941l1.9-7.06a4.929,4.929,0,0,0,0-2.72,5.248,5.248,0,0,0-5-3.87L9.23,4Z" transform="translate(7.98 0.62)" fill="#372168"/>
          <path id="Path-13" data-name="Path" d="M38.935,17.43C21.665,49.99,1.315,66.74,1.315,66.74a4.8,4.8,0,0,1-1.25-4.09l7-41.78A125.07,125.07,0,0,0,35.825,0Z" transform="translate(2.375 43.02)" fill="#ffcb6d"/>
          <path id="Shape-4" data-name="Shape" d="M3.323,70.753H3.311a2.013,2.013,0,0,1-1.45-.63,6.87,6.87,0,0,1-1.769-5.8l7-41.77a2.01,2.01,0,0,1,1.05-1.45A122.98,122.98,0,0,0,36.421.572a2,2,0,0,1,3.371,1.08l3.13,17.429a2.011,2.011,0,0,1-.2,1.291A203.1,203.1,0,0,1,29.6,41.8,186.788,186.788,0,0,1,17.5,57.276,121.292,121.292,0,0,1,4.6,70.292,2.009,2.009,0,0,1,3.323,70.753ZM36.521,6a128.06,128.06,0,0,1-25.67,18.18L4.031,64.993a3.727,3.727,0,0,0,0,.47c4.643-4.275,20.883-20.25,34.851-46.35L36.521,6Z" transform="translate(0.379 41.008)" fill="#372168"/>
          <path id="Path-14" data-name="Path" d="M6.226,7.277a1.45,1.45,0,0,1-.29,0A8.6,8.6,0,0,1,2.8,5.567a8.06,8.06,0,0,1-1.52-1.68,8.56,8.56,0,0,1-1.25-2.66,1,1,0,0,1,1.93-.52,6.48,6.48,0,0,0,1,2,6.29,6.29,0,0,0,1.17,1.3,6.63,6.63,0,0,0,2.42,1.31,1.01,1.01,0,0,1-.28,2Z" transform="translate(16.204 16.863)" fill="#372168"/>
          <path id="Path-15" data-name="Path" d="M.993,7.625a1,1,0,0,1-.63-1.77A81.66,81.66,0,0,0,6.5.245a1,1,0,0,1,1.42,1.4A79.67,79.67,0,0,1,1.633,7.4,1,1,0,0,1,.993,7.625Z" transform="translate(20.847 99.675)" fill="#372168"/>
          <path id="Path-16" data-name="Path" d="M1,22.2a1,1,0,0,1-.76-1.65C9.24,10.106,12.4.776,12.43.686a1,1,0,0,1,1.9.63c-.13.4-3.34,9.78-12.57,20.53A1,1,0,0,1,1,22.2Z" transform="translate(30.8 75.384)" fill="#372168"/>
          <path id="Path-17" data-name="Path" d="M3.136,5.236a1,1,0,0,1-1-.74,5.22,5.22,0,0,0-.78-1.67,5.09,5.09,0,0,0-1-1.06A1,1,0,0,1,1.646.236a7.59,7.59,0,0,1,2.38,3.73,1,1,0,0,1-.7,1.23A1.27,1.27,0,0,1,3.136,5.236Z" transform="translate(32.664 6.374)" fill="#372168"/>
        </g>
      </g>
      <g id="Hairstyle" transform="translate(46 19.5)">
        <g id="_14_hairdo" transform="translate(27.444 6.432)">
          <g id="Hair_color:" data-name="Hair color:" transform="translate(2.098 1.963)">
            <path id="Hair_color:-2" data-name="Hair color:" d="M9,99.795s5.56-4.51-3.64-21.33C-7.472,55.055,6.768,38,6.768,38c1.911-3.31,1.89-4.21,2.95-7.89,3-10.51,9.941-15.06,14.6-17a19.875,19.875,0,0,0,6.85-4.55c3.87-4.081,9.61-5.071,13.58-5.22a35.452,35.452,0,0,0,9-1.6c6.521-2,19.58-4,35.26,4.63,9.16,5,12.4,12.26,13,19.08V25.5c1.54.4,22.324,6.253,24.24,34.178.38,6.03-1.53,18.81-4.451,29.52a7.992,7.992,0,0,0-2.36-1.721,9.77,9.77,0,0,0-7.32-.439c3.217-26.829-15.47-44.008-16.075-44.557a19.412,19.412,0,0,1-9.765,4.887c-23,4.18-48.67-.44-48.67-.44a18.283,18.283,0,0,1-2.06-.55,40.244,40.244,0,0,0-4.43,10.18.723.723,0,0,0,0,.14c-1.55,5.3-2.76,13.48-2.71,26.1,0,12.437-8.356,17.309-16.07,17.309A18.119,18.119,0,0,1,9,99.795Z" fill="#e98a9b"/>
            <path id="Hair_color:-3" data-name="Hair color:" d="M9,99.795s5.56-4.51-3.64-21.33C-7.472,55.055,6.768,38,6.768,38c1.911-3.31,1.89-4.21,2.95-7.89,3-10.51,9.941-15.06,14.6-17a19.875,19.875,0,0,0,6.85-4.55c3.87-4.081,9.61-5.071,13.58-5.22a35.452,35.452,0,0,0,9-1.6c6.521-2,19.58-4,35.26,4.63,9.16,5,12.4,12.26,13,19.08V25.5c1.54.4,22.324,6.253,24.24,34.178.38,6.03-1.53,18.81-4.451,29.52a7.992,7.992,0,0,0-2.36-1.721,9.77,9.77,0,0,0-7.32-.439c3.217-26.829-15.47-44.008-16.075-44.557a19.412,19.412,0,0,1-9.765,4.887c-23,4.18-48.67-.44-48.67-.44a18.283,18.283,0,0,1-2.06-.55,40.244,40.244,0,0,0-4.43,10.18.723.723,0,0,0,0,.14c-1.55,5.3-2.76,13.48-2.71,26.1,0,12.437-8.356,17.309-16.07,17.309A18.119,18.119,0,0,1,9,99.795Z" fill="rgba(255,255,255,0.09)"/>
          </g>
          <path id="Combined_Shape-2" data-name="Combined Shape" d="M14.61,104.081l-.314,0a20.942,20.942,0,0,1-3.679-.33,1.989,1.989,0,0,1-1.67-1.51,1.877,1.877,0,0,1,.78-2c.01-.01.968-1.071.934-3.916-.031-2.623-.937-7.336-5.074-14.9-6.944-12.669-6.16-23.579-4.28-30.5A34.924,34.924,0,0,1,7.1,38.858a17.588,17.588,0,0,0,2.13-5.32c.055-.2.111-.405.169-.621.111-.409.236-.871.381-1.379A28.666,28.666,0,0,1,16.79,19.127a26.645,26.645,0,0,1,8.746-5.879,17.608,17.608,0,0,0,6.17-4.09c4.281-4.512,10.52-5.661,15-5.83a34.061,34.061,0,0,0,8.449-1.51A42.5,42.5,0,0,1,67.569,0a50.383,50.383,0,0,1,24.4,6.609c8.054,4.425,12.721,10.892,13.888,19.238a35.041,35.041,0,0,1,10.893,6.311,36.326,36.326,0,0,1,8.738,10.948,46.091,46.091,0,0,1,4.881,18.322c.438,6.243-1.483,19.227-4.469,30.2a2.381,2.381,0,0,1-2,1.53h0a2.006,2.006,0,0,1-1.457-.63,5.909,5.909,0,0,0-1.769-1.29,7.777,7.777,0,0,0-5.86-.33,2,2,0,0,1-2.58-2.15,50.69,50.69,0,0,0-6.484-31.08,54.711,54.711,0,0,0-7.716-10.526,21.27,21.27,0,0,1-9.321,4.155A123.776,123.776,0,0,1,66.823,53.1a171.251,171.251,0,0,1-27.5-2.234h-.121a2.261,2.261,0,0,1-.511-.107c-.06-.017-.123-.035-.189-.052a41.009,41.009,0,0,0-3.44,8.4v.06a.24.24,0,0,0,0,.08c-1.8,6.127-2.68,14.716-2.63,25.529,0,8.261-3.415,12.853-6.28,15.25a18.528,18.528,0,0,1-11.543,4.053ZM31.227,32.069a1,1,0,0,1-.24,1.4c-.19.131-18.77,13.52-13.52,33.27,3.8,14.279,3.45,26.85-.921,32.8q-.152.232-.32.45a14.385,14.385,0,0,0,7.33-3.07c3.176-2.656,4.85-6.861,4.84-12.16-.05-11.179.883-20.129,2.77-26.6a1.563,1.563,0,0,1,.08-.29,41.864,41.864,0,0,1,4.639-10.62q.024-.037.049-.073c3.5-5.432,7.925-8.4,12.791-8.577,3.962-.156,10.1,1.564,17.041,10.446.4,0,.8,0,1.2,0a118.827,118.827,0,0,0,21.02-1.711,17.258,17.258,0,0,0,8.7-4.322q.05-.051.1-.1.248-.228.485-.465a16.32,16.32,0,0,0,4.745-10.505,26.631,26.631,0,0,0,0-3.79v-.58c-.691-7.61-4.729-13.495-12-17.491A46.489,46.489,0,0,0,67.535,3.977h0c-1.383,0-2.688.072-3.9.191a46.352,46.352,0,0,1,29.116,16.08,1,1,0,1,1-1.52,1.3C79.918,8.2,65.332,5.692,56.416,5.588l-.1.031a37.485,37.485,0,0,1-9.47,1.689c-5.443.205-9.551,1.75-12.21,4.59q-.393.4-.8.779C45.676,11.117,68.356,10.732,82.9,26.9a1,1,0,1,1-1.48,1.33C65.792,10.864,40.176,13.461,30.462,15.221A21.749,21.749,0,0,1,27.087,16.9c-4.638,1.932-10.733,6.225-13.431,15.7-.153.517-.28.986-.391,1.405,4.476-5.508,9.632-10.071,15.16-11.7a1,1,0,1,1,.561,1.92c-6.969,2.043-14.445,9.627-21.738,22.031a33.35,33.35,0,0,0-2.223,6.116c-2.237,8.731-.819,18.093,4.1,27.073,5.39,10.005,5.954,16.093,5.277,19.614a5.241,5.241,0,0,0,.533-.7c3-4.1,5-14.7.6-31.11-5.61-21.11,14.1-35.28,14.3-35.42a1,1,0,0,1,1.391.24Zm91.18,55.56.31.16c2.472-9.984,3.987-20.919,3.6-26-1.471-21.393-14.63-29.155-20.219-31.5v.033a17.107,17.107,0,0,1-.081,1.967,20.374,20.374,0,0,1-.623,3.822l-.009.036-.017.062a20.256,20.256,0,0,1-.689,2.108c2.369,1.746,6.876,5.483,9.548,10.332a1,1,0,1,1-1.751.959,32.568,32.568,0,0,0-8.638-9.419q-.077.151-.157.3a20.347,20.347,0,0,1-2.724,3.928,58.2,58.2,0,0,1,10.012,14.433,53.56,53.56,0,0,1,5.5,27.687l.94-.05a11.482,11.482,0,0,1,1.525.1c2.8-18.045-2.687-28.717-2.745-28.823a1,1,0,0,1,1.769-.94c.242.474,5.9,11.39,2.927,30.2A11.509,11.509,0,0,1,122.407,87.629ZM60.5,48.919c-3.975-4.331-7.938-6.543-11.594-6.371-3.389.159-6.021,2.218-7.936,4.5A171.968,171.968,0,0,0,60.5,48.919Zm28.627-8.541a48.223,48.223,0,0,0-3.85-7.19,1,1,0,1,1,1.67-1.09,49.314,49.314,0,0,1,4,7.48,1,1,0,0,1-.52,1.32,1.165,1.165,0,0,1-.38.08A1,1,0,0,1,89.126,40.379Zm-20.55-1.65c-.571-.671-14.18-16.37-31.92-8.18a1,1,0,1,1-.84-1.821c19.139-8.82,34.13,8.53,34.279,8.71a1,1,0,1,1-1.519,1.291Z" fill="#372168"/>
        </g>
      </g>
      <g id="Emotions" transform="translate(104 99)">
        <rect id="Setup_01_Emotions_bored_background" data-name="Setup/#01 Emotions/bored background" width="70" height="56" fill="none"/>
        <g id="Face">
          <g id="Mouth" transform="translate(0 36)">
            <rect id="Setup_03_Face_Mouth_Man_Mouth_background" data-name="Setup/#03 Face/Mouth/Man Mouth background" width="70" height="20" fill="none"/>
            <path id="Path-18" data-name="Path" d="M1.75,11.97a1.75,1.75,0,0,1,0-3.5,2.47,2.47,0,0,0,0-4.94,1.75,1.75,0,1,1,0-3.5,6,6,0,1,1,0,11.94Z" transform="translate(40 3)" fill="#372168"/>
          </g>
          <g id="Nose" transform="translate(0 25)">
            <rect id="Setup_03_Face_Nose_background" data-name="Setup/#03 Face/Nose background" width="70" height="8" fill="none"/>
            <g id="_Nose" data-name="ðŸ‘ƒNose" transform="translate(29.222 2.152)">
              <path id="Path-19" data-name="Path" d="M5.75,5.635A6.52,6.52,0,0,1,.28,2.795,1.75,1.75,0,0,1,3.22.895,3.18,3.18,0,0,0,5.773,2.136,3.18,3.18,0,0,0,8.3.845a1.754,1.754,0,0,1,3,1.82,6.46,6.46,0,0,1-5.55,2.97Z" transform="translate(0 0)" fill="#372168"/>
            </g>
          </g>
          <g id="Eyes" transform="translate(0 12)">
            <rect id="Setup_03_Face_Eyes_eyes-8_background" data-name="Setup/#03 Face/Eyes/eyes-8 background" width="70" height="10" fill="none"/>
            <g id="silly_eyes" transform="translate(11.498 1.85)">
              <path id="Path-20" data-name="Path" d="M3.338,6.9c4.44,0,4.45-6.9,0-6.9S-1.112,6.9,3.338,6.9Z" transform="translate(0)" fill="#372168"/>
              <path id="Path-21" data-name="Path" d="M3.334,6.9c4.43,0,4.44-6.9,0-6.9S-1.116,6.9,3.334,6.9Z" transform="translate(40.974)" fill="#372168"/>
            </g>
          </g>
          <g id="Eyebrows">
            <rect id="Setup_03_Face_Eyebrow_bored_eyebrows_background" data-name="Setup/#03 Face/Eyebrow/bored_eyebrows background" width="70" height="12" fill="none"/>
            <g id="bored_eyebrows" transform="translate(3.548 3.262)">
              <path id="Path-22" data-name="Path" d="M2.092,5.538a2,2,0,0,1-.18-4l17-1.53a2.008,2.008,0,1,1,.36,4l-17,1.53Z" fill="#372168"/>
              <path id="Path-23" data-name="Path" d="M2.092,5.538a2,2,0,0,1-.18-4l17-1.53a2.008,2.008,0,0,1,.36,4l-17,1.53Z" transform="translate(41.54 0)" fill="#372168"/>
            </g>
          </g>
        </g>
      </g>
    </g>
  </g>
  <path id="Oval" d="M140,280a141.037,141.037,0,0,1-28.215-2.844A139.234,139.234,0,0,1,61.725,256.09,140.408,140.408,0,0,1,11,194.495a139.3,139.3,0,0,1-8.158-26.279,141.364,141.364,0,0,1,0-56.43A139.232,139.232,0,0,1,23.91,61.725,140.41,140.41,0,0,1,85.506,11a139.3,139.3,0,0,1,26.279-8.158,141.364,141.364,0,0,1,56.43,0,139.23,139.23,0,0,1,50.06,21.066A140.409,140.409,0,0,1,269,85.506a139.3,139.3,0,0,1,8.158,26.279,141.367,141.367,0,0,1,0,56.43,139.232,139.232,0,0,1-21.065,50.06A140.408,140.408,0,0,1,194.495,269a139.3,139.3,0,0,1-26.279,8.158A141.037,141.037,0,0,1,140,280ZM140,4C65.009,4,4,65.009,4,140s61.01,136,136,136,136-61.009,136-136S214.991,4,140,4Z" fill="#372168"/>
</svg>
