<svg id="å¤´åƒ9" xmlns="http://www.w3.org/2000/svg" xmlns:xlink="http://www.w3.org/1999/xlink" width="280" height="280" viewBox="0 0 280 280">
  <defs>
    <clipPath id="clip-path">
      <path d="M0,138A138,138,0,1,1,138,276,138,138,0,0,1,0,138Z" fill="none"/>
    </clipPath>
  </defs>
  <g id="Man" transform="translate(2 2)">
    <g id="Background">
      <circle id="Background-2" data-name="Background" cx="138" cy="138" r="138" fill="#bec5d8"/>
      <circle id="Background-3" data-name="Background" cx="138" cy="138" r="138" fill="rgba(255,255,255,0.16)"/>
    </g>
    <g id="Man-2" data-name="Man" transform="translate(0)" clip-path="url(#clip-path)">
      <g id="Body" transform="translate(-2 48.67)">
        <path id="Skin_color:" data-name="Skin color:" d="M31.138,146.778v-34.7l-.05-.058a70.8,70.8,0,0,1-11.58-19.45c-.21-.51-.419-1-.62-1.55-.329-.86-.67-1.75-1-2.631-.46-1.309-.92-2.64-1.35-4l-.689-2.19a80.884,80.884,0,0,1-2.6-12.75c-.09-.73-.18-1.48-.26-2.24,0-.28-.06-.56-.08-.84,0,0-.12-.841-.26-2.29a2.3,2.3,0,0,1,0-.249c-.66-7.28-1.68-28.451,6.87-42.331C29.888,4.688,46.908-.222,61.308.008c14.39-.23,31.41,4.68,41.78,21.49,8.486,13.84,7.5,34.929,6.836,42.268a9.675,9.675,0,0,1,7.255.462c5.3,2.52,7.539,10.85,2.579,18.41-3.781,5.771-10.157,6.819-15.029,5.716l-.011.033c-.33.88-.66,1.77-1,2.631-.2.53-.41,1-.62,1.55a70.421,70.421,0,0,1-11.49,19.32l-.049.059v34.831c-.79,5.071-14,9.09-30.21,9.09S31.927,151.868,31.138,146.778Zm58.3-32.47a47.7,47.7,0,0,1-8.46,7.1,34.921,34.921,0,0,1-8.6,4.237,34.932,34.932,0,0,0,8.629-4.247,47.728,47.728,0,0,0,8.46-7.1l.193-.224ZM2.788,82.678c-5-7.6-2.731-15.93,2.509-18.41a10.391,10.391,0,0,1,1.281-.509,9.9,9.9,0,0,1,6,.07,2.49,2.49,0,0,0,0,.259,1.967,1.967,0,0,0,.05.551c.11,1.11.21,1.74.21,1.74a7.958,7.958,0,0,0,.08.84c.12,1.111.25,2.2.4,3.271a79.483,79.483,0,0,0,2.46,11.7q1.019,3.19,2.1,6.189a15.827,15.827,0,0,1-3.556.405A13.376,13.376,0,0,1,2.788,82.678Z" transform="translate(79.172 1.992)" fill="#ffc7bb"/>
        <path id="Path" d="M56.55,0V27.79C29.55,28.25,9.43,15.22,0,7.54V.1L.11.22A47.67,47.67,0,0,0,8.57,7.31a34.9,34.9,0,0,0,18.68,6H29.2a34.9,34.9,0,0,0,18.69-6A48.15,48.15,0,0,0,56.36.21Z" transform="translate(112.21 116.09)" fill="#7c3830" opacity="0.15" style="mix-blend-mode: multiply;isolation: isolate"/>
        <g id="Top_color:" data-name="Top color:" transform="translate(0 148.68)">
          <path id="Top_color:-2" data-name="Top color:" d="M0,80.65S17.705,45.4,27.33,36.82c19.14-17.08,49.85-27.4,69-32.94l.75-.22C102.75,2.02,107.35.82,110.24,0c.79,5.07,14,9.09,30.2,9.09s29.42-4,30.22-9.09h.16c2.86.82,7.42,2,13.05,3.63l.68.2c19.11,5.53,49.87,15.86,69.06,33C263.089,45.319,280,80.65,280,80.65Z" fill="#e98a9b"/>
          <path id="Top_color:-3" data-name="Top color:" d="M0,80.65S17.705,45.4,27.33,36.82c19.14-17.08,49.85-27.4,69-32.94l.75-.22C102.75,2.02,107.35.82,110.24,0c.79,5.07,14,9.09,30.2,9.09s29.42-4,30.22-9.09h.16c2.86.82,7.42,2,13.05,3.63l.68.2c19.11,5.53,49.87,15.86,69.06,33C263.089,45.319,280,80.65,280,80.65Z" fill="rgba(0,0,0,0.1)"/>
        </g>
        <path id="Path-2" data-name="Path" d="M62.51,19.26a83,83,0,0,1-18.39,2C23.66,21.26,6.29,14.47,0,3.88l.75-.22C6.42,2.02,11.02.82,13.91,0h0c.79,5.07,14,9.09,30.2,9.09S73.53,5.09,74.33,0h.16c2.86.82,7.42,2,13.05,3.63l.68.2C85.13,9.07,79.34,13.38,71.8,16.4" transform="translate(96.32 148.79)" fill="#fff" opacity="0.4" style="mix-blend-mode: soft-light;isolation: isolate"/>
        <path id="Combined_Shape" data-name="Combined Shape" d="M0,229.329s.008-.021.021-.05c.7-1.585,4.433-9.959,9.161-19.164,3.034-5.907,5.878-11,8.455-15.123,3.22-5.16,6.027-8.824,8.344-10.893a99.035,99.035,0,0,1,12.574-9.436,147.063,147.063,0,0,1,15.738-8.659c11.6-5.541,25.163-10.538,41.468-15.276l.73-.21c3.5-1.017,6.56-1.856,9.35-2.61l2.4-.664V114.733A72.3,72.3,0,0,1,96.8,95.31c-.193-.463-.39-.957-.64-1.6q-.206-.536-.41-1.073a18.012,18.012,0,0,1-2.261.143c-.113,0-.229,0-.343,0a15.287,15.287,0,0,1-12.847-7,17.139,17.139,0,0,1-2.55-13.94,11.431,11.431,0,0,1,5.88-7.37,15.65,15.65,0,0,1,1.5-.6,11.873,11.873,0,0,1,3.541-.54q.471,0,.939.037c-.624-9.535-.577-28.038,7.36-40.917a45.168,45.168,0,0,1,21.5-18.463A55.594,55.594,0,0,1,139.421,0c.359,0,.723,0,1.079.01C140.841,0,141.188,0,141.529,0a55.515,55.515,0,0,1,20.911,3.975A45.183,45.183,0,0,1,183.95,22.45c7.921,12.867,7.984,31.314,7.363,40.86q.457-.035.919-.035a12,12,0,0,1,3.128.415,12.951,12.951,0,0,1,1.92.73,11.438,11.438,0,0,1,5.87,7.35,17.2,17.2,0,0,1-2.55,13.95,15.3,15.3,0,0,1-12.892,7.063c-.1,0-.2,0-.3,0a17.939,17.939,0,0,1-2.235-.145l-.414,1.105c-.193.521-.408,1.04-.617,1.544l-.023.057a72.24,72.24,0,0,1-11.39,19.344v32.51l3.02.837c2.47.67,5.44,1.49,8.789,2.45l.72.21a2,2,0,0,1,.207.077c32.1,9.32,54.85,20.224,69.534,33.333,2.95,2.638,9.59,14.8,14.642,24.529,5.451,10.507,10.309,20.6,10.357,20.7H0Zm28.67-42.26c-4.518,4.026-10.177,14.207-14.129,22.04C10.263,217.589,7,225.229,6.97,225.3l266.01.106c-.024-.06-3.035-7.762-7.039-16.24-3.71-7.854-9.082-18.065-13.6-22.1-13.862-12.375-36.329-23.18-66.8-32.125-3.394,4.928-9.075,9.08-16.554,12.085a2,2,0,1,1-1.49-3.711c6.17-2.479,10.93-5.749,13.95-9.56-2.54-.72-4.8-1.34-6.75-1.87l-2.76-.76c-2.346,3.636-9.468,7.083-21.682,8.283-3.046.3-6.317.458-9.768.458-9.331,0-17.34-1.129-23.161-3.263-4.006-1.469-6.83-3.356-8.178-5.429l-2.171.591c-2.07.56-4.57,1.24-7.36,2,6.92,8.71,22.54,14.22,40.9,14.22a80.381,80.381,0,0,0,17.951-1.93,2,2,0,0,1,.89,3.9,84.775,84.775,0,0,1-18.87,2.07c-20.391,0-37.8-6.648-45.011-17.062C65,163.923,42.528,174.72,28.67,187.07Zm111.8-31.21c15.355,0,25.858-3.611,27.9-6.592a1.982,1.982,0,0,0,.337-.8v-29.4a50.429,50.429,0,0,1-7.46,6.018,36.946,36.946,0,0,1-19.76,6.3h-2.11a36.865,36.865,0,0,1-19.7-6.321,50.223,50.223,0,0,1-7.42-5.97L112.24,148.2a2.087,2.087,0,0,1,.07.265c.465,2.989,10.808,7.136,26.743,7.38Q139.754,155.859,140.47,155.859Zm-1.01-28.469h1.95a33.026,33.026,0,0,0,7.9-1.186,35.8,35.8,0,0,0,8.779-3.886q.462-.291.916-.6a45.6,45.6,0,0,0,8.1-6.8c.61-.629,1.258-1.351,2.1-2.34a2.013,2.013,0,0,1,.189-.193A68.31,68.31,0,0,0,180.39,93.81c.205-.488.408-.993.6-1.5l.093-.243c.187-.49.444-1.162.647-1.757l.25-.67c.646-1.79,1.3-3.772,2-6.061a82.886,82.886,0,0,0,2.79-14.62,3.884,3.884,0,0,1,.04-.5c.012-.094.023-.181.03-.273V68.05c0-.014.008-.078.024-.2.042-.326.131-1,.226-2l1.671.05h.212l-1.883-.16v-.11c.569-6.212,1.776-27.533-6.58-41.1C169.475,6.654,151.2,3.984,141.294,3.984c-.261,0-.526,0-.784.005l-.94.01c-9.913,0-28.187,2.669-39.21,20.551-8.242,13.372-7.18,34.3-6.6,40.827a2.024,2.024,0,0,1,.053.462v.269c.1.94.182,1.579.213,1.834.012.09.017.133.017.138a.732.732,0,0,1,0,.14,2.853,2.853,0,0,0,.07.77c.084.78.178,1.555.26,2.21a79.95,79.95,0,0,0,2.55,12.43c.22.72.454,1.453.68,2.16q.121.384.247.768l.144.437c.279.836.567,1.664.85,2.474l.088.252c.321.878.657,1.746,1,2.579.191.485.383.959.571,1.418l0,0,.028.068a68.66,68.66,0,0,0,11.25,18.92c.786.915,1.481,1.668,2,2.22a46.37,46.37,0,0,0,8.1,6.8,32.957,32.957,0,0,0,17.581,5.661ZM187.585,88.83A11.511,11.511,0,0,0,197.25,83.6,13.179,13.179,0,0,0,199.3,72.93a7.443,7.443,0,0,0-3.749-4.83,7.917,7.917,0,0,0-1.291-.49,7.341,7.341,0,0,0-3.27-.157c-.065.6-.115.981-.139,1.128a5.907,5.907,0,0,0-.057.6v.006c0,.067-.009.133-.014.2a86.494,86.494,0,0,1-2.107,12.266,4.34,4.34,0,0,0,3.377-1.876,4.418,4.418,0,0,0,.41-4.53,1,1,0,0,1,1.68-1.09,6.489,6.489,0,0,1-5.65,9.48q-.167.011-.334.011-.154.565-.316,1.129c-.423,1.389-.853,2.731-1.284,4.014C186.9,88.814,187.242,88.83,187.585,88.83ZM88.61,67.309l-.019,0a7.3,7.3,0,0,0-2.221.348,8.424,8.424,0,0,0-1,.4A7.416,7.416,0,0,0,81.6,72.9a13.208,13.208,0,0,0,2,10.679A11.515,11.515,0,0,0,93.258,88.8c.356,0,.716-.017,1.072-.05-.419-1.249-.834-2.558-1.27-4q-.165-.567-.322-1.137-.264.022-.527.017a6.5,6.5,0,0,1-5.7-9.51,1,1,0,0,1,1.68,1.09,4.473,4.473,0,0,0,.41,4.531,4.359,4.359,0,0,0,3.616,1.879A80.234,80.234,0,0,1,90.54,72.75a.239.239,0,0,1,0-.08c-.136-.968-.267-2.038-.4-3.27a3.4,3.4,0,0,0-.043-.444c-.019-.136-.038-.275-.047-.417q0-.033,0-.065c-.031-.155-.06-.39-.092-.7-.014-.107-.029-.226-.044-.364a7.68,7.68,0,0,0-1.241-.1H88.59ZM240.46,191.7a94.646,94.646,0,0,0-11.44-8.64,1,1,0,1,1,1.09-1.68,96.016,96.016,0,0,1,11.68,8.83,1,1,0,1,1-1.33,1.49Z" fill="#372168"/>
      </g>
      <g id="Chin" transform="translate(104 153.5)">
        <rect id="Setup_03_Face_Man_Chin_background" data-name="Setup/#03 Face/Man Chin background" width="70" height="10" fill="none"/>
        <g id="Group_2" data-name="Group 2" transform="translate(27.837 3.702)">
          <path id="Path-3" data-name="Path" d="M12.5,3.989a1,1,0,0,1-.74-.32,7.19,7.19,0,0,0-5-1.67,7.37,7.37,0,0,0-5,1.6A1,1,0,1,1,.344,2.2a10.36,10.36,0,0,1,12.89.1,1,1,0,0,1-.73,1.69Z" transform="translate(0 0)" fill="#372168"/>
        </g>
      </g>
      <g id="Cheeks_color:" data-name="Cheeks color:" transform="translate(102 124.789)">
        <path id="Cheeks_color:-2" data-name="Cheeks color:" d="M54,10A10,10,0,1,1,64,20,10,10,0,0,1,54,10ZM0,10A10,10,0,1,1,10,20,10,10,0,0,1,0,10Z" fill="#ff1300" opacity="0.15" style="mix-blend-mode: multiply;isolation: isolate"/>
      </g>
      <g id="Hairstyle" transform="translate(46 19.5)">
        <g id="_1_hairdo" transform="translate(33.156 5.104)">
          <g id="Hair_color:" data-name="Hair color:" transform="translate(2.19 1.944)">
            <path id="Hair_color:-2" data-name="Hair color:" d="M116.535,61.14c0,8.82-3.16,19.7-4.51,25.21a10,10,0,0,0-5.73.16l-2-14.48a34.81,34.81,0,0,0-22.63-28c-1-.34-1.53-.5-1.53-.5-8-1.84-20.38,12.89-36.74,12.25-9.21-.35-18.68-7.35-18.68-7.35-.4.4-.79.8-1.16,1.2a51.84,51.84,0,0,0-13.53,29.16l-1,7.68a9.91,9.91,0,0,0-6-.07c-1.15-7.05-4.29-13.56-2.47-29,1-8.64,6.46-15.86,10.06-19.38a4.65,4.65,0,0,0,.92-5.22c-7.8-17.54,9.22-28.52,9.22-28.52,1.83,4.9,4.89,6,4.89,6C26.215,1.6,34.835,0,34.835,0s3.37,8.27,14.39,10.28a19.83,19.83,0,0,0,9.13-.69,29,29,0,0,1,17.61,0c10.08,3.39,13.87,9.45,15.21,12.64a6,6,0,0,0,3.07,3.11C110.665,33,116.535,46.56,116.535,61.14Z" transform="translate(0)" fill="#92645c"/>
            <path id="Hair_color:-3" data-name="Hair color:" d="M116.535,61.14c0,8.82-3.16,19.7-4.51,25.21a10,10,0,0,0-5.73.16l-2-14.48a34.81,34.81,0,0,0-22.63-28c-1-.34-1.53-.5-1.53-.5-8-1.84-20.38,12.89-36.74,12.25-9.21-.35-18.68-7.35-18.68-7.35-.4.4-.79.8-1.16,1.2a51.84,51.84,0,0,0-13.53,29.16l-1,7.68a9.91,9.91,0,0,0-6-.07c-1.15-7.05-4.29-13.56-2.47-29,1-8.64,6.46-15.86,10.06-19.38a4.65,4.65,0,0,0,.92-5.22c-7.8-17.54,9.22-28.52,9.22-28.52,1.83,4.9,4.89,6,4.89,6C26.215,1.6,34.835,0,34.835,0s3.37,8.27,14.39,10.28a19.83,19.83,0,0,0,9.13-.69,29,29,0,0,1,17.61,0c10.08,3.39,13.87,9.45,15.21,12.64a6,6,0,0,0,3.07,3.11C110.665,33,116.535,46.56,116.535,61.14Z" transform="translate(0)" fill="rgba(255,255,255,0.09)"/>
          </g>
          <path id="Combined_Shape-2" data-name="Combined Shape" d="M108.467,90.5a1.932,1.932,0,0,1-1.051-.31,2,2,0,0,1-.91-1.41l-2.09-14.53A32.6,32.6,0,0,0,83.1,47.9c-.494-.174-.95-.326-1.356-.45l-.009,0-.024-.007a4.3,4.3,0,0,0-.957-.1c-2.714,0-6.454,2.086-10.784,4.5l-.015.009c-6.359,3.533-14.274,7.932-23.44,7.932-.364,0-.732-.007-1.1-.021a30.826,30.826,0,0,1-10.868-2.722,50.651,50.651,0,0,1-7.471-4.018,49.925,49.925,0,0,0-13,28l-1,7.691a2,2,0,0,1-2.58,1.65,7.933,7.933,0,0,0-4.839-.07,2,2,0,0,1-2.58-1.579c-.23-1.439-.557-2.87-.9-4.386l-.1-.415A63.123,63.123,0,0,1,.6,59.2c1.261-10.67,8.471-18.45,10.651-20.58a2.621,2.621,0,0,0,.49-3A23.277,23.277,0,0,1,9.723,22.831a23.743,23.743,0,0,1,3.78-9.746,31.122,31.122,0,0,1,8.232-8.461,2.013,2.013,0,0,1,2.96.98,11.229,11.229,0,0,0,1.72,3.1A13.662,13.662,0,0,1,36.566.034,2.032,2.032,0,0,1,36.935,0a1.993,1.993,0,0,1,1.851,1.245,13.717,13.717,0,0,0,2.846,3.976,18.773,18.773,0,0,0,10.054,5.093,18.213,18.213,0,0,0,2.719.205,18.109,18.109,0,0,0,5.471-.845,30.873,30.873,0,0,1,18.83,0c10.765,3.619,14.9,10.175,16.411,13.76a3.986,3.986,0,0,0,2.07,2.06c15.386,7.128,23.52,20.127,23.52,37.59,0,7.855-2.353,17.011-3.91,23.07-.142.591-.278,1.12-.41,1.631-.089.347-.174.674-.251.989a2,2,0,0,1-2.479,1.45,7.991,7.991,0,0,0-4.6.14,1.984,1.984,0,0,1-.571.14Zm4.259-4.45c.081-.321.151-.589.22-.84l.04-.154c1.489-5.842,3.74-14.67,3.74-21.927,0-16.013-7.132-27.452-21.2-34a8.016,8.016,0,0,1-1.879-1.177,55.326,55.326,0,0,0-11.465,15.56q.274.044.544.107a15.354,15.354,0,0,1,1.75.56,36.679,36.679,0,0,1,23.94,29.51l1.751,12.36q.146-.017.293-.03c1.722-14.217.109-21.674-1.043-24.9a1,1,0,1,1,1.89-.67c1.467,4.117,2.807,11.848,1.165,25.573Q112.6,86.04,112.725,86.054Zm-103.26-.11.7-5.521a53.6,53.6,0,0,1,14.06-30.29c.4-.425.807-.838,1.2-1.23a2,2,0,0,1,2.6-.2A45.153,45.153,0,0,0,33.672,52.1C36.7,53.639,41.219,55.518,45.6,55.7c.341.014.688.022,1.031.022,8.041,0,15.153-3.959,21.429-7.452l.387-.21c4.326-2.341,8.105-4.385,11.582-4.667A58.137,58.137,0,0,1,92.271,26.465a8.035,8.035,0,0,1-.825-1.47c-1.221-2.956-4.665-8.382-14-11.52a26.909,26.909,0,0,0-16.4,0,21.918,21.918,0,0,1-6.593,1.016,22.043,22.043,0,0,1-10.468-2.656,22,22,0,0,1-7.348-6.471c-.588,2.665-.259,6.932,5.258,11.361a1,1,0,1,1-1.25,1.56c-6.357-5.066-6.645-10.2-5.9-13.447a9.022,9.022,0,0,0-4.992,7.507,2.013,2.013,0,0,1-.893,1.529,2,2,0,0,1-1.757.221,9.718,9.718,0,0,1-4.661-4.182c-1.634,5.043-3.17,15.236,6.761,23.613a.988.988,0,1,1-1.25,1.53c-9.573-8.074-9.268-17.883-7.861-23.832a27.8,27.8,0,0,0-3.169,3.922,18.644,18.644,0,0,0-1.46,18.81,6.662,6.662,0,0,1-1.35,7.46c-4,3.924-8.592,10.763-9.46,18.19a59.016,59.016,0,0,0,1.39,23.34c.266,1.1.488,2.085.68,3l.018,0A78.07,78.07,0,0,1,9.8,58.074a1,1,0,0,1,1.9.63A79.636,79.636,0,0,0,8.715,85.879C8.966,85.893,9.217,85.914,9.466,85.945Zm36.46-35.82c-5.53-.22-11.1-2.71-14.809-4.77a1.008,1.008,0,1,1,1-1.751c3.52,2,8.78,4.32,13.919,4.521a32,32,0,0,0,13.76-2.87,1,1,0,1,1,.78,1.84,34.526,34.526,0,0,1-13.59,3.03ZM64.589,43.8a1,1,0,0,1,.5-1.118q2-1.08,3.92-2.15l.13-.07a1,1,0,0,1,.98,1.75l-.14.07c-1.27.71-2.589,1.44-4,2.17a1.118,1.118,0,0,1-.43.11A1,1,0,0,1,64.589,43.8Zm-36-8.518h0Zm-.023,0h.023Z" fill="#372168"/>
        </g>
      </g>
      <g id="Emotions" transform="translate(104 99)">
        <rect id="Setup_01_Emotions_nervous_background" data-name="Setup/#01 Emotions/nervous background" width="70" height="56" fill="none"/>
        <g id="Face">
          <g id="Mouth" transform="translate(0 33.998)">
            <rect id="Setup_03_Face_Mouth_nervous_mouth_background" data-name="Setup/#03 Face/Mouth/nervous_mouth background" width="70" height="20" transform="translate(0 2.002)" fill="none"/>
            <g id="nervous_mouth" transform="translate(22.497 0)">
              <path id="Path-4" data-name="Path" d="M1.751,4.907,18.031.117c1.64-.48,3.35.58,3.35,2.07v7.87a2.47,2.47,0,0,1-3.17,2.11L1.871,8.527a1.811,1.811,0,1,1-.12-3.62Z" transform="translate(1.532 1.775)" fill="#f9f9f9"/>
              <path id="Shape" d="M20.341,15.763a4.462,4.462,0,0,1-.988-.111l-16.3-3.68a3.56,3.56,0,0,1-.26-7L19.073.182a4.622,4.622,0,0,1,4,.7,3.822,3.822,0,0,1,1.57,3v7.87a3.813,3.813,0,0,1-1.471,3,4.506,4.506,0,0,1-2.82,1.011Zm.009-12.237a1.1,1.1,0,0,0-.316.046L3.743,8.362a.379.379,0,0,0-.211.111,1.442,1.442,0,0,0,.26.09l16.3,3.679a1.1,1.1,0,0,0,.89-.18.319.319,0,0,0,.15-.229V3.962c0-.073-.057-.157-.17-.249A1.1,1.1,0,0,0,20.349,3.526Z" transform="translate(0)" fill="#372168"/>
              <path id="Path-5" data-name="Path" d="M8.89,2H1A1,1,0,0,1,1,0H8.89a1,1,0,0,1,0,2Z" transform="translate(13.993 6.902)" fill="#372168"/>
            </g>
          </g>
          <g id="Nose" transform="translate(0 25)">
            <rect id="Setup_03_Face_Nose_background" data-name="Setup/#03 Face/Nose background" width="70" height="8" fill="none"/>
            <g id="_Nose" data-name="ðŸ‘ƒNose" transform="translate(29.222 2.152)">
              <path id="Path-6" data-name="Path" d="M5.75,5.635A6.52,6.52,0,0,1,.28,2.795,1.75,1.75,0,0,1,3.22.895,3.18,3.18,0,0,0,5.773,2.136,3.18,3.18,0,0,0,8.3.845a1.754,1.754,0,0,1,3,1.82,6.46,6.46,0,0,1-5.55,2.97Z" transform="translate(0 0)" fill="#372168"/>
            </g>
          </g>
          <g id="Eyes" transform="translate(0 12)">
            <rect id="Setup_03_Face_Eyes_eyes-8_background" data-name="Setup/#03 Face/Eyes/eyes-8 background" width="70" height="10" fill="none"/>
            <g id="silly_eyes" transform="translate(11.498 1.85)">
              <path id="Path-7" data-name="Path" d="M3.338,6.9c4.44,0,4.45-6.9,0-6.9S-1.112,6.9,3.338,6.9Z" transform="translate(0)" fill="#372168"/>
              <path id="Path-8" data-name="Path" d="M3.334,6.9c4.43,0,4.44-6.9,0-6.9S-1.116,6.9,3.334,6.9Z" transform="translate(40.974)" fill="#372168"/>
            </g>
          </g>
          <g id="Eyebrows">
            <rect id="Setup_03_Face_Eyebrow_sad_eyebrows_background" data-name="Setup/#03 Face/Eyebrow/sad_eyebrows background" width="70" height="12" fill="none"/>
            <g id="sad_eyebrows" transform="translate(4.463 0.06)">
              <path id="Path-9" data-name="Path" d="M2.177,7.568a2.007,2.007,0,0,1-.34-4c3.16-.55,12-2.26,14.91-3.45a2,2,0,0,1,1.51,3.7c-3.9,1.6-15.25,3.61-15.73,3.69A2.07,2.07,0,0,1,2.177,7.568Z" transform="translate(0 4.492)" fill="#372168"/>
              <path id="Path-10" data-name="Path" d="M17.32,7.54a2.07,2.07,0,0,1-.35,0C16.49,7.46,5.14,5.45,1.24,3.85A2,2,0,1,1,2.76.15c2.9,1.19,11.74,2.9,14.9,3.45a2.007,2.007,0,1,1-.34,4Z" transform="translate(41.707)" fill="#372168"/>
            </g>
          </g>
        </g>
      </g>
      <g id="Accessories_02" data-name="Accessories#02" transform="translate(88.301 102.78)">
        <g id="glasses" transform="translate(-0.301 -0.18)">
          <g id="Group" transform="translate(17.263 2.192)" opacity="0.3">
            <g id="Path-11" data-name="Path">
              <path id="Path-12" data-name="Path" d="M26.387,13.208a13.21,13.21,0,0,1-22,9.83,11.25,11.25,0,0,1-.85-.84,12.79,12.79,0,0,1-1.37-1.74,13.58,13.58,0,0,1-1.14-2.13A13.22,13.22,0,0,1,17.877.848a13.07,13.07,0,0,1,2.34,1.16,12.53,12.53,0,0,1,1.6,1.19,11.52,11.52,0,0,1,.89.83A13.18,13.18,0,0,1,26.387,13.208Z" transform="translate(41.54 0)" fill="#629cee"/>
              <path id="Path-13" data-name="Path" d="M26.387,13.208a13.21,13.21,0,0,1-22,9.83,11.25,11.25,0,0,1-.85-.84,12.79,12.79,0,0,1-1.37-1.74,13.58,13.58,0,0,1-1.14-2.13A13.22,13.22,0,0,1,17.877.848a13.07,13.07,0,0,1,2.34,1.16,12.53,12.53,0,0,1,1.6,1.19,11.52,11.52,0,0,1,.89.83A13.18,13.18,0,0,1,26.387,13.208Z" transform="translate(41.54 0)" fill="rgba(255,255,255,0.16)"/>
            </g>
            <g id="Path-14" data-name="Path">
              <path id="Path-15" data-name="Path" d="M26.387,13.208a13.21,13.21,0,0,1-22,9.83,11.25,11.25,0,0,1-.85-.84,12.79,12.79,0,0,1-1.37-1.74,13.58,13.58,0,0,1-1.14-2.13A13.22,13.22,0,0,1,17.877.848a13.07,13.07,0,0,1,2.34,1.16,12.53,12.53,0,0,1,1.6,1.19,11.52,11.52,0,0,1,.89.83A13.18,13.18,0,0,1,26.387,13.208Z" transform="translate(0 0)" fill="#629cee"/>
              <path id="Path-16" data-name="Path" d="M26.387,13.208a13.21,13.21,0,0,1-22,9.83,11.25,11.25,0,0,1-.85-.84,12.79,12.79,0,0,1-1.37-1.74,13.58,13.58,0,0,1-1.14-2.13A13.22,13.22,0,0,1,17.877.848a13.07,13.07,0,0,1,2.34,1.16,12.53,12.53,0,0,1,1.6,1.19,11.52,11.52,0,0,1,.89.83A13.18,13.18,0,0,1,26.387,13.208Z" transform="translate(0 0)" fill="rgba(255,255,255,0.16)"/>
            </g>
          </g>
          <path id="Light_layer" data-name="Light layer" d="M19.14,1.16l-18,18.45A13.58,13.58,0,0,1,0,17.48L16.85,0a13.07,13.07,0,0,1,2.29,1.16Z" transform="translate(59.85 3.04)" fill="#fff" opacity="0.5"/>
          <path id="Light_layer-2" data-name="Light layer" d="M19.17.83,17.56,2.5.85,19.84A11.25,11.25,0,0,1,0,19L18.28,0a11.52,11.52,0,0,1,.89.83Z" transform="translate(62.31 5.39)" fill="#fff" opacity="0.5"/>
          <path id="Shape-2" data-name="Shape" d="M15.21,30.42a15.229,15.229,0,1,1,10.746-4.457A15.16,15.16,0,0,1,15.21,30.42Zm0-26.41a11.21,11.21,0,1,0,11.21,11.21A11.223,11.223,0,0,0,15.21,4.01Z" transform="translate(56.77 0.18)" fill="#372168"/>
          <path id="Light_layer-3" data-name="Light layer" d="M19.19,1.16,1.14,19.61A13.58,13.58,0,0,1,0,17.48L16.85,0a13.07,13.07,0,0,1,2.34,1.16Z" transform="translate(18.26 3.04)" fill="#fff" opacity="0.5"/>
          <path id="Light_layer-4" data-name="Light layer" d="M19.17.83,17.56,2.5.85,19.84A11.25,11.25,0,0,1,0,19L18.28,0a11.52,11.52,0,0,1,.89.83Z" transform="translate(20.77 5.39)" fill="#fff" opacity="0.5"/>
          <path id="Shape-3" data-name="Shape" d="M15.21,30.42a15.229,15.229,0,1,1,10.746-4.457A15.16,15.16,0,0,1,15.21,30.42Zm0-26.41a11.21,11.21,0,1,0,11.21,11.21A11.223,11.223,0,0,0,15.21,4.01Z" transform="translate(15.23 0.18)" fill="#372168"/>
          <path id="Path-17" data-name="Path" d="M16.961,6.758a2,2,0,0,1-1.28-.47c-6.26-5.21-12.29-.23-12.54,0a2,2,0,0,1-2.61-3,13.58,13.58,0,0,1,17.72,0,2,2,0,0,1-1.29,3.54Z" transform="translate(41.819 10.642)" fill="#372168"/>
          <path id="Path-18" data-name="Path" d="M16.929,8.144a2.28,2.28,0,0,1-.44,0c-6.25-1.43-14.73-4.12-15.09-4.23A2,2,0,0,1,2.609.094c.09,0,8.69,2.76,14.77,4.15a2,2,0,0,1-.45,3.95Z" transform="translate(0.301 9.256)" fill="#372168"/>
          <path id="Path-19" data-name="Path" d="M2.026,8.7a2,2,0,0,1-.55-3.93L17.806.077a2,2,0,1,1,1.1,3.85L2.616,8.6a2.09,2.09,0,0,1-.59.1Z" transform="translate(83.164 8.703)" fill="#372168"/>
        </g>
      </g>
    </g>
  </g>
  <path id="Oval" d="M140,280a141.037,141.037,0,0,1-28.215-2.844A139.234,139.234,0,0,1,61.725,256.09,140.408,140.408,0,0,1,11,194.495a139.3,139.3,0,0,1-8.158-26.279,141.364,141.364,0,0,1,0-56.43A139.232,139.232,0,0,1,23.91,61.725,140.41,140.41,0,0,1,85.506,11a139.3,139.3,0,0,1,26.279-8.158,141.364,141.364,0,0,1,56.43,0,139.23,139.23,0,0,1,50.06,21.066A140.409,140.409,0,0,1,269,85.506a139.3,139.3,0,0,1,8.158,26.279,141.367,141.367,0,0,1,0,56.43,139.232,139.232,0,0,1-21.065,50.06A140.408,140.408,0,0,1,194.495,269a139.3,139.3,0,0,1-26.279,8.158A141.037,141.037,0,0,1,140,280ZM140,4C65.009,4,4,65.009,4,140s61.01,136,136,136,136-61.009,136-136S214.991,4,140,4Z" fill="#372168"/>
</svg>
