<svg id="å¤´åƒ27" xmlns="http://www.w3.org/2000/svg" xmlns:xlink="http://www.w3.org/1999/xlink" width="280.004" height="280" viewBox="0 0 280.004 280">
  <defs>
    <clipPath id="clip-path">
      <path d="M0,138A138,138,0,1,1,138,276,138,138,0,0,1,0,138Z" fill="none"/>
    </clipPath>
  </defs>
  <g id="Man" transform="translate(4.004)">
    <g id="Background">
      <circle id="Background-2" data-name="Background" cx="138" cy="138" r="138" fill="#bec5d8"/>
      <circle id="Background-3" data-name="Background" cx="138" cy="138" r="138" fill="rgba(255,255,255,0.16)"/>
    </g>
    <g id="Man-2" data-name="Man" transform="translate(0)" clip-path="url(#clip-path)">
      <g id="Body" transform="translate(-2 48.67)">
        <path id="Skin_color:" data-name="Skin color:" d="M31.138,146.778v-34.7l-.05-.058a70.8,70.8,0,0,1-11.58-19.45c-.21-.51-.419-1-.62-1.55-.329-.86-.67-1.75-1-2.631-.46-1.309-.92-2.64-1.35-4l-.689-2.19a80.884,80.884,0,0,1-2.6-12.75c-.09-.73-.18-1.48-.26-2.24,0-.28-.06-.56-.08-.84,0,0-.12-.841-.26-2.29a2.3,2.3,0,0,1,0-.249c-.66-7.28-1.68-28.451,6.87-42.331C29.888,4.688,46.908-.222,61.308.008c14.39-.23,31.41,4.68,41.78,21.49,8.486,13.84,7.5,34.929,6.836,42.268a9.675,9.675,0,0,1,7.255.462c5.3,2.52,7.539,10.85,2.579,18.41-3.781,5.771-10.157,6.819-15.029,5.716l-.011.033c-.33.88-.66,1.77-1,2.631-.2.53-.41,1-.62,1.55a70.421,70.421,0,0,1-11.49,19.32l-.049.059v34.831c-.79,5.071-14,9.09-30.21,9.09S31.927,151.868,31.138,146.778Zm58.3-32.47a47.7,47.7,0,0,1-8.46,7.1,34.921,34.921,0,0,1-8.6,4.237,34.932,34.932,0,0,0,8.629-4.247,47.728,47.728,0,0,0,8.46-7.1l.193-.224ZM2.788,82.678c-5-7.6-2.731-15.93,2.509-18.41a10.391,10.391,0,0,1,1.281-.509,9.9,9.9,0,0,1,6,.07,2.49,2.49,0,0,0,0,.259,1.967,1.967,0,0,0,.05.551c.11,1.11.21,1.74.21,1.74a7.958,7.958,0,0,0,.08.84c.12,1.111.25,2.2.4,3.271a79.483,79.483,0,0,0,2.46,11.7q1.019,3.19,2.1,6.189a15.827,15.827,0,0,1-3.556.405A13.376,13.376,0,0,1,2.788,82.678Z" transform="translate(79.172 1.992)" fill="#ffc7bb"/>
        <path id="Path" d="M56.55,0V27.79C29.55,28.25,9.43,15.22,0,7.54V.1L.11.22A47.67,47.67,0,0,0,8.57,7.31a34.9,34.9,0,0,0,18.68,6H29.2a34.9,34.9,0,0,0,18.69-6A48.15,48.15,0,0,0,56.36.21Z" transform="translate(112.21 116.09)" fill="#7c3830" opacity="0.15" style="mix-blend-mode: multiply;isolation: isolate"/>
        <path id="Top_color:" data-name="Top color:" d="M0,80.65S17.705,45.4,27.33,36.82c19.14-17.08,49.85-27.4,69-32.94l.75-.22C102.75,2.02,107.35.82,110.24,0c.79,5.07,14,9.09,30.2,9.09s29.42-4,30.22-9.09h.16c2.86.82,7.42,2,13.05,3.63l.68.2c19.11,5.53,49.87,15.86,69.06,33C263.089,45.319,280,80.65,280,80.65Z" transform="translate(0 148.68)" fill="#f3b9aa"/>
        <path id="Path-2" data-name="Path" d="M62.51,19.26a83,83,0,0,1-18.39,2C23.66,21.26,6.29,14.47,0,3.88l.75-.22C6.42,2.02,11.02.82,13.91,0h0c.79,5.07,14,9.09,30.2,9.09S73.53,5.09,74.33,0h.16c2.86.82,7.42,2,13.05,3.63l.68.2C85.13,9.07,79.34,13.38,71.8,16.4" transform="translate(96.32 148.79)" fill="#fff" opacity="0.4" style="mix-blend-mode: soft-light;isolation: isolate"/>
        <path id="Combined_Shape" data-name="Combined Shape" d="M0,229.329s.008-.021.021-.05c.7-1.585,4.433-9.959,9.161-19.164,3.034-5.907,5.878-11,8.455-15.123,3.22-5.16,6.027-8.824,8.344-10.893a99.035,99.035,0,0,1,12.574-9.436,147.063,147.063,0,0,1,15.738-8.659c11.6-5.541,25.163-10.538,41.468-15.276l.73-.21c3.5-1.017,6.56-1.856,9.35-2.61l2.4-.664V114.733A72.3,72.3,0,0,1,96.8,95.31c-.193-.463-.39-.957-.64-1.6q-.206-.536-.41-1.073a18.012,18.012,0,0,1-2.261.143c-.113,0-.229,0-.343,0a15.287,15.287,0,0,1-12.847-7,17.139,17.139,0,0,1-2.55-13.94,11.431,11.431,0,0,1,5.88-7.37,15.65,15.65,0,0,1,1.5-.6,11.873,11.873,0,0,1,3.541-.54q.471,0,.939.037c-.624-9.535-.577-28.038,7.36-40.917a45.168,45.168,0,0,1,21.5-18.463A55.594,55.594,0,0,1,139.421,0c.359,0,.723,0,1.079.01C140.841,0,141.188,0,141.529,0a55.515,55.515,0,0,1,20.911,3.975A45.183,45.183,0,0,1,183.95,22.45c7.921,12.867,7.984,31.314,7.363,40.86q.457-.035.919-.035a12,12,0,0,1,3.128.415,12.951,12.951,0,0,1,1.92.73,11.438,11.438,0,0,1,5.87,7.35,17.2,17.2,0,0,1-2.55,13.95,15.3,15.3,0,0,1-12.892,7.063c-.1,0-.2,0-.3,0a17.939,17.939,0,0,1-2.235-.145l-.414,1.105c-.193.521-.408,1.04-.617,1.544l-.023.057a72.24,72.24,0,0,1-11.39,19.344v32.51l3.02.837c2.47.67,5.44,1.49,8.789,2.45l.72.21a2,2,0,0,1,.207.077c32.1,9.32,54.85,20.224,69.534,33.333,2.95,2.638,9.59,14.8,14.642,24.529,5.451,10.507,10.309,20.6,10.357,20.7H0Zm28.67-42.26c-4.518,4.026-10.177,14.207-14.129,22.04C10.263,217.589,7,225.229,6.97,225.3l266.01.106c-.024-.06-3.035-7.762-7.039-16.24-3.71-7.854-9.082-18.065-13.6-22.1-13.862-12.375-36.329-23.18-66.8-32.125-3.394,4.928-9.075,9.08-16.554,12.085a2,2,0,1,1-1.49-3.711c6.17-2.479,10.93-5.749,13.95-9.56-2.54-.72-4.8-1.34-6.75-1.87l-2.76-.76c-2.346,3.636-9.468,7.083-21.682,8.283-3.046.3-6.317.458-9.768.458-9.331,0-17.34-1.129-23.161-3.263-4.006-1.469-6.83-3.356-8.178-5.429l-2.171.591c-2.07.56-4.57,1.24-7.36,2,6.92,8.71,22.54,14.22,40.9,14.22a80.381,80.381,0,0,0,17.951-1.93,2,2,0,0,1,.89,3.9,84.775,84.775,0,0,1-18.87,2.07c-20.391,0-37.8-6.648-45.011-17.062C65,163.923,42.528,174.72,28.67,187.07Zm111.8-31.21c15.355,0,25.858-3.611,27.9-6.592a1.982,1.982,0,0,0,.337-.8v-29.4a50.429,50.429,0,0,1-7.46,6.018,36.946,36.946,0,0,1-19.76,6.3h-2.11a36.865,36.865,0,0,1-19.7-6.321,50.223,50.223,0,0,1-7.42-5.97L112.24,148.2a2.087,2.087,0,0,1,.07.265c.465,2.989,10.808,7.136,26.743,7.38Q139.754,155.859,140.47,155.859Zm-1.01-28.469h1.95a33.026,33.026,0,0,0,7.9-1.186,35.8,35.8,0,0,0,8.779-3.886q.462-.291.916-.6a45.6,45.6,0,0,0,8.1-6.8c.61-.629,1.258-1.351,2.1-2.34a2.013,2.013,0,0,1,.189-.193A68.31,68.31,0,0,0,180.39,93.81c.205-.488.408-.993.6-1.5l.093-.243c.187-.49.444-1.162.647-1.757l.25-.67c.646-1.79,1.3-3.772,2-6.061a82.886,82.886,0,0,0,2.79-14.62,3.884,3.884,0,0,1,.04-.5c.012-.094.023-.181.03-.273V68.05c0-.014.008-.078.024-.2.042-.326.131-1,.226-2l1.671.05h.212l-1.883-.16v-.11c.569-6.212,1.776-27.533-6.58-41.1C169.475,6.654,151.2,3.984,141.294,3.984c-.261,0-.526,0-.784.005l-.94.01c-9.913,0-28.187,2.669-39.21,20.551-8.242,13.372-7.18,34.3-6.6,40.827a2.024,2.024,0,0,1,.053.462v.269c.1.94.182,1.579.213,1.834.012.09.017.133.017.138a.732.732,0,0,1,0,.14,2.853,2.853,0,0,0,.07.77c.084.78.178,1.555.26,2.21a79.95,79.95,0,0,0,2.55,12.43c.22.72.454,1.453.68,2.16q.121.384.247.768l.144.437c.279.836.567,1.664.85,2.474l.088.252c.321.878.657,1.746,1,2.579.191.485.383.959.571,1.418l0,0,.028.068a68.66,68.66,0,0,0,11.25,18.92c.786.915,1.481,1.668,2,2.22a46.37,46.37,0,0,0,8.1,6.8,32.957,32.957,0,0,0,17.581,5.661ZM187.585,88.83A11.511,11.511,0,0,0,197.25,83.6,13.179,13.179,0,0,0,199.3,72.93a7.443,7.443,0,0,0-3.749-4.83,7.917,7.917,0,0,0-1.291-.49,7.341,7.341,0,0,0-3.27-.157c-.065.6-.115.981-.139,1.128a5.907,5.907,0,0,0-.057.6v.006c0,.067-.009.133-.014.2a86.494,86.494,0,0,1-2.107,12.266,4.34,4.34,0,0,0,3.377-1.876,4.418,4.418,0,0,0,.41-4.53,1,1,0,0,1,1.68-1.09,6.489,6.489,0,0,1-5.65,9.48q-.167.011-.334.011-.154.565-.316,1.129c-.423,1.389-.853,2.731-1.284,4.014C186.9,88.814,187.242,88.83,187.585,88.83ZM88.61,67.309l-.019,0a7.3,7.3,0,0,0-2.221.348,8.424,8.424,0,0,0-1,.4A7.416,7.416,0,0,0,81.6,72.9a13.208,13.208,0,0,0,2,10.679A11.515,11.515,0,0,0,93.258,88.8c.356,0,.716-.017,1.072-.05-.419-1.249-.834-2.558-1.27-4q-.165-.567-.322-1.137-.264.022-.527.017a6.5,6.5,0,0,1-5.7-9.51,1,1,0,0,1,1.68,1.09,4.473,4.473,0,0,0,.41,4.531,4.359,4.359,0,0,0,3.616,1.879A80.234,80.234,0,0,1,90.54,72.75a.239.239,0,0,1,0-.08c-.136-.968-.267-2.038-.4-3.27a3.4,3.4,0,0,0-.043-.444c-.019-.136-.038-.275-.047-.417q0-.033,0-.065c-.031-.155-.06-.39-.092-.7-.014-.107-.029-.226-.044-.364a7.68,7.68,0,0,0-1.241-.1H88.59ZM240.46,191.7a94.646,94.646,0,0,0-11.44-8.64,1,1,0,1,1,1.09-1.68,96.016,96.016,0,0,1,11.68,8.83,1,1,0,1,1-1.33,1.49Z" fill="#372168"/>
      </g>
      <g id="Chin" transform="translate(104 153.5)">
        <rect id="Setup_03_Face_Man_Chin_background" data-name="Setup/#03 Face/Man Chin background" width="70" height="10" fill="none"/>
        <g id="Group_2" data-name="Group 2" transform="translate(27.837 3.702)">
          <path id="Path-3" data-name="Path" d="M12.5,3.989a1,1,0,0,1-.74-.32,7.19,7.19,0,0,0-5-1.67,7.37,7.37,0,0,0-5,1.6A1,1,0,1,1,.344,2.2a10.36,10.36,0,0,1,12.89.1,1,1,0,0,1-.73,1.69Z" transform="translate(0 0)" fill="#372168"/>
        </g>
      </g>
      <g id="Cheeks_color:" data-name="Cheeks color:" transform="translate(102 124.789)">
        <path id="Cheeks_color:-2" data-name="Cheeks color:" d="M54,10A10,10,0,1,1,64,20,10,10,0,0,1,54,10ZM0,10A10,10,0,1,1,10,20,10,10,0,0,1,0,10Z" fill="#ff1300" opacity="0.15" style="mix-blend-mode: multiply;isolation: isolate"/>
      </g>
      <g id="Hairstyle" transform="translate(46 19.5)">
        <g id="_4_hairdo" transform="translate(36.748 10.745)">
          <g id="Hair_color:" data-name="Hair color:" transform="translate(2.069 2.025)">
            <path id="Hair_color:-2" data-name="Hair color:" d="M.131,60.948c1.19-15.8,5.3-23.11,6.92-25.42-2,1.92-6.89,2.8-6.071-.121,1-3.759,2.57-15.459,13.1-15.34,0,0,2.74-9.07,16-10.54,0,0,2.95-8.42,17.7-5.68,0,0,5.891-5.93,15.16-1.71,0,0,10.74-6.151,19.3,2.41,5.55,5.61,9.27,13.189,7.12,19.55l-.009.028c1.075.511,16.224,8.137,18.519,33.222a65.749,65.749,0,0,1-7.789,37.26c1.92-11.52,1.759-22.94-1.4-27.779s-2.59-15.55-8.7-15.92c-8.285-.5-14.158-8.9-14.576-9.515-3.717,2.836-8.993,4.315-18.354,2.1a25.8,25.8,0,0,1-4.6-1.53,13,13,0,0,0-9.94-.419c-5.9,2.319-6.74,5.9-14.32,2.949s-9.9,6.411-9.9,6.411c-2.111,14.84-5.171,14.649-9.17,20.55s-2.41,23.8-2.41,23.8S-1.1,77.258.131,60.948Z" fill="#ffcb6d"/>
            <path id="Hair_color:-3" data-name="Hair color:" d="M.131,60.948c1.19-15.8,5.3-23.11,6.92-25.42-2,1.92-6.89,2.8-6.071-.121,1-3.759,2.57-15.459,13.1-15.34,0,0,2.74-9.07,16-10.54,0,0,2.95-8.42,17.7-5.68,0,0,5.891-5.93,15.16-1.71,0,0,10.74-6.151,19.3,2.41,5.55,5.61,9.27,13.189,7.12,19.55l-.009.028c1.075.511,16.224,8.137,18.519,33.222a65.749,65.749,0,0,1-7.789,37.26c1.92-11.52,1.759-22.94-1.4-27.779s-2.59-15.55-8.7-15.92c-8.285-.5-14.158-8.9-14.576-9.515-3.717,2.836-8.993,4.315-18.354,2.1a25.8,25.8,0,0,1-4.6-1.53,13,13,0,0,0-9.94-.419c-5.9,2.319-6.74,5.9-14.32,2.949s-9.9,6.411-9.9,6.411c-2.111,14.84-5.171,14.649-9.17,20.55s-2.41,23.8-2.41,23.8S-1.1,77.258.131,60.948Z" fill="rgba(255,255,255,0.05)"/>
          </g>
          <path id="Combined_Shape-2" data-name="Combined Shape" d="M8.71,99.284a2,2,0,0,1-1.83-1.2c-.328-.752-8-18.628-6.74-35.259A85.533,85.533,0,0,1,2.065,49.79a52.019,52.019,0,0,1,2.705-8.466c-.069,0-.139.005-.209.005a4.341,4.341,0,0,1-2.141-.566,3.264,3.264,0,0,1-1.361-3.87c.105-.362.212-.814.34-1.38l.008-.035a30.841,30.841,0,0,1,3.385-9.064,12.4,12.4,0,0,1,9.947-6.281,17.085,17.085,0,0,1,4.565-5.68A22.935,22.935,0,0,1,30.74,9.7,11.81,11.81,0,0,1,34.719,5.7,17.762,17.762,0,0,1,44.25,3.3a31.838,31.838,0,0,1,4.91.408A15.032,15.032,0,0,1,58.321.584a17.378,17.378,0,0,1,6.5,1.329A20.349,20.349,0,0,1,73.338,0,16.944,16.944,0,0,1,85.62,5.123c5.032,5.022,9.584,12.732,8.11,19.968a31.727,31.727,0,0,1,7.744,6.69,41.03,41.03,0,0,1,6.511,10.66,55.922,55.922,0,0,1,4.026,16.753,67.308,67.308,0,0,1-8.15,38.489,2.014,2.014,0,0,1-1.7.95h-.007a1.933,1.933,0,0,1-.7-.131,2,2,0,0,1-1.27-2.2,78.361,78.361,0,0,0,1.183-16.083c-.2-4.748-.993-8.3-2.282-10.277a25.48,25.48,0,0,1-2.7-7.32c-1.2-4.555-2.157-7.551-4.451-7.691-7.267-.445-12.685-6.05-14.96-8.859a18.77,18.77,0,0,1-9.831,2.482,37.163,37.163,0,0,1-8.569-1.122,28.268,28.268,0,0,1-5-1.651,11,11,0,0,0-8.39-.39,24.446,24.446,0,0,0-3.84,2c-1.872,1.148-3.64,2.233-6.313,2.233A15.893,15.893,0,0,1,29.4,48.393a4.417,4.417,0,0,0-3.78,0c-1.89.945-3.046,3.587-3.43,5-1.689,11.814-4.121,14.679-6.936,18l0,0a36.973,36.973,0,0,0-2.54,3.26c-1.263,1.862-2.059,5.7-2.3,11.089a92.813,92.813,0,0,0,.232,11.411,1.992,1.992,0,0,1-1.5,2.12,2.206,2.206,0,0,1-.266.016C8.82,99.29,8.764,99.288,8.71,99.284Zm.35-63.73a2,2,0,0,1,1.63,3.15c-1.24,1.771-5.38,8.767-6.559,24.42-.461,6.118.349,13.261,2.409,21.23.355-5.614,1.341-9.652,2.93-12a39.812,39.812,0,0,1,2.8-3.6c2.618-3.1,4.509-5.335,6-16.11v-.2l0-.014c.239-.894,1.574-5.323,5.094-7.418l-.048-.159c-1-3.41-1.7-5.87-7.871-7.79a1,1,0,1,1,.6-1.91c7.155,2.229,8.151,5.567,9.175,9.089a8.456,8.456,0,0,1,2.226-.3,8.368,8.368,0,0,1,3.389.712,11.685,11.685,0,0,0,4.108.98c1.616,0,2.748-.688,4.313-1.641A27.874,27.874,0,0,1,43.7,41.7a14.944,14.944,0,0,1,3.1-.785C40,27.807,24.327,24.732,16.47,24.028a2.02,2.02,0,0,1-.47.055h-.149c-7.1,0-9.211,6.369-10.63,12.34-.071.276-.147.572-.211.86A5.411,5.411,0,0,0,7.59,36.1a1.984,1.984,0,0,1,1.378-.552C9,35.552,9.029,35.552,9.06,35.554Zm71.09,8.081c2.655,3.144,6.892,6.955,12,7.258,5.356.329,6.859,6.059,8.067,10.661l0,.009a22.978,22.978,0,0,0,2.181,6.16,18.536,18.536,0,0,1,2.389,6.936,52.265,52.265,0,0,1,.611,9.164,63.127,63.127,0,0,0,2.64-24.31C106.265,40.052,96.5,31.638,92.38,28.923c-.048.088-.1.175-.148.257-.034.058-.068.115-.1.173a13.508,13.508,0,0,1-2.531,3.18,39.98,39.98,0,0,0-4.321,5c1.591,1.98,5.5,5.539,13.531,6.5a1,1,0,1,1-.121,2l.01-.02h-.12c-8.15-.968-12.482-4.493-14.506-6.82a39.887,39.887,0,0,1-3.884,4.48l-.04-.04ZM55.19,42.153a22.98,22.98,0,0,0,4.24,1.41,33.669,33.669,0,0,0,7.645,1.005c4.9,0,7.533-1.584,9.086-2.776a28.449,28.449,0,0,0,5.25-5.85l.391-.53a42.978,42.978,0,0,1,4.9-5.71,9.271,9.271,0,0,0,1.9-2.38,9.413,9.413,0,0,0,.86-1.85C91.451,19.5,87.3,12.523,82.75,7.983a12.858,12.858,0,0,0-9.379-3.952,16.762,16.762,0,0,0-6,1.168A24.465,24.465,0,0,1,78.33,15.134a1,1,0,0,1-1.76.959C73.545,10.565,68.072,7.568,64.4,6.1a1.98,1.98,0,0,1-.359-.125l-.255-.113a25.27,25.27,0,0,0-3.135-.977,1.011,1.011,0,0,1-.117-.033,12.324,12.324,0,0,0-2.222-.206A11.14,11.14,0,0,0,52,6.573c6.2,2.264,15.055,7.361,18.686,18.46a1,1,0,0,1-.64,1.26,1.114,1.114,0,0,1-.26.059,1,1,0,0,1-1-.689C65.033,14.176,55.208,9.591,49.492,7.855q-.076-.008-.152-.022a28.652,28.652,0,0,0-5.191-.519c-3.457,0-6.219.8-8.211,2.365a6.886,6.886,0,0,0-1.966,2.338c6.72,1.536,18.449,5.763,26.628,17.015a1,1,0,0,1-.81,1.59v-.031a1,1,0,0,1-.81-.41C50.41,18.38,37.408,14.7,31.589,13.61c-9.512,1.269-12.683,6.756-13.477,8.557a54.794,54.794,0,0,1,8.619,1.666c10.633,2.933,18.322,8.791,22.25,16.939A14.9,14.9,0,0,1,55.19,42.153Zm9.76-2a1,1,0,0,1-.94-.64,41.792,41.792,0,0,0-2.66-5.66,1,1,0,1,1,1.741-.98,44.009,44.009,0,0,1,2.79,5.92.992.992,0,0,1-.923,1.36Z" fill="#372168"/>
        </g>
      </g>
      <g id="Emotions" transform="translate(104 99)">
        <rect id="Setup_01_Emotions_sleepy_background" data-name="Setup/#01 Emotions/sleepy background" width="70" height="56" fill="none"/>
        <g id="Face">
          <g id="Mouth" transform="translate(0 36)">
            <rect id="Setup_03_Face_Mouth_sleepy_mouth_background" data-name="Setup/#03 Face/Mouth/sleepy_mouth background" width="70" height="20" fill="none"/>
            <g id="sleepy_mouth" transform="translate(24.514 -1.92)">
              <path id="Path-4" data-name="Path" d="M8.766,10.71a14.32,14.32,0,0,1-8-2.43,1.766,1.766,0,1,1,2-2.91,10.75,10.75,0,0,0,6,1.84c3.48,0,7.38-.73,9.92-6.11a1.75,1.75,0,1,1,3.16,1.49C19.266,8.05,14.986,10.71,8.766,10.71Z" transform="translate(0)" fill="#372168"/>
              <path id="Path-5" data-name="Path" d="M6.35,2H1A1,1,0,0,1,1,0H6.35a1,1,0,0,1,0,2Z" transform="translate(7.416 12.35)" fill="#372168"/>
            </g>
          </g>
          <g id="Nose" transform="translate(0 25)">
            <rect id="Setup_03_Face_Nose_background" data-name="Setup/#03 Face/Nose background" width="70" height="8" fill="none"/>
            <g id="_Nose" data-name="ðŸ‘ƒNose" transform="translate(29.222 2.152)">
              <path id="Path-6" data-name="Path" d="M5.75,5.635A6.52,6.52,0,0,1,.28,2.795,1.75,1.75,0,0,1,3.22.895,3.18,3.18,0,0,0,5.773,2.136,3.18,3.18,0,0,0,8.3.845a1.754,1.754,0,0,1,3,1.82,6.46,6.46,0,0,1-5.55,2.97Z" transform="translate(0 0)" fill="#372168"/>
            </g>
          </g>
          <g id="Eyes" transform="translate(0 12)">
            <rect id="Setup_03_Face_Eyes_sleepy_eyes_background" data-name="Setup/#03 Face/Eyes/sleepy_eyes background" width="70" height="10" fill="none"/>
            <g id="sleepy_eyes" transform="translate(9.06 2.126)">
              <path id="Path-7" data-name="Path" d="M5.747,5.637a6.51,6.51,0,0,1-5.47-2.85A1.752,1.752,0,1,1,3.227.9,3.17,3.17,0,0,0,5.774,2.139,3.17,3.17,0,0,0,8.3.847a1.752,1.752,0,1,1,3,1.81A6.43,6.43,0,0,1,5.747,5.637Z" transform="translate(0 0.038)" fill="#372168"/>
              <path id="Path-8" data-name="Path" d="M5.74,5.584A6.5,6.5,0,0,1,.28,2.744,1.75,1.75,0,0,1,3.22.844,3.18,3.18,0,0,0,5.76,2.111,3.18,3.18,0,0,0,8.3.844a1.754,1.754,0,1,1,3,1.82A6.47,6.47,0,0,1,5.74,5.584Z" transform="translate(40.965)" fill="#372168"/>
            </g>
          </g>
          <g id="Eyebrows">
            <rect id="Setup_03_Face_Eyebrow_sleepy_eyebrows_background" data-name="Setup/#03 Face/Eyebrow/sleepy_eyebrows background" width="70" height="12" fill="none"/>
            <g id="sleepy_eyebrows" transform="translate(3.275 0.753)">
              <path id="Path-9" data-name="Path" d="M2,6.047a2,2,0,0,1-.92-3.78c.4-.2,10-5,19.7,0a2,2,0,1,1-1.83,3.56c-7.93-4.08-16,0-16,0A2,2,0,0,1,2,6.047Z" transform="translate(0 3.85)" fill="#372168"/>
              <path id="Path-10" data-name="Path" d="M19.837,6.047a2,2,0,0,1-.92-.22c-7.93-4.08-16,0-16,0a2,2,0,0,1-1.83-3.56c.4-.2,10-5,19.7,0a2,2,0,0,1-.91,3.78Z" transform="translate(41.648 0)" fill="#372168"/>
            </g>
          </g>
        </g>
      </g>
      <g id="Accessories_02" data-name="Accessories#02" transform="translate(88.342 107.75)">
        <g id="_4_glasses" transform="translate(-0.843 -0.85)">
          <g id="Group_2-2" data-name="Group 2" transform="translate(14.369 2.85)" opacity="0.7">
            <g id="Path-11" data-name="Path">
              <path id="Path-12" data-name="Path" d="M33.081,2.43c-.44,5.14-2.82,16.6-16.58,16.6a23.66,23.66,0,0,1-5.78-.65q-.46-.11-.9-.24a14.68,14.68,0,0,1-1.66-.61,14.2,14.2,0,0,1-1.61-.8,12.49,12.49,0,0,1-1.83-1.3,11.94,11.94,0,0,1-2.43-2.79h0A16.2,16.2,0,0,1,.181,1.92,2.26,2.26,0,0,1,2.421,0h28.4a2.26,2.26,0,0,1,2.26,2.43Z" transform="translate(0 0.02)" fill="#ffcb6d"/>
              <path id="Path-13" data-name="Path" d="M33.081,2.43c-.44,5.14-2.82,16.6-16.58,16.6a23.66,23.66,0,0,1-5.78-.65q-.46-.11-.9-.24a14.68,14.68,0,0,1-1.66-.61,14.2,14.2,0,0,1-1.61-.8,12.49,12.49,0,0,1-1.83-1.3,11.94,11.94,0,0,1-2.43-2.79h0A16.2,16.2,0,0,1,.181,1.92,2.26,2.26,0,0,1,2.421,0h28.4a2.26,2.26,0,0,1,2.26,2.43Z" transform="translate(0 0.02)" fill="rgba(255,255,255,0.05)"/>
            </g>
            <g id="Path-14" data-name="Path">
              <path id="Path-15" data-name="Path" d="M16.577,19.04a19.72,19.72,0,0,1-5.37-.69c-.31-.08-.61-.18-.89-.28A13.08,13.08,0,0,1,8.7,17.4a10.72,10.72,0,0,1-1.56-.89,12.93,12.93,0,0,1-1.76-1.38,14.28,14.28,0,0,1-2.37-2.9,22.24,22.24,0,0,1-3-9.79A2.26,2.26,0,0,1,2.267,0h28.4a2.26,2.26,0,0,1,2.24,1.92C33.647,6.74,32.567,19.04,16.577,19.04Z" transform="translate(41.564 0)" fill="#ffcb6d"/>
              <path id="Path-16" data-name="Path" d="M16.577,19.04a19.72,19.72,0,0,1-5.37-.69c-.31-.08-.61-.18-.89-.28A13.08,13.08,0,0,1,8.7,17.4a10.72,10.72,0,0,1-1.56-.89,12.93,12.93,0,0,1-1.76-1.38,14.28,14.28,0,0,1-2.37-2.9,22.24,22.24,0,0,1-3-9.79A2.26,2.26,0,0,1,2.267,0h28.4a2.26,2.26,0,0,1,2.24,1.92C33.647,6.74,32.567,19.04,16.577,19.04Z" transform="translate(41.564 0)" fill="rgba(255,255,255,0.05)"/>
            </g>
          </g>
          <path id="Light_layer" data-name="Light layer" d="M12.7,0,2.43,15.45A11.94,11.94,0,0,1,0,12.66H0L8.4.02Z" transform="translate(16.66 2.85)" fill="#fff" opacity="0.4"/>
          <path id="Light_layer-2" data-name="Light layer" d="M13.27,0,1.61,17.54A14.2,14.2,0,0,1,0,16.74L11.12,0Z" transform="translate(20.92 2.85)" fill="#fff" opacity="0.4"/>
          <path id="Light_layer-3" data-name="Light layer" d="M13.14,0,.9,18.39q-.46-.11-.9-.24L12.07,0Z" transform="translate(24.19 2.85)" fill="#fff" opacity="0.4"/>
          <path id="Light_layer-4" data-name="Light layer" d="M12.37,0l-10,15.13A14.28,14.28,0,0,1,0,12.23L8.13,0Z" transform="translate(58.99 2.85)" fill="#fff" opacity="0.4"/>
          <path id="Light_layer-5" data-name="Light layer" d="M13.12,0,1.56,17.4A10.72,10.72,0,0,1,0,16.51L11,0Z" transform="translate(63.07 2.85)" fill="#fff" opacity="0.4"/>
          <path id="Light_layer-6" data-name="Light layer" d="M13.08,0,.89,18.35c-.31-.08-.61-.18-.89-.28L12,0Z" transform="translate(66.25 2.85)" fill="#fff" opacity="0.4"/>
          <path id="Shape" d="M18.5,23.04c-6.519,0-11.462-1.911-14.691-5.68C.221,13.176-.4,7.514.205,3.61A4.231,4.231,0,0,1,4.39,0H32.826a4.27,4.27,0,0,1,4.25,4.61A24.263,24.263,0,0,1,33.369,15.9C30.141,20.639,25.137,23.04,18.5,23.04ZM4.412,4.04a.262.262,0,0,0-.256.221c-.448,2.878-.013,7.365,2.69,10.54,2.43,2.84,6.35,4.279,11.65,4.279,6.082,0,13.55-2.562,14.59-14.77a.232.232,0,0,0-.06-.18.292.292,0,0,0-.2-.09H4.412Z" transform="translate(12.374 0.85)" fill="#372168"/>
          <path id="Shape-2" data-name="Shape" d="M18.595,23.04C3.236,23.04.485,10.151.015,4.61A4.249,4.249,0,0,1,4.249,0H32.685a4.251,4.251,0,0,1,4.2,3.6c.61,3.918-.017,9.59-3.61,13.76C30.066,21.129,25.127,23.04,18.595,23.04ZM4.256,4.04a.248.248,0,0,0-.191.09A.242.242,0,0,0,4,4.31c1,12.207,8.491,14.77,14.6,14.77,5.294,0,9.21-1.44,11.641-4.28,2.712-3.163,3.149-7.655,2.7-10.541a.258.258,0,0,0-.256-.22H4.256Z" transform="translate(53.925 0.85)" fill="#372168"/>
          <path id="Path-17" data-name="Path" d="M13.867,7.847a2.29,2.29,0,0,1-.62-.1L1.387,3.907A2,2,0,0,1,2.617.1l11.86,3.84a2,2,0,0,1-.61,3.91Z" transform="translate(0.843 4.343)" fill="#372168"/>
          <path id="Path-18" data-name="Path" d="M2.007,7.583a2,2,0,0,1-.6-3.91l11.4-3.58a2,2,0,0,1,1.2,3.82l-11.4,3.57a1.8,1.8,0,0,1-.6.1Z" transform="translate(86.733 4.607)" fill="#372168"/>
          <path id="Path-19" data-name="Path" d="M13.861,5.388a1.94,1.94,0,0,1-.93-.23,10.93,10.93,0,0,0-9.92,0,2.011,2.011,0,1,1-2-3.49,15,15,0,0,1,13.75,0,2,2,0,0,1-.94,3.76Z" transform="translate(43.739 9.092)" fill="#372168"/>
          <path id="Path-20" data-name="Path" d="M10.54,4H2A2,2,0,0,1,2,0h8.54a2,2,0,0,1,0,4Z" transform="translate(45.38 2.53)" fill="#372168"/>
        </g>
      </g>
      <g id="Accessories_01" data-name="Accessories#01" transform="translate(62.21 40.749)">
        <g id="headphones" transform="translate(-0.21 -0.249)">
          <g id="Path-21" data-name="Path">
            <path id="Path-22" data-name="Path" d="M24.61,0V39.39a1.12,1.12,0,0,1-1.12,1.12H12.28q-.61,0-1.23-.06A12.28,12.28,0,0,1,.41,31.35,12,12,0,0,1,0,28.22V12.28A12.27,12.27,0,0,1,12.28,0Z" transform="translate(2.25 61.49)" fill="#f96"/>
            <path id="Path-23" data-name="Path" d="M24.61,0V39.39a1.12,1.12,0,0,1-1.12,1.12H12.28q-.61,0-1.23-.06A12.28,12.28,0,0,1,.41,31.35,12,12,0,0,1,0,28.22V12.28A12.27,12.27,0,0,1,12.28,0Z" transform="translate(2.25 61.49)" fill="rgba(255,255,255,0.09)"/>
          </g>
          <path id="Shape-3" data-name="Shape" d="M25.49,44.51H14.28a9.351,9.351,0,0,1-1.43-.07A14.33,14.33,0,0,1,.47,33.85,14.153,14.153,0,0,1,0,30.21V14.28A14.24,14.24,0,0,1,14.24,0H26.61a2,2,0,0,1,2,2V41.38A3.136,3.136,0,0,1,25.49,44.51ZM14.219,4A10.285,10.285,0,0,0,4.28,11.66a10.549,10.549,0,0,0-.33,2.62V30.21a9.875,9.875,0,0,0,.34,2.61,10.363,10.363,0,0,0,8.9,7.64h11.33V3.95L14.28,4Z" transform="translate(0.25 59.49)" fill="#372168"/>
          <g id="Path-24" data-name="Path">
            <path id="Path-25" data-name="Path" d="M25.73,12.28V28.22a12.43,12.43,0,0,1-.4,3.13,12.29,12.29,0,0,1-11.81,9.16H1.16a1.13,1.13,0,0,1-1-.54A1.15,1.15,0,0,1,0,39.39V0H13.41A12.27,12.27,0,0,1,25.69,12.28Z" transform="translate(127.67 61.49)" fill="#f96"/>
            <path id="Path-26" data-name="Path" d="M25.73,12.28V28.22a12.43,12.43,0,0,1-.4,3.13,12.29,12.29,0,0,1-11.81,9.16H1.16a1.13,1.13,0,0,1-1-.54A1.15,1.15,0,0,1,0,39.39V0H13.41A12.27,12.27,0,0,1,25.69,12.28Z" transform="translate(127.67 61.49)" fill="rgba(255,255,255,0.09)"/>
          </g>
          <path id="Shape-4" data-name="Shape" d="M15.49,44.51H3.12A3.143,3.143,0,0,1,.46,43.02,3.211,3.211,0,0,1,0,41.38V2A2,2,0,0,1,2,0H15.41A14.28,14.28,0,0,1,29.69,14.28V30.21a14.3,14.3,0,0,1-14.2,14.3ZM4,4V40.51H15.48a10.311,10.311,0,0,0,9.87-7.67,10.64,10.64,0,0,0,.339-2.63V14.28a10.547,10.547,0,0,0-.339-2.62A10.278,10.278,0,0,0,15.416,4H4Z" transform="translate(125.71 59.49)" fill="#372168"/>
          <path id="Path-27" data-name="Path" d="M12.05,14.71v2.85a4.63,4.63,0,0,1-4.64,4.63h-7A12,12,0,0,1,0,19.06V3.12A12.35,12.35,0,0,1,.4,0h7a4.63,4.63,0,0,1,4.64,4.63V8.07" transform="translate(2.21 70.65)" fill="#f66"/>
          <path id="Path-28" data-name="Path" d="M9.41,26.18h-7A2,2,0,0,1,.48,24.71,14,14,0,0,1,0,21.05V5.12A14.39,14.39,0,0,1,.46,1.49,2,2,0,0,1,2.4,0h7a6.64,6.64,0,0,1,6.64,6.63v3.44a2,2,0,0,1-4,0V6.65A2.64,2.64,0,0,0,9.4,4.02H4.09a10.37,10.37,0,0,0-.06,1.12V21.07a10.55,10.55,0,0,0,.06,1.13H9.4a2.64,2.64,0,0,0,2.64-2.63V16.73a2,2,0,0,1,4,0v2.84A6.64,6.64,0,0,1,9.41,26.18Z" transform="translate(0.21 68.65)" fill="#372168"/>
          <g id="Path-29" data-name="Path">
            <path id="Path-30" data-name="Path" d="M122.53,59.3H111.71a62,62,0,0,0-4-16.52c-.2-.53-.41-1.05-.63-1.57-.52-1.25-1.09-2.48-1.69-3.68l-.14-.27a52.91,52.91,0,0,0-17-19.64c-1.08-.75-2.18-1.45-3.32-2.1-.93-.54-1.88-1.05-2.85-1.51a45.77,45.77,0,0,0-11.39-3.87h-.25l-.33-.06a48.86,48.86,0,0,0-17.72,0l-.33.06h-.25a45.77,45.77,0,0,0-11.39,3.87c-1,.46-1.92,1-2.85,1.51-1.14.65-2.24,1.35-3.32,2.1a52.91,52.91,0,0,0-17,19.64l-.14.27c-.6,1.2-1.17,2.43-1.69,3.68-.22.52-.43,1-.63,1.57a62,62,0,0,0-4,16.52H0C2.85,32.741,15.82,14.8,33.72,6.1q1.33-.73,2.79-1.38c1-.46,2.09-.89,3.19-1.28.61-.22,1.23-.43,1.86-.62l.49-.15A64.23,64.23,0,0,1,60.76,0h1a64.23,64.23,0,0,1,18.71,2.67l.49.15c.63.19,1.25.4,1.86.62,1.1.39,2.16.82,3.19,1.28s1.9.89,2.79,1.38C106.71,14.8,119.68,32.741,122.53,59.3Z" transform="translate(15.99 2.189)" fill="#a6b4f3"/>
            <path id="Path-31" data-name="Path" d="M122.53,59.3H111.71a62,62,0,0,0-4-16.52c-.2-.53-.41-1.05-.63-1.57-.52-1.25-1.09-2.48-1.69-3.68l-.14-.27a52.91,52.91,0,0,0-17-19.64c-1.08-.75-2.18-1.45-3.32-2.1-.93-.54-1.88-1.05-2.85-1.51a45.77,45.77,0,0,0-11.39-3.87h-.25l-.33-.06a48.86,48.86,0,0,0-17.72,0l-.33.06h-.25a45.77,45.77,0,0,0-11.39,3.87c-1,.46-1.92,1-2.85,1.51-1.14.65-2.24,1.35-3.32,2.1a52.91,52.91,0,0,0-17,19.64l-.14.27c-.6,1.2-1.17,2.43-1.69,3.68-.22.52-.43,1-.63,1.57a62,62,0,0,0-4,16.52H0C2.85,32.741,15.82,14.8,33.72,6.1q1.33-.73,2.79-1.38c1-.46,2.09-.89,3.19-1.28.61-.22,1.23-.43,1.86-.62l.49-.15A64.23,64.23,0,0,1,60.76,0h1a64.23,64.23,0,0,1,18.71,2.67l.49.15c.63.19,1.25.4,1.86.62,1.1.39,2.16.82,3.19,1.28s1.9.89,2.79,1.38C106.71,14.8,119.68,32.741,122.53,59.3Z" transform="translate(15.99 2.189)" fill="rgba(255,255,255,0.16)"/>
          </g>
          <path id="Shape-5" data-name="Shape" d="M2,63.3A2,2,0,0,1,.013,61.081C2.772,35.348,15.124,15.9,34.792,6.321c1.1-.6,2.025-1.054,2.9-1.43l.578-.251a26.982,26.982,0,0,1,2.762-1.088c.732-.268,1.367-.474,2-.651l.5-.149A66.288,66.288,0,0,1,62.436,0h1.731A66.247,66.247,0,0,1,83.1,2.761l.509.149c.678.205,1.327.424,1.931.651,1.058.369,2.178.816,3.33,1.329a31.607,31.607,0,0,1,2.89,1.43,57.705,57.705,0,0,1,23.729,21.313c5.951,9.37,9.672,20.624,11.061,33.447a2,2,0,0,1-1.988,2.219h-.013l-.01-.059H113.713a1.992,1.992,0,0,1-1.991-1.81,59.788,59.788,0,0,0-3.9-16c-.172-.448-.342-.861-.522-1.3l-.087-.212c-.542-1.314-1.072-2.469-1.62-3.53l-.09-.18-.06-.12a51.274,51.274,0,0,0-16.31-18.9c-1.044-.726-2.084-1.38-3.181-2-1-.565-1.759-.954-2.563-1.365l-.147-.075a43.407,43.407,0,0,0-6.41-2.56,42.9,42.9,0,0,0-4.52-1.15h-.54a46.887,46.887,0,0,0-17,0l-.3.06h-.191a44.527,44.527,0,0,0-4.59,1.17,42.812,42.812,0,0,0-6.379,2.55c-.886.414-1.754.874-2.731,1.45-.9.532-2.081,1.241-3.19,2a51.161,51.161,0,0,0-16.31,18.9l-1.86-.77,1.79.89-.11.22c-.561,1.122-1.111,2.322-1.59,3.47l-.61,1.51a60.147,60.147,0,0,0-3.91,16A1.991,1.991,0,0,1,12.8,63.3H2ZM63.317,9.212a51.113,51.113,0,0,1,9.215.84l.31.059h.38c1.612.329,3.285.758,4.84,1.24a48.329,48.329,0,0,1,7,2.78c.721.345,1.469.751,2.262,1.181l.738.4a38.778,38.778,0,0,1,3.45,2.18,55.007,55.007,0,0,1,17.61,20.38l.07.14.069.14c.659,1.318,1.248,2.6,1.75,3.811.238.549.456,1.1.65,1.63a64.075,64.075,0,0,1,3.85,15.25h6.809c-3.055-23.206-14.539-40.754-32.34-49.41h-.09c-.825-.452-1.713-.893-2.64-1.309-.982-.443-2.075-.888-3-1.22-.658-.234-1.236-.427-1.769-.59L82,6.571A62.29,62.29,0,0,0,64.217,3.98H62.5A62.375,62.375,0,0,0,44.732,6.561l-.47.14c-.547.165-1.1.35-1.79.6-1.073.386-2.054.785-3,1.22-.977.45-1.8.844-2.64,1.309h-.09c-17.8,8.655-29.284,26.2-32.341,49.41h6.61a64.415,64.415,0,0,1,4-15.25c.2-.534.42-1.079.65-1.62.507-1.222,1.1-2.5,1.751-3.8l1.85.76-1.789-.89.11-.21a55.046,55.046,0,0,1,17.58-20.32c1.151-.8,2.282-1.52,3.46-2.19s2.016-1.128,3-1.58a47.724,47.724,0,0,1,6.93-2.77,48.89,48.89,0,0,1,4.919-1.26h.291l.339-.059A51.125,51.125,0,0,1,63.317,9.212Z" transform="translate(13.978 0.249)" fill="#372168"/>
          <path id="Path-32" data-name="Path" d="M.01,6.86V4.63A4.63,4.63,0,0,1,4.64,0h8.1a12.35,12.35,0,0,1,.4,3.12V19.06a12.43,12.43,0,0,1-.4,3.13H4.63A4.63,4.63,0,0,1,0,17.56V14.88" transform="translate(140.25 70.67)" fill="#f66"/>
          <path id="Path-33" data-name="Path" d="M14.74,26.16H6.63A6.63,6.63,0,0,1,0,19.53V16.86a2,2,0,1,1,4,0v2.67a2.63,2.63,0,0,0,2.63,2.63h6.45a10.55,10.55,0,0,0,.06-1.13V5.1a10.37,10.37,0,0,0-.06-1.12H6.63A2.63,2.63,0,0,0,4,6.61V8.86a2,2,0,1,1-4,0V6.63A6.63,6.63,0,0,1,6.63,0h8.11a2,2,0,0,1,1.93,1.49,14.41,14.41,0,0,1,.47,3.63V21.05a14.42,14.42,0,0,1-.47,3.64A2,2,0,0,1,14.74,26.16Z" transform="translate(138.25 68.67)" fill="#372168"/>
        </g>
      </g>
    </g>
  </g>
  <path id="Oval" d="M140,280a141.037,141.037,0,0,1-28.215-2.844A139.234,139.234,0,0,1,61.725,256.09,140.408,140.408,0,0,1,11,194.495a139.3,139.3,0,0,1-8.158-26.279,141.364,141.364,0,0,1,0-56.43A139.232,139.232,0,0,1,23.91,61.725,140.41,140.41,0,0,1,85.506,11a139.3,139.3,0,0,1,26.279-8.158,141.364,141.364,0,0,1,56.43,0,139.23,139.23,0,0,1,50.06,21.066A140.409,140.409,0,0,1,269,85.506a139.3,139.3,0,0,1,8.158,26.279,141.367,141.367,0,0,1,0,56.43,139.232,139.232,0,0,1-21.065,50.06A140.408,140.408,0,0,1,194.495,269a139.3,139.3,0,0,1-26.279,8.158A141.037,141.037,0,0,1,140,280ZM140,4C65.009,4,4,65.009,4,140s61.01,136,136,136,136-61.009,136-136S214.991,4,140,4Z" transform="translate(0 0)" fill="#372168"/>
</svg>
