<svg id="å¤´åƒ5" xmlns="http://www.w3.org/2000/svg" xmlns:xlink="http://www.w3.org/1999/xlink" width="280" height="280" viewBox="0 0 280 280">
  <defs>
    <clipPath id="clip-path">
      <path d="M0,138A138,138,0,1,1,138,276,138,138,0,0,1,0,138Z" fill="none"/>
    </clipPath>
  </defs>
  <g id="Girl" transform="translate(0.015 2)">
    <g id="Background">
      <circle id="Background-2" data-name="Background" cx="138" cy="138" r="138" fill="#bec5d8"/>
      <circle id="Background-3" data-name="Background" cx="138" cy="138" r="138" fill="rgba(255,255,255,0.16)"/>
    </g>
    <g id="Girl-2" data-name="Girl" clip-path="url(#clip-path)">
      <g id="Body" transform="translate(12.383 49.8)">
        <g id="Top_color:" data-name="Top color:" transform="translate(2.517 149.03)">
          <path id="Top_color:-2" data-name="Top color:" d="M0,79.17V77.52c.33-1.31.68-2.59,1-3.83.56-2,1.13-4,1.71-5.83.22-.7.44-1.39.65-2.07.16-.5.32-1,.48-1.46.44-1.32.88-2.6,1.32-3.83q1.49-4.14,3-7.62c.25-.59.5-1.17.75-1.73l.15-.33c.54-1.24,1.09-2.4,1.64-3.5a60.67,60.67,0,0,1,5.54-9.35c.06-.09.13-.17.18-.25.55-.72,1.08-1.37,1.59-1.93l.06-.07c.48-.54,1-1.06,1.5-1.58a67,67,0,0,1,10.59-8.67l1.16-.77q.88-.58,1.8-1.14,2.22-1.38,4.57-2.68c2.59-1.44,5.27-2.8,8-4.09,3.3-1.56,6.66-3,10-4.36l2.27-.9c.65-.26,1.31-.51,2-.75,2.92-1.11,5.82-2.13,8.65-3.08,5.48-1.84,10.67-3.38,15.25-4.65C88.6,1.74,92.66.72,95.65,0a2,2,0,0,0,0,.42c.51,3.23,7,6,16.14,7.28a85.27,85.27,0,0,0,11.63.81h.7a85.27,85.27,0,0,0,11.63-.81c9.21-1.3,15.7-4.08,16.15-7.33a2.308,2.308,0,0,0,0-.37c3,.73,7.1,1.75,11.87,3.07,4.56,1.26,9.72,2.8,15.17,4.63q5.19,1.74,10.61,3.83,2.75,1.06,5.49,2.23l2.09.89,1.68.74c3.77,1.7,7.48,3.52,11,5.49,2.2,1.22,4.34,2.49,6.38,3.82l.57.38a34.826,34.826,0,0,1,2.88,2,64.129,64.129,0,0,1,8.29,7q.81.81,1.56,1.65a25.731,25.731,0,0,1,1.72,2.12v.06c.46.62.94,1.3,1.41,2a68.788,68.788,0,0,1,4.14,7.32c.59,1.2,1.18,2.47,1.79,3.83q.57,1.29,1.14,2.67c.29.69.57,1.4.86,2.13q.85,2.16,1.71,4.55c.44,1.23.88,2.51,1.32,3.83q.76,2.33,1.53,4.84c.21.71.43,1.43.64,2.16s.45,1.56.67,2.36c.35,1.24,1.306,4.26,1.616,5.57C243.472,79.162,4.259,79.2,0,79.17Z" transform="translate(0)" fill="#f96"/>
          <path id="Top_color:-3" data-name="Top color:" d="M0,79.17V77.52c.33-1.31.68-2.59,1-3.83.56-2,1.13-4,1.71-5.83.22-.7.44-1.39.65-2.07.16-.5.32-1,.48-1.46.44-1.32.88-2.6,1.32-3.83q1.49-4.14,3-7.62c.25-.59.5-1.17.75-1.73l.15-.33c.54-1.24,1.09-2.4,1.64-3.5a60.67,60.67,0,0,1,5.54-9.35c.06-.09.13-.17.18-.25.55-.72,1.08-1.37,1.59-1.93l.06-.07c.48-.54,1-1.06,1.5-1.58a67,67,0,0,1,10.59-8.67l1.16-.77q.88-.58,1.8-1.14,2.22-1.38,4.57-2.68c2.59-1.44,5.27-2.8,8-4.09,3.3-1.56,6.66-3,10-4.36l2.27-.9c.65-.26,1.31-.51,2-.75,2.92-1.11,5.82-2.13,8.65-3.08,5.48-1.84,10.67-3.38,15.25-4.65C88.6,1.74,92.66.72,95.65,0a2,2,0,0,0,0,.42c.51,3.23,7,6,16.14,7.28a85.27,85.27,0,0,0,11.63.81h.7a85.27,85.27,0,0,0,11.63-.81c9.21-1.3,15.7-4.08,16.15-7.33a2.308,2.308,0,0,0,0-.37c3,.73,7.1,1.75,11.87,3.07,4.56,1.26,9.72,2.8,15.17,4.63q5.19,1.74,10.61,3.83,2.75,1.06,5.49,2.23l2.09.89,1.68.74c3.77,1.7,7.48,3.52,11,5.49,2.2,1.22,4.34,2.49,6.38,3.82l.57.38a34.826,34.826,0,0,1,2.88,2,64.129,64.129,0,0,1,8.29,7q.81.81,1.56,1.65a25.731,25.731,0,0,1,1.72,2.12v.06c.46.62.94,1.3,1.41,2a68.788,68.788,0,0,1,4.14,7.32c.59,1.2,1.18,2.47,1.79,3.83q.57,1.29,1.14,2.67c.29.69.57,1.4.86,2.13q.85,2.16,1.71,4.55c.44,1.23.88,2.51,1.32,3.83q.76,2.33,1.53,4.84c.21.71.43,1.43.64,2.16s.45,1.56.67,2.36c.35,1.24,1.306,4.26,1.616,5.57C243.472,79.162,4.259,79.2,0,79.17Z" transform="translate(0)" fill="rgba(255,255,255,0.09)"/>
        </g>
        <path id="Light_layer" data-name="Light layer" d="M79.98,3.08c-2.47,3.78-6.6,6.78-11.9,9a59.09,59.09,0,0,1-14.12,3.75,100,100,0,0,1-27.93,0,59.49,59.49,0,0,1-14.2-3.78C6.56,9.83,2.46,6.83,0,3.05,4.74,1.74,8.8.72,11.79,0a2,2,0,0,0,0,.42c.51,3.23,7,6,16.14,7.28a85.27,85.27,0,0,0,11.63.81h.7A85.27,85.27,0,0,0,51.89,7.7C61.1,6.4,67.59,3.62,68.04.37a2.31,2.31,0,0,0,0-.37C71.12.74,75.21,1.76,79.98,3.08Z" transform="translate(86.357 149.01)" fill="#fff" opacity="0.4" style="mix-blend-mode: soft-light;isolation: isolate"/>
        <path id="Skin_color:" data-name="Skin color:" d="M60.874,155.589a85.353,85.353,0,0,1-11.63-.81c-9.16-1.29-15.63-4.05-16.14-7.28v-33.13a48.006,48.006,0,0,0,8.45,7.09,34.926,34.926,0,0,0,18.689,6h2a34.878,34.878,0,0,0,18.689-6,48.144,48.144,0,0,0,6.685-5.35,48.092,48.092,0,0,1-6.675,5.309,34.879,34.879,0,0,1-18.689,6h-2a34.927,34.927,0,0,1-18.689-6,47.968,47.968,0,0,1-8.45-7.09,68.766,68.766,0,0,1-13.67-21.749l-.62-1.55c-.325-.847-.65-1.723-.984-2.59-4.875,1.113-11.267.082-15.056-5.7-5-7.609-2.72-15.93,2.52-18.419a9.817,9.817,0,0,1,7.31-.443v-.057c-.67-7.29-1.69-28.45,6.86-42.32C29.855,4.688,46.865-.231,61.275.008c14.39-.239,31.4,4.68,41.78,21.49,8.56,13.93,7.54,35.06,6.88,42.38,0,.008,0,.015,0,.023a9.8,9.8,0,0,1,7.289.447c5.26,2.46,7.5,10.78,2.541,18.39-3.8,5.8-10.213,6.819-15.092,5.693-.316.87-.642,1.748-.988,2.6l-.62,1.55a68.71,68.71,0,0,1-13.66,21.74l-.049.052v33.078c-.45,3.251-6.94,6-16.151,7.33a85.353,85.353,0,0,1-11.63.81Zm-48.16-90.46c.031.31,0,.27.05.39s0,.44.07.59a.509.509,0,0,1,0,.339,3.978,3.978,0,0,0,.09.841q.1,1,.239,2.07c.08.65.17,1.29.26,1.92a4.049,4.049,0,0,0,.12.761q.09.67.211,1.319c.1.62.21,1.23.319,1.831l.06.31c.09.47.18.92.29,1.37s.19.931.3,1.381.149.66.229,1,.24.94.36,1.39.311,1.11.47,1.64q.326,1.005.657,1.995-.317-1.018-.617-2.054c-.16-.53-.32-1.08-.47-1.641s-.24-.92-.36-1.39c-.08-.32-.16-.65-.23-1s-.21-.91-.3-1.38-.2-.9-.291-1.371l-.059-.31c-.11-.6-.22-1.211-.32-1.83q-.12-.651-.21-1.32c-.05-.25-.08-.51-.12-.76-.09-.63-.18-1.27-.26-1.92s-.17-1.37-.24-2.07c0-.28-.06-.56-.08-.84a1.73,1.73,0,0,0-.05-.34c-.05-.22,0-.35-.07-.59s0-.249-.05-.39a.345.345,0,0,1-.01-.034Q12.71,65.082,12.714,65.129Zm-.051-.439c-.012-.157-.023-.34-.038-.514A5,5,0,0,0,12.663,64.69Z" transform="translate(65.043 1.941)" fill="#ffd6cb"/>
        <path id="Path" d="M52.19.02v29.3C27.27,29.71,8.81,16.88,0,9.21V0A44.6,44.6,0,0,0,6.43,5.1a35,35,0,0,0,18.69,6h2a35,35,0,0,0,18.69-6A45.7,45.7,0,0,0,52.19.02Z" transform="translate(100.207 118.3)" fill="#7c3830" opacity="0.15" style="mix-blend-mode: multiply;isolation: isolate"/>
        <path id="Combined_Shape" data-name="Combined Shape" d="M252.452,228.212C249.068,228.2,10.168,228.2,0,228.2c.168-.68,2.7-10.128,3.288-12l.64-2.07c.19-.58.344-1.042.5-1.5.4-1.209.835-2.475,1.33-3.87,1.062-2.962,2.043-5.491,3-7.73.221-.531.485-1.155.76-1.76l.149-.339.085-.193c.469-1.08.955-2.2,1.6-3.377a62.488,62.488,0,0,1,5.72-9.65l.1-.131a.687.687,0,0,1,.1-.139,26.675,26.675,0,0,1,1.7-2.06l.07-.09c.2-.223.417-.442.645-.672.292-.3.6-.6.9-.958a69.129,69.129,0,0,1,10.9-8.83c.336-.236.736-.5,1.19-.79.541-.363,1.142-.745,1.84-1.17,1.4-.865,2.911-1.751,4.63-2.71,2.383-1.335,5.116-2.731,8.12-4.15,3.238-1.541,6.646-3.024,10.13-4.41.923-.377,1.629-.658,2.29-.91.244-.093.468-.18.681-.263.46-.18.858-.334,1.319-.5,2.742-1.022,5.685-2.049,8.71-3.1,4.871-1.637,9.892-3.168,15.35-4.68,3.719-1.023,7.159-1.921,10.471-2.732v-30.3a71.054,71.054,0,0,1-13.55-21.8l-.62-1.56c-.144-.37-.29-.753-.445-1.17a18.144,18.144,0,0,1-2.265.2c-.112,0-.224,0-.336,0a15.3,15.3,0,0,1-12.855-7,17.2,17.2,0,0,1-2.54-14,11.419,11.419,0,0,1,5.88-7.37,11.821,11.821,0,0,1,5.055-1.143q.552,0,1.1.051c-.632-9.529-.59-27.984,7.354-40.879A44.616,44.616,0,0,1,104.36,3.983,55.542,55.542,0,0,1,125.313,0c.36,0,.725,0,1.085.01C126.739,0,127.085,0,127.429,0a55.5,55.5,0,0,1,20.9,3.973,45.228,45.228,0,0,1,21.52,18.476c7.93,12.866,7.983,31.359,7.361,40.9q.414-.029.83-.029a11.787,11.787,0,0,1,5.049,1.143,11.46,11.46,0,0,1,5.89,7.37,17.25,17.25,0,0,1-2.55,14,15.3,15.3,0,0,1-12.821,6.953h0c-.106,0-.212,0-.318,0a18.145,18.145,0,0,1-2.165-.137c-.134.358-.269.715-.4,1.067l-.63,1.58a70.969,70.969,0,0,1-13.69,21.957v30.212c2.921.72,6.362,1.594,10.38,2.71,5.357,1.48,10.494,3.048,15.27,4.66,3.86,1.3,7.36,2.56,10.7,3.86,2.087.814,3.85,1.528,5.549,2.25l1.561.67.53.23,1.71.75c4.091,1.839,7.748,3.658,11.18,5.56,2.445,1.361,4.575,2.636,6.51,3.9.115.071.241.157.374.247.075.05.15.1.226.152.907.586,1.889,1.259,2.92,2a66.439,66.439,0,0,1,8.55,7.22c.59.59,1.181,1.229,1.63,1.72a28.346,28.346,0,0,1,1.8,2.22l.08.1c.32.437.609.86.888,1.269l0,0c.2.3.4.58.6.867a74.138,74.138,0,0,1,4.25,7.51c.559,1.148,1.155,2.427,1.82,3.91.473,1.065.83,1.9,1.16,2.721.24.564.5,1.189.78,1.91l.09.25c.591,1.484,1.208,3.158,1.74,4.61.5,1.4.932,2.665,1.33,3.87.279.841.541,1.682.818,2.573.233.751.474,1.525.732,2.317l.23.77c.017.06,1.721,6.084,2.03,7.259l.616,2.662h0ZM71.737,158.679c-3.1,1.043-5.9,2.041-8.58,3.05-.558.207-1.151.436-1.921.741-.152.061-.319.126-.5.2l-.022.008c-.556.219-1.183.464-1.742.7-3.313,1.311-6.65,2.761-9.92,4.309-2.75,1.3-5.4,2.648-7.88,4-1.677.933-3.146,1.794-4.49,2.63-.6.362-1.165.73-1.713,1.085l-.038.024-1.139.751A65.768,65.768,0,0,0,23.517,184.5l-.032.033c-.48.481-.976.977-1.387,1.467l-.15.16c-.329.356-.734.867-1.2,1.458l-.175.221-.121.17-.08.111a57.762,57.762,0,0,0-5.35,9c-.594,1.177-1.118,2.293-1.6,3.409l-.16.36c-.2.457-.468,1.061-.73,1.68-1.08,2.463-2.066,4.993-2.93,7.52-.451,1.239-.895,2.552-1.31,3.79-.116.341-.224.675-.339,1.03l-.131.4-.65,2.06-.311,1,0,.013c-.543,1.735-1.286,4.113-1.759,5.819l25.663.018,37.416.026h.1c65.246.047,163.847.117,177.406.117h1.536c-.077-.288-.311-1.291-.561-2.351l0-.019c-.259-1.107-.527-2.251-.595-2.489l-.23-.77c-.5-1.643-1.007-3.25-1.519-4.78-.518-1.566-.919-2.731-1.3-3.78-.549-1.534-1.118-3.044-1.69-4.49l-.09-.24c-.272-.686-.517-1.292-.75-1.85-.416-1.006-.775-1.845-1.13-2.64-.675-1.511-1.231-2.7-1.75-3.75a67.8,67.8,0,0,0-4-7.1c-.33-.507-.779-1.181-1.32-1.9l-.09-.11a22.209,22.209,0,0,0-1.58-1.949c-.474-.543-.971-1.05-1.452-1.541l-.048-.049a62.291,62.291,0,0,0-8-6.79c-.893-.647-1.835-1.293-2.8-1.92l-.55-.36c-1.892-1.229-3.949-2.462-6.29-3.77-3.295-1.831-6.854-3.6-10.88-5.41l-1.64-.73-.54-.23-1.53-.65c-1.714-.73-3.5-1.453-5.45-2.21-3.282-1.282-6.724-2.525-10.52-3.8-4.48-1.5-9.1-2.925-13.765-4.236-2.681,3.477-6.691,6.345-11.944,8.537a61.487,61.487,0,0,1-14.591,3.88,98.363,98.363,0,0,1-13.617.951h-.005l-.587,0h-.278a98.585,98.585,0,0,1-13.982-1A61.193,61.193,0,0,1,97.4,162.89c-5.2-2.189-9.168-5.032-11.824-8.464C80.65,155.811,76.111,157.206,71.737,158.679Zm27.27.531a57.728,57.728,0,0,0,13.72,3.64,97.773,97.773,0,0,0,27.339,0,57.22,57.22,0,0,0,13.64-3.61,26.356,26.356,0,0,0,9.189-5.958c-2.694-.725-5.09-1.351-7.053-1.8q-.141.248-.309.486c-3.042,4.4-12.809,6.21-16.977,6.792a86.948,86.948,0,0,1-11.9.831h-.71a87.239,87.239,0,0,1-11.91-.831,53.957,53.957,0,0,1-9.345-2.111c-4.1-1.383-6.764-3.126-7.906-5.18-2.259.558-4.573,1.154-6.911,1.779A26.4,26.4,0,0,0,99.007,159.21Zm1.181-10c.24.842,1.688,1.9,3.872,2.836a41.834,41.834,0,0,0,10.548,2.664,82.777,82.777,0,0,0,11.36.79h.69a82.643,82.643,0,0,0,11.35-.79,51.373,51.373,0,0,0,7.617-1.609c4.408-1.344,6.59-2.946,6.733-3.981a2.11,2.11,0,0,1,.08-.567V121.086a49.979,49.979,0,0,1-5.23,3.963,36.759,36.759,0,0,1-16.677,6.117q-1.615.182-3.252.224h-1.95l-.065,0-.015,0a37.089,37.089,0,0,1-4.98-.471l-.049-.008-.08-.013-.107-.018-.023,0a36.945,36.945,0,0,1-14.461-5.8A47.362,47.362,0,0,1,100.188,121Zm27.09-21.82a32.585,32.585,0,0,0,17.6-5.67,45.568,45.568,0,0,0,8.1-6.8,2.027,2.027,0,0,1,.244-.21,67.111,67.111,0,0,0,13.056-20.9l.62-1.54c.065-.173.131-.348.2-.524.239-.638.488-1.3.723-1.957v-.1c.586-1.614,1.1-3.145,1.57-4.68l.039-.109c.139-.43.27-.86.4-1.281.153-.486.3-.954.43-1.491V82.02c.037-.142.075-.284.113-.427.1-.36.194-.732.287-1.132v-.09c.094-.386.182-.784.266-1.168q.061-.281.124-.562c.145-.648.269-1.26.37-1.821.24-1.266.459-2.548.65-3.81.217-1.433.374-2.769.51-4l.059-.76a1.073,1.073,0,0,1,0-.17c0-.008.122-.827.26-2.17h.029V65.9l1.793.045L172.9,65.79V65.66c.57-6.213,1.78-27.538-6.58-41.09C155.29,6.692,137.082,4.023,127.211,4.023c-.3,0-.6,0-.893.007s-.6-.007-.9-.007c-9.913,0-28.192,2.668-39.229,20.547-8.144,13.2-7.193,33.828-6.613,40.6a2.018,2.018,0,0,1,.092.606,5.315,5.315,0,0,0,.059.731c.013.1.025.187.032.269v.355l.111.925a1.116,1.116,0,0,1,0,.19,4.1,4.1,0,0,0,.039.479c.012.094.023.189.031.282.071.709.152,1.382.24,2,.041.284.079.576.117.859.047.345.094.7.143,1.031v.26a.811.811,0,0,0,.07.4c.025.047.034.075.03.088a.019.019,0,0,1-.014.012.02.02,0,0,0-.015.021c.049.421.121.835.19,1.219.06.364.121.706.18,1.039.048.274.094.538.14.8l.06.28c.076.427.164.846.27,1.28v.1c.084.46.188.9.28,1.28.047.193.083.355.117.511s.071.326.113.489c.031.129.063.255.093.377.089.366.174.712.257.983.057.187.136.47.22.77.078.282.158.568.23.811.656,2.168,1.329,4.213,2,6.079l.18.1.3.8c.208.562.423,1.14.634,1.692.146.373.291.73.443,1.107l.005.013q.08.2.162.4a67.109,67.109,0,0,0,13.092,20.938,1.98,1.98,0,0,1,.2.182,45.645,45.645,0,0,0,8.09,6.79,32.84,32.84,0,0,0,16.75,5.638q.409.021.82.032Zm46.177-38.561a11.555,11.555,0,0,0,9.671-5.209,13.268,13.268,0,0,0,2-10.68,7.461,7.461,0,0,0-3.75-4.839,7.607,7.607,0,0,0-4.49-.66c-.072.635-.128,1.029-.15,1.159l-.06.75c-.2,1.838-.364,3.149-.54,4.251l-.055.343c-.185,1.164-.4,2.483-.615,3.657-.111.607-.238,1.242-.39,1.94l-.039.177c-.121.55-.225,1.024-.352,1.533v.1q-.046.189-.095.383a4.369,4.369,0,0,0,3.364-1.874,4.438,4.438,0,0,0,.41-4.54,1,1,0,1,1,1.68-1.08,6.49,6.49,0,0,1-5.691,9.509l.04.021q-.169,0-.337-.013c-.087.312-.184.644-.293,1-.162.532-.305.986-.48,1.48-.246.8-.522,1.653-.824,2.547C172.79,88.814,173.122,88.829,173.455,88.829ZM71.2,68.07a7.452,7.452,0,0,0-3.74,4.84,13.212,13.212,0,0,0,2,10.68A11.546,11.546,0,0,0,79.125,88.8c.356,0,.716-.017,1.072-.049-.419-1.246-.834-2.555-1.27-4-.035-.121-.07-.241-.106-.363l0-.007q-.091-.309-.183-.626-.254.021-.509.016a6.491,6.491,0,0,1-5.69-9.51,1,1,0,0,1,1.68,1.08,4.439,4.439,0,0,0,.4,4.53,4.35,4.35,0,0,0,3.591,1.89l-.01-.04v-.11c-.046-.2-.095-.4-.141-.59-.035-.143-.069-.281-.1-.41-.077-.33-.2-.9-.3-1.37-.05-.247-.1-.484-.15-.715s-.1-.464-.149-.706l-.05-.29-.044-.238c-.107-.571-.209-1.111-.3-1.663-.07-.4-.149-.862-.21-1.319l-.09-.54v-.23c-.112-.75-.2-1.385-.27-2-.019-.159-.038-.319-.058-.481-.064-.531-.129-1.077-.183-1.628a8.222,8.222,0,0,1-.09-.821,1.273,1.273,0,0,0-.049-.38.836.836,0,0,1-.026-.239,1.058,1.058,0,0,0-.034-.292V67.47a7.354,7.354,0,0,0-1.37-.15A7.7,7.7,0,0,0,71.2,68.07Z" fill="#372168"/>
      </g>
      <g id="Cheeks_color:" data-name="Cheeks color:" transform="translate(101.5 128.789)">
        <path id="Cheeks_color:-2" data-name="Cheeks color:" d="M54,10A10,10,0,1,1,64,20,10,10,0,0,1,54,10ZM0,10A10,10,0,1,1,10,20,10,10,0,0,1,0,10Z" fill="#ff1300" opacity="0.15" style="mix-blend-mode: multiply;isolation: isolate"/>
      </g>
      <g id="Emotions" transform="translate(103.5 103.5)">
        <rect id="Setup_01_Emotions_silly_background" data-name="Setup/#01 Emotions/silly background" width="70" height="56" fill="none"/>
        <g id="Face">
          <g id="Mouth" transform="translate(0 36)">
            <rect id="Setup_03_Face_Mouth_Man_Mouth_background" data-name="Setup/#03 Face/Mouth/Man Mouth background" width="70" height="20" fill="none"/>
            <g id="silly_mouth" transform="translate(23.337 1.155)">
              <path id="Path-2" data-name="Path" d="M12.27,9.8C5.48,13.57,1.42,6.8,0,3.8A25.58,25.58,0,0,0,8.94,0C13.27,3.23,16.8,7.28,12.27,9.8Z" transform="translate(7.383 5.225)" fill="#f66"/>
              <path id="Shape" d="M10.044,14.278a7.973,7.973,0,0,1-2.46-.4C3.664,12.6,1.246,8.5.154,6.168A1.65,1.65,0,0,1,1.3,3.858,23.7,23.7,0,0,0,9.664.308a1.651,1.651,0,0,1,1.92,0c4.284,3.223,6.279,6.016,6.1,8.54-.08,1.15-.666,2.789-3,4.06A9.648,9.648,0,0,1,10.044,14.278Zm.46-10.65A26.833,26.833,0,0,1,4.116,6.542C5.52,8.793,7.03,10.192,8.6,10.7a5.5,5.5,0,0,0,4.521-.67c.812-.451,1.239-.922,1.27-1.4.033-.529-.281-2.075-3.891-5h0Z" transform="translate(5.718 3.517)" fill="#372168"/>
              <path id="Path-3" data-name="Path" d="M3.57,4.818a1,1,0,0,1-.83-.44A11.51,11.51,0,0,0,.36,1.768,1,1,0,0,1,1.57.178a13,13,0,0,1,2.82,3.08,1,1,0,0,1-.26,1.39,1.07,1.07,0,0,1-.56.17Z" transform="translate(11.663 6.326)" fill="#372168"/>
              <path id="Path-4" data-name="Path" d="M1.622,6.835a1.65,1.65,0,0,1-.92-3A22.52,22.52,0,0,0,4.532.575a1.65,1.65,0,1,1,2.4,2.26,25.68,25.68,0,0,1-4.39,3.74A1.63,1.63,0,0,1,1.622,6.835Z" transform="translate(14.691)" fill="#372168"/>
              <path id="Path-5" data-name="Path" d="M2.133,3.894a4.21,4.21,0,0,1-.57,0A1.65,1.65,0,0,1,0,2.154,1.63,1.63,0,0,1,1.743.6h0a21.74,21.74,0,0,0,5.27-.57,1.65,1.65,0,0,1,.72,3.22A26.33,26.33,0,0,1,2.133,3.894Z" transform="translate(0 7.36)" fill="#372168"/>
            </g>
          </g>
          <g id="Nose" transform="translate(0 25)">
            <rect id="Setup_03_Face_Nose_background" data-name="Setup/#03 Face/Nose background" width="70" height="8" fill="none"/>
            <g id="_Nose" data-name="ðŸ‘ƒNose" transform="translate(29.222 2.152)">
              <path id="Path-6" data-name="Path" d="M5.75,5.635A6.52,6.52,0,0,1,.28,2.795,1.75,1.75,0,0,1,3.22.895,3.18,3.18,0,0,0,5.773,2.136,3.18,3.18,0,0,0,8.3.845a1.754,1.754,0,0,1,3,1.82,6.46,6.46,0,0,1-5.55,2.97Z" transform="translate(0 0)" fill="#372168"/>
            </g>
          </g>
          <g id="Eyes" transform="translate(0 12)">
            <rect id="Setup_03_Face_Eyes_happy_kiss_swetdrop_eyes_background" data-name="Setup/#03 Face/Eyes/happy_kiss_swetdrop_eyes background" width="70" height="10" fill="none"/>
            <g id="happy_kiss_swetdrop_eyes" transform="translate(9.066 2.318)">
              <path id="Path-7" data-name="Path" d="M9.79,5.622a1.73,1.73,0,0,1-1.49-.84,3.18,3.18,0,0,0-5.08-.05,1.75,1.75,0,1,1-2.94-1.9,6.67,6.67,0,0,1,11,.13,1.74,1.74,0,0,1-.59,2.4,1.68,1.68,0,0,1-.9.26Z" transform="translate(0 0)" fill="#372168"/>
              <path id="Path-8" data-name="Path" d="M9.85,5.63a1.75,1.75,0,0,1-1.5-.85,3.18,3.18,0,0,0-5.08-.05A1.75,1.75,0,1,1,.33,2.84a6.66,6.66,0,0,1,11,.13A1.76,1.76,0,0,1,9.84,5.63Z" transform="translate(40.947 0.042)" fill="#372168"/>
            </g>
          </g>
          <g id="Eyebrows">
            <rect id="Setup_03_Face_Eyebrow_silly_eyebrows_background" data-name="Setup/#03 Face/Eyebrow/silly_eyebrows background" width="70" height="12" fill="none"/>
            <g id="silly_eyebrows" transform="translate(4.348 2.5)">
              <path id="Path-9" data-name="Path" d="M2.172,6.5a2.007,2.007,0,0,1-.33-4c.08,0,7.94-1.36,15.7-2.48a2.02,2.02,0,1,1,.57,4C10.4,5.14,2.592,6.47,2.512,6.48a1.87,1.87,0,0,1-.34.02Z" fill="#372168"/>
              <path id="Path-10" data-name="Path" d="M9.581,4.551a54.76,54.76,0,0,1-7.85-.53,2.021,2.021,0,0,1,.58-4,60.52,60.52,0,0,0,15.08,0,2.02,2.02,0,1,1,.57,4A64,64,0,0,1,9.581,4.551Z" transform="translate(41.701 2.46)" fill="#372168"/>
            </g>
          </g>
        </g>
      </g>
      <g id="Hairstyle" transform="translate(45.083 21)">
        <g id="_7_hairdo" transform="translate(-9.164 4.431)">
          <g id="Hair_color:" data-name="Hair color:" transform="translate(1.963 1.997)">
            <path id="Hair_color:-2" data-name="Hair color:" d="M.031,141.854c1.73-27.761,41.36-33.58,41.36-33.58,3.8,5.8,10.219,6.819,15.1,5.69,7.893,39.226-8.16,52.705-25.145,52.705C15.666,166.669-.809,155.18.031,141.854Zm143.24-27.91c4.88,1.13,11.3.11,15.1-5.691,0,0,39.63,5.82,41.359,33.581.835,13.326-15.64,24.815-31.32,24.815C151.428,166.649,135.378,153.17,143.271,113.944ZM33.981,81.854c-10.939-32,8.52-67.22,39.811-77.28A88.82,88.82,0,0,1,99.791,0h2.07s45.6-1.2,62.83,37.12c.26.57.55,1.121.81,1.7a52.65,52.65,0,0,1-1.81,47.57,15.655,15.655,0,0,1-5.12,5.58,8.084,8.084,0,0,0-2.7-2.1,9.8,9.8,0,0,0-7.31-.44,106.887,106.887,0,0,0,.27-15.07c0-.48-.121-2.561-.15-3-31-13.58-72.18-6.46-72.18-6.46-2-1.54-2.741-15.07-2.741-15.07-3.71,3.74-4.4,14.9-4.4,14.9a54.391,54.391,0,0,0-17.851,4.41s-.64,16.88-.229,20.27a9.824,9.824,0,0,0-7.321.44,8.629,8.629,0,0,0-3.72,3.52A41.4,41.4,0,0,1,33.981,81.854Z" transform="translate(0 0)" fill="#92645c"/>
            <path id="Hair_color:-3" data-name="Hair color:" d="M.031,141.854c1.73-27.761,41.36-33.58,41.36-33.58,3.8,5.8,10.219,6.819,15.1,5.69,7.893,39.226-8.16,52.705-25.145,52.705C15.666,166.669-.809,155.18.031,141.854Zm143.24-27.91c4.88,1.13,11.3.11,15.1-5.691,0,0,39.63,5.82,41.359,33.581.835,13.326-15.64,24.815-31.32,24.815C151.428,166.649,135.378,153.17,143.271,113.944ZM33.981,81.854c-10.939-32,8.52-67.22,39.811-77.28A88.82,88.82,0,0,1,99.791,0h2.07s45.6-1.2,62.83,37.12c.26.57.55,1.121.81,1.7a52.65,52.65,0,0,1-1.81,47.57,15.655,15.655,0,0,1-5.12,5.58,8.084,8.084,0,0,0-2.7-2.1,9.8,9.8,0,0,0-7.31-.44,106.887,106.887,0,0,0,.27-15.07c0-.48-.121-2.561-.15-3-31-13.58-72.18-6.46-72.18-6.46-2-1.54-2.741-15.07-2.741-15.07-3.71,3.74-4.4,14.9-4.4,14.9a54.391,54.391,0,0,0-17.851,4.41s-.64,16.88-.229,20.27a9.824,9.824,0,0,0-7.321.44,8.629,8.629,0,0,0-3.72,3.52A41.4,41.4,0,0,1,33.981,81.854Z" transform="translate(0 0)" fill="rgba(0,0,0,0.1)"/>
          </g>
          <path id="Combined_Shape-2" data-name="Combined Shape" d="M32.953,170.7a37.661,37.661,0,0,1-18-4.84C5.221,160.56-.5,152.077.034,143.721c.749-12.11,8.512-22.1,22.45-28.879a78.36,78.36,0,0,1,12.85-4.821,38.556,38.556,0,0,0-16.119,3.321,1.022,1.022,0,0,1-.44.1,1,1,0,0,1-.44-1.9c.484-.233,11.165-5.313,22.741-2.887q1.006-.2,2.019-.373a2,2,0,0,1,2,.879A11.539,11.539,0,0,0,55,114.35a13.9,13.9,0,0,0,3.1-.349,2.01,2.01,0,0,1,2.42,1.561c6.121,30.462-2.2,43.933-10.25,49.87a29.185,29.185,0,0,1-16.777,5.274C33.311,170.706,33.131,170.7,32.953,170.7ZM21.361,119.985C10.46,126.08,4.617,134.15,3.994,143.971c-.429,6.781,4.49,13.825,12.839,18.38a35.21,35.21,0,0,0,16.541,4.289,24.2,24.2,0,0,0,14.459-4.419c6.918-5.071,14.108-16.82,9.07-44a15.89,15.89,0,0,1-2.077.154,47.69,47.69,0,0,1-2.473,23.465,1,1,0,0,1-1.87-.73c3.734-9.414,2.84-19.074,2.281-22.858a15.812,15.812,0,0,1-3.071-.706c-6.687,5.194-9.411,13.386-9.44,13.474a1,1,0,0,1-.95.64,1.116,1.116,0,0,1-.31,0,1,1,0,0,1-.641-1.26A33.544,33.544,0,0,1,47.6,116.667a15.625,15.625,0,0,1-1.938-1.175c-5.486.881-15.06,5.363-22.193,13.048a1,1,0,1,1-1.46-1.36c7.005-7.566,15.844-11.895,21.707-13.32a15.527,15.527,0,0,1-1.257-1.4A74.3,74.3,0,0,0,21.361,119.985Zm132.163,45.436c-8.059-5.939-16.38-19.414-10.25-49.881a2.007,2.007,0,0,1,2.42-1.55,13.788,13.788,0,0,0,3.1.352,11.56,11.56,0,0,0,9.9-5.192,2,2,0,0,1,2-.879q1.585.271,3.157.607c6.108-.436,18.724-.539,29.413,4.542a1,1,0,0,1-.43,1.9v.01a1,1,0,0,1-.43-.1c-7.055-3.349-15.153-4.325-21.427-4.477a78.245,78.245,0,0,1,10.337,4.077c13.936,6.782,21.7,16.765,22.451,28.869.52,8.349-5.2,16.834-14.92,22.14a37.654,37.654,0,0,1-18.1,4.84c-.153,0-.307,0-.46,0A29.183,29.183,0,0,1,153.524,165.422Zm2.37-3.19a24.109,24.109,0,0,0,14.437,4.419,35.359,35.359,0,0,0,16.563-4.288c8.347-4.549,13.271-11.592,12.85-18.381-1.458-23.306-32.3-30.337-38.47-31.51q-.4.507-.845.979c6.605,1.527,21.131,6.6,28.584,22.281a1,1,0,0,1-.47,1.34,1.07,1.07,0,0,1-.39.11,1,1,0,0,1-.9-.57c-7.73-16.205-23.395-20.488-28.66-21.492a15.7,15.7,0,0,1-1.938,1.284c3.051,2.373,8.094,7.17,9.878,14a1,1,0,0,1-.71,1.22.733.733,0,0,1-.22.04,1,1,0,0,1-1-.75c-1.795-6.844-7.395-11.625-10.014-13.543a15.757,15.757,0,0,1-3.544.89c-.142,4.421-.028,16.1,4.568,25.5a1,1,0,1,1-1.79.879c-4.769-9.77-4.951-21.519-4.8-26.252a15.684,15.684,0,0,1-2.189-.157C141.816,145.326,148.991,157.114,155.894,162.231ZM14.933,140.4a1,1,0,0,1-.56-1.3,36.871,36.871,0,0,1,3.57-6.77,1,1,0,1,1,1.66,1.11,34.444,34.444,0,0,0-3.37,6.4,1,1,0,0,1-.931.63A1.208,1.208,0,0,1,14.933,140.4Zm27.221-43.03a2.011,2.011,0,0,1-1.59-.79A43.449,43.449,0,0,1,34,84.5a60.921,60.921,0,0,1-.667-36.676,97.516,97.516,0,0,0-7.683,25.587,1,1,0,0,1-.99.88h-.12a1,1,0,0,1-.87-1.121c0-.261,2.979-23.383,16.851-41.2a64.548,64.548,0,0,1,34.57-27.3A91.035,91.035,0,0,1,101.684,0h2.395a85.661,85.661,0,0,1,27.232,5.057,69.764,69.764,0,0,1,19.567,10.674c10.137,6.6,25.082,19.679,30.086,41.51a1,1,0,0,1-.75,1.2.941.941,0,0,1-.15.02,1,1,0,0,1-1-.77,62.773,62.773,0,0,0-16.832-30.174A60.769,60.769,0,0,1,168.464,38.3l.02.044c.113.242.228.49.35.725.107.205.251.509.44.931a54.357,54.357,0,0,1-1.9,49.379,17.857,17.857,0,0,1-5.77,6.27,2,2,0,0,1-2.62-.39,6.1,6.1,0,0,0-2-1.59,7.857,7.857,0,0,0-5.85-.33,1.982,1.982,0,0,1-.6.092,2,2,0,0,1-1.993-2.182,105.9,105.9,0,0,0,.27-14.78c0-.224-.031-.754-.062-1.316v-.013c-.009-.16-.018-.323-.027-.481-12.128-5.073-27.2-7.646-44.8-7.646a166.693,166.693,0,0,0-25.113,1.805,2.059,2.059,0,0,1-.34.029,2.017,2.017,0,0,1-1.2-.4c-1.26-.951-2.223-3.92-2.86-8.82a45.272,45.272,0,0,0-1.08,7.169,2,2,0,0,1-1.88,1.88,51.413,51.413,0,0,0-16,3.76c-.088,2.645-.518,15.989-.221,18.78a2,2,0,0,1-2.58,2.119,7.807,7.807,0,0,0-5.87.34,6.646,6.646,0,0,0-2.849,2.71,2,2,0,0,1-1.6,1Zm34.16-88.91A60.935,60.935,0,0,0,41.174,39c-7.1,14.161-8.3,29.85-3.38,44.179A38,38,0,0,0,42.224,92a10.257,10.257,0,0,1,2.79-2,11.488,11.488,0,0,1,2.471-.86c-12.179-24.714-3.14-42.624-2.742-43.4a1,1,0,0,1,1.78.931c-.1.176-9.085,18.091,3.057,42.2q.212-.008.425-.008c.362,0,.728.017,1.089.051-.055-4.014.128-10.8.26-14.976-.867.322-1.922.727-3.13,1.216a2,2,0,1,1-1.5-3.71c2.933-1.183,4.934-1.881,5.735-2.147a1.98,1.98,0,0,1,.206-.1,57.163,57.163,0,0,1,16.8-4.43,48.131,48.131,0,0,1,1.311-7.3c.893-3.3,2.074-5.706,3.509-7.154a2,2,0,0,1,3.42,1.31c.27,5.192,1.034,10.9,1.74,13,2.252-.34,7.009-.975,13.345-1.373a26.411,26.411,0,0,1,4.235-23.6,1,1,0,1,1,1.6,1.2,24,24,0,0,0-3.79,22.281c2.807-.144,5.877-.236,9.141-.236a150.083,150.083,0,0,1,23.239,1.721q2.478.391,4.869.869c-.222-9.42-2.212-17.321-5.929-23.5a1,1,0,0,1,1.72-1c3.947,6.585,6.04,14.96,6.217,24.925q4.634,1.016,8.9,2.366c1-3.758.237-8.164-.532-11.212a1,1,0,1,1,1.931-.49c.84,3.27,1.6,8,.54,12.2a1,1,0,0,1-.045.123q3.41,1.161,6.555,2.538a2.023,2.023,0,0,1,.262.139c.987.376,3.7,1.435,5.537,2.291a2,2,0,0,1-.84,3.82,1.881,1.881,0,0,1-.83-.19c-.815-.383-1.831-.811-2.777-1.195a108.374,108.374,0,0,1-.074,12.615c.342-.031.685-.046,1.02-.046q.43,0,.859.033c8.331-10.711,7.541-33.7,7.531-33.947a1,1,0,1,1,2,0c0,.987.771,22.807-7.275,34.349a11.372,11.372,0,0,1,1.865.71,10.11,10.11,0,0,1,2,1.291,14.456,14.456,0,0,0,3.2-4,50.524,50.524,0,0,0,1.73-45.75c-.122-.274-.247-.525-.368-.767l-.022-.043c-.14-.279-.312-.647-.43-.9-6.639-14.762-18.439-25.263-35.072-31.21A81.508,81.508,0,0,0,104.051,3.9h-.217a2.229,2.229,0,0,0-.37.079h-1.68A86.044,86.044,0,0,0,76.313,8.461Zm-19.13,47.96a1,1,0,0,1-.87-1.11c0-.284,3.6-27.582,38.721-30.891-6.869-5.953-19.041-4.228-19.171-4.209a1.01,1.01,0,0,1-.29-2c.582-.087,13.633-1.929,21.122,4.982a21.8,21.8,0,0,0-.872-9.6,1,1,0,1,1,1.88-.68,23.618,23.618,0,0,1,1.039,10.145,38.84,38.84,0,0,1,24.01-5.245,1.008,1.008,0,1,1-.25,2,36.943,36.943,0,0,0-21.676,4.4c9.07.37,17.013,4.413,23.646,12.045a1,1,0,1,1-1.509,1.31c-7.18-8.27-15.57-12-25.671-11.33-35.46,2.28-39,29-39,29.3a1,1,0,0,1-.99.89Z" fill="#372168"/>
        </g>
      </g>
      <g id="Accessories_01" data-name="Accessories#01" transform="translate(54.84 5.709)">
        <g id="beret" transform="translate(-0.002 0)">
          <g id="Path-11" data-name="Path" transform="translate(1.961 2.501)">
            <path id="Path-12" data-name="Path" d="M130.857,48.351h0a18.31,18.31,0,0,0,4.19-6.25c.93-2.87,4.38-6.77,6.45-8.93a13,13,0,0,0,2.85-4.73c4.46-12.81-1.68-21-9-23.26-4.52-1.39-13.23-1.46-18.49-1.36a21.58,21.58,0,0,1-7.7-1.23c-6.51-2.3-20.61-5.4-40.51,2.41-24.7,9.71-48.2,30.83-55.07,37S-3.333,58,1.087,65s14.69,2.4,14.69,2.4h0c1.79,3.67,5.3,5.44,8.73,4.38,10.93-3.38,35-10.52,49.84-12.56,19.06-2.62,33.44-4,50-3.59C127.7,55.7,130.547,52.481,130.857,48.351Z" transform="translate(0 0)" fill="#c2b9f5"/>
            <path id="Path-13" data-name="Path" d="M130.857,48.351h0a18.31,18.31,0,0,0,4.19-6.25c.93-2.87,4.38-6.77,6.45-8.93a13,13,0,0,0,2.85-4.73c4.46-12.81-1.68-21-9-23.26-4.52-1.39-13.23-1.46-18.49-1.36a21.58,21.58,0,0,1-7.7-1.23c-6.51-2.3-20.61-5.4-40.51,2.41-24.7,9.71-48.2,30.83-55.07,37S-3.333,58,1.087,65s14.69,2.4,14.69,2.4h0c1.79,3.67,5.3,5.44,8.73,4.38,10.93-3.38,35-10.52,49.84-12.56,19.06-2.62,33.44-4,50-3.59C127.7,55.7,130.547,52.481,130.857,48.351Z" transform="translate(0 0)" fill="rgba(0,0,0,0.1)"/>
          </g>
          <path id="Shape-2" data-name="Shape" d="M24.548,76.048h-.009a9.429,9.429,0,0,1-7.63-4.2,19.656,19.656,0,0,1-6.01,1,12.554,12.554,0,0,1-5.216-1.037,9.784,9.784,0,0,1-4.293-3.786A9.321,9.321,0,0,1,.236,60.974a20.113,20.113,0,0,1,3.345-7.16c3.2-4.621,7.815-8.772,10.575-11.253l.081-.073C34.589,24.215,53.319,11.642,69.908,5.117A69.313,69.313,0,0,1,95.216,0a49.847,49.847,0,0,1,16.6,2.687A19.613,19.613,0,0,0,118.35,3.8c.155,0,.313,0,.468-.006,1.2-.023,2.372-.035,3.478-.035,7.246,0,12.51.5,15.643,1.485a16.711,16.711,0,0,1,9.94,8.39c1.731,3.411,3.192,9.205.32,17.44a14.9,14.9,0,0,1-3.29,5.46c-3.2,3.337-5.384,6.311-6,8.159a18.973,18.973,0,0,1-4.18,6.53,10.624,10.624,0,0,1-2.861,5.982,7.676,7.676,0,0,1-5.449,2.4h-.16c-1.814-.043-3.646-.065-5.445-.065-14.7,0-28.3,1.457-44.205,3.645-14.057,1.893-37.059,8.631-49.52,12.479A8.673,8.673,0,0,1,24.548,76.048Zm-6.779-8.7h0v.019a2.011,2.011,0,0,1,1.8,1.13A5.676,5.676,0,0,0,24.5,72.055a4.8,4.8,0,0,0,1.412-.217c4.458-1.382,13.393-4.09,23.145-6.694a238.513,238.513,0,0,1,27.015-5.937c16.057-2.2,29.834-3.672,44.874-3.672,1.785,0,3.6.021,5.406.062,2.272,0,4.24-2.381,4.48-5.42a1.931,1.931,0,0,1,.61-1.3,16.3,16.3,0,0,0,3.669-5.421c1.066-3.3,4.781-7.488,6.9-9.689a11.1,11.1,0,0,0,2.41-4c1.9-5.458,1.862-10.407-.11-14.31a12.769,12.769,0,0,0-7.56-6.369C134,8.23,128.941,7.776,122.112,7.776c-1.036,0-2.12.011-3.224.032-.178,0-.358.006-.537.006a23.623,23.623,0,0,1-7.873-1.346,45.849,45.849,0,0,0-15.265-2.46,65.374,65.374,0,0,0-23.846,4.84c-16.1,6.33-34.418,18.64-54.43,36.589-6.866,6.169-15.6,15-12.16,20.471,1.235,1.964,3.271,2.96,6.05,2.96a17.355,17.355,0,0,0,6.121-1.31,2.011,2.011,0,0,1,.819-.21Z" transform="translate(0 0.544)" fill="#372168"/>
          <path id="Path-14" data-name="Path" d="M0,0A16.49,16.49,0,0,1,3.34,6.81" transform="translate(64.188 1.981)" fill="#f9f9f9"/>
          <path id="Path-15" data-name="Path" d="M5.291,10.791A2,2,0,0,1,3.341,9.2,14.53,14.53,0,0,0,.4,3.2,2,2,0,0,1,3.521.7a18.37,18.37,0,0,1,3.73,7.65,2,2,0,0,1-1.55,2.37,1.84,1.84,0,0,1-.41.07Z" transform="translate(62.227)" fill="#372168"/>
          <path id="Path-16" data-name="Path" d="M1,21.506a1,1,0,0,1-.44-1.9c.2-.1,21.17-10.36,53.75-16.39,7.63-1.41,15.12-2.49,22.24-3.21a1.005,1.005,0,0,1,.21,2c-7.08.71-14.51,1.79-22.09,3.19-32.29,6-53,16.11-53.23,16.22A1,1,0,0,1,1,21.506Z" transform="translate(14.514 49.216)" fill="#372168"/>
          <path id="Path-17" data-name="Path" d="M32.862,3.711h-.24c-.1,0-10.81-2.58-31.56-1.39a1,1,0,1,1-.12-2c21.1-1.2,31.72,1.34,32.16,1.45a1.007,1.007,0,1,1-.24,2Z" transform="translate(99.956 48.14)" fill="#372168"/>
          <path id="Path-18" data-name="Path" d="M11.162,4.633a22.73,22.73,0,0,1-10.32-2.6l-.25-.12A1,1,0,1,1,1.442.1l.25.12c3.14,1.48,7.89,3.71,16,1.45a1,1,0,0,1,.54,1.93,26.46,26.46,0,0,1-7.07,1.03Z" transform="translate(105.666 11.898)" fill="#372168"/>
        </g>
      </g>
    </g>
  </g>
  <path id="Oval" d="M140,280a141.037,141.037,0,0,1-28.215-2.844A139.234,139.234,0,0,1,61.725,256.09,140.408,140.408,0,0,1,11,194.495a139.3,139.3,0,0,1-8.158-26.279,141.364,141.364,0,0,1,0-56.43A139.232,139.232,0,0,1,23.91,61.725,140.41,140.41,0,0,1,85.506,11a139.3,139.3,0,0,1,26.279-8.158,141.364,141.364,0,0,1,56.43,0,139.23,139.23,0,0,1,50.06,21.066A140.409,140.409,0,0,1,269,85.506a139.3,139.3,0,0,1,8.158,26.279,141.367,141.367,0,0,1,0,56.43,139.232,139.232,0,0,1-21.065,50.06A140.408,140.408,0,0,1,194.495,269a139.3,139.3,0,0,1-26.279,8.158A141.037,141.037,0,0,1,140,280ZM140,4C65.009,4,4,65.009,4,140s61.01,136,136,136,136-61.009,136-136S214.991,4,140,4Z" fill="#372168"/>
</svg>
