<svg id="å¤´åƒ25" xmlns="http://www.w3.org/2000/svg" xmlns:xlink="http://www.w3.org/1999/xlink" width="280.004" height="280" viewBox="0 0 280.004 280">
  <defs>
    <clipPath id="clip-path">
      <path d="M0,138A138,138,0,1,1,138,276,138,138,0,0,1,0,138Z" fill="none"/>
    </clipPath>
  </defs>
  <g id="Man" transform="translate(4.004)">
    <g id="Background">
      <circle id="Background-2" data-name="Background" cx="138" cy="138" r="138" fill="#bec5d8"/>
      <circle id="Background-3" data-name="Background" cx="138" cy="138" r="138" fill="rgba(255,255,255,0.16)"/>
    </g>
    <g id="Man-2" data-name="Man" transform="translate(0)" clip-path="url(#clip-path)">
      <g id="Body" transform="translate(-2 48.67)">
        <path id="Skin_color:" data-name="Skin color:" d="M31.138,146.778v-34.7l-.05-.058a70.8,70.8,0,0,1-11.58-19.45c-.21-.51-.419-1-.62-1.55-.329-.86-.67-1.75-1-2.631-.46-1.309-.92-2.64-1.35-4l-.689-2.19a80.884,80.884,0,0,1-2.6-12.75c-.09-.73-.18-1.48-.26-2.24,0-.28-.06-.56-.08-.84,0,0-.12-.841-.26-2.29a2.3,2.3,0,0,1,0-.249c-.66-7.28-1.68-28.451,6.87-42.331C29.888,4.688,46.908-.222,61.308.008c14.39-.23,31.41,4.68,41.78,21.49,8.486,13.84,7.5,34.929,6.836,42.268a9.675,9.675,0,0,1,7.255.462c5.3,2.52,7.539,10.85,2.579,18.41-3.781,5.771-10.157,6.819-15.029,5.716l-.011.033c-.33.88-.66,1.77-1,2.631-.2.53-.41,1-.62,1.55a70.421,70.421,0,0,1-11.49,19.32l-.049.059v34.831c-.79,5.071-14,9.09-30.21,9.09S31.927,151.868,31.138,146.778Zm58.3-32.47a47.7,47.7,0,0,1-8.46,7.1,34.921,34.921,0,0,1-8.6,4.237,34.932,34.932,0,0,0,8.629-4.247,47.728,47.728,0,0,0,8.46-7.1l.193-.224ZM2.788,82.678c-5-7.6-2.731-15.93,2.509-18.41a10.391,10.391,0,0,1,1.281-.509,9.9,9.9,0,0,1,6,.07,2.49,2.49,0,0,0,0,.259,1.967,1.967,0,0,0,.05.551c.11,1.11.21,1.74.21,1.74a7.958,7.958,0,0,0,.08.84c.12,1.111.25,2.2.4,3.271a79.483,79.483,0,0,0,2.46,11.7q1.019,3.19,2.1,6.189a15.827,15.827,0,0,1-3.556.405A13.376,13.376,0,0,1,2.788,82.678Z" transform="translate(79.172 1.992)" fill="#dd9488"/>
        <path id="Path" d="M56.55,0V27.79C29.55,28.25,9.43,15.22,0,7.54V.1L.11.22A47.67,47.67,0,0,0,8.57,7.31a34.9,34.9,0,0,0,18.68,6H29.2a34.9,34.9,0,0,0,18.69-6A48.15,48.15,0,0,0,56.36.21Z" transform="translate(112.21 116.09)" fill="#7c3830" opacity="0.15" style="mix-blend-mode: multiply;isolation: isolate"/>
        <g id="Top_color:" data-name="Top color:" transform="translate(0 148.68)">
          <path id="Top_color:-2" data-name="Top color:" d="M0,80.65S17.705,45.4,27.33,36.82c19.14-17.08,49.85-27.4,69-32.94l.75-.22C102.75,2.02,107.35.82,110.24,0c.79,5.07,14,9.09,30.2,9.09s29.42-4,30.22-9.09h.16c2.86.82,7.42,2,13.05,3.63l.68.2c19.11,5.53,49.87,15.86,69.06,33C263.089,45.319,280,80.65,280,80.65Z" fill="#abd47c"/>
          <path id="Top_color:-3" data-name="Top color:" d="M0,80.65S17.705,45.4,27.33,36.82c19.14-17.08,49.85-27.4,69-32.94l.75-.22C102.75,2.02,107.35.82,110.24,0c.79,5.07,14,9.09,30.2,9.09s29.42-4,30.22-9.09h.16c2.86.82,7.42,2,13.05,3.63l.68.2c19.11,5.53,49.87,15.86,69.06,33C263.089,45.319,280,80.65,280,80.65Z" fill="rgba(255,255,255,0.09)"/>
        </g>
        <path id="Path-2" data-name="Path" d="M62.51,19.26a83,83,0,0,1-18.39,2C23.66,21.26,6.29,14.47,0,3.88l.75-.22C6.42,2.02,11.02.82,13.91,0h0c.79,5.07,14,9.09,30.2,9.09S73.53,5.09,74.33,0h.16c2.86.82,7.42,2,13.05,3.63l.68.2C85.13,9.07,79.34,13.38,71.8,16.4" transform="translate(96.32 148.79)" fill="#fff" opacity="0.4" style="mix-blend-mode: soft-light;isolation: isolate"/>
        <path id="Combined_Shape" data-name="Combined Shape" d="M0,229.329s.008-.021.021-.05c.7-1.585,4.433-9.959,9.161-19.164,3.034-5.907,5.878-11,8.455-15.123,3.22-5.16,6.027-8.824,8.344-10.893a99.035,99.035,0,0,1,12.574-9.436,147.063,147.063,0,0,1,15.738-8.659c11.6-5.541,25.163-10.538,41.468-15.276l.73-.21c3.5-1.017,6.56-1.856,9.35-2.61l2.4-.664V114.733A72.3,72.3,0,0,1,96.8,95.31c-.193-.463-.39-.957-.64-1.6q-.206-.536-.41-1.073a18.012,18.012,0,0,1-2.261.143c-.113,0-.229,0-.343,0a15.287,15.287,0,0,1-12.847-7,17.139,17.139,0,0,1-2.55-13.94,11.431,11.431,0,0,1,5.88-7.37,15.65,15.65,0,0,1,1.5-.6,11.873,11.873,0,0,1,3.541-.54q.471,0,.939.037c-.624-9.535-.577-28.038,7.36-40.917a45.168,45.168,0,0,1,21.5-18.463A55.594,55.594,0,0,1,139.421,0c.359,0,.723,0,1.079.01C140.841,0,141.188,0,141.529,0a55.515,55.515,0,0,1,20.911,3.975A45.183,45.183,0,0,1,183.95,22.45c7.921,12.867,7.984,31.314,7.363,40.86q.457-.035.919-.035a12,12,0,0,1,3.128.415,12.951,12.951,0,0,1,1.92.73,11.438,11.438,0,0,1,5.87,7.35,17.2,17.2,0,0,1-2.55,13.95,15.3,15.3,0,0,1-12.892,7.063c-.1,0-.2,0-.3,0a17.939,17.939,0,0,1-2.235-.145l-.414,1.105c-.193.521-.408,1.04-.617,1.544l-.023.057a72.24,72.24,0,0,1-11.39,19.344v32.51l3.02.837c2.47.67,5.44,1.49,8.789,2.45l.72.21a2,2,0,0,1,.207.077c32.1,9.32,54.85,20.224,69.534,33.333,2.95,2.638,9.59,14.8,14.642,24.529,5.451,10.507,10.309,20.6,10.357,20.7H0Zm28.67-42.26c-4.518,4.026-10.177,14.207-14.129,22.04C10.263,217.589,7,225.229,6.97,225.3l266.01.106c-.024-.06-3.035-7.762-7.039-16.24-3.71-7.854-9.082-18.065-13.6-22.1-13.862-12.375-36.329-23.18-66.8-32.125-3.394,4.928-9.075,9.08-16.554,12.085a2,2,0,1,1-1.49-3.711c6.17-2.479,10.93-5.749,13.95-9.56-2.54-.72-4.8-1.34-6.75-1.87l-2.76-.76c-2.346,3.636-9.468,7.083-21.682,8.283-3.046.3-6.317.458-9.768.458-9.331,0-17.34-1.129-23.161-3.263-4.006-1.469-6.83-3.356-8.178-5.429l-2.171.591c-2.07.56-4.57,1.24-7.36,2,6.92,8.71,22.54,14.22,40.9,14.22a80.381,80.381,0,0,0,17.951-1.93,2,2,0,0,1,.89,3.9,84.775,84.775,0,0,1-18.87,2.07c-20.391,0-37.8-6.648-45.011-17.062C65,163.923,42.528,174.72,28.67,187.07Zm111.8-31.21c15.355,0,25.858-3.611,27.9-6.592a1.982,1.982,0,0,0,.337-.8v-29.4a50.429,50.429,0,0,1-7.46,6.018,36.946,36.946,0,0,1-19.76,6.3h-2.11a36.865,36.865,0,0,1-19.7-6.321,50.223,50.223,0,0,1-7.42-5.97L112.24,148.2a2.087,2.087,0,0,1,.07.265c.465,2.989,10.808,7.136,26.743,7.38Q139.754,155.859,140.47,155.859Zm-1.01-28.469h1.95a33.026,33.026,0,0,0,7.9-1.186,35.8,35.8,0,0,0,8.779-3.886q.462-.291.916-.6a45.6,45.6,0,0,0,8.1-6.8c.61-.629,1.258-1.351,2.1-2.34a2.013,2.013,0,0,1,.189-.193A68.31,68.31,0,0,0,180.39,93.81c.205-.488.408-.993.6-1.5l.093-.243c.187-.49.444-1.162.647-1.757l.25-.67c.646-1.79,1.3-3.772,2-6.061a82.886,82.886,0,0,0,2.79-14.62,3.884,3.884,0,0,1,.04-.5c.012-.094.023-.181.03-.273V68.05c0-.014.008-.078.024-.2.042-.326.131-1,.226-2l1.671.05h.212l-1.883-.16v-.11c.569-6.212,1.776-27.533-6.58-41.1C169.475,6.654,151.2,3.984,141.294,3.984c-.261,0-.526,0-.784.005l-.94.01c-9.913,0-28.187,2.669-39.21,20.551-8.242,13.372-7.18,34.3-6.6,40.827a2.024,2.024,0,0,1,.053.462v.269c.1.94.182,1.579.213,1.834.012.09.017.133.017.138a.732.732,0,0,1,0,.14,2.853,2.853,0,0,0,.07.77c.084.78.178,1.555.26,2.21a79.95,79.95,0,0,0,2.55,12.43c.22.72.454,1.453.68,2.16q.121.384.247.768l.144.437c.279.836.567,1.664.85,2.474l.088.252c.321.878.657,1.746,1,2.579.191.485.383.959.571,1.418l0,0,.028.068a68.66,68.66,0,0,0,11.25,18.92c.786.915,1.481,1.668,2,2.22a46.37,46.37,0,0,0,8.1,6.8,32.957,32.957,0,0,0,17.581,5.661ZM187.585,88.83A11.511,11.511,0,0,0,197.25,83.6,13.179,13.179,0,0,0,199.3,72.93a7.443,7.443,0,0,0-3.749-4.83,7.917,7.917,0,0,0-1.291-.49,7.341,7.341,0,0,0-3.27-.157c-.065.6-.115.981-.139,1.128a5.907,5.907,0,0,0-.057.6v.006c0,.067-.009.133-.014.2a86.494,86.494,0,0,1-2.107,12.266,4.34,4.34,0,0,0,3.377-1.876,4.418,4.418,0,0,0,.41-4.53,1,1,0,0,1,1.68-1.09,6.489,6.489,0,0,1-5.65,9.48q-.167.011-.334.011-.154.565-.316,1.129c-.423,1.389-.853,2.731-1.284,4.014C186.9,88.814,187.242,88.83,187.585,88.83ZM88.61,67.309l-.019,0a7.3,7.3,0,0,0-2.221.348,8.424,8.424,0,0,0-1,.4A7.416,7.416,0,0,0,81.6,72.9a13.208,13.208,0,0,0,2,10.679A11.515,11.515,0,0,0,93.258,88.8c.356,0,.716-.017,1.072-.05-.419-1.249-.834-2.558-1.27-4q-.165-.567-.322-1.137-.264.022-.527.017a6.5,6.5,0,0,1-5.7-9.51,1,1,0,0,1,1.68,1.09,4.473,4.473,0,0,0,.41,4.531,4.359,4.359,0,0,0,3.616,1.879A80.234,80.234,0,0,1,90.54,72.75a.239.239,0,0,1,0-.08c-.136-.968-.267-2.038-.4-3.27a3.4,3.4,0,0,0-.043-.444c-.019-.136-.038-.275-.047-.417q0-.033,0-.065c-.031-.155-.06-.39-.092-.7-.014-.107-.029-.226-.044-.364a7.68,7.68,0,0,0-1.241-.1H88.59ZM240.46,191.7a94.646,94.646,0,0,0-11.44-8.64,1,1,0,1,1,1.09-1.68,96.016,96.016,0,0,1,11.68,8.83,1,1,0,1,1-1.33,1.49Z" fill="#372168"/>
      </g>
      <g id="Chin" transform="translate(104 153.5)">
        <rect id="Setup_03_Face_Man_Chin_background" data-name="Setup/#03 Face/Man Chin background" width="70" height="10" fill="none"/>
        <g id="Group_2" data-name="Group 2" transform="translate(27.837 3.702)">
          <path id="Path-3" data-name="Path" d="M12.5,3.989a1,1,0,0,1-.74-.32,7.19,7.19,0,0,0-5-1.67,7.37,7.37,0,0,0-5,1.6A1,1,0,1,1,.344,2.2a10.36,10.36,0,0,1,12.89.1,1,1,0,0,1-.73,1.69Z" transform="translate(0 0)" fill="#372168"/>
        </g>
      </g>
      <g id="Cheeks_color:" data-name="Cheeks color:" transform="translate(102 124.789)">
        <path id="Cheeks_color:-2" data-name="Cheeks color:" d="M54,10A10,10,0,1,1,64,20,10,10,0,0,1,54,10ZM0,10A10,10,0,1,1,10,20,10,10,0,0,1,0,10Z" fill="#ff1300" opacity="0.15" style="mix-blend-mode: multiply;isolation: isolate"/>
      </g>
      <g id="Hairstyle" transform="translate(46 19.5)">
        <g id="_7_hairdo" transform="translate(12.85 6.067)">
          <g id="Hair_color:" data-name="Hair color:" transform="translate(1.818 2.165)">
            <path id="Hair_color:-2" data-name="Hair color:" d="M151.932,84.968s5.91,6.2-1.81,12.42c0,0,4.95,9.86-5,13,0,0,2.72,9.1-6.36,10.69,0,0,.45,11.6-9.56,9.81,0,0,2.05,11.28-8.87,9.69,0,0-1.83,9.15-12.47,5.18v-9.4a70.44,70.44,0,0,0,11.46-19.29c.21-.51.42-1,.62-1.55.33-.86.66-1.75,1-2.63,4.88,1.13,11.29.1,15.09-5.7,5-7.6,2.73-15.93-2.51-18.41a9.67,9.67,0,0,0-7.16-.48h-.16c.23-7.15.38-22.78-4.92-32.55a2,2,0,0,0-3.46-.51c-4.44,5.73-13.85,1.89-13.85,1.89-6.16,12.23-17.7,2.88-17.7,2.88-9.92,9.35-17.08,0-17.08,0-12.71,7.17-18.48-2.58-18.48-2.58-7.43,2.67-11.35.37-13.38-2.33-1-1.28-2.5-.77-3.47.49-6.35,8.34-5.32,25.6-5,32.71h-.12a9.67,9.67,0,0,0-7.2.47c-5.24,2.48-7.48,10.81-2.51,18.41,3.8,5.8,10.21,6.83,15.09,5.7.32.88.66,1.77,1,2.63.2.53.41,1,.62,1.55a70.8,70.8,0,0,0,11.58,19.47v10c-3.7.54-11.39.63-12.28-7.72,0,0-10.23,3.53-10.23-8.81,0,0-10.69,1.55-8.86-10.28,0,0-9.55-.22-6.37-10.68,0,0-10-2.9-3.64-11.68,0,0-7.87-3.32-2.12-12.64,0,0-8.34-6.37-.38-12.51,0,0-5.9-8,2-13.18,0,0-5.23-9.23,4.33-11.78,0,0-4.1-10,6.35-11.63,0,0-2.5-10.68,8.64-10,0,0-.22-9.78,10.46-8,0,0,0-9.77,10.23-6.59,0,0,2.38-10,11.93-5.46,0,0,4-7.73,14.22-2,0,0,5.46-8.18,13.86.23,0,0,8.42-7,13.51,1.14,0,0,9.18-2.3,11.45,5.43,0,0,11.42-3.39,11.42,7.53,0,0,8.19-1.58,8.87,7.73,0,0,9.53,0,8,10,0,0,9.08,1.67,6.82,11.63,0,0,8.64,4.27,2.95,12,0,0,8.64,3,3.4,12.72C151.932,72.008,158.992,78.378,151.932,84.968Z" transform="translate(0 0)" fill="#f66"/>
            <path id="Hair_color:-3" data-name="Hair color:" d="M151.932,84.968s5.91,6.2-1.81,12.42c0,0,4.95,9.86-5,13,0,0,2.72,9.1-6.36,10.69,0,0,.45,11.6-9.56,9.81,0,0,2.05,11.28-8.87,9.69,0,0-1.83,9.15-12.47,5.18v-9.4a70.44,70.44,0,0,0,11.46-19.29c.21-.51.42-1,.62-1.55.33-.86.66-1.75,1-2.63,4.88,1.13,11.29.1,15.09-5.7,5-7.6,2.73-15.93-2.51-18.41a9.67,9.67,0,0,0-7.16-.48h-.16c.23-7.15.38-22.78-4.92-32.55a2,2,0,0,0-3.46-.51c-4.44,5.73-13.85,1.89-13.85,1.89-6.16,12.23-17.7,2.88-17.7,2.88-9.92,9.35-17.08,0-17.08,0-12.71,7.17-18.48-2.58-18.48-2.58-7.43,2.67-11.35.37-13.38-2.33-1-1.28-2.5-.77-3.47.49-6.35,8.34-5.32,25.6-5,32.71h-.12a9.67,9.67,0,0,0-7.2.47c-5.24,2.48-7.48,10.81-2.51,18.41,3.8,5.8,10.21,6.83,15.09,5.7.32.88.66,1.77,1,2.63.2.53.41,1,.62,1.55a70.8,70.8,0,0,0,11.58,19.47v10c-3.7.54-11.39.63-12.28-7.72,0,0-10.23,3.53-10.23-8.81,0,0-10.69,1.55-8.86-10.28,0,0-9.55-.22-6.37-10.68,0,0-10-2.9-3.64-11.68,0,0-7.87-3.32-2.12-12.64,0,0-8.34-6.37-.38-12.51,0,0-5.9-8,2-13.18,0,0-5.23-9.23,4.33-11.78,0,0-4.1-10,6.35-11.63,0,0-2.5-10.68,8.64-10,0,0-.22-9.78,10.46-8,0,0,0-9.77,10.23-6.59,0,0,2.38-10,11.93-5.46,0,0,4-7.73,14.22-2,0,0,5.46-8.18,13.86.23,0,0,8.42-7,13.51,1.14,0,0,9.18-2.3,11.45,5.43,0,0,11.42-3.39,11.42,7.53,0,0,8.19-1.58,8.87,7.73,0,0,9.53,0,8,10,0,0,9.08,1.67,6.82,11.63,0,0,8.64,4.27,2.95,12,0,0,8.64,3,3.4,12.72C151.932,72.008,158.992,78.378,151.932,84.968Z" transform="translate(0 0)" fill="rgba(255,255,255,0.09)"/>
          </g>
          <path id="Combined_Shape-2" data-name="Combined Shape" d="M114.58,150.963a15.94,15.94,0,0,1-5.6-1.13,2.01,2.01,0,0,1-1.3-1.869v-9.4a2,2,0,0,1,.481-1.3,68.26,68.26,0,0,0,11.16-18.77c.057-.143.115-.285.173-.429.143-.352.291-.716.427-1.081.058-.153.116-.307.174-.462l.005-.014c.2-.527.4-1.071.611-1.6l.2-.54a2,2,0,0,1,2.32-1.25,13.726,13.726,0,0,0,3.094.352,11.568,11.568,0,0,0,9.906-5.2,13.227,13.227,0,0,0,2.049-10.67,7.423,7.423,0,0,0-3.749-4.83,7.669,7.669,0,0,0-5.72-.38h-.19a2,2,0,0,1-2.55-2c.462-14.4-1.113-25-4.68-31.53a.659.659,0,0,0-.16-.191c-2.034,2.577-5,3.883-8.807,3.883a19.877,19.877,0,0,1-5.644-.883A11.625,11.625,0,0,1,99.35,67.3a10.708,10.708,0,0,1-2.313.248,16.961,16.961,0,0,1-8.757-2.888,14.073,14.073,0,0,1-8.935,3.62c-.313,0-.631-.014-.945-.04a13.051,13.051,0,0,1-7.75-3.64,18.95,18.95,0,0,1-8.335,2.16,13.79,13.79,0,0,1-10.455-4.88,18.829,18.829,0,0,1-5.342.856,11.307,11.307,0,0,1-5.45-1.3,10.666,10.666,0,0,1-3.367-2.9,1.671,1.671,0,0,0-.38.38c-5.76,7.563-4.94,23.882-4.59,30.85v.54a2,2,0,0,1-2.53,2h-.18a7.709,7.709,0,0,0-5.75.36,7.462,7.462,0,0,0-3.75,4.84,13.229,13.229,0,0,0,2.05,10.67,11.564,11.564,0,0,0,9.917,5.2,13.829,13.829,0,0,0,3.083-.347,2,2,0,0,1,2.33,1.27c.265.717.616,1.66,1,2.589.118.323.246.636.37.939.077.186.155.379.23.572a68.475,68.475,0,0,0,11.25,18.91,2,2,0,0,1,.48,1.3v10a2.007,2.007,0,0,1-1.71,2,21.529,21.529,0,0,1-3.065.229,12.261,12.261,0,0,1-7.7-2.3,9.636,9.636,0,0,1-3.39-5.26,9.671,9.671,0,0,1-1.466.113,9.565,9.565,0,0,1-5.264-1.573c-2.184-1.556-3.469-4.14-3.82-7.68a9.987,9.987,0,0,1-6.611-2.68c-1.858-1.888-2.709-4.58-2.53-8a9.218,9.218,0,0,1-5.29-3.35c-1.474-2.006-1.895-4.637-1.25-7.82a9.507,9.507,0,0,1-5-5.15,8.633,8.633,0,0,1,1-7.11,9.022,9.022,0,0,1-3-4.31c-.82-2.56-.427-5.437,1.17-8.55C2.072,85.9.01,83.287,0,80.094a8.586,8.586,0,0,1,2.87-6.231,12.218,12.218,0,0,1-1.39-7.529A9.837,9.837,0,0,1,5.01,60.453a10.994,10.994,0,0,1-.311-8,8.392,8.392,0,0,1,4.67-4.44,11,11,0,0,1,.82-7.72,9.153,9.153,0,0,1,5.77-4.209A10.488,10.488,0,0,1,18.05,28.7a9.25,9.25,0,0,1,6.881-3.072h.119a10.231,10.231,0,0,1,3.181-6,10.1,10.1,0,0,1,6.346-2.251c.333,0,.671.017,1,.05a9.176,9.176,0,0,1,3.3-5.51A8.114,8.114,0,0,1,43.8,10.411a12.985,12.985,0,0,1,2.465.252,10.731,10.731,0,0,1,4.9-5.44,9.6,9.6,0,0,1,7.6-.09A10.494,10.494,0,0,1,63.65,1.9a10.809,10.809,0,0,1,3.106-.447A15.33,15.33,0,0,1,73.2,3.043a10.154,10.154,0,0,1,6.051-3c.29-.029.585-.043.876-.043A11.787,11.787,0,0,1,87.72,3.234,13.624,13.624,0,0,1,94.687.98a8.89,8.89,0,0,1,7.273,3.753A15.25,15.25,0,0,1,104,4.6c2.658,0,7.462.711,9.77,5.477a16.592,16.592,0,0,1,2.481-.192,10.1,10.1,0,0,1,6.2,1.812,8.747,8.747,0,0,1,3.34,6.13,9.415,9.415,0,0,1,5.32,1.83,9.538,9.538,0,0,1,3.479,6.17,10.49,10.49,0,0,1,6.18,3.3,9.744,9.744,0,0,1,2.15,7.09,11.291,11.291,0,0,1,5.35,4.17,11.035,11.035,0,0,1,1.52,7.91,10.7,10.7,0,0,1,4.451,6,8.8,8.8,0,0,1-.89,6.26,9.448,9.448,0,0,1,3.65,4.4c1,2.57.776,5.511-.67,8.74a11.556,11.556,0,0,1,2.74,6.93,9.847,9.847,0,0,1-2.54,6.54,9.94,9.94,0,0,1,1.54,5.85,10.46,10.46,0,0,1-3.569,7,12.4,12.4,0,0,1,.1,8.66,9.666,9.666,0,0,1-5.21,5.08,11.115,11.115,0,0,1-1.3,7.089,9.118,9.118,0,0,1-5.389,3.93c-.185,2.105-.905,5.987-3.641,8.33a8.61,8.61,0,0,1-5.6,2.071h-.111a10.488,10.488,0,0,1-2.53,7.189,8.872,8.872,0,0,1-7.1,2.451,9.952,9.952,0,0,1-4.22,4.86,9.518,9.518,0,0,1-4.782,1.291Zm9.2-33.269c-.067.182-.135.367-.206.548-.2.512-.418,1.057-.64,1.59a72.528,72.528,0,0,1-11.34,19.29l.09,7.391a7.449,7.449,0,0,0,5.67-.2,6.4,6.4,0,0,0,2.84-3.939,2,2,0,0,1,2.25-1.57,12.043,12.043,0,0,0,1.718.134,4.764,4.764,0,0,0,3.6-1.244c1.68-1.732,1.49-5.172,1.29-6.241a2,2,0,0,1,2.32-2.329,9.5,9.5,0,0,0,1.653.158,4.684,4.684,0,0,0,3.217-1.079c2.025-1.792,2.377-5.642,2.34-6.85a1.99,1.99,0,0,1,1.66-2,5.808,5.808,0,0,0,4.27-2.47c1.449-2.35.519-5.649.509-5.681a2.008,2.008,0,0,1,1.31-2.479c2.256-.722,3.733-1.879,4.39-3.44,1.285-3.014-.552-6.763-.571-6.8a2.013,2.013,0,0,1,.54-2.45c2.021-1.647,3.1-3.363,3.21-5.1a6.5,6.5,0,0,0-1.6-4.379,2,2,0,0,1,.09-2.84,6.777,6.777,0,0,0,2.5-4.85c0-2.844-2.465-5.153-2.49-5.17a2,2,0,0,1-.41-2.43c1.421-2.652,1.8-4.886,1.12-6.64a6.233,6.233,0,0,0-3.42-3.24,2.006,2.006,0,0,1-.949-3.08c1.31-1.771,1.792-3.414,1.43-4.881-.574-2.359-3.134-3.862-3.641-4.139l-.02-.011a1.994,1.994,0,0,1-1.06-2.229c.581-2.564.346-4.667-.7-6.25a7.738,7.738,0,0,0-4.53-3,2.013,2.013,0,0,1-1.62-2.281c.376-2.355.031-4.291-1-5.6-1.738-2.01-4.918-2.1-4.95-2.1h-.005a2.006,2.006,0,0,1-1.994-1.86c-.17-2.335-.887-4-2.13-4.94a6.206,6.206,0,0,0-4.37-1,1.98,1.98,0,0,1-.379.036,2,2,0,0,1-2-2c0-2.4-.629-4.079-1.87-5a6.215,6.215,0,0,0-3.785-1.031,13.147,13.147,0,0,0-3.216.421,2,2,0,0,1-2.489-1.36c-1.05-3.576-4.072-4.326-6.421-4.326a9.075,9.075,0,0,0-2.579.327A2,2,0,0,1,99.22,8.2a5.646,5.646,0,0,0-3.859-3,5.174,5.174,0,0,0-.836-.067c-2.927,0-5.81,2.344-5.835,2.367a2,2,0,0,1-1.274.458A1.984,1.984,0,0,1,86,7.374C83.867,5.241,81.84,4.16,79.972,4.16c-.157,0-.317.008-.472.023a6.643,6.643,0,0,0-4.289,2.66,2,2,0,0,1-2.631.64,12.591,12.591,0,0,0-5.964-1.837,6.737,6.737,0,0,0-1.945.276A6.339,6.339,0,0,0,61.11,8.7a2,2,0,0,1-2.64.88A8.876,8.876,0,0,0,54.739,8.6a4.54,4.54,0,0,0-1.979.427c-2.51,1.2-3.41,4.649-3.41,4.68a2,2,0,0,1-2.54,1.45,10.7,10.7,0,0,0-3.128-.552,4.259,4.259,0,0,0-2.552.722c-1.914,1.392-2,4.489-2,4.52a2.009,2.009,0,0,1-2.006,1.988,1.975,1.975,0,0,1-.334-.028,13.084,13.084,0,0,0-2.155-.2,5.882,5.882,0,0,0-3.965,1.247c-1.977,1.72-2,4.761-2,4.89a2.005,2.005,0,0,1-2,2.054c-.04,0-.079,0-.119,0-.3-.018-.591-.027-.87-.027-2.194,0-3.782.561-4.72,1.667-1.631,1.939-1.123,5.239-1.005,5.881,0,.019.005.028.005.03a2,2,0,0,1-.29,1.58,2.076,2.076,0,0,1-1.361.86c-2.39.36-4,1.241-4.79,2.62-1.231,2.136-.425,5.059-.021,6.217.014.041.021.06.021.063a1.937,1.937,0,0,1-1.33,2.64c-2.068.55-3.4,1.485-3.949,2.78-.9,2.138.3,5.12.84,6.089a2.008,2.008,0,0,1-.64,2.651,6.483,6.483,0,0,0-3.17,4.27c-.546,3.035,1.6,5.963,1.619,5.99.007.009.01.011.011.011a2.011,2.011,0,0,1-.391,2.77c-1.765,1.364-2.66,2.78-2.66,4.21,0,2.152,1.962,4.3,3,5.13a1.992,1.992,0,0,1,.48,2.64c-1.619,2.628-2.15,4.875-1.58,6.68a5.518,5.518,0,0,0,2.78,3.07,2,2,0,0,1,.84,3c-1.482,2.051-2.011,3.814-1.57,5.24.65,1.92,3.216,3.069,4.15,3.35a2.018,2.018,0,0,1,1.2.968A1.993,1.993,0,0,1,13.3,111.7c-.819,2.7-.745,4.743.22,6.079,1.391,1.914,4.261,2,4.29,2a2.017,2.017,0,0,1,1.93,2.309c-.472,3.02-.072,5.207,1.191,6.5a6.453,6.453,0,0,0,4.5,1.535,8.68,8.68,0,0,0,.888-.043l.018,0a2.069,2.069,0,0,1,.279-.02,2,2,0,0,1,2,2c0,3.233.743,5.4,2.21,6.45a4.923,4.923,0,0,0,2.94.831,8.816,8.816,0,0,0,2.426-.357l.013,0a2,2,0,0,1,2.631,1.68,6.453,6.453,0,0,0,2.26,4.68,9.338,9.338,0,0,0,6,1.44v-7.491a72.874,72.874,0,0,1-11.43-19.43l-.083-.194c-.192-.453-.373-.88-.557-1.395l-.41-1.08a15.593,15.593,0,0,1-15.47-6.86,17.213,17.213,0,0,1-2.56-14,11.434,11.434,0,0,1,5.881-7.37,11.618,11.618,0,0,1,5-1.139c.352,0,.708.016,1.059.049a102,102,0,0,1,.309-15.925c.774-6.8,2.52-12.027,5.191-15.536a4.771,4.771,0,0,1,3.68-2,3.653,3.653,0,0,1,2.95,1.54,6.842,6.842,0,0,0,5.789,2.717A16.019,16.019,0,0,0,51.76,57.6a2,2,0,0,1,2.4.86,10.018,10.018,0,0,0,3.81,3.29,9.516,9.516,0,0,0,4.192.945,16.279,16.279,0,0,0,7.808-2.375,2,2,0,0,1,2.57.52,9.489,9.489,0,0,0,6.11,3.35c.184.014.37.022.554.022,2.415,0,4.919-1.215,7.446-3.612a2,2,0,0,1,2.63-.09c.038.03,3.8,2.964,7.652,2.964a6.938,6.938,0,0,0,1.478-.154c2.213-.478,4.071-2.16,5.521-5a2,2,0,0,1,2.55-1s.038.012.1.033a17.841,17.841,0,0,0,5.711,1.067c2.562,0,4.48-.8,5.7-2.371a3.868,3.868,0,0,1,3.072-1.532c.1,0,.206,0,.309.013a4.281,4.281,0,0,1,3.409,2.3c3.691,6.791,5.45,17.241,5.231,31.06a11.118,11.118,0,0,1,12,8.45,17.151,17.151,0,0,1-2.561,13.94,15.591,15.591,0,0,1-15.469,6.87C123.911,117.332,123.843,117.516,123.776,117.695ZM36.51,132.253v-.02h-.15c-2.32-.33-3.93-1.24-4.8-2.68a5.479,5.479,0,0,1-.4-4.35,1,1,0,0,1,1.88.66,3.49,3.49,0,0,0,.24,2.67,4.442,4.442,0,0,0,3.37,1.72,1,1,0,0,1-.069,2Zm87.089-3.81a1,1,0,0,1,.931-1.07c1.689-.25,2.83-.83,3.38-1.73a3.522,3.522,0,0,0,.23-2.67,1,1,0,1,1,1.89-.66,5.528,5.528,0,0,1-.4,4.35c-.869,1.45-2.489,2.35-4.81,2.69l-.15.02-.071,0A1,1,0,0,1,123.6,128.443Zm18.54-43.39a4.468,4.468,0,0,0-1.2-3.61,3.575,3.575,0,0,0-2.59-.63,1.017,1.017,0,0,1-.37-2,5.528,5.528,0,0,1,4.24,1.06c1.291,1.08,1.94,2.81,1.921,5.16a1,1,0,1,1-2,.021Zm-126.5-.311a1,1,0,0,1-1-1c0-2.34.63-4.08,1.93-5.16a5.513,5.513,0,0,1,4.23-1.06,1.017,1.017,0,1,1-.37,2,3.442,3.442,0,0,0-2.59.64,4.473,4.473,0,0,0-1.2,3.59,1,1,0,0,1-1,1Zm114.5-33.37c-.08-1.72-.56-2.9-1.42-3.53a3.461,3.461,0,0,0-2.61-.47,1,1,0,1,1-.49-1.94,5.482,5.482,0,0,1,4.289.8c1.361,1,2.11,2.69,2.23,5a1,1,0,0,1-.949,1l-.05.09A1,1,0,0,1,130.14,51.373ZM25.49,51.323a5.483,5.483,0,0,1,1-4.24c1.07-1.291,2.78-1.94,5.1-1.94h.05a1,1,0,1,1,0,2h-.05a4.434,4.434,0,0,0-3.56,1.22,3.533,3.533,0,0,0-.619,2.58,1,1,0,0,1-.79,1.17.635.635,0,0,1-.131.02h-.019A1,1,0,0,1,25.49,51.323Zm61.46-1.73a1,1,0,0,1-.83-.43,4.479,4.479,0,0,0-3-2.26,3.49,3.49,0,0,0-2.5,1,1,1,0,1,1-1.43-1.4,5.609,5.609,0,0,1,4.08-1.57c1.68.14,3.21,1.18,4.541,3.11A.982.982,0,0,1,87,49.6ZM59.99,30.713a4.472,4.472,0,0,0-3.41-1.67,3.471,3.471,0,0,0-2.26,1.4,1,1,0,0,1-1.67-1.11,5.52,5.52,0,0,1,3.73-2.281c1.67-.17,3.371.59,5,2.25A1,1,0,0,1,60.7,31h-.007A1,1,0,0,1,59.99,30.713ZM101.53,23.3a4.47,4.47,0,0,0-3.41-1.67,3.448,3.448,0,0,0-2.26,1.4,1,1,0,1,1-1.67-1.111,5.518,5.518,0,0,1,3.73-2.28c1.67-.16,3.37.59,5,2.24a1,1,0,0,1-.68,1.71h0A1,1,0,0,1,101.53,23.3Z" fill="#372168"/>
        </g>
      </g>
      <g id="Emotions" transform="translate(104 99)">
        <rect id="Setup_01_Emotions_suspicious_background" data-name="Setup/#01 Emotions/suspicious background" width="70" height="56" fill="none"/>
        <g id="Face">
          <g id="Mouth" transform="translate(0 36)">
            <rect id="Setup_03_Face_Mouth_Path_background" data-name="Setup/#03 Face/Mouth/Path background" width="70" height="20" fill="none"/>
            <g id="Path_2" data-name="Path 2" transform="translate(31.852 4.645)">
              <path id="Path-4" data-name="Path" d="M1.75,6.711a1.75,1.75,0,0,1,0-3.5c3.09,0,6-1,7.52-2.66a1.751,1.751,0,1,1,2.55,2.4C9.6,5.311,5.85,6.711,1.75,6.711Z" transform="translate(0 0)" fill="#372168"/>
            </g>
          </g>
          <g id="Nose" transform="translate(0 25)">
            <rect id="Setup_03_Face_Nose_background" data-name="Setup/#03 Face/Nose background" width="70" height="8" fill="none"/>
            <g id="_Nose" data-name="ðŸ‘ƒNose" transform="translate(29.222 2.152)">
              <path id="Path-5" data-name="Path" d="M5.75,5.635A6.52,6.52,0,0,1,.28,2.795,1.75,1.75,0,0,1,3.22.895,3.18,3.18,0,0,0,5.773,2.136,3.18,3.18,0,0,0,8.3.845a1.754,1.754,0,0,1,3,1.82,6.46,6.46,0,0,1-5.55,2.97Z" transform="translate(0 0)" fill="#372168"/>
            </g>
          </g>
          <g id="Eyes" transform="translate(0 12)">
            <rect id="Setup_03_Face_Eyes_eyes-8_background" data-name="Setup/#03 Face/Eyes/eyes-8 background" width="70" height="10" fill="none"/>
            <g id="silly_eyes" transform="translate(11.498 1.85)">
              <path id="Path-6" data-name="Path" d="M3.338,6.9c4.44,0,4.45-6.9,0-6.9S-1.112,6.9,3.338,6.9Z" transform="translate(0)" fill="#372168"/>
              <path id="Path-7" data-name="Path" d="M3.334,6.9c4.43,0,4.44-6.9,0-6.9S-1.116,6.9,3.334,6.9Z" transform="translate(40.974)" fill="#372168"/>
            </g>
          </g>
          <g id="Eyebrows">
            <rect id="Setup_03_Face_Eyebrow_suspicious_eyebrows_background" data-name="Setup/#03 Face/Eyebrow/suspicious_eyebrows background" width="70" height="12" fill="none"/>
            <g id="suspicious_eyebrows" transform="translate(3.373 -0.41)">
              <path id="Path-8" data-name="Path" d="M19.817,7.817a2,2,0,0,1-1.39-.55c-7.29-7-14.33-.74-15.11,0a2,2,0,0,1-2.76-2.89c3.57-3.43,12.48-7.84,20.64,0a2,2,0,0,1-1.38,3.44Z" transform="translate(0 4.613)" fill="#372168"/>
              <path id="Path-9" data-name="Path" d="M19.877,7.82a2,2,0,0,1-1.39-.56c-7.28-7-14.33-.73-15.1,0A2,2,0,1,1,.617,4.37c3.57-3.42,12.48-7.83,20.64,0a2,2,0,0,1-1.38,3.45Z" transform="translate(41.51)" fill="#372168"/>
            </g>
          </g>
        </g>
      </g>
    </g>
  </g>
  <path id="Oval" d="M140,280a141.037,141.037,0,0,1-28.215-2.844A139.234,139.234,0,0,1,61.725,256.09,140.408,140.408,0,0,1,11,194.495a139.3,139.3,0,0,1-8.158-26.279,141.364,141.364,0,0,1,0-56.43A139.232,139.232,0,0,1,23.91,61.725,140.41,140.41,0,0,1,85.506,11a139.3,139.3,0,0,1,26.279-8.158,141.364,141.364,0,0,1,56.43,0,139.23,139.23,0,0,1,50.06,21.066A140.409,140.409,0,0,1,269,85.506a139.3,139.3,0,0,1,8.158,26.279,141.367,141.367,0,0,1,0,56.43,139.232,139.232,0,0,1-21.065,50.06A140.408,140.408,0,0,1,194.495,269a139.3,139.3,0,0,1-26.279,8.158A141.037,141.037,0,0,1,140,280ZM140,4C65.009,4,4,65.009,4,140s61.01,136,136,136,136-61.009,136-136S214.991,4,140,4Z" transform="translate(0 0)" fill="#372168"/>
</svg>
