<svg id="å¤´åƒ3" xmlns="http://www.w3.org/2000/svg" xmlns:xlink="http://www.w3.org/1999/xlink" width="280" height="280" viewBox="0 0 280 280">
  <defs>
    <clipPath id="clip-path">
      <path d="M0,138A138,138,0,1,1,138,276,138,138,0,0,1,0,138Z" fill="none"/>
    </clipPath>
  </defs>
  <g id="Man" transform="translate(0.004)">
    <g id="Background">
      <circle id="Background-2" data-name="Background" cx="138" cy="138" r="138" fill="#bec5d8"/>
      <circle id="Background-3" data-name="Background" cx="138" cy="138" r="138" fill="rgba(255,255,255,0.16)"/>
    </g>
    <g id="Man-2" data-name="Man" transform="translate(0)" clip-path="url(#clip-path)">
      <g id="Body" transform="translate(-2 48.67)">
        <path id="Skin_color:" data-name="Skin color:" d="M31.138,146.778v-34.7l-.05-.058a70.8,70.8,0,0,1-11.58-19.45c-.21-.51-.419-1-.62-1.55-.329-.86-.67-1.75-1-2.631-.46-1.309-.92-2.64-1.35-4l-.689-2.19a80.884,80.884,0,0,1-2.6-12.75c-.09-.73-.18-1.48-.26-2.24,0-.28-.06-.56-.08-.84,0,0-.12-.841-.26-2.29a2.3,2.3,0,0,1,0-.249c-.66-7.28-1.68-28.451,6.87-42.331C29.888,4.688,46.908-.222,61.308.008c14.39-.23,31.41,4.68,41.78,21.49,8.486,13.84,7.5,34.929,6.836,42.268a9.675,9.675,0,0,1,7.255.462c5.3,2.52,7.539,10.85,2.579,18.41-3.781,5.771-10.157,6.819-15.029,5.716l-.011.033c-.33.88-.66,1.77-1,2.631-.2.53-.41,1-.62,1.55a70.421,70.421,0,0,1-11.49,19.32l-.049.059v34.831c-.79,5.071-14,9.09-30.21,9.09S31.927,151.868,31.138,146.778Zm58.3-32.47a47.7,47.7,0,0,1-8.46,7.1,34.921,34.921,0,0,1-8.6,4.237,34.932,34.932,0,0,0,8.629-4.247,47.728,47.728,0,0,0,8.46-7.1l.193-.224ZM2.788,82.678c-5-7.6-2.731-15.93,2.509-18.41a10.391,10.391,0,0,1,1.281-.509,9.9,9.9,0,0,1,6,.07,2.49,2.49,0,0,0,0,.259,1.967,1.967,0,0,0,.05.551c.11,1.11.21,1.74.21,1.74a7.958,7.958,0,0,0,.08.84c.12,1.111.25,2.2.4,3.271a79.483,79.483,0,0,0,2.46,11.7q1.019,3.19,2.1,6.189a15.827,15.827,0,0,1-3.556.405A13.376,13.376,0,0,1,2.788,82.678Z" transform="translate(79.172 1.992)" fill="#ffc7bb"/>
        <path id="Path" d="M56.55,0V27.79C29.55,28.25,9.43,15.22,0,7.54V.1L.11.22A47.67,47.67,0,0,0,8.57,7.31a34.9,34.9,0,0,0,18.68,6H29.2a34.9,34.9,0,0,0,18.69-6A48.15,48.15,0,0,0,56.36.21Z" transform="translate(112.21 116.09)" fill="#7c3830" opacity="0.15" style="mix-blend-mode: multiply;isolation: isolate"/>
        <g id="Top_color:" data-name="Top color:" transform="translate(0 148.68)">
          <path id="Top_color:-2" data-name="Top color:" d="M0,80.65S17.705,45.4,27.33,36.82c19.14-17.08,49.85-27.4,69-32.94l.75-.22C102.75,2.02,107.35.82,110.24,0c.79,5.07,14,9.09,30.2,9.09s29.42-4,30.22-9.09h.16c2.86.82,7.42,2,13.05,3.63l.68.2c19.11,5.53,49.87,15.86,69.06,33C263.089,45.319,280,80.65,280,80.65Z" fill="#ffcb6d"/>
          <path id="Top_color:-3" data-name="Top color:" d="M0,80.65S17.705,45.4,27.33,36.82c19.14-17.08,49.85-27.4,69-32.94l.75-.22C102.75,2.02,107.35.82,110.24,0c.79,5.07,14,9.09,30.2,9.09s29.42-4,30.22-9.09h.16c2.86.82,7.42,2,13.05,3.63l.68.2c19.11,5.53,49.87,15.86,69.06,33C263.089,45.319,280,80.65,280,80.65Z" fill="rgba(0,0,0,0.08)"/>
        </g>
        <path id="Path-2" data-name="Path" d="M62.51,19.26a83,83,0,0,1-18.39,2C23.66,21.26,6.29,14.47,0,3.88l.75-.22C6.42,2.02,11.02.82,13.91,0h0c.79,5.07,14,9.09,30.2,9.09S73.53,5.09,74.33,0h.16c2.86.82,7.42,2,13.05,3.63l.68.2C85.13,9.07,79.34,13.38,71.8,16.4" transform="translate(96.32 148.79)" fill="#fff" opacity="0.4" style="mix-blend-mode: soft-light;isolation: isolate"/>
        <path id="Combined_Shape" data-name="Combined Shape" d="M0,229.329s.008-.021.021-.05c.7-1.585,4.433-9.959,9.161-19.164,3.034-5.907,5.878-11,8.455-15.123,3.22-5.16,6.027-8.824,8.344-10.893a99.035,99.035,0,0,1,12.574-9.436,147.063,147.063,0,0,1,15.738-8.659c11.6-5.541,25.163-10.538,41.468-15.276l.73-.21c3.5-1.017,6.56-1.856,9.35-2.61l2.4-.664V114.733A72.3,72.3,0,0,1,96.8,95.31c-.193-.463-.39-.957-.64-1.6q-.206-.536-.41-1.073a18.012,18.012,0,0,1-2.261.143c-.113,0-.229,0-.343,0a15.287,15.287,0,0,1-12.847-7,17.139,17.139,0,0,1-2.55-13.94,11.431,11.431,0,0,1,5.88-7.37,15.65,15.65,0,0,1,1.5-.6,11.873,11.873,0,0,1,3.541-.54q.471,0,.939.037c-.624-9.535-.577-28.038,7.36-40.917a45.168,45.168,0,0,1,21.5-18.463A55.594,55.594,0,0,1,139.421,0c.359,0,.723,0,1.079.01C140.841,0,141.188,0,141.529,0a55.515,55.515,0,0,1,20.911,3.975A45.183,45.183,0,0,1,183.95,22.45c7.921,12.867,7.984,31.314,7.363,40.86q.457-.035.919-.035a12,12,0,0,1,3.128.415,12.951,12.951,0,0,1,1.92.73,11.438,11.438,0,0,1,5.87,7.35,17.2,17.2,0,0,1-2.55,13.95,15.3,15.3,0,0,1-12.892,7.063c-.1,0-.2,0-.3,0a17.939,17.939,0,0,1-2.235-.145l-.414,1.105c-.193.521-.408,1.04-.617,1.544l-.023.057a72.24,72.24,0,0,1-11.39,19.344v32.51l3.02.837c2.47.67,5.44,1.49,8.789,2.45l.72.21a2,2,0,0,1,.207.077c32.1,9.32,54.85,20.224,69.534,33.333,2.95,2.638,9.59,14.8,14.642,24.529,5.451,10.507,10.309,20.6,10.357,20.7H0Zm28.67-42.26c-4.518,4.026-10.177,14.207-14.129,22.04C10.263,217.589,7,225.229,6.97,225.3l266.01.106c-.024-.06-3.035-7.762-7.039-16.24-3.71-7.854-9.082-18.065-13.6-22.1-13.862-12.375-36.329-23.18-66.8-32.125-3.394,4.928-9.075,9.08-16.554,12.085a2,2,0,1,1-1.49-3.711c6.17-2.479,10.93-5.749,13.95-9.56-2.54-.72-4.8-1.34-6.75-1.87l-2.76-.76c-2.346,3.636-9.468,7.083-21.682,8.283-3.046.3-6.317.458-9.768.458-9.331,0-17.34-1.129-23.161-3.263-4.006-1.469-6.83-3.356-8.178-5.429l-2.171.591c-2.07.56-4.57,1.24-7.36,2,6.92,8.71,22.54,14.22,40.9,14.22a80.381,80.381,0,0,0,17.951-1.93,2,2,0,0,1,.89,3.9,84.775,84.775,0,0,1-18.87,2.07c-20.391,0-37.8-6.648-45.011-17.062C65,163.923,42.528,174.72,28.67,187.07Zm111.8-31.21c15.355,0,25.858-3.611,27.9-6.592a1.982,1.982,0,0,0,.337-.8v-29.4a50.429,50.429,0,0,1-7.46,6.018,36.946,36.946,0,0,1-19.76,6.3h-2.11a36.865,36.865,0,0,1-19.7-6.321,50.223,50.223,0,0,1-7.42-5.97L112.24,148.2a2.087,2.087,0,0,1,.07.265c.465,2.989,10.808,7.136,26.743,7.38Q139.754,155.859,140.47,155.859Zm-1.01-28.469h1.95a33.026,33.026,0,0,0,7.9-1.186,35.8,35.8,0,0,0,8.779-3.886q.462-.291.916-.6a45.6,45.6,0,0,0,8.1-6.8c.61-.629,1.258-1.351,2.1-2.34a2.013,2.013,0,0,1,.189-.193A68.31,68.31,0,0,0,180.39,93.81c.205-.488.408-.993.6-1.5l.093-.243c.187-.49.444-1.162.647-1.757l.25-.67c.646-1.79,1.3-3.772,2-6.061a82.886,82.886,0,0,0,2.79-14.62,3.884,3.884,0,0,1,.04-.5c.012-.094.023-.181.03-.273V68.05c0-.014.008-.078.024-.2.042-.326.131-1,.226-2l1.671.05h.212l-1.883-.16v-.11c.569-6.212,1.776-27.533-6.58-41.1C169.475,6.654,151.2,3.984,141.294,3.984c-.261,0-.526,0-.784.005l-.94.01c-9.913,0-28.187,2.669-39.21,20.551-8.242,13.372-7.18,34.3-6.6,40.827a2.024,2.024,0,0,1,.053.462v.269c.1.94.182,1.579.213,1.834.012.09.017.133.017.138a.732.732,0,0,1,0,.14,2.853,2.853,0,0,0,.07.77c.084.78.178,1.555.26,2.21a79.95,79.95,0,0,0,2.55,12.43c.22.72.454,1.453.68,2.16q.121.384.247.768l.144.437c.279.836.567,1.664.85,2.474l.088.252c.321.878.657,1.746,1,2.579.191.485.383.959.571,1.418l0,0,.028.068a68.66,68.66,0,0,0,11.25,18.92c.786.915,1.481,1.668,2,2.22a46.37,46.37,0,0,0,8.1,6.8,32.957,32.957,0,0,0,17.581,5.661ZM187.585,88.83A11.511,11.511,0,0,0,197.25,83.6,13.179,13.179,0,0,0,199.3,72.93a7.443,7.443,0,0,0-3.749-4.83,7.917,7.917,0,0,0-1.291-.49,7.341,7.341,0,0,0-3.27-.157c-.065.6-.115.981-.139,1.128a5.907,5.907,0,0,0-.057.6v.006c0,.067-.009.133-.014.2a86.494,86.494,0,0,1-2.107,12.266,4.34,4.34,0,0,0,3.377-1.876,4.418,4.418,0,0,0,.41-4.53,1,1,0,0,1,1.68-1.09,6.489,6.489,0,0,1-5.65,9.48q-.167.011-.334.011-.154.565-.316,1.129c-.423,1.389-.853,2.731-1.284,4.014C186.9,88.814,187.242,88.83,187.585,88.83ZM88.61,67.309l-.019,0a7.3,7.3,0,0,0-2.221.348,8.424,8.424,0,0,0-1,.4A7.416,7.416,0,0,0,81.6,72.9a13.208,13.208,0,0,0,2,10.679A11.515,11.515,0,0,0,93.258,88.8c.356,0,.716-.017,1.072-.05-.419-1.249-.834-2.558-1.27-4q-.165-.567-.322-1.137-.264.022-.527.017a6.5,6.5,0,0,1-5.7-9.51,1,1,0,0,1,1.68,1.09,4.473,4.473,0,0,0,.41,4.531,4.359,4.359,0,0,0,3.616,1.879A80.234,80.234,0,0,1,90.54,72.75a.239.239,0,0,1,0-.08c-.136-.968-.267-2.038-.4-3.27a3.4,3.4,0,0,0-.043-.444c-.019-.136-.038-.275-.047-.417q0-.033,0-.065c-.031-.155-.06-.39-.092-.7-.014-.107-.029-.226-.044-.364a7.68,7.68,0,0,0-1.241-.1H88.59ZM240.46,191.7a94.646,94.646,0,0,0-11.44-8.64,1,1,0,1,1,1.09-1.68,96.016,96.016,0,0,1,11.68,8.83,1,1,0,1,1-1.33,1.49Z" fill="#372168"/>
      </g>
      <g id="Chin" transform="translate(104 153.5)">
        <rect id="Setup_03_Face_Man_Chin_background" data-name="Setup/#03 Face/Man Chin background" width="70" height="10" fill="none"/>
        <g id="Group_2" data-name="Group 2" transform="translate(27.837 3.702)">
          <path id="Path-3" data-name="Path" d="M12.5,3.989a1,1,0,0,1-.74-.32,7.19,7.19,0,0,0-5-1.67,7.37,7.37,0,0,0-5,1.6A1,1,0,1,1,.344,2.2a10.36,10.36,0,0,1,12.89.1,1,1,0,0,1-.73,1.69Z" transform="translate(0 0)" fill="#372168"/>
        </g>
      </g>
      <g id="Cheeks_color:" data-name="Cheeks color:" transform="translate(102 124.789)">
        <path id="Cheeks_color:-2" data-name="Cheeks color:" d="M54,10A10,10,0,1,1,64,20,10,10,0,0,1,54,10ZM0,10A10,10,0,1,1,10,20,10,10,0,0,1,0,10Z" fill="#ff1300" opacity="0.15" style="mix-blend-mode: multiply;isolation: isolate"/>
      </g>
      <g id="Hairstyle" transform="translate(46 19.5)">
        <g id="_11_hairdo" transform="translate(23.39 19.167)">
          <g id="Hair_color:" data-name="Hair color:" transform="translate(2.048 6.949)">
            <path id="Hair_color:-2" data-name="Hair color:" d="M17.273,128.686c.68,7.49-3,8.689-3,8.689a37.637,37.637,0,0,1-13.18-6.269c-1.14-.85-1.551-2.68-.44-3.57a22.315,22.315,0,0,0,5.449-6.63,31.689,31.689,0,0,0,2.551-24.14c-5.14-18-6.55-30.15-5.82-41.12,1.78-26.7,18-52.91,44.65-55.46,8.843-.848,16.449,1.292,20.148,4.541,30.427-11,70.678,11.936,56.973,66.2a.136.136,0,0,0,0,.06.558.558,0,0,0-.16-.11,6.307,6.307,0,0,0-.73-.391,9.753,9.753,0,0,0-7.31-.44,71.165,71.165,0,0,0-2.1-9.81,42.375,42.375,0,0,0-7.211-15.2,38.165,38.165,0,0,0-15.33-12.15,20.288,20.288,0,0,0-7.37-1.65C70,30.915,67.881,21.816,67.621,20.231c-.255,1.587-2.346,10.7-16.767,11.006-15.8.34-30.75,12.8-26.27,50.38a73.477,73.477,0,0,0,13,36.62v15.52c-3.2,3.62-12.6,4.36-17.31,4.51C21.763,133.617,17.273,128.686,17.273,128.686Zm80.79,5.38V119.3a61.338,61.338,0,0,0,3.7-6,73.822,73.822,0,0,0,7.79-14.51c.21-.51.419-1,.62-1.54q.49-1.311,1-2.641a14.815,14.815,0,0,0,10.29-1.24c-1.09,8.89-1.64,16.73-.79,20.94,1.8,8.951,4.51,12.12,6.511,13.19a1.82,1.82,0,0,1,.54,2.92c-2.766,2.942-11.007,6.207-19.036,6.207A20.863,20.863,0,0,1,98.063,134.067Z" transform="translate(0 0)" fill="#ffcb6d"/>
            <path id="Hair_color:-3" data-name="Hair color:" d="M17.273,128.686c.68,7.49-3,8.689-3,8.689a37.637,37.637,0,0,1-13.18-6.269c-1.14-.85-1.551-2.68-.44-3.57a22.315,22.315,0,0,0,5.449-6.63,31.689,31.689,0,0,0,2.551-24.14c-5.14-18-6.55-30.15-5.82-41.12,1.78-26.7,18-52.91,44.65-55.46,8.843-.848,16.449,1.292,20.148,4.541,30.427-11,70.678,11.936,56.973,66.2a.136.136,0,0,0,0,.06.558.558,0,0,0-.16-.11,6.307,6.307,0,0,0-.73-.391,9.753,9.753,0,0,0-7.31-.44,71.165,71.165,0,0,0-2.1-9.81,42.375,42.375,0,0,0-7.211-15.2,38.165,38.165,0,0,0-15.33-12.15,20.288,20.288,0,0,0-7.37-1.65C70,30.915,67.881,21.816,67.621,20.231c-.255,1.587-2.346,10.7-16.767,11.006-15.8.34-30.75,12.8-26.27,50.38a73.477,73.477,0,0,0,13,36.62v15.52c-3.2,3.62-12.6,4.36-17.31,4.51C21.763,133.617,17.273,128.686,17.273,128.686Zm80.79,5.38V119.3a61.338,61.338,0,0,0,3.7-6,73.822,73.822,0,0,0,7.79-14.51c.21-.51.419-1,.62-1.54q.49-1.311,1-2.641a14.815,14.815,0,0,0,10.29-1.24c-1.09,8.89-1.64,16.73-.79,20.94,1.8,8.951,4.51,12.12,6.511,13.19a1.82,1.82,0,0,1,.54,2.92c-2.766,2.942-11.007,6.207-19.036,6.207A20.863,20.863,0,0,1,98.063,134.067Z" transform="translate(0 0)" fill="rgba(255,255,255,0.05)"/>
          </g>
          <path id="Combined_Shape-2" data-name="Combined Shape" d="M20.7,146.425a2,2,0,0,1-.31-1.82,4.853,4.853,0,0,0,.139-2.26,6.415,6.415,0,0,1-3.64,3.89,2.065,2.065,0,0,1-1.1,0A39.392,39.392,0,0,1,1.9,139.625,4.767,4.767,0,0,1,0,135.946a3.808,3.808,0,0,1,1.4-3.06,20.375,20.375,0,0,0,4.95-6,29.654,29.654,0,0,0,2.38-22.62c-4.928-17.3-6.69-29.8-5.89-41.8.929-14.071,5.684-27.513,13.389-37.849C24.789,13.129,36.221,6.4,49.292,5.145c1.319-.126,2.659-.19,3.979-.19A31.989,31.989,0,0,1,68.112,8.2,14.682,14.682,0,0,0,63.5,1.815,1,1,0,0,1,64.661.185a15.912,15.912,0,0,1,5.67,8.42,27.959,27.959,0,0,0,2.52-5.389,1,1,0,1,1,1.97.339,23.136,23.136,0,0,1-2.256,5.137,47.438,47.438,0,0,1,29.013,1.285,44.258,44.258,0,0,1,14.314,8.648c8.456,7.646,21.359,25.57,12.76,59.69a2.015,2.015,0,0,1-1.09,1.42,2.087,2.087,0,0,1-.866.19h-.038a1.986,1.986,0,0,1-1.127-.35l-.11-.069a3.9,3.9,0,0,0-.51-.27,7.759,7.759,0,0,0-3.319-.751,7.662,7.662,0,0,0-2.51.421,2,2,0,0,1-1.742-.251,1.986,1.986,0,0,1-.868-1.529,67,67,0,0,0-2-9.44A39.975,39.975,0,0,0,107.6,53.2a36.454,36.454,0,0,0-14.51-11.51,18.4,18.4,0,0,0-6.64-1.5c-9.845-.215-14.547-4.294-16.776-7.816a14.654,14.654,0,0,1-.851,1.2,15.666,15.666,0,0,1-5.633,4.425,24.86,24.86,0,0,1-10.241,2.154h-.057a22.741,22.741,0,0,0-17.033,7.68c-6.94,8-9.44,21.994-7.23,40.47v.18a72.146,72.146,0,0,0,12.61,35.5,1.98,1.98,0,0,1,.37,1.17v15.52a2,2,0,0,1-.5,1.33c-1.559,1.757-4.312,3.1-8.183,3.984a55.447,55.447,0,0,1-10.568,1.2l-.059.05A2.011,2.011,0,0,1,20.7,146.425Zm-1.4-12.78a2.008,2.008,0,0,1,1.48.65c.038.04,3.758,4.091,3.84,8.81,1.923-.123,3.7-.321,5.308-.585a32.239,32.239,0,0,0-4.278-20.765,1,1,0,1,1,1.65-1.13,33.812,33.812,0,0,1,4.754,21.483,14.055,14.055,0,0,0,5.566-2.253v-14a75.143,75.143,0,0,1-13-37.09c-2.352-19.886.408-34.519,8.2-43.49a26.548,26.548,0,0,1,19.919-9h.081c13.148-.281,14.706-8.431,14.84-9.36V12.745c-3.159-2.317-8.508-3.7-14.307-3.7-1.213,0-2.456.061-3.693.181-25.945,2.469-41.19,28.832-42.84,53.6-.769,11.5.947,23.591,5.74,40.43a33.677,33.677,0,0,1,1.178,13.106,33.684,33.684,0,0,1-3.909,12.565,24.3,24.3,0,0,1-5.84,7.14.8.8,0,0,0,.291.48,35.364,35.364,0,0,0,11.669,5.73c.654-.643,1.7-2.323,1.33-6.36a2,2,0,0,1,1.18-2,1.938,1.938,0,0,1,.82-.27Zm106-58.55c7.011-30.676-4.578-46.681-12.11-53.491a41.892,41.892,0,0,0-28.153-10.59A42.952,42.952,0,0,0,71.7,13.125v13.71c.136.927,1.707,9.07,14.85,9.36a22.243,22.243,0,0,1,8.1,1.811A40.5,40.5,0,0,1,110.8,50.775a44.168,44.168,0,0,1,7.56,15.92c.821,3.18,1.443,5.909,1.8,7.89a12.669,12.669,0,0,1,1.5-.1h0V74.5l.2,0c1.718-15.167-3.782-25.236-3.84-25.332a1,1,0,0,1,1.741-1c.25.451,5.888,10.759,4.089,26.543A11.285,11.285,0,0,1,125.3,75.1Zm-26.211,67.6a2.009,2.009,0,0,1-1-1.72v-14.78a1.992,1.992,0,0,1,.37-1.15,60.1,60.1,0,0,0,3.57-5.76l.12-.19a72.273,72.273,0,0,0,7.58-14.12c.209-.5.41-1,.6-1.5s.489-1.308.74-2l.25-.671a2,2,0,0,1,2.32-1.239,12.825,12.825,0,0,0,8.89-1,2,2,0,0,1,2.939,2c-1.251,10.2-1.519,16.836-.82,20.3,1.807,8.989,4.442,11.262,5.49,11.821a3.919,3.919,0,0,1,2,2.83,3.743,3.743,0,0,1-1,3.18c-1.562,1.708-4.523,3.421-8.123,4.7a37.4,37.4,0,0,1-12.2,2.15c-.2.005-.4.008-.595.008A23.178,23.178,0,0,1,99.092,142.695Zm15-37.8c-.17.461-.36.916-.543,1.356l-.1.234a76.15,76.15,0,0,1-7.941,14.809,63.036,63.036,0,0,1-3.4,5.531v12.949a19.5,19.5,0,0,0,8.545,1.733,31.923,31.923,0,0,0,5.7-.546c-2.377-3.394-6.228-10.693-6.369-22.5a1,1,0,0,1,2,0c.122,12.123,4.436,19.288,6.509,22.038,4.323-1.061,8.057-2.8,9.691-4.429-3.37-1.769-5.872-6.624-7.439-14.43-.711-3.533-.587-9.5.38-18.26a17.48,17.48,0,0,1-6.63.43ZM17.951,79a1,1,0,0,1-1-.9c-.249-2.721-.4-5.38-.45-7.9a1,1,0,0,1,2,0c0,2.46.19,5.07.439,7.74a1,1,0,0,1-.9,1.09Zm-.38-13.171h-.049a1,1,0,0,1-.95-1c1.42-31,20-34.74,28-34.91,8.24-.18,12.181-3.37,14-6a1,1,0,1,1,1.64,1.149c-2.11,3-6.53,6.66-15.62,6.861-15.58.329-25.06,12.36-26,33a1,1,0,0,1-.994.9Zm90.34-31.64C93.4,20.3,76.852,23.735,76.682,23.765a1.023,1.023,0,1,1-.43-2c.72-.16,17.73-3.721,33,10.92a1.006,1.006,0,1,1-1.34,1.5Z" transform="translate(0)" fill="#372168"/>
        </g>
      </g>
      <g id="Emotions" transform="translate(104 99)">
        <rect id="Setup_01_Emotions_disappointed_background" data-name="Setup/#01 Emotions/disappointed background" width="70" height="56" fill="none"/>
        <g id="Face">
          <g id="Mouth" transform="translate(0 36)">
            <rect id="Setup_03_Face_Mouth_nose_background" data-name="Setup/#03 Face/Mouth/nose background" width="70" height="20" fill="none"/>
            <g id="mouth-2" data-name="mouth" transform="translate(29 3.829)">
              <path id="Path-4" data-name="Path" d="M9.75,3.5h-8a1.75,1.75,0,0,1,0-3.5h8a1.75,1.75,0,0,1,0,3.5Z" fill="#372168"/>
            </g>
          </g>
          <g id="Nose" transform="translate(0 25)">
            <rect id="Setup_03_Face_Nose_background" data-name="Setup/#03 Face/Nose background" width="70" height="8" fill="none"/>
            <g id="_Nose" data-name="ðŸ‘ƒNose" transform="translate(29.222 2.152)">
              <path id="Path-5" data-name="Path" d="M5.75,5.635A6.52,6.52,0,0,1,.28,2.795,1.75,1.75,0,0,1,3.22.895,3.18,3.18,0,0,0,5.773,2.136,3.18,3.18,0,0,0,8.3.845a1.754,1.754,0,0,1,3,1.82,6.46,6.46,0,0,1-5.55,2.97Z" transform="translate(0 0)" fill="#372168"/>
            </g>
          </g>
          <g id="Eyes" transform="translate(0 12)">
            <rect id="Setup_03_Face_Eyes_eyes-8_background" data-name="Setup/#03 Face/Eyes/eyes-8 background" width="70" height="10" fill="none"/>
            <g id="silly_eyes" transform="translate(11.498 1.85)">
              <path id="Path-6" data-name="Path" d="M3.338,6.9c4.44,0,4.45-6.9,0-6.9S-1.112,6.9,3.338,6.9Z" transform="translate(0)" fill="#372168"/>
              <path id="Path-7" data-name="Path" d="M3.334,6.9c4.43,0,4.44-6.9,0-6.9S-1.116,6.9,3.334,6.9Z" transform="translate(40.974)" fill="#372168"/>
            </g>
          </g>
          <g id="Eyebrows">
            <rect id="Setup_03_Face_Eyebrow_disappointed_eyebrows_background" data-name="Setup/#03 Face/Eyebrow/disappointed_eyebrows background" width="70" height="12" fill="none"/>
            <g id="disappointed_eyebrows" transform="translate(3.744 5.24)">
              <path id="Path-8" data-name="Path" d="M2.016,5.89a2,2,0,0,1-.46-3.95A84.94,84.94,0,0,1,19.366,0a2,2,0,0,1,0,4A82.33,82.33,0,0,0,2.476,5.83a1.82,1.82,0,0,1-.46.06Z" fill="#372168"/>
              <path id="Path-9" data-name="Path" d="M19.35,5.89a1.82,1.82,0,0,1-.46-.06A82.58,82.58,0,0,0,2,4,2,2,0,0,1,2,0,84.94,84.94,0,0,1,19.81,1.94a2,2,0,0,1-.46,3.95Z" transform="translate(41.786)" fill="#372168"/>
            </g>
          </g>
        </g>
      </g>
      <g id="Accessories_01" data-name="Accessories#01" transform="translate(74.14 21.84)">
        <g id="_1_winter_hat" transform="translate(0 0)">
          <g id="Path-10" data-name="Path" transform="translate(9.66 2)">
            <path id="Path-11" data-name="Path" d="M45.22,0H64.29A45.21,45.21,0,0,1,109.5,45.21H0A45.21,45.21,0,0,1,45.21,0Z" fill="#92645c"/>
            <path id="Path-12" data-name="Path" d="M45.22,0H64.29A45.21,45.21,0,0,1,109.5,45.21H0A45.21,45.21,0,0,1,45.21,0Z" fill="rgba(255,255,255,0.16)"/>
          </g>
          <path id="Shape" d="M111.51,49.21H2a2,2,0,0,1-2-2A47.231,47.231,0,0,1,47.22,0H66.29A47.231,47.231,0,0,1,113.51,47.21,2,2,0,0,1,111.51,49.21ZM47.22,3.96A43.221,43.221,0,0,0,4.05,45.21H109.46A43.22,43.22,0,0,0,66.29,3.96Z" transform="translate(7.66 0)" fill="#372168"/>
          <rect id="Rectangle" width="123.97" height="24.62" rx="7.56" transform="translate(1.99 47.22)" fill="#f66"/>
          <path id="Shape-2" data-name="Shape" d="M118.41,28.62H9.55A9.56,9.56,0,0,1,0,19.06V9.56A9.56,9.56,0,0,1,9.55,0H118.41a9.569,9.569,0,0,1,9.56,9.56v9.5a9.569,9.569,0,0,1-9.56,9.56ZM9.55,4A5.585,5.585,0,0,0,4,9.56v9.5a5.57,5.57,0,0,0,5.55,5.56H118.41a5.581,5.581,0,0,0,5.559-5.56V9.56A5.581,5.581,0,0,0,118.41,4Z" transform="translate(0 45.21)" fill="#372168"/>
          <path id="Path-13" data-name="Path" d="M6.908,31.436h-.05a1,1,0,0,1-.9-1.08A49.05,49.05,0,0,0,.128,1.486a1,1,0,1,1,1.74-.97,51,51,0,0,1,6.08,30A1,1,0,0,1,6.908,31.436Z" transform="translate(88.492 17.244)" fill="#372168"/>
          <path id="Path-14" data-name="Path" d="M12.571,13.116a1,1,0,0,1-.81-.4A45.68,45.68,0,0,0,.381,1.786a1,1,0,0,1,1-1.71,46.57,46.57,0,0,1,12,11.45.994.994,0,0,1-.81,1.59Z" transform="translate(73.309 0.604)" fill="#372168"/>
          <path id="Path-15" data-name="Path" d="M1.276,48.215a1,1,0,0,1-1-.92A50.77,50.77,0,0,1,21.956.215a1,1,0,1,1,1,1.71,48.76,48.76,0,0,0-20.71,45.2,1,1,0,0,1-.91,1.08Z" transform="translate(33.644 0.465)" fill="#372168"/>
          <path id="Path-16" data-name="Path" d="M1,47.25a1,1,0,0,1-1-1V1A1,1,0,0,1,2,1V46.21a1,1,0,0,1-1,1.04Z" transform="translate(62.94 0.96)" fill="#372168"/>
          <path id="Path-17" data-name="Path" d="M1,6.65a1,1,0,0,1,0-2A3.66,3.66,0,0,0,4.65,1a1,1,0,0,1,2,0A5.66,5.66,0,0,1,1,6.65Z" transform="translate(113.52 60.16)" fill="#372168"/>
        </g>
      </g>
    </g>
  </g>
  <path id="Oval" d="M140,280a141.037,141.037,0,0,1-28.215-2.844A139.234,139.234,0,0,1,61.725,256.09,140.408,140.408,0,0,1,11,194.495a139.3,139.3,0,0,1-8.158-26.279,141.364,141.364,0,0,1,0-56.43A139.232,139.232,0,0,1,23.91,61.725,140.41,140.41,0,0,1,85.506,11a139.3,139.3,0,0,1,26.279-8.158,141.364,141.364,0,0,1,56.43,0,139.23,139.23,0,0,1,50.06,21.066A140.409,140.409,0,0,1,269,85.506a139.3,139.3,0,0,1,8.158,26.279,141.367,141.367,0,0,1,0,56.43,139.232,139.232,0,0,1-21.065,50.06A140.408,140.408,0,0,1,194.495,269a139.3,139.3,0,0,1-26.279,8.158A141.037,141.037,0,0,1,140,280ZM140,4C65.009,4,4,65.009,4,140s61.01,136,136,136,136-61.009,136-136S214.991,4,140,4Z" transform="translate(0 0)" fill="#372168"/>
</svg>
