<?xml version="1.0" encoding="utf-8"?>
<!-- Generator: Adobe Illustrator 24.0.1, SVG Export Plug-In . SVG Version: 6.00 Build 0)  -->
<svg version="1.1" id="图层_1" xmlns="http://www.w3.org/2000/svg" xmlns:xlink="http://www.w3.org/1999/xlink" x="0px" y="0px"
	 viewBox="0 0 334.8 329.4" style="enable-background:new 0 0 334.8 329.4;" xml:space="preserve">
<style type="text/css">
	.st0{opacity:0.15;fill:#2131F9;enable-background:new    ;}
	.st1{fill:#210C04;}
	.st2{fill:#FFFFFF;}
	.st3{fill:url(#SVGID_1_);}
	.st4{opacity:0.56;fill:url(#SVGID_2_);enable-background:new    ;}
	.st5{fill:url(#SVGID_3_);}
	.st6{fill:url(#SVGID_4_);}
	.st7{fill:#E22F3D;}
	.st8{fill:none;stroke:#FFFFFF;stroke-miterlimit:10;}
	.st9{fill:none;stroke:#FFFFFF;stroke-width:3;stroke-miterlimit:10;}
	.st10{opacity:0.93;fill:#442725;enable-background:new    ;}
	.st11{fill:url(#SVGID_5_);}
	.st12{fill:none;stroke:#FFFFFF;stroke-width:0.5;stroke-linecap:round;stroke-miterlimit:10;}
	.st13{opacity:0.25;fill:#FFFFFF;stroke:url(#SVGID_6_);stroke-miterlimit:10;enable-background:new    ;}
	.st14{opacity:0.1;fill:#FFFFFF;stroke:url(#SVGID_7_);stroke-miterlimit:10;enable-background:new    ;}
	.st15{fill:#A63938;}
	.st16{opacity:0.4;fill:url(#SVGID_8_);enable-background:new    ;}
	.st17{opacity:0.4;fill:url(#SVGID_9_);enable-background:new    ;}
	.st18{opacity:0.4;fill:url(#SVGID_10_);enable-background:new    ;}
	.st19{fill:url(#SVGID_11_);}
	.st20{fill:url(#SVGID_12_);}
	.st21{fill:url(#SVGID_13_);}
	.st22{fill:#F6E3D8;}
	.st23{fill:url(#SVGID_14_);}
	.st24{fill:url(#SVGID_15_);}
	.st25{fill:url(#SVGID_16_);}
	.st26{fill:url(#SVGID_17_);}
	.st27{fill:url(#SVGID_18_);}
	.st28{fill:url(#SVGID_19_);}
	.st29{fill:url(#SVGID_20_);}
	.st30{fill:url(#SVGID_21_);}
	.st31{fill:url(#SVGID_22_);}
	.st32{fill:url(#SVGID_23_);}
	.st33{fill:url(#SVGID_24_);}
	.st34{fill:url(#SVGID_25_);}
	.st35{fill:#E77974;}
	.st36{fill:#A82E22;}
	.st37{fill:#F0BAB8;}
	.st38{fill:#AE6B27;}
	.st39{fill:url(#SVGID_26_);}
	.st40{fill:url(#SVGID_27_);}
	.st41{opacity:0.44;fill:#A0A4C5;enable-background:new    ;}
	.st42{fill:#AD6823;}
	.st43{fill:url(#SVGID_28_);}
	.st44{opacity:0.47;fill:url(#SVGID_29_);enable-background:new    ;}
	.st45{fill:url(#SVGID_30_);}
	.st46{fill:url(#SVGID_31_);}
	.st47{fill:url(#SVGID_32_);}
	.st48{fill:url(#SVGID_33_);}
	.st49{fill:url(#SVGID_34_);}
	.st50{fill:url(#SVGID_35_);}
	.st51{fill:url(#SVGID_36_);}
	.st52{fill:url(#SVGID_37_);}
	.st53{fill:url(#SVGID_38_);}
	.st54{fill:url(#SVGID_39_);}
	.st55{fill:url(#SVGID_40_);}
	.st56{fill:url(#SVGID_41_);}
	.st57{fill:url(#SVGID_42_);}
	.st58{fill:url(#SVGID_43_);}
	.st59{fill:url(#SVGID_44_);}
	.st60{fill:url(#SVGID_45_);}
	.st61{fill:url(#SVGID_46_);}
	.st62{fill:url(#SVGID_47_);}
	.st63{fill:url(#SVGID_48_);}
	.st64{fill:url(#SVGID_49_);}
	.st65{fill:url(#SVGID_50_);}
	.st66{fill:url(#SVGID_51_);}
	.st67{fill:url(#SVGID_52_);}
	.st68{fill:url(#SVGID_53_);}
	.st69{fill:url(#SVGID_54_);}
	.st70{fill:url(#SVGID_55_);}
	.st71{fill:#F1E7B2;}
	.st72{fill:url(#SVGID_56_);}
	.st73{fill:url(#SVGID_57_);}
	.st74{fill:url(#SVGID_58_);}
	.st75{fill:url(#SVGID_59_);}
	.st76{fill:url(#SVGID_60_);}
	.st77{fill:url(#SVGID_61_);stroke:#FCFCFC;stroke-miterlimit:10;}
	.st78{fill:url(#SVGID_62_);}
	.st79{fill:url(#SVGID_63_);}
	.st80{fill:url(#SVGID_64_);}
	.st81{fill:#C0E0F3;}
	.st82{opacity:0.29;}
	.st83{fill:url(#SVGID_65_);}
	.st84{fill:#74B5F2;}
	.st85{fill:#6AB6E3;}
	.st86{fill:url(#SVGID_66_);}
	.st87{fill:url(#SVGID_67_);}
	.st88{fill:url(#SVGID_68_);}
	.st89{fill:url(#SVGID_69_);}
	.st90{fill:url(#SVGID_70_);}
	.st91{fill:url(#SVGID_71_);}
	.st92{fill:url(#SVGID_72_);}
	.st93{fill:url(#SVGID_73_);}
	.st94{fill:url(#SVGID_74_);}
	.st95{fill:url(#SVGID_75_);}
	.st96{fill:url(#SVGID_76_);}
	.st97{fill:url(#SVGID_77_);}
	.st98{fill:url(#SVGID_78_);}
	.st99{fill:url(#SVGID_79_);}
	.st100{fill:url(#SVGID_80_);}
	.st101{fill:url(#SVGID_81_);}
	.st102{fill:url(#SVGID_82_);}
	.st103{enable-background:new    ;}
	.st104{fill:#2C509A;}
	.st105{fill:url(#SVGID_83_);}
	.st106{fill:url(#SVGID_84_);}
	.st107{fill:url(#SVGID_85_);}
	.st108{fill:#E24416;}
	.st109{fill:url(#SVGID_86_);}
	.st110{fill:url(#SVGID_87_);}
</style>
<g>
	<path class="st10" d="M210.4,155.8c6.3,42.7-6,79.1-14.5,90.3c-12.4,16.8-7.1,38.1-6.3,41c0.8,2.7,4,12.1-19.5,15.6
		c-23.6,3.5-53.2-16.1-55.8-19.9s12-28.8,13.4-37.8c1.2-9.1-2-35.8-1.2-55.9c0.3-4.7,12-30.1,15.7-39.7c0,0,17.3-1.9,25.2,16.1
		s32.1-4.5,34.9-4.3C205.2,161.3,209.2,147.2,210.4,155.8z"/>
	
		<linearGradient id="SVGID_1_" gradientUnits="userSpaceOnUse" x1="118.5978" y1="-2469.7227" x2="173.323" y2="-2469.7227" gradientTransform="matrix(0.999 4.395080e-02 4.395080e-02 -0.999 131.0786 -2325.7793)">
		<stop  offset="0" style="stop-color:#F4D240;stop-opacity:0.4"/>
		<stop  offset="0.9078" style="stop-color:#DB992F"/>
	</linearGradient>
	<polygon class="st3" points="135.6,265.6 189.4,29.6 200.6,34.6 144.5,266 	"/>
	<path class="st12" d="M173.3,264.3c0,0-11.7,5.3-6.3,11.5c5.5,6.1,11.6,0.5,8.7-2.6"/>
	<path class="st12" d="M143.1,160c0,0-11.7,5.3-6.3,11.5c5.5,6.1,11.6,0.5,8.7-2.6"/>
	
		<linearGradient id="SVGID_2_" gradientUnits="userSpaceOnUse" x1="141.1458" y1="-2413.1042" x2="175.5815" y2="-2413.1042" gradientTransform="matrix(0.999 4.395080e-02 4.395080e-02 -0.999 131.0786 -2325.7793)">
		<stop  offset="7.541899e-02" style="stop-color:#6B4B24"/>
		<stop  offset="0.4721" style="stop-color:#4E3117"/>
		<stop  offset="0.9171" style="stop-color:#4E3117"/>
	</linearGradient>
	<path style="opacity:0.25;fill:#FFFFFF;stroke:url(#SVGID_2_);stroke-miterlimit:10;enable-background:new    ;" d="M196.9,97.8
		L168.5,95c-1.2-0.1-2.2-1.4-2-2.6l0.4-4.3c0.1-1.4,1.2-2.3,2.6-2.2l28.4,2.8c1.2,0.1,2.2,1.4,2,2.6l-0.4,4.3
		C199.4,96.9,198.1,97.8,196.9,97.8z"/>
	
		<linearGradient id="SVGID_3_" gradientUnits="userSpaceOnUse" x1="96.7097" y1="-2520.1516" x2="192.4996" y2="-2520.1516" gradientTransform="matrix(0.999 4.395080e-02 4.395080e-02 -0.999 131.0786 -2325.7793)">
		<stop  offset="7.541899e-02" style="stop-color:#6B4B24"/>
		<stop  offset="0.4721" style="stop-color:#4E3117"/>
		<stop  offset="0.9171" style="stop-color:#4E3117"/>
	</linearGradient>
	<path style="opacity:0.1;fill:#FFFFFF;stroke:url(#SVGID_3_);stroke-miterlimit:10;enable-background:new    ;" d="M167,93.2
		c0,0-40.1,75.8-41.1,95.9c-0.8,20.1,2.5,46.8,1.2,55.9c-1.2,9.1-15.8,34-13.4,37.8s32.2,23.5,55.8,19.9
		c23.6-3.5,20.3-12.8,19.5-15.6c-0.8-2.7-6.1-24,6.3-41c12.4-16.8,30.6-41.5,0.1-148.9L167,93.2z"/>
	<path class="st15" d="M128.5,178.7L128.5,178.7L128.5,178.7c0,0,82.3,12.2,85.7,10.9s-5.3,40.3-8.5,42.5
		c-3.1,2.2-77.9-4.3-78.9-9.8c-0.5-3-1-14.5-0.7-25.1C126.5,188.2,127.2,179.9,128.5,178.7z"/>
	<path class="st2" d="M207.1,229.8c1.6-4.1,4-13.2,5.7-21.7c-9.1,5.4-28,10.9-55.8-6.9c-1.2-0.8-2.3-1.8-3.1-2.8
		c-3-3.7-11.6-12.1-27.3-8.4c-0.1,2.3-0.3,4.7-0.3,7.3c-0.1,5-0.1,10.3,0,14.8c6.8-1.9,23.3-5,28.1-0.9
		C160.9,216.7,194.7,233.1,207.1,229.8z"/>
	<g>
		<path class="st2" d="M169.1,201.5l4.4-4.7l1.1,0.9l-4.4,4.7L169.1,201.5z M170.8,193.5l1-0.9l2.3,2.3l-1,0.9L170.8,193.5z
			 M172.5,202.2l3.8-4.7l-2.3-2.2l1-1.1l2.7,2.6v0.9l-4.2,5.3L172.5,202.2z M175.2,203.2l0.8-1.2l1.4,0.9l1.4-10.3l1.4,0.1
			l-1.5,11.4l-1.1,0.5L175.2,203.2z M179.6,198.8v-0.8l2.6-3.4l1.1,0.8l-2.2,2.8l2.6,3.4l-1.1,0.8L179.6,198.8z"/>
		<path class="st2" d="M186,196.9l-0.5-1.2l2.2-2.4l1.1,0.9l-1.2,1.4l2.6,0.1l-0.1,1.4L186,196.9z M188,202l-0.4,2.8l1.1-0.4
			l0.5,1.4l-2.2,0.8l-1-0.8l0.5-3.8h-1v-1.5h1.1l0.1-1.4h-1.1v-1.5h4.1v1.5h-1.5l-0.1,1.4h1.6v1.5H188z M196.4,205.7l1,1.6l-1.2,0.7
			l-1.5-2.6l-2.2-0.3l-1.8,1.9l-1.1-0.9l1.1-1.2l-1.4-0.1l0.1-1.5l1.2,0.1l0.1-6.1l0.8-0.7l2,0.3l0.1-0.7l-2.6-0.1l0.1-1.4l2.9,0.1
			l0.3-0.8l1.4,0.4l-0.1,0.5l2.6,0.1v1.5l-3-0.1l-0.3,0.8l2.6,0.3l0.7,0.9l-1.8,5.8l1.9,0.1l-0.1,1.5L196.4,205.7z M192,203.8
			l2.9,0.3l0.1-0.4l-3-0.3V203.8z M192.1,202.2l3.4,0.3l0.1-0.5l-3.5-0.1V202.2z M192.1,200.4l4,0.1v-0.1l-4-0.4V200.4z
			 M192.3,198.4v0.3l4.4,0.4l0.1-0.3L192.3,198.4z"/>
	</g>
	
		<linearGradient id="SVGID_4_" gradientUnits="userSpaceOnUse" x1="127.8645" y1="-2636.3665" x2="127.8645" y2="-2632.4609" gradientTransform="matrix(1 0 0 -1 0 -2358.6001)">
		<stop  offset="7.541899e-02" style="stop-color:#FFFFFF"/>
		<stop  offset="1" style="stop-color:#FFFFFF;stop-opacity:0.3"/>
	</linearGradient>
	<ellipse style="opacity:0.4;fill:url(#SVGID_4_);enable-background:new    ;" cx="127.9" cy="275.8" rx="1.9" ry="1.9"/>
	
		<linearGradient id="SVGID_5_" gradientUnits="userSpaceOnUse" x1="174.6591" y1="-2607.7883" x2="174.6591" y2="-2603.8828" gradientTransform="matrix(1 0 0 -1 0 -2358.6001)">
		<stop  offset="7.541899e-02" style="stop-color:#FFFFFF"/>
		<stop  offset="1" style="stop-color:#FFFFFF;stop-opacity:0.3"/>
	</linearGradient>
	<ellipse style="opacity:0.4;fill:url(#SVGID_5_);enable-background:new    ;" cx="174.7" cy="247.2" rx="1.9" ry="1.9"/>
	
		<linearGradient id="SVGID_6_" gradientUnits="userSpaceOnUse" x1="199.7618" y1="-2534.7646" x2="199.7618" y2="-2530.8591" gradientTransform="matrix(1 0 0 -1 0 -2358.6001)">
		<stop  offset="7.541899e-02" style="stop-color:#FFFFFF"/>
		<stop  offset="1" style="stop-color:#FFFFFF;stop-opacity:0.3"/>
	</linearGradient>
	<ellipse style="opacity:0.4;fill:url(#SVGID_6_);enable-background:new    ;" cx="199.8" cy="174.2" rx="1.9" ry="1.9"/>
</g>
<ellipse class="st0" cx="159.2" cy="273.9" rx="65.3" ry="35.4"/>
</svg>
