<?xml version="1.0" encoding="UTF-8"?>
<svg width="147px" height="267px" viewBox="0 0 147 267" version="1.1" xmlns="http://www.w3.org/2000/svg" xmlns:xlink="http://www.w3.org/1999/xlink">
    <title>可乐</title>
    <g id="页面-1" stroke="none" stroke-width="1" fill="none" fill-rule="evenodd">
        <g id="展示图" transform="translate(-1386.000000, -3844.000000)">
            <g id="可乐" transform="translate(1386.000000, 3844.000000)">
                <path d="M54.9601729,45.4018719 C47.5871335,37.750387 41.2211416,31.1924659 41.2211416,31.1924659 L38.3526903,22.8786637 L24.8807257,28.4555575 L11.1004513,33.2636283 L14.960177,40.4798811 C14.960177,40.4798811 14.5808854,48.2733621 14.1479907,57.8827659 C13.5445429,71.2781104 63.7285417,54.5013814 54.9601729,45.4018719 Z" id="路径" fill="#E4F1F8" fill-rule="nonzero"></path>
                <path d="M128.952047,194.696442 C124.463994,184.705645 117.295593,174.715354 115.32085,167.780336 C113.346106,160.845319 110.142027,142.904814 106.122292,132.398867 L93.0718142,98.2818584 C87.3778407,83.3971327 81.3170177,73.6756195 76.5245575,68.1494602 C73.1526637,64.2468053 57.3352035,47.8556549 48.249823,38.4892832 C44.9754956,40.2064513 38.8405221,42.8641593 31.7025664,45.5960177 C24.2523982,48.4449558 17.6530088,50.6343451 14.1757434,51.4773186 C13.6723009,64.5121858 12.8215221,87.3349115 12.9073805,92.4903186 C13.0283628,99.8038938 14.9992035,111.090372 20.693177,125.975097 L33.6695044,159.893958 C37.6892389,170.399904 47.2624513,185.904265 50.4157965,192.394381 C53.5691416,198.884496 55.4111566,208.968144 58.2280997,221.619615 C61.0450429,234.271087 63.7612428,262.565563 75.4776559,265.588673 C87.1940691,268.611782 92.1277528,266.001051 96.0339292,261.740655 C99.9401056,257.480259 98.8800898,264.037506 112.920717,258.618531 C126.961344,253.199556 121.822673,249.540956 127.55177,249.704867 C133.280867,249.868779 147.146413,248.618948 146.669062,232.09901 C146.191711,215.579072 133.444003,204.687238 128.952047,194.696442 Z" id="路径" fill="#502A1A" fill-rule="nonzero"></path>
                <path d="M41.2100135,38.8143219 C43.1452989,38.5261934 44.7935233,38.4158915 45.9983001,38.4753692 C46.5535864,38.5027828 47.0059391,38.5636636 47.3340849,38.6679593 C47.5728983,38.7723603 47.4786175,38.8598384 47.4338748,38.9495035 C47.2855858,39.2466768 47.0271782,39.5921178 46.6761096,39.9792464 C45.9316109,40.8002164 44.7899827,41.7739801 43.3111565,42.8051179 C40.8252225,44.5384796 37.3986012,46.4217759 33.2828334,47.9989737 C29.0680151,49.6141285 24.8501054,50.6283703 21.4515649,51.1177257 C19.458182,51.4047527 17.7509775,51.5114914 16.5008758,51.4482957 C15.9193308,51.4188972 15.4452405,51.3552286 15.1017446,51.2481582 C15.0354414,51.227491 14.8926001,51.2645787 14.8705657,51.2071974 C14.8470653,51.1459986 14.9456162,51.0719203 14.9834561,50.9995899 C15.134357,50.711145 15.3964394,50.3764789 15.7507022,50.0009515 C16.5144131,49.191399 17.6853531,48.2287815 19.191097,47.2066122 C21.7611754,45.461923 25.2942124,43.5561528 29.466559,41.9583435 C33.7028951,40.3360294 37.875442,39.3107782 41.2100135,38.8143219 Z" id="路径" stroke="#D58D6F" stroke-width="1.46349558" fill="#814F3A" fill-rule="nonzero"></path>
                <path d="M25.0089695,69.7949592 C25.0089695,69.7949592 22.5815182,90.783437 22.7766509,103.260225 C22.9717837,115.737012 32.7284208,139.152941 37.8330934,151.418986 C42.937766,163.68503 29.7428899,107.307278 29.3018899,102.873862 C28.8608899,98.4404459 28.7281996,78.4315344 28.1857306,71.5355432 C27.6432615,64.6395521 26.0782969,66.0406052 25.0089695,69.7949592 Z" id="路径" fill="#814F3A" fill-rule="nonzero" transform="translate(30.885360, 109.915650) rotate(-5.000000) translate(-30.885360, -109.915650) "></path>
                <path d="M48.2654336,49.2684159 C48.2654336,49.2684159 64.0789912,63.2828496 72.2706637,72.6843451 C80.4623363,82.0858407 88.8023097,106.087168 93.1810885,118.610788 C97.5598673,131.134407 102.85577,145.008345 104.779779,152.212646 C106.130097,157.286097 106.969168,163.198619 105.36908,167.581301 C104.701726,169.415549 102.22354,170.118027 101.950354,166.66808 C101.517584,161.804872 100.394035,157.028144 98.6135841,152.481929 C92.474708,136.438115 69.7651593,80.329646 67.1347699,76.7470088 C64.5043805,73.1643717 51.2509646,58.1586637 47.051708,52.659823 C42.8524513,47.1609823 44.959885,47.1883009 48.2654336,49.2684159 Z" id="路径" fill="#3B1808" fill-rule="nonzero"></path>
                <path d="M41.7870265,21.9888584 C42.4114513,23.6201681 35.449115,27.7921062 26.2427522,31.3162035 C17.0363894,34.8403009 9.0710708,36.3896549 8.43884071,34.7427345 C8.25762307,34.2706737 10.1615611,33.8331277 11.7697376,30.7971504 C12.0054521,30.3521595 12.3826555,29.170956 12.9013479,27.2535398 C16.0101612,26.0279035 19.0263226,24.857107 21.9498319,23.7411504 C24.4976103,22.7686172 28.1491944,21.2491835 32.9045841,19.1828496 C34.4975352,20.2424904 35.6709334,20.8682161 36.4247788,21.0600265 C39.5177908,21.8470211 41.6096318,21.5236155 41.7870265,21.9888584 Z" id="路径" fill="#CFECFC" fill-rule="nonzero"></path>
                <path d="M25.8485841,29.1073009 C19.0150354,31.7142743 13.1883717,33.708531 11.0575221,34.1885575 C11.0575221,34.1885575 14.8743186,34.8949381 26.3793451,30.496646 C37.8843717,26.098354 38.8288142,23.7411504 38.8288142,23.7411504 C36.2101327,24.9821947 31.4059646,26.980354 25.8485841,29.1073009 Z" id="路径" fill="#FFFFFF" fill-rule="nonzero"></path>
                <path d="M6.88168142,30.6644602 C7.43976106,32.1240531 16.486115,31.6370635 25.6924779,28.1168688 C34.8988407,24.5966741 40.7840442,19.370177 40.2259646,17.9105841 L33.7046283,0.855982301 L0.356442478,13.5942478 L6.88168142,30.6644602 Z" id="路径" fill="#E62327" fill-rule="nonzero"></path>
                <path d="M11.4282743,30.5864071 C11.9980619,30.4771327 12.5990708,30.3483451 13.2469115,30.1961416 L5.9489469,11.1121593 L4.22787611,11.7678053 L11.4282743,30.5864071 Z" id="路径" fill="#D31E23" fill-rule="nonzero"></path>
                <path d="M12.6966372,9.87892035 L10.979469,10.5345664 L18.4296372,30.0166195 C19.0033274,29.841 19.6004336,29.6575752 20.1858319,29.4624425 L12.6966372,9.87892035 Z" id="路径" fill="#D31E23" fill-rule="nonzero"></path>
                <polygon id="路径" fill="#D31E23" fill-rule="nonzero" points="26.0085929 27.3628142 18.4725664 7.6700177 16.7553982 8.32566372 24.2914248 28.0184602 25.1500088 27.6984425"></polygon>
                <path d="M24.2484956,5.46111504 L22.5352301,6.11676106 L30.0244248,25.7002832 C30.598115,25.4466106 31.1600973,25.1929381 31.6986637,24.9197522 L24.2484956,5.46111504 Z" id="路径" fill="#D31E23" fill-rule="nonzero"></path>
                <path d="M30.0244248,2.27654867 L28.3072566,2.93219469 L35.6052212,22.016177 C36.1906195,21.7000619 36.7252832,21.3917522 37.224823,21.0912478 L30.0244248,2.27654867 Z" id="路径" fill="#D31E23" fill-rule="nonzero"></path>
                <path d="M33.7046283,0.855982301 C34.2783186,2.31947788 28.2375749,7.79880531 19.0273094,11.3229027 C9.81704391,14.847 0.914522124,15.073354 0.356442478,13.5942478 C-0.201637168,12.1151416 5.79088938,6.95010365 14.9972522,3.42990895 C24.203615,-0.0902857353 33.1465487,-0.607513274 33.7046283,0.855982301 Z" id="路径" fill="#E84737" fill-rule="nonzero"></path>
                <path d="M82.8780796,77.0475133 C77.785115,80.0759735 64.8204956,85.7972655 49.3503717,91.7136903 C33.4119292,97.8096372 19.6082389,102.28208 14.0976903,103.253841 C15.2411681,109.498088 17.2939646,117.077044 20.693177,125.967292 L33.6695044,159.893071 C36.6784513,160.174062 52.3671239,155.268425 70.9437611,148.165593 C88.5564425,141.429611 102.945531,134.939496 106.122292,132.398867 L93.0718142,98.2818584 C89.6960177,89.4345398 86.1836283,82.4526903 82.8780796,77.0475133 Z" id="路径" fill="#E62327" fill-rule="nonzero"></path>
                <path d="M98.7700714,194.696442 C101.907623,189.562748 121.950685,190.645486 128.952047,194.696442 C124.597052,187.24057 122.306529,182.325093 119.601063,177.565874 C118.587973,175.783734 117.675803,174.593625 115.32085,167.780336 C110.996639,171.419493 97.9076171,188.162769 78.035269,166.313822 C58.1629209,144.464876 78.035269,172.702323 69.4934903,186.145592 C62.9782617,196.399425 57.4015487,192.324133 50.4157965,192.394381 C51.7240719,195.433123 52.7980859,199.22852 53.3226264,201.125675 C54.6615439,205.968264 56.2782015,213.301225 58.2280997,221.619615 C60.2642448,216.792547 67.8164899,207.794887 78.035269,204.054096 C88.3422358,200.281021 93.6699847,213.784365 96.748115,216.351841 C102.838867,221.432153 96.5682804,198.299035 98.7700714,194.696442 Z" id="路径" fill="#3B1808" fill-rule="nonzero"></path>
                <path d="M92.1138343,240.842525 C88.4258255,241.623056 91.545556,262.860562 86.4408834,266.895907 C92.1138343,265.840335 94.215292,263.469531 96.0339292,261.740655 C98.6330973,259.289788 99.2359889,261.740655 106.560851,260.468706 C102.783081,258.302732 96.2506485,239.960525 92.1138343,240.842525 Z" id="路径" fill="#3B1808" fill-rule="nonzero"></path>
                <path d="M119.04008,232.243536 C122.310504,230.362456 130.57725,248.574124 137.082975,248.172151 C134.187205,249.854195 130.084593,249.751699 127.563478,249.685354 C123.996451,249.595593 123.608764,253.144082 119.546039,255.406736 C120.923677,251.258213 115.371584,234.350969 119.04008,232.243536 Z" id="路径" fill="#3B1808" fill-rule="nonzero"></path>
                <path d="M38.4697699,143.498018 C37.6489623,143.835926 36.7398886,143.894885 35.8823097,143.665832 C33.9583009,143.127265 32.5962743,141.113496 31.8391593,137.679159 C30.5903097,132.012504 33.2050885,119.24692 36.1320796,113.482699 C39.6834956,106.539876 41.4474956,105.677389 42.7236637,105.735929 C43.2388142,105.76715 44.1832566,106.024726 44.733531,107.460903 C45.8770088,110.454239 45.151115,115.734531 44.0934956,119.68792 C44.0700796,119.769876 41.7284867,128.176195 39.3634779,127.540062 C39.1566372,127.489327 38.1419469,127.149796 38.536115,125.643372 C38.6577904,125.182475 39.0467493,124.841364 39.5195841,124.780885 C40.5301378,122.986801 41.306587,121.070598 41.8299558,119.079106 C42.8251327,115.379389 43.4300442,110.610345 42.5441416,108.296071 C42.5441416,108.245336 42.505115,108.198504 42.4856018,108.159478 C42.0446018,108.444372 40.7333097,109.634681 38.2239027,114.548124 C35.3125221,120.238195 33.0880088,132.500336 34.1144071,137.183522 C34.6490708,139.595363 35.5193628,141.140814 36.5067345,141.414 C37.3809292,141.66377 38.6766106,140.953487 40.1401062,139.427549 C44.1247168,135.271221 49.2410973,123.254947 49.9201593,120.027451 C50.0093935,119.614743 50.3120265,119.280991 50.7140593,119.151916 C51.1160921,119.022841 51.5564465,119.118053 51.8692451,119.401686 C52.1820438,119.685319 52.3197652,120.114283 52.230531,120.526991 C51.45,124.133044 46.2477611,136.465434 41.8455664,141.062761 C40.9094062,142.108816 39.7577232,142.939625 38.4697699,143.498018 L38.4697699,143.498018 Z" id="路径" fill="#E6EBEE" fill-rule="nonzero"></path>
                <path d="M56.0434248,126.587814 C55.4623794,126.809949 54.8296607,126.860079 54.220885,126.732212 C52.7690973,126.439513 51.0714425,125.069681 50.6733717,122.119274 C50.1113894,118.013681 54.5760265,111.164522 55.0716637,110.41131 C55.4294563,109.872466 56.1563239,109.725694 56.6951681,110.083487 C57.2340123,110.441279 57.3807837,111.168147 57.0229912,111.706991 L57.0229912,111.726504 L57.0971416,111.726504 C57.8542566,111.960664 58.4669735,112.604602 58.9235841,113.634903 C59.8602212,115.765752 59.4699558,122.322212 57.9088938,124.952602 C57.4910473,125.693894 56.8330612,126.270664 56.0434248,126.587814 Z M55.6531593,113.970531 C54.2911327,116.421398 52.7261681,119.824513 52.9915487,121.807062 C53.214,123.430566 54.0023363,124.296956 54.6892035,124.433549 C55.1907037,124.492759 55.673659,124.223751 55.8873186,123.766195 C57.1010442,121.721204 57.3820354,115.960885 56.7732212,114.58715 C56.6927293,114.38565 56.5822033,114.197492 56.4453982,114.029071 C56.1825663,114.102482 55.9023466,114.081776 55.6531593,113.970531 Z" id="形状" fill="#E6EBEE" fill-rule="nonzero"></path>
                <path d="M66.873292,118.860558 C66.299616,119.096254 65.6593295,119.112921 65.0741681,118.907389 C61.7217876,117.678053 60.8593009,111.10208 60.6446549,108.323389 C60.3402478,104.393416 61.8505752,93.4386637 64.465354,92.8064336 C65.1011587,92.6447443 65.7756601,92.8133696 66.2605752,93.2552389 C67.7904159,94.5938496 67.6616283,98.2272212 67.450885,100.280018 C67.0606195,104.151451 65.4097965,110.953779 65.3395487,111.238673 C65.187414,111.866833 64.5550453,112.252893 63.9267876,112.101159 C63.770246,112.066669 63.6235046,111.9973 63.4974956,111.898221 C64.1102124,114.813504 65.0585575,116.417496 65.8742124,116.710195 C65.978215,116.704691 66.079035,116.672429 66.1669115,116.616531 C67.3845398,115.96869 69.1173186,113.135363 69.6793009,110.891336 C70.7759469,106.465726 71.0335221,106.083265 71.4354956,105.743735 C71.896526,105.351101 72.5808883,105.374823 73.0136244,105.798439 C73.4463604,106.222054 73.4846542,106.905756 73.1019292,107.375044 C72.9848496,107.628717 72.6882478,108.495106 71.9545487,111.457221 C71.3886637,113.744177 69.4490442,117.52585 67.2713628,118.684938 C67.1420173,118.750784 67.0091235,118.809413 66.873292,118.860558 Z M64.9531858,95.5070708 C64.012646,97.5598673 62.6584248,103.98754 62.9784425,108.139965 C63.0330796,108.850248 63.1072301,109.517602 63.1930885,110.138124 C63.583354,108.436566 64.7970796,103.132858 65.121,100.03415 C65.3590619,97.7198761 65.1717345,96.2368673 64.9531858,95.5070708 L64.9531858,95.5070708 Z" id="形状" fill="#E6EBEE" fill-rule="nonzero"></path>
                <path d="M75.3225398,112.959743 C74.8017463,113.17094 74.2262903,113.206564 73.6834248,113.061212 C72.1223628,112.620212 71.283292,110.875726 71.1623097,107.882389 C70.9710796,103.246035 75.3537611,97.7120708 77.6290088,95.9129469 C78.2144071,95.448531 78.916885,95.0036283 79.6466814,95.210469 C79.9466105,95.2933478 80.2012094,95.4922135 80.3542502,95.7631468 C80.5072909,96.0340802 80.5461827,96.3547913 80.4623363,96.6544513 C80.4488923,96.6876482 80.4371687,96.7215162 80.4272124,96.7559204 C80.5695948,96.8977238 80.6730826,97.0737875 80.7277168,97.2671681 C81.1631088,98.8507965 81.3746047,100.487591 81.3560442,102.129876 L81.3560442,102.364035 C81.3287257,103.117248 81.2740885,104.732947 81.3560442,105.829593 C82.3668319,104.206088 83.8966726,100.658575 84.0410708,99.7999912 C84.110785,99.387283 84.3953808,99.043117 84.7876536,98.8971372 C85.1799265,98.7511574 85.6202808,98.8255416 85.9428395,99.09227 C86.2653981,99.3589983 86.4211567,99.7775485 86.3514425,100.190257 C86.2031416,101.048841 83.6586106,107.952637 81.6214248,108.776097 C81.1087532,109.004944 80.5126808,108.940866 80.0603628,108.608283 C79.6258243,108.270091 79.3278934,107.786473 79.221292,107.246257 C78.7776894,108.610296 78.1806629,109.919565 77.4416814,111.148912 C76.9387411,111.95644 76.1986183,112.588883 75.3225398,112.959743 L75.3225398,112.959743 Z M78.4993009,98.2818584 C76.6728584,100.057566 73.3595044,104.342681 73.5,107.800434 C73.5975664,110.142027 74.1712566,110.782062 74.3234602,110.821088 C74.4756637,110.860115 74.9634956,110.629858 75.4942566,109.857133 C76.8328673,107.882389 78.464177,101.977673 78.5695487,100.810779 C78.6128171,99.9672713 78.589328,99.1216632 78.4993009,98.2818584 L78.4993009,98.2818584 Z" id="形状" fill="#E6EBEE" fill-rule="nonzero"></path>
                <path d="M66.9856722,131.766637 C54.6766988,141.398389 41.6036018,146.350858 31.0664336,153.079035 L33.6734071,159.893071 C34.4691412,159.900753 35.2629915,159.814294 36.0384159,159.635496 C46.158,153.082938 58.6574068,148.509027 70.3419554,139.365106 C81.0586457,130.982204 89.6843097,119.149354 98.094531,111.406487 L95.0699735,103.499708 C86.5738938,111.332336 77.8389554,123.270558 66.9856722,131.766637 Z" id="路径" fill="#E6EBEE" fill-rule="nonzero"></path>
                <circle id="椭圆形" stroke="#D58D6F" stroke-width="0.788336283" cx="37.3067788" cy="61.038823" r="1.56106195"></circle>
                <circle id="椭圆形备份-3" stroke="#814F3A" stroke-width="0.788336283" cx="29.2048673" cy="57.499115" r="1.56106195"></circle>
                <circle id="椭圆形备份-4" stroke="#D58D6F" stroke-width="0.788336283" cx="29.2048673" cy="51.6451327" r="1.56106195"></circle>
                <circle id="椭圆形" stroke="#814F3A" stroke-width="0.788336283" cx="42.3724248" cy="47.9766372" r="1.56106195"></circle>
                <circle id="椭圆形备份-2" stroke="#814F3A" stroke-width="0.788336283" cx="43.839823" cy="57.499115" r="1.56106195"></circle>
                <circle id="椭圆形备份" stroke="#D58D6F" stroke-width="0.788336283" cx="46.7668142" cy="43.839823" r="1.56106195"></circle>
                <circle id="椭圆形" stroke="#814F3A" stroke-width="0.788336283" cx="18.4491504" cy="60.3090265" r="1.56106195"></circle>
                <circle id="椭圆形" stroke="#814F3A" stroke-width="0.651743363" cx="38.22" cy="67.7709027" r="1.29568142"></circle>
                <circle id="椭圆形备份-8" stroke="#814F3A" stroke-width="0.651743363" cx="56.2580708" cy="51.3797522" r="1.29568142"></circle>
                <circle id="椭圆形备份-5" stroke="#D58D6F" stroke-width="0.651743363" cx="17.2315221" cy="66.9903717" r="1.29568142"></circle>
                <circle id="椭圆形备份-6" stroke="#814F3A" stroke-width="0.651743363" cx="16.2558584" cy="73.8200177" r="1.29568142"></circle>
                <circle id="椭圆形备份-7" stroke="#814F3A" stroke-width="0.651743363" cx="32.8421416" cy="64.0633805" r="1.29568142"></circle>
                <circle id="椭圆形备份-12" stroke="#814F3A" stroke-width="0.651743363" cx="26.9881593" cy="63.0877168" r="1.29568142"></circle>
                <circle id="椭圆形备份-13" stroke="#814F3A" stroke-width="0.651743363" cx="23.0855044" cy="58.2093982" r="1.29568142"></circle>
                <circle id="椭圆形" stroke="#D58D6F" stroke-width="0.651743363" cx="17.9418053" cy="55.1575221" r="1.29568142"></circle>
                <circle id="椭圆形" stroke="#814F3A" stroke-width="0.534663717" cx="40.1635221" cy="74.4171239" r="1.05761947"></circle>
                <circle id="椭圆形备份-9" stroke="#D58D6F" stroke-width="0.534663717" cx="58.2015929" cy="58.0259735" r="1.05761947"></circle>
                <circle id="椭圆形" stroke="#814F3A" stroke-width="0.534663717" cx="32.9045841" cy="50.9348496" r="1.05761947"></circle>
                <circle id="椭圆形" stroke="#814F3A" stroke-width="0.917123894" cx="37.3067788" cy="52.4178584" r="1.81863717"></circle>
                <circle id="椭圆形备份-10" stroke="#D58D6F" stroke-width="0.917123894" cx="38.2434159" cy="48.0000531" r="1.81863717"></circle>
                <circle id="椭圆形备份-11" stroke="#D58D6F" stroke-width="0.917123894" cx="23.6084602" cy="52.8783717" r="1.81863717"></circle>
            </g>
        </g>
    </g>
</svg>